<?xml version="1.0" encoding="utf-8"?>
<!-- Generator: Adobe Illustrator 27.1.1, SVG Export Plug-In . SVG Version: 6.00 Build 0)  -->
<svg version="1.1" id="Layer_2" xmlns="http://www.w3.org/2000/svg" xmlns:xlink="http://www.w3.org/1999/xlink" x="0px" y="0px"
	 viewBox="0 0 117.6 161.5" style="enable-background:new 0 0 117.6 161.5;" xml:space="preserve">
<style type="text/css">
	.st0{fill:#26272B;}
	.st1{fill:#494949;}
	.st2{fill:#666666;}
	.st3{fill:#515151;}
</style>
<g id="_x35__00000163789662342173358050000007166437563085790341_">
	<g>
		<g>
			<g>
				<path class="st0" d="M1.3,92.4c0,0-1.2,10.6,8.8,11.9c1.1,0.1,2,1.1,2,2.3c0.1,4.8,1.5,15.7,13.1,14.1c4.7-0.7,6-6.3,12-6.3
					c6.4,0,10.2,4.2,6,8c-3,2.7-11.2,3.4-11.2,11.4c0,7,3.2,10.6,12.8,10.3c1,0,1.9,0.6,2.2,1.5c1.4,4.1,5.6,14.6,11.7,14.6l0,0
					c6.1,0,10.3-10.5,11.7-14.6c0.3-1,1.2-1.6,2.2-1.5c9.5,0.3,12.8-3.3,12.8-10.3c0-8.1-8.1-8.7-11.2-11.4c-4.2-3.8-0.4-8,6-8
					c6,0,7.3,5.7,12,6.3c11.7,1.6,13.1-9.3,13.1-14.1c0-1.2,0.9-2.2,2-2.3c10-1.3,8.8-11.9,8.8-11.9V69.2c0,0,1.2-10.6-8.8-11.9
					c-1.1-0.1-2-1.1-2-2.3c-0.1-4.8-1.5-15.7-13.1-14.1c-4.7,0.7-6,6.3-12,6.3c-6.4,0-10.2-4.2-6-8c3-2.7,11.2-3.4,11.2-11.4
					c0-7-3.2-10.6-12.8-10.3c-1,0-1.9-0.6-2.2-1.5c-1.4-4.1-5.6-14.6-11.7-14.6l0,0c-6.1,0-10.3,10.5-11.7,14.6
					c-0.3,1-1.2,1.6-2.2,1.5c-9.5-0.3-12.8,3.3-12.8,10.3c0,8.1,8.1,8.7,11.2,11.4c4.2,3.8,0.4,8-6,8c-6,0-7.3-5.7-12-6.3
					C13.6,39.2,12.2,50.2,12.1,55c0,1.2-0.9,2.2-2,2.3c-10,1.3-8.8,11.9-8.8,11.9V92.4z"/>
				<path class="st1" d="M58.8,161.5c-6.8,0-11.3-10.8-12.9-15.4c-0.1-0.4-0.5-0.7-1-0.7c-5.3,0.2-8.9-0.8-11.2-3.1
					c-1.9-1.9-2.9-4.7-2.9-8.5c0-6.6,4.8-8.9,8.4-10.5c1.3-0.6,2.5-1.2,3.2-1.8c0.8-0.7,1.7-1.8,1.2-3c-0.5-1.4-2.9-2.8-6.4-2.8
					c-2.8,0-4.4,1.5-6.1,3c-1.6,1.4-3.2,2.9-5.7,3.3c-4.1,0.6-7.4-0.3-9.9-2.5c-3.9-3.5-4.6-9.6-4.6-12.9c0-0.5-0.4-1-0.9-1.1
					c-8.8-1.1-10.3-9.1-9.9-13.2V69.1c-0.5-3.9,1-12,9.9-13.1c0.5-0.1,0.9-0.5,0.9-1.1c0-3.3,0.7-9.4,4.6-12.9
					c2.5-2.2,5.8-3,9.9-2.5c2.5,0.3,4.1,1.8,5.7,3.3c1.7,1.6,3.3,3,6.1,3c3.5,0,5.9-1.4,6.4-2.8c0.4-1.2-0.4-2.3-1.2-3
					c-0.7-0.7-1.9-1.2-3.2-1.8c-3.5-1.7-8.4-4-8.4-10.5c0-3.8,0.9-6.6,2.9-8.5c2.3-2.3,5.9-3.3,11.2-3.1c0.5,0,0.9-0.3,1-0.7
					C47.5,10.8,51.9,0,58.8,0L59,0c6.7,0.2,11.1,10.8,12.6,15.4c0.1,0.4,0.5,0.7,1,0.7c5.3-0.2,8.9,0.8,11.2,3.1
					c1.9,1.9,2.9,4.7,2.9,8.5c0,6.6-4.8,8.9-8.4,10.5c-1.3,0.6-2.5,1.2-3.2,1.8c-0.8,0.7-1.7,1.8-1.2,3c0.5,1.4,2.9,2.8,6.4,2.8
					c2.8,0,4.4-1.5,6.1-3c1.6-1.4,3.2-2.9,5.7-3.3c4.1-0.6,7.4,0.3,9.9,2.5c3.9,3.5,4.6,9.6,4.6,12.9c0,0.5,0.4,1,0.9,1.1
					c8.9,1.2,10.3,9.2,9.9,13.3l0,23c0.5,3.9-1,12-9.9,13.1c-0.5,0.1-0.9,0.5-0.9,1.1c0,3.3-0.7,9.4-4.6,12.9
					c-2.5,2.2-5.8,3-9.9,2.5c-2.5-0.3-4.1-1.8-5.7-3.3c-1.7-1.6-3.3-3-6.1-3c-3.5,0-5.9,1.4-6.4,2.8c-0.4,1.2,0.4,2.3,1.2,3
					c0.7,0.7,1.9,1.2,3.2,1.8c3.5,1.7,8.4,4,8.4,10.5c0,3.8-0.9,6.6-2.9,8.5c-2.3,2.3-6,3.3-11.2,3.1c-0.4,0-0.9,0.2-1,0.7
					c-1.6,4.6-5.9,15.2-12.6,15.4L58.8,161.5z M44.9,142.8c1.5,0,2.8,0.9,3.3,2.4c1.1,3.2,5,13.5,10.3,13.7l0.2,0
					c5.4,0,9.4-10.5,10.5-13.7c0.5-1.5,1.9-2.4,3.4-2.4c4.5,0.2,7.6-0.6,9.4-2.4c1.4-1.4,2.1-3.6,2.1-6.7c0-4.9-3.5-6.6-6.9-8.2
					c-1.5-0.7-2.8-1.3-3.8-2.2c-1.9-1.8-2.6-3.9-1.9-5.8c1-2.7,4.4-4.5,8.7-4.5c3.8,0,5.9,2,7.8,3.7c1.4,1.3,2.6,2.4,4.4,2.7
					c3.3,0.5,6-0.2,7.9-1.9c3.2-2.9,3.8-8.1,3.8-11c0-1.8,1.4-3.3,3.1-3.6c8.6-1.1,7.7-10.1,7.7-10.4l0-23.3c0-0.5,0.9-9.5-7.7-10.6
					c-1.8-0.2-3.1-1.8-3.1-3.6c0-2.9-0.6-8.1-3.8-11c-1.9-1.7-4.6-2.3-7.9-1.9c-1.8,0.2-3,1.4-4.4,2.7c-1.9,1.7-4,3.7-7.8,3.7
					c-4.3,0-7.8-1.8-8.7-4.5c-0.7-1.9,0-4.1,1.9-5.8c1-0.9,2.4-1.6,3.8-2.2c3.4-1.6,6.9-3.3,6.9-8.2c0-3.1-0.7-5.3-2.1-6.7
					c-1.8-1.8-4.8-2.5-9.4-2.4c-1.6,0.1-2.9-0.9-3.4-2.4c-1.1-3.2-5.1-13.7-10.5-13.7l-0.2,0c-5.3,0.2-9.2,10.5-10.3,13.7
					c-0.5,1.5-1.9,2.5-3.4,2.4c-4.6-0.2-7.6,0.6-9.4,2.4c-1.4,1.4-2.1,3.6-2.1,6.7c0,4.9,3.5,6.6,6.9,8.2c1.5,0.7,2.8,1.3,3.8,2.2
					c1.9,1.8,2.6,3.9,1.9,5.8c-1,2.7-4.4,4.5-8.7,4.5c-3.8,0-5.9-2-7.8-3.7c-1.4-1.3-2.6-2.4-4.4-2.7c-3.4-0.5-6,0.2-7.9,1.9
					c-3.2,2.9-3.7,8.1-3.8,11c0,1.8-1.4,3.3-3.1,3.6C1.7,59.7,2.5,68.6,2.6,69l0,23.4l0,0.1c0,0.4-0.9,9.3,7.7,10.5
					c1.8,0.2,3.1,1.8,3.1,3.6c0,2.9,0.6,8.1,3.8,11c1.9,1.7,4.6,2.3,7.9,1.9c1.8-0.2,3-1.4,4.4-2.7c1.9-1.7,4-3.7,7.8-3.7
					c4.3,0,7.8,1.8,8.7,4.5c0.7,1.9,0,4.1-1.9,5.8c-1,0.9-2.4,1.6-3.8,2.2c-3.4,1.6-6.9,3.3-6.9,8.2c0,3.1,0.7,5.3,2.1,6.7
					c1.8,1.8,4.8,2.5,9.4,2.4C44.9,142.8,44.9,142.8,44.9,142.8z"/>
			</g>
		</g>
	</g>
	<g>
		<path class="st2" d="M55.5,37.2c-12.6-5.8-7.4-16.4-7.4-16.4c5.1,0.6,7.4,7.2,7.4,7.2c-3.3-8,3.3-13,3.3-13s6.6,5,3.3,13
			c0,0,2.3-6.7,7.3-7.2c0,0,5.2,10.6-7.3,16.4H55.5z"/>
		<path class="st3" d="M62.2,37.9l-7-0.1c-4.3-2-7-4.7-8.2-8.1c-1.6-4.7,0.4-9,0.5-9.2l0.2-0.4l0.4,0c2.6,0.3,4.5,2,5.8,3.7
			c-0.1-5.8,4.4-9.3,4.5-9.3l0.4-0.3l0.4,0.3c0.1,0,4.6,3.5,4.5,9.3c1.3-1.7,3.2-3.4,5.8-3.7l0.4,0l0.2,0.4c0.1,0.2,2.2,4.4,0.5,9.2
			c-1.2,3.4-3.9,6.1-8.2,8.1L62.2,37.9z M55.6,36.6H62c3.9-1.8,6.3-4.3,7.4-7.3c1.2-3.4,0.2-6.7-0.3-7.8c-3.6,0.7-5.7,5-6.2,6.3
			c-0.1,0.1-0.1,0.3-0.2,0.4l-1.2-0.5c0,0,0.1-0.2,0.2-0.5c2.2-6.2-1.7-10.3-2.9-11.4c-1.3,1.1-5.2,5.2-2.9,11.4
			c0.1,0.3,0.2,0.5,0.2,0.5l-1.2,0.5c-0.1-0.1-0.1-0.3-0.2-0.4c-0.6-1.4-2.6-5.6-6.2-6.3c-0.4,1.1-1.5,4.4-0.3,7.8
			C49.3,32.3,51.7,34.8,55.6,36.6z"/>
	</g>
	<path class="st3" d="M51,40.6h15.5c0.4,0,0.6-0.3,0.6-0.6v-2c0-0.4-0.3-0.6-0.6-0.6H51c-0.4,0-0.6,0.3-0.6,0.6v2
		C50.4,40.3,50.7,40.6,51,40.6z"/>
	<g>
		<path class="st2" d="M55.5,124.5c-12.6,5.8-7.4,16.4-7.4,16.4c5.1-0.6,7.4-7.2,7.4-7.2c-3.3,8,3.3,13,3.3,13s6.6-5,3.3-13
			c0,0,2.3,6.7,7.3,7.2c0,0,5.2-10.6-7.3-16.4H55.5z"/>
		<path class="st3" d="M58.8,147.4l-0.4-0.3c-0.1,0-4.6-3.5-4.5-9.3c-1.3,1.7-3.2,3.4-5.8,3.7l-0.4,0.1l-0.2-0.4
			c-0.1-0.2-2.1-4.4-0.5-9.2c1.2-3.4,3.9-6.1,8.2-8.1l0.3-0.1l6.9,0.1c4.3,2,7,4.7,8.2,8.1c1.6,4.7-0.4,9-0.5,9.2l-0.2,0.4l-0.4-0.1
			c-2.6-0.3-4.5-2-5.8-3.7c0.1,5.8-4.4,9.3-4.5,9.3L58.8,147.4z M55.8,134.4c-2.2,6.2,1.7,10.3,2.9,11.4c1.3-1.1,5.2-5.2,2.9-11.4
			c-0.1-0.3-0.2-0.5-0.2-0.5l1.2-0.5c0.1,0.1,0.1,0.3,0.2,0.4c0.6,1.4,2.6,5.6,6.2,6.3c0.4-1.1,1.5-4.4,0.3-7.8
			c-1-3-3.5-5.5-7.4-7.3h-6.4c-3.9,1.8-6.3,4.3-7.4,7.3c-1.2,3.4-0.2,6.7,0.3,7.8c3.6-0.7,5.7-5,6.2-6.3c0.1-0.1,0.1-0.3,0.2-0.4
			l1.2,0.5C56,133.9,56,134.1,55.8,134.4z"/>
	</g>
	<path class="st3" d="M52,121.1h13.6c0.9,0,1.6,0.7,1.6,1.6v0c0,0.9-0.7,1.6-1.6,1.6H52c-0.9,0-1.6-0.7-1.6-1.6v0
		C50.4,121.8,51.1,121.1,52,121.1z"/>
</g>
</svg>
