<?xml version="1.0" encoding="utf-8"?>
<!-- Generator: Adobe Illustrator 27.1.1, SVG Export Plug-In . SVG Version: 6.00 Build 0)  -->
<svg version="1.1" id="Layer_2" xmlns="http://www.w3.org/2000/svg" xmlns:xlink="http://www.w3.org/1999/xlink" x="0px" y="0px"
	 viewBox="0 0 59 81" style="enable-background:new 0 0 59 81;" xml:space="preserve">
<style type="text/css">
	.st0{fill:#26272B;}
	.st1{fill:#494949;}
	.st2{fill:#666666;}
	.st3{fill:#515151;}
</style>
<g id="_x35__00000163789662342173358050000007166437563085790341_">
	<g>
		<g>
			<g>
				<path class="st0" d="M0.7,46.3c0,0-0.6,5.3,4.4,6c0.6,0.1,1,0.6,1,1.2c0,2.4,0.7,7.9,6.6,7.1c2.4-0.3,3-3.2,6-3.2
					c3.2,0,5.1,2.1,3,4c-1.5,1.4-5.6,1.7-5.6,5.7c0,3.5,1.6,5.3,6.4,5.2c0.5,0,0.9,0.3,1.1,0.8c0.7,2.1,2.8,7.3,5.9,7.3l0,0
					c3.1,0,5.2-5.3,5.9-7.3c0.2-0.5,0.6-0.8,1.1-0.8c4.8,0.2,6.4-1.7,6.4-5.2c0-4-4.1-4.4-5.6-5.7c-2.1-1.9-0.2-4,3-4
					c3,0,3.6,2.9,6,3.2c5.9,0.8,6.6-4.7,6.6-7.1c0-0.6,0.5-1.1,1-1.2c5-0.7,4.4-6,4.4-6V34.7c0,0,0.6-5.3-4.4-6
					c-0.6-0.1-1-0.6-1-1.2c0-2.4-0.7-7.9-6.6-7.1c-2.4,0.3-3,3.2-6,3.2c-3.2,0-5.1-2.1-3-4c1.5-1.4,5.6-1.7,5.6-5.7
					c0-3.5-1.6-5.3-6.4-5.2c-0.5,0-0.9-0.3-1.1-0.8c-0.7-2.1-2.8-7.3-5.9-7.3l0,0c-3.1,0-5.2,5.3-5.9,7.3c-0.2,0.5-0.6,0.8-1.1,0.8
					c-4.8-0.2-6.4,1.7-6.4,5.2c0,4,4.1,4.4,5.6,5.7c2.1,1.9,0.2,4-3,4c-3,0-3.6-2.9-6-3.2c-5.9-0.8-6.6,4.7-6.6,7.1
					c0,0.6-0.5,1.1-1,1.2c-5,0.7-4.4,6-4.4,6V46.3z"/>
				<path class="st1" d="M29.5,81c-3.4,0-5.7-5.4-6.5-7.7c-0.1-0.2-0.2-0.4-0.5-0.3c-2.6,0.1-4.5-0.4-5.6-1.6c-1-1-1.4-2.4-1.4-4.3
					c0-3.3,2.4-4.4,4.2-5.3c0.6-0.3,1.3-0.6,1.6-0.9c0.4-0.4,0.8-0.9,0.6-1.5c-0.3-0.7-1.4-1.4-3.2-1.4c-1.4,0-2.2,0.7-3.1,1.5
					c-0.8,0.7-1.6,1.5-2.9,1.6c-2.1,0.3-3.7-0.1-5-1.2c-2-1.8-2.3-4.8-2.3-6.5c0-0.3-0.2-0.5-0.5-0.5c-4.4-0.6-5.2-4.6-5-6.6V34.7
					c-0.2-2,0.5-6,5-6.6c0.3,0,0.5-0.3,0.5-0.5c0-1.7,0.3-4.7,2.3-6.5c1.2-1.1,2.9-1.5,5-1.2c1.3,0.2,2.1,0.9,2.9,1.6
					c0.9,0.8,1.7,1.5,3.1,1.5c1.8,0,3-0.7,3.2-1.4c0.2-0.6-0.2-1.1-0.6-1.5c-0.4-0.3-1-0.6-1.6-0.9c-1.8-0.8-4.2-2-4.2-5.3
					c0-1.9,0.5-3.3,1.4-4.3c1.1-1.1,3-1.6,5.6-1.6C22.8,8.1,23,8,23,7.7c0.8-2.3,3-7.7,6.5-7.7l0.1,0C33,0.1,35.2,5.4,36,7.8
					c0.1,0.2,0.2,0.3,0.5,0.3C39.1,8,41,8.5,42.1,9.6c1,1,1.4,2.4,1.4,4.3c0,3.3-2.4,4.4-4.2,5.3c-0.6,0.3-1.3,0.6-1.6,0.9
					c-0.4,0.4-0.8,0.9-0.6,1.5c0.3,0.7,1.4,1.4,3.2,1.4c1.4,0,2.2-0.7,3.1-1.5c0.8-0.7,1.6-1.5,2.9-1.6c2.1-0.3,3.7,0.1,5,1.2
					c2,1.8,2.3,4.8,2.3,6.5c0,0.3,0.2,0.5,0.5,0.5c4.4,0.6,5.2,4.6,4.9,6.7l0,11.6c0.2,2-0.5,6-5,6.6c-0.3,0-0.5,0.3-0.5,0.5
					c0,1.7-0.4,4.7-2.3,6.5c-1.2,1.1-2.9,1.5-5,1.2c-1.3-0.2-2.1-0.9-2.9-1.6c-0.9-0.8-1.7-1.5-3.1-1.5c-1.8,0-3,0.7-3.2,1.4
					c-0.2,0.6,0.2,1.1,0.6,1.5c0.4,0.3,1,0.6,1.6,0.9c1.8,0.8,4.2,2,4.2,5.3c0,1.9-0.5,3.3-1.4,4.3c-1.1,1.1-3,1.6-5.6,1.6
					c-0.2,0-0.4,0.1-0.5,0.3c-0.8,2.3-3,7.6-6.3,7.7L29.5,81z M22.6,71.6c0.8,0,1.4,0.5,1.7,1.2c0.5,1.6,2.5,6.8,5.2,6.9l0.1,0
					c2.7,0,4.7-5.3,5.3-6.9c0.3-0.7,1-1.2,1.7-1.2c2.3,0.1,3.8-0.3,4.7-1.2c0.7-0.7,1.1-1.8,1.1-3.3c0-2.5-1.8-3.3-3.5-4.1
					c-0.7-0.3-1.4-0.7-1.9-1.1c-1-0.9-1.3-1.9-1-2.9c0.5-1.4,2.2-2.2,4.4-2.2c1.9,0,3,1,3.9,1.9c0.7,0.6,1.3,1.2,2.2,1.3
					c1.7,0.2,3-0.1,4-0.9c1.6-1.4,1.9-4.1,1.9-5.5c0-0.9,0.7-1.7,1.6-1.8c4.3-0.6,3.9-5.1,3.9-5.2l0-11.7c0-0.3,0.5-4.8-3.9-5.3
					c-0.9-0.1-1.6-0.9-1.6-1.8c0-1.4-0.3-4.1-1.9-5.5c-1-0.9-2.3-1.2-4-0.9c-0.9,0.1-1.5,0.7-2.2,1.3c-0.9,0.9-2,1.9-3.9,1.9
					c-2.2,0-3.9-0.9-4.4-2.2c-0.4-1,0-2,1-2.9c0.5-0.5,1.2-0.8,1.9-1.1c1.7-0.8,3.5-1.6,3.5-4.1c0-1.5-0.3-2.6-1.1-3.3
					c-0.9-0.9-2.4-1.3-4.7-1.2c-0.8,0.1-1.5-0.5-1.7-1.2c-0.6-1.6-2.6-6.9-5.3-6.9l-0.1,0c-2.7,0.1-4.6,5.3-5.2,6.9
					c-0.3,0.7-0.9,1.3-1.7,1.2c-2.3-0.1-3.8,0.3-4.7,1.2c-0.7,0.7-1.1,1.8-1.1,3.3c0,2.5,1.8,3.3,3.5,4.1c0.7,0.3,1.4,0.7,1.9,1.1
					c1,0.9,1.3,1.9,1,2.9c-0.5,1.4-2.2,2.2-4.4,2.2c-1.9,0-3-1-3.9-1.9c-0.7-0.6-1.3-1.2-2.2-1.3c-1.7-0.2-3,0.1-4,0.9
					c-1.6,1.4-1.9,4.1-1.9,5.5c0,0.9-0.7,1.7-1.6,1.8c-4.3,0.6-3.9,5.1-3.9,5.2l0,11.7l0,0c0,0.2-0.5,4.7,3.9,5.2
					c0.9,0.1,1.6,0.9,1.6,1.8c0,1.4,0.3,4.1,1.9,5.5c1,0.9,2.3,1.2,4,0.9c0.9-0.1,1.5-0.7,2.2-1.3c0.9-0.9,2-1.9,3.9-1.9
					c2.2,0,3.9,0.9,4.4,2.2c0.4,1,0,2-1,2.9c-0.5,0.5-1.2,0.8-1.9,1.1c-1.7,0.8-3.5,1.6-3.5,4.1c0,1.5,0.3,2.6,1.1,3.3
					C18.7,71.3,20.2,71.7,22.6,71.6C22.5,71.6,22.5,71.6,22.6,71.6z"/>
			</g>
		</g>
	</g>
	<g>
		<path class="st2" d="M27.9,18.7c-6.3-2.9-3.7-8.2-3.7-8.2c2.5,0.3,3.7,3.6,3.7,3.6c-1.6-4,1.7-6.5,1.7-6.5s3.3,2.5,1.7,6.5
			c0,0,1.2-3.3,3.7-3.6c0,0,2.6,5.3-3.7,8.2H27.9z"/>
		<path class="st3" d="M31.2,19l-3.5,0c-2.1-1-3.5-2.4-4.1-4.1c-0.8-2.4,0.2-4.5,0.3-4.6l0.1-0.2l0.2,0c1.3,0.1,2.3,1,2.9,1.9
			c-0.1-2.9,2.2-4.7,2.2-4.7l0.2-0.1l0.2,0.1c0,0,2.3,1.8,2.2,4.7c0.6-0.9,1.6-1.7,2.9-1.9l0.2,0l0.1,0.2c0,0.1,1.1,2.2,0.3,4.6
			C34.8,16.6,33.4,18,31.2,19L31.2,19z M27.9,18.3h3.2c1.9-0.9,3.2-2.1,3.7-3.7c0.6-1.7,0.1-3.3-0.1-3.9c-1.8,0.4-2.8,2.5-3.1,3.2
			c0,0.1-0.1,0.1-0.1,0.2L30.9,14c0,0,0-0.1,0.1-0.3c1.1-3.1-0.8-5.2-1.5-5.7c-0.6,0.6-2.6,2.6-1.5,5.7c0.1,0.1,0.1,0.2,0.1,0.3
			l-0.6,0.2c0-0.1-0.1-0.1-0.1-0.2c-0.3-0.7-1.3-2.8-3.1-3.2c-0.2,0.6-0.7,2.2-0.1,3.9C24.7,16.2,26,17.4,27.9,18.3z"/>
	</g>
	<path class="st3" d="M25.9,20.4h7.1c0.4,0,0.6-0.3,0.6-0.6v-0.4c0-0.4-0.3-0.6-0.6-0.6h-7.1c-0.4,0-0.6,0.3-0.6,0.6v0.4
		C25.3,20.1,25.6,20.4,25.9,20.4z"/>
	<g>
		<path class="st2" d="M27.9,62.4c-6.3,2.9-3.7,8.2-3.7,8.2c2.5-0.3,3.7-3.6,3.7-3.6c-1.6,4,1.7,6.5,1.7,6.5s3.3-2.5,1.7-6.5
			c0,0,1.2,3.3,3.7,3.6c0,0,2.6-5.3-3.7-8.2H27.9z"/>
		<path class="st3" d="M29.5,73.9l-0.2-0.1c0,0-2.3-1.8-2.2-4.7c-0.6,0.9-1.6,1.7-2.9,1.9L24,71l-0.1-0.2c0-0.1-1.1-2.2-0.3-4.6
			c0.6-1.7,2-3.1,4.1-4.1l0.1,0l3.5,0c2.1,1,3.5,2.4,4.1,4.1c0.8,2.4-0.2,4.5-0.3,4.6L35,71l-0.2,0c-1.3-0.1-2.2-1-2.9-1.9
			c0.1,2.9-2.2,4.7-2.2,4.7L29.5,73.9z M28,67.4c-1.1,3.1,0.8,5.2,1.5,5.7c0.6-0.6,2.6-2.6,1.5-5.7c-0.1-0.1-0.1-0.2-0.1-0.3
			l0.6-0.2c0,0.1,0.1,0.1,0.1,0.2c0.3,0.7,1.3,2.8,3.1,3.2c0.2-0.6,0.7-2.2,0.1-3.9c-0.5-1.5-1.8-2.7-3.7-3.7h-3.2
			c-1.9,0.9-3.2,2.1-3.7,3.7c-0.6,1.7-0.1,3.3,0.1,3.9c1.8-0.4,2.8-2.5,3.1-3.2c0-0.1,0.1-0.1,0.1-0.2l0.6,0.2
			C28.1,67.1,28.1,67.2,28,67.4z"/>
	</g>
	<path class="st3" d="M26.1,60.7h6.8c0.4,0,0.8,0.4,0.8,0.8v0c0,0.5-0.4,0.8-0.8,0.8h-6.8c-0.4,0-0.8-0.4-0.8-0.8v0
		C25.3,61.1,25.7,60.7,26.1,60.7z"/>
</g>
</svg>
