<?xml version="1.0" encoding="utf-8"?>
<!-- Generator: Adobe Illustrator 27.1.1, SVG Export Plug-In . SVG Version: 6.00 Build 0)  -->
<svg version="1.1" id="Layer_2_00000102506960133933247160000001968076077544608670_"
	 xmlns="http://www.w3.org/2000/svg" xmlns:xlink="http://www.w3.org/1999/xlink" x="0px" y="0px" viewBox="0 0 2162 200"
	 style="enable-background:new 0 0 2162 200;" xml:space="preserve">
<style type="text/css">
	.st0{fill:#FAF1E6;stroke:#876844;stroke-width:0.4381;stroke-linecap:round;stroke-linejoin:round;}
	.st1{fill:#876844;}
	.st2{fill:#B3916C;stroke:#876844;stroke-miterlimit:10;}
</style>
<g>
	<g>
		<path class="st0" d="M116.3,198.5c-3,0-14.3-3.9-15.4-22.8c0-0.4-0.2-0.8-0.5-1.1c-0.3-0.2-0.6-0.4-1-0.4c-0.1,0-0.1,0-0.2,0
			c0,0-1,0.1-2.6,0.1c-8.3,0-27.6-2.6-27.6-26.2c0-3.2,2.8-5.2,6.1-7.6c2.6-1.9,5.4-3.9,7.1-6.8c1.7-2.9,1.8-6.2,0.1-9.2
			c-2-3.6-6-6-10.1-6c-2.7,0-5.2,1.1-7.2,3.1c-1.8,1.9-3.3,4.9-4.8,8.2c-2.9,6.1-6.1,13-12.5,13c-5.6,0-10.9-2.4-14.7-6.5
			c-4.2-4.7-6.1-11.3-5.4-19.1c0.1-0.8-0.4-1.5-1.2-1.6c-5.3-1.2-10.2-3.6-14.6-6.9c-4.1-3.1-7.6-7-10.2-11.5
			c2.7-4.5,6.1-8.4,10.2-11.5c4.4-3.3,9.2-5.6,14.6-6.9c0.7-0.2,1.2-0.9,1.2-1.6c-0.6-7.8,1.2-14.4,5.4-19.1
			c3.7-4.1,9.1-6.5,14.7-6.5c6.4,0,9.7,6.9,12.5,13c1.5,3.2,2.9,6.3,4.8,8.2c2,2,4.5,3.1,7.2,3.1c4.1,0,8.1-2.4,10.1-6
			c1.6-3,1.6-6.3-0.1-9.2c-1.7-2.9-4.5-4.9-7.1-6.8c-3.3-2.4-6.1-4.4-6.1-7.6C69.1,22.6,88.3,20,96.6,20c1.6,0,2.6,0.1,2.6,0.1
			c0.1,0,0.1,0,0.2,0c0.7,0,1.4-0.5,1.5-1.3c2.6-15.7,10.9-17.4,14.4-17.4c0.6,0,1,0.1,1.1,0.1c0.1,0,0.2,0,0.3,0h1928.8
			c0.1,0,0.2,0,0.3,0c0,0,0.4-0.1,1.1-0.1c3.4,0,11.7,1.7,14.4,17.4c0.1,0.7,0.8,1.3,1.5,1.3c0.1,0,0.1,0,0.2,0c0,0,1-0.1,2.6-0.1
			c8.3,0,27.6,2.6,27.6,26.2c0,3.2-2.8,5.2-6.1,7.6c-2.7,1.9-5.4,3.9-7.1,6.8c-1.7,2.9-1.8,6.2-0.1,9.2c2,3.6,6,6,10.1,6
			c2.7,0,5.2-1.1,7.2-3.1c1.8-1.9,3.3-4.9,4.8-8.2c2.9-6.1,6.1-13,12.5-13c5.6,0,10.9,2.4,14.7,6.5c4.2,4.7,6.1,11.3,5.4,19.1
			c-0.1,0.8,0.4,1.5,1.2,1.6c5.3,1.2,10.2,3.6,14.6,6.9c4.1,3.1,7.6,7,10.2,11.5c-2.7,4.5-6.1,8.3-10.2,11.5
			c-4.4,3.3-9.2,5.6-14.5,6.9c-0.7,0.2-1.2,0.9-1.2,1.6c0.6,7.8-1.2,14.4-5.4,19.1c-3.7,4.1-9.1,6.5-14.7,6.5
			c-6.4,0-9.7-6.9-12.5-13c-1.5-3.2-3-6.3-4.8-8.2c-2-2-4.5-3.1-7.2-3.1c-4.1,0-8.1,2.4-10.1,6c-1.6,3-1.6,6.3,0.1,9.2
			c1.7,2.9,4.5,4.9,7.1,6.8c3.3,2.4,6.1,4.4,6.1,7.6c0,23.6-19.3,26.2-27.6,26.2c-1.6,0-2.6-0.1-2.6-0.1c-0.1,0-0.1,0-0.2,0
			c-0.4,0-0.7,0.1-1,0.4c-0.3,0.3-0.5,0.7-0.5,1.1c-1.1,19-12.4,22.8-15.4,22.8L116.3,198.5L116.3,198.5z"/>
		<path class="st1" d="M2046.8,3.1c3.1,0,10.5,1.6,12.9,16.1c0.2,1.5,1.5,2.6,3,2.6c0.1,0,0.2,0,0.3,0c0,0,0.9-0.1,2.5-0.1
			c9.7,0,26.1,3.2,26.1,24.7c0,2.3-2.1,3.9-5.5,6.3c-2.6,1.9-5.6,4.1-7.5,7.3c-2,3.4-2.1,7.3-0.2,10.8c2.2,4.1,6.8,6.8,11.4,6.8
			c3.1,0,6-1.2,8.3-3.5c2-2.1,3.5-5.2,5.1-8.6c3.3-7.1,6.1-12.2,11.2-12.2c5.2,0,10.1,2.2,13.6,6c3.9,4.3,5.6,10.5,5,17.9
			c-0.1,1.5,0.9,2.9,2.3,3.3c5.1,1.2,9.8,3.4,14,6.6c3.7,2.8,6.9,6.3,9.3,10.2c-2.5,4-5.6,7.4-9.3,10.2c-4.2,3.2-8.9,5.4-14,6.6
			c-1.5,0.3-2.4,1.7-2.3,3.3c0.6,7.4-1.1,13.6-5,17.9c-3.4,3.8-8.4,6-13.6,6c-5.1,0-7.8-5-11.2-12.1c-1.6-3.4-3.1-6.5-5.1-8.6
			c-2.3-2.3-5.1-3.5-8.3-3.5c-4.6,0-9.2,2.7-11.4,6.8c-1.9,3.4-1.8,7.4,0.2,10.8c1.9,3.2,4.9,5.3,7.5,7.3c3.4,2.4,5.5,4.1,5.5,6.3
			c0,21.5-16.3,24.7-26.1,24.7c-1.5,0-2.4-0.1-2.4-0.1c-0.1,0-0.2,0-0.3,0c-0.7,0-1.4,0.2-1.9,0.7c-0.6,0.5-1,1.3-1.1,2.2
			c-1.2,20-13.8,21.4-13.9,21.4H116.3c-0.1,0-12.7-1.4-13.9-21.4c0-0.8-0.4-1.6-1.1-2.2c-0.5-0.5-1.2-0.7-1.9-0.7
			c-0.1,0-0.2,0-0.3,0c0,0-0.9,0.1-2.5,0.1c-9.7,0-26.1-3.2-26.1-24.7c0-2.3,2.1-3.9,5.5-6.4c2.6-1.9,5.6-4.1,7.5-7.2
			c2-3.4,2.1-7.3,0.2-10.8c-2.2-4.1-6.8-6.8-11.4-6.8c-3.1,0-6,1.2-8.3,3.5c-2,2-3.5,5.2-5.1,8.6c-3.3,7.1-6.1,12.2-11.2,12.2
			c-5.2,0-10.1-2.2-13.5-6c-3.9-4.3-5.6-10.6-5-17.9c0.1-1.5-0.9-2.9-2.3-3.3c-5.1-1.2-9.8-3.4-14-6.6c-3.7-2.8-6.9-6.3-9.3-10.2
			c2.5-4,5.6-7.4,9.3-10.2c4.2-3.2,8.9-5.4,14-6.6c1.5-0.3,2.4-1.7,2.3-3.3c-0.6-7.4,1.1-13.6,5-17.9c3.4-3.8,8.4-6,13.5-6
			c5.1,0,7.8,5,11.2,12.1c1.6,3.4,3.1,6.5,5.1,8.6c2.3,2.3,5.1,3.5,8.3,3.5c4.6,0,9.2-2.7,11.4-6.8c1.9-3.4,1.8-7.4-0.2-10.8
			c-1.9-3.2-4.9-5.4-7.5-7.3c-3.4-2.4-5.5-4.1-5.5-6.3c0-21.5,16.3-24.7,26.1-24.7c1.5,0,2.4,0.1,2.4,0.1c0.1,0,0.2,0,0.3,0
			c1.4,0,2.7-1.1,3-2.6C104.8,4.6,112.2,3,115.2,3c0.5,0,0.8,0,0.8,0l0,0c0.2,0,0.4,0,0.5,0h1928.8c0.2,0,0.3,0,0.5,0
			C2045.9,3.1,2046.3,3.1,2046.8,3.1 M2046.8,0c-0.8,0-1.3,0.1-1.3,0.1H116.6c0,0-0.5-0.1-1.3-0.1c-3.5,0-13,1.6-15.9,18.6
			c0,0-1-0.1-2.8-0.1c-7.7,0-29.1,2.3-29.1,27.7c0,6.9,9.7,8.9,13.4,15.2c3.7,6.2-2.4,12.9-8.7,12.9c-2.2,0-4.3-0.8-6.1-2.6
			c-5-5.2-7.4-21.6-18.4-21.6s-23.1,8.7-21.6,27.3c-5.5,1.3-10.6,3.7-15.1,7.2c-4.5,3.4-8.2,7.7-11,12.7c2.8,5,6.6,9.3,11.1,12.7
			c4.5,3.4,9.6,5.8,15.1,7.1c-1.5,18.5,10.6,27.3,21.6,27.3s13.4-16.5,18.4-21.6c1.8-1.8,4-2.6,6.1-2.6c6.3,0,12.4,6.6,8.7,12.9
			c-3.7,6.2-13.4,8.3-13.4,15.2c0,25.4,21.3,27.7,29.1,27.7c1.7,0,2.8-0.1,2.8-0.1c1.3,21.2,14.6,24.3,16.9,24.3h1929.4
			c2.3,0,15.7-3,16.9-24.3c0,0,1,0.1,2.8,0.1c7.7,0,29.1-2.3,29.1-27.7c0-6.9-9.7-8.9-13.4-15.2c-3.7-6.2,2.4-12.9,8.7-12.9
			c2.2,0,4.3,0.8,6.1,2.6c5,5.1,7.4,21.6,18.4,21.6s23.1-8.7,21.6-27.3c5.4-1.3,10.6-3.7,15.1-7.1c4.5-3.4,8.3-7.7,11.1-12.7
			c-2.8-5-6.6-9.3-11.1-12.7c-4.5-3.4-9.6-5.8-15.1-7.1c1.5-18.5-10.6-27.3-21.6-27.3s-13.4,16.5-18.4,21.6c-1.8,1.8-4,2.6-6.1,2.6
			c-6.3,0-12.4-6.6-8.7-12.9c3.7-6.3,13.4-8.3,13.4-15.2c0-25.4-21.3-27.7-29.1-27.7c-1.7,0-2.8,0.1-2.8,0.1
			C2059.8,1.6,2050.3,0,2046.8,0L2046.8,0z"/>
	</g>
	<path class="st1" d="M2096,107c0,2.8,0,4.3,3.3,4.3s2.8-1.6,2.8-4.3V88.3c0-2.8,0.6-4.3-2.8-4.3c-3.3,0-3.3,1.6-3.3,4.3V107z"/>
	<path class="st2" d="M2101.4,102c0.8,2.2,2.1,4.2,3.7,5.8c1.6,1.7,3.5,3,5.6,3.9c2.1,0.9,4.4,1.4,6.7,1.4c2.3,0,4.5-0.5,6.6-1.4
		c-0.8-6.7-10-9.7-10-9.7c3.1,1.2,6.4,1.5,9.6,0.7c3.2-0.8,6.1-2.6,8.2-5.1c-2.2-2.5-5.1-4.3-8.2-5.1c-3.2-0.8-6.6-0.5-9.6,0.7
		c0,0,9.2-3,10-9.6c-2.1-0.9-4.4-1.4-6.6-1.4c-2.3,0-4.6,0.5-6.7,1.4c-2.1,0.9-4,2.2-5.6,3.9c-1.6,1.7-2.8,3.7-3.7,5.8V102z"/>
	<path class="st1" d="M68.4,107c0,2.8,0,4.3-3.3,4.3s-2.8-1.6-2.8-4.3V88.3c0-2.8-0.6-4.3,2.8-4.3c3.3,0,3.3,1.6,3.3,4.3V107z"/>
	<path class="st2" d="M62.9,102c-0.8,2.2-2.1,4.2-3.7,5.8c-1.6,1.7-3.5,3-5.6,3.9c-2.1,0.9-4.4,1.4-6.7,1.4c-2.3,0-4.5-0.5-6.6-1.4
		c0.8-6.7,10-9.7,10-9.7c-3.1,1.2-6.4,1.5-9.6,0.7c-3.2-0.8-6.1-2.6-8.2-5.1c2.2-2.5,5.1-4.3,8.2-5.1c3.2-0.8,6.6-0.5,9.6,0.7
		c0,0-9.2-3-10-9.6c2.1-0.9,4.4-1.4,6.6-1.4c2.3,0,4.5,0.5,6.7,1.4c2.1,0.9,4,2.2,5.6,3.9c1.6,1.7,2.8,3.7,3.7,5.8L62.9,102
		L62.9,102z"/>
</g>
</svg>
