<?xml version="1.0" encoding="utf-8"?>
<!-- Generator: Adobe Illustrator 27.1.1, SVG Export Plug-In . SVG Version: 6.00 Build 0)  -->
<svg version="1.1" id="Layer_2_00000102506960133933247160000001968076077544608670_"
	 xmlns="http://www.w3.org/2000/svg" xmlns:xlink="http://www.w3.org/1999/xlink" x="0px" y="0px" viewBox="0 0 1080 98"
	 style="enable-background:new 0 0 1080 98;" xml:space="preserve">
<style type="text/css">
	.st0{fill:#FAF1E6;stroke:#876844;stroke-width:0.4381;stroke-linecap:round;stroke-linejoin:round;}
	.st1{fill:#876844;}
	.st2{fill:#B3916C;stroke:#876844;stroke-miterlimit:10;}
</style>
<g>
	<g>
		<path class="st0" d="M58,97.1c-1.5,0-7.1-1.9-7.7-11.2c0-0.2-0.1-0.4-0.3-0.5c-0.1-0.1-0.3-0.2-0.5-0.2c0,0,0,0-0.1,0
			c0,0-0.5,0.1-1.3,0.1c-4.1,0-13.8-1.2-13.8-12.8c0-1.6,1.4-2.6,3.1-3.7c1.3-0.9,2.7-1.9,3.5-3.3c0.9-1.4,0.9-3,0.1-4.5
			c-1-1.8-3-2.9-5.1-2.9c-1.4,0-2.6,0.5-3.6,1.5c-0.9,0.9-1.6,2.4-2.4,4c-1.4,3-3.1,6.4-6.3,6.4c-2.8,0-5.5-1.2-7.3-3.2
			c-2.1-2.3-3-5.5-2.7-9.3c0-0.4-0.2-0.7-0.6-0.8c-2.6-0.6-5.1-1.7-7.3-3.3c-2.1-1.5-3.8-3.4-5.1-5.6c1.3-2.2,3-4.1,5.1-5.6
			c2.2-1.6,4.6-2.7,7.3-3.4c0.4-0.1,0.6-0.4,0.6-0.8c-0.3-3.8,0.6-7,2.7-9.3c1.9-2,4.5-3.2,7.3-3.2c3.2,0,4.8,3.4,6.3,6.4
			c0.8,1.6,1.5,3.1,2.4,4c1,1,2.2,1.5,3.6,1.5c2,0,4.1-1.2,5.1-2.9c0.8-1.4,0.8-3.1-0.1-4.5c-0.9-1.4-2.2-2.4-3.6-3.3
			c-1.6-1.1-3-2.1-3-3.7C34.4,11.2,44,10,48.2,10c0.8,0,1.3,0.1,1.3,0.1c0,0,0,0,0.1,0c0.4,0,0.7-0.3,0.7-0.6
			c1.3-7.6,5.5-8.5,7.2-8.5c0.3,0,0.5,0,0.5,0c0,0,0.1,0,0.1,0h963.7c0,0,0.1,0,0.1,0c0,0,0.2,0,0.5,0c1.7,0,5.9,0.8,7.2,8.5
			c0.1,0.4,0.4,0.6,0.7,0.6c0,0,0.1,0,0.1,0c0,0,0.5-0.1,1.3-0.1c4.1,0,13.8,1.2,13.8,12.8c0,1.6-1.4,2.6-3.1,3.7
			c-1.3,0.9-2.7,1.9-3.6,3.3c-0.9,1.4-0.9,3-0.1,4.5c1,1.8,3,2.9,5.1,2.9c1.4,0,2.6-0.5,3.6-1.5c0.9-0.9,1.6-2.4,2.4-4
			c1.4-3,3.1-6.4,6.3-6.4c2.8,0,5.5,1.2,7.3,3.2c2.1,2.3,3,5.5,2.7,9.3c0,0.4,0.2,0.7,0.6,0.8c2.6,0.6,5.1,1.7,7.3,3.4
			c2.1,1.5,3.8,3.4,5.1,5.6c-1.3,2.2-3,4.1-5.1,5.6c-2.2,1.6-4.6,2.7-7.3,3.4c-0.4,0.1-0.6,0.4-0.6,0.8c0.3,3.8-0.6,7-2.7,9.3
			c-1.9,2-4.5,3.2-7.3,3.2c-3.2,0-4.8-3.4-6.3-6.4c-0.8-1.6-1.5-3.1-2.4-4c-1-1-2.2-1.5-3.6-1.5c-2,0-4.1,1.2-5.1,2.9
			c-0.8,1.4-0.8,3.1,0.1,4.5s2.2,2.4,3.6,3.3c1.6,1.2,3.1,2.2,3.1,3.7c0,11.5-9.6,12.8-13.8,12.8c-0.8,0-1.3-0.1-1.3-0.1
			c0,0-0.1,0-0.1,0c-0.2,0-0.3,0.1-0.5,0.2c-0.2,0.1-0.2,0.3-0.3,0.5c-0.6,9.3-6.2,11.2-7.7,11.2L58,97.1L58,97.1z"/>
		<path class="st1" d="M1022.5,1.7c1.5,0,5.2,0.8,6.4,7.8c0.1,0.7,0.8,1.2,1.5,1.2c0.1,0,0.1,0,0.2,0c0,0,0.5-0.1,1.2-0.1
			c4.9,0,13,1.6,13,12c0,1.1-1,1.9-2.7,3.1c-1.3,0.9-2.8,2-3.8,3.5c-1,1.6-1,3.6-0.1,5.2c1.1,2,3.4,3.3,5.7,3.3c1.6,0,3-0.6,4.1-1.7
			c1-1,1.8-2.5,2.5-4.2c1.7-3.5,3.1-5.9,5.6-5.9c2.6,0,5.1,1.1,6.8,2.9c1.9,2.1,2.8,5.1,2.5,8.7c-0.1,0.7,0.4,1.4,1.2,1.6
			c2.5,0.6,4.9,1.7,7,3.2c1.9,1.4,3.4,3.1,4.7,5c-1.2,1.9-2.8,3.6-4.7,5c-2.1,1.5-4.4,2.6-7,3.2c-0.7,0.2-1.2,0.8-1.2,1.6
			c0.3,3.6-0.6,6.6-2.5,8.8c-1.7,1.9-4.2,2.9-6.8,2.9c-2.5,0-3.9-2.5-5.6-5.9c-0.8-1.6-1.5-3.2-2.5-4.2c-1.1-1.1-2.6-1.7-4.1-1.7
			c-2.3,0-4.6,1.3-5.7,3.3c-0.9,1.7-0.9,3.6,0.1,5.3c0.9,1.6,2.4,2.6,3.8,3.5c1.7,1.2,2.7,2,2.7,3.1c0,10.5-8.2,12-13,12
			c-0.8,0-1.2-0.1-1.2-0.1c-0.1,0-0.1,0-0.2,0c-0.3,0-0.7,0.1-1,0.3c-0.3,0.3-0.5,0.7-0.5,1.1c-0.6,9.8-6.9,10.4-7,10.4H58
			c-0.1,0-6.4-0.7-7-10.4c0-0.4-0.2-0.8-0.5-1.1c-0.3-0.2-0.6-0.4-1-0.4c0,0-0.1,0-0.2,0c0,0-0.5,0.1-1.2,0.1c-4.9,0-13-1.6-13-12
			c0-1.1,1-1.9,2.7-3.1c1.3-0.9,2.8-2,3.8-3.5c1-1.7,1-3.6,0.1-5.2c-1.1-2-3.4-3.3-5.7-3.3c-1.6,0-3,0.6-4.1,1.7
			c-1,1-1.8,2.5-2.5,4.2c-1.7,3.5-3,5.9-5.6,5.9c-2.6,0-5.1-1.1-6.8-2.9c-1.9-2.1-2.8-5.2-2.5-8.8c0.1-0.7-0.4-1.4-1.2-1.6
			c-2.5-0.6-4.9-1.7-7-3.2c-1.9-1.4-3.4-3.1-4.7-5c1.2-1.9,2.8-3.6,4.7-5c2.1-1.5,4.4-2.6,7-3.2c0.7-0.2,1.2-0.8,1.2-1.6
			C14.2,34.2,15,31.2,17,29c1.7-1.9,4.2-2.9,6.8-2.9c2.5,0,3.9,2.5,5.6,5.9c0.8,1.6,1.5,3.2,2.5,4.2c1.1,1.1,2.6,1.7,4.1,1.7
			c2.3,0,4.6-1.3,5.7-3.3c1-1.7,0.9-3.6-0.1-5.2c-0.9-1.6-2.4-2.6-3.8-3.5c-1.7-1.2-2.7-2-2.7-3.1c0-10.5,8.2-12,13-12
			c0.8,0,1.2,0.1,1.2,0.1c0,0,0.1,0,0.2,0c0.7,0,1.3-0.5,1.5-1.2c1.2-7.1,4.9-7.8,6.5-7.8c0.2,0,0.4,0,0.4,0l0,0c0.1,0,0.2,0,0.3,0
			h963.7c0.1,0,0.2,0,0.2,0C1022.1,1.7,1022.3,1.7,1022.5,1.7 M1022.5,0.2c-0.4,0-0.7,0-0.7,0H58.1c0,0-0.2,0-0.7,0
			c-1.8,0-6.5,0.8-7.9,9.1c0,0-0.5-0.1-1.4-0.1c-3.9,0-14.5,1.1-14.5,13.5c0,3.4,4.9,4.3,6.7,7.4c1.8,3-1.2,6.3-4.3,6.3
			c-1.1,0-2.2-0.4-3.1-1.3c-2.5-2.5-3.7-10.6-9.2-10.6S12.2,28.9,13,37.9c-2.7,0.6-5.3,1.8-7.6,3.5c-2.2,1.7-4.1,3.8-5.5,6.2
			c1.4,2.4,3.3,4.5,5.5,6.2c2.2,1.7,4.8,2.8,7.5,3.5c-0.8,9,5.3,13.3,10.8,13.3s6.7-8,9.2-10.6c0.9-0.9,2-1.3,3.1-1.3
			c3.1,0,6.2,3.2,4.3,6.3c-1.8,3.1-6.7,4-6.7,7.4C33.6,84.9,44.3,86,48.2,86c0.9,0,1.4-0.1,1.4-0.1c0.6,10.4,7.3,11.8,8.5,11.8h964
			c1.2,0,7.8-1.5,8.4-11.8c0,0,0.5,0.1,1.4,0.1c3.9,0,14.5-1.1,14.5-13.5c0-3.4-4.9-4.3-6.7-7.4c-1.8-3,1.2-6.3,4.3-6.3
			c1.1,0,2.2,0.4,3.1,1.3c2.5,2.5,3.7,10.6,9.2,10.6s11.5-4.3,10.8-13.3c2.7-0.6,5.3-1.8,7.5-3.5c2.2-1.7,4.1-3.8,5.5-6.2
			c-1.4-2.4-3.3-4.5-5.5-6.2s-4.8-2.8-7.6-3.5c0.8-9-5.3-13.3-10.8-13.3s-6.7,8-9.2,10.6c-0.9,0.9-2,1.3-3.1,1.3
			c-3.1,0-6.2-3.2-4.3-6.3c1.8-3.1,6.7-4.1,6.7-7.4c0-12.4-10.7-13.5-14.5-13.5c-0.9,0-1.4,0.1-1.4,0.1
			C1029,1,1024.3,0.2,1022.5,0.2L1022.5,0.2z"/>
	</g>
	<path class="st1" d="M1047.1,52.4c0,1.3,0,2.1,1.7,2.1s1.4-0.8,1.4-2.1v-9.1c0-1.3,0.3-2.1-1.4-2.1c-1.7,0-1.7,0.8-1.7,2.1V52.4z"
		/>
	<path class="st2" d="M1049.8,50c0.4,1.1,1,2,1.8,2.8c0.8,0.8,1.8,1.5,2.8,1.9c1.1,0.4,2.2,0.7,3.3,0.7c1.1,0,2.3-0.2,3.3-0.7
		c-0.4-3.2-5-4.7-5-4.7c1.5,0.6,3.2,0.7,4.8,0.3c1.6-0.4,3-1.2,4.1-2.5c-1.1-1.2-2.5-2.1-4.1-2.5c-1.6-0.4-3.3-0.3-4.8,0.3
		c0,0,4.6-1.5,5-4.7c-1.1-0.5-2.2-0.7-3.3-0.7c-1.1,0-2.3,0.2-3.3,0.7c-1.1,0.4-2,1.1-2.8,1.9s-1.4,1.8-1.8,2.8V50z"/>
	<path class="st1" d="M34.1,52.4c0,1.3,0,2.1-1.7,2.1S31,53.8,31,52.4v-9.1c0-1.3-0.3-2.1,1.4-2.1c1.7,0,1.7,0.8,1.7,2.1V52.4z"/>
	<path class="st2" d="M31.3,50c-0.4,1.1-1,2-1.8,2.8c-0.8,0.8-1.8,1.5-2.8,1.9s-2.2,0.7-3.3,0.7c-1.1,0-2.3-0.2-3.3-0.7
		c0.4-3.2,5-4.7,5-4.7c-1.5,0.6-3.2,0.7-4.8,0.3c-1.6-0.4-3-1.2-4.1-2.5c1.1-1.2,2.5-2.1,4.1-2.5c1.6-0.4,3.3-0.3,4.8,0.3
		c0,0-4.6-1.5-5-4.7c1-0.5,2.2-0.7,3.3-0.7c1.1,0,2.3,0.2,3.3,0.7c1,0.4,2,1.1,2.8,1.9s1.4,1.8,1.8,2.8L31.3,50L31.3,50z"/>
</g>
</svg>
