<?xml version="1.0" encoding="utf-8"?>
<!-- Generator: Adobe Illustrator 27.1.1, SVG Export Plug-In . SVG Version: 6.00 Build 0)  -->
<svg version="1.1" id="Layer_2" xmlns="http://www.w3.org/2000/svg" xmlns:xlink="http://www.w3.org/1999/xlink" x="0px" y="0px"
	 viewBox="0 0 1080 98" style="enable-background:new 0 0 1080 98;" xml:space="preserve">
<style type="text/css">
	.st0{fill:#111111;}
	.st1{fill:#26272B;}
	.st2{fill:#515151;stroke:#26272B;stroke-miterlimit:10;}
</style>
<g>
	<g>
		<path class="st0" d="M58.11,97.06c-1.48,0-7.14-1.89-7.7-11.15c-0.01-0.2-0.11-0.39-0.26-0.53c-0.14-0.12-0.31-0.18-0.48-0.18
			c-0.03,0-0.05,0-0.08,0c0,0-0.5,0.05-1.31,0.05c-4.14,0-13.77-1.25-13.77-12.79c0-1.57,1.42-2.56,3.06-3.72
			c1.32-0.93,2.68-1.89,3.54-3.3c0.86-1.42,0.88-3.05,0.07-4.5c-0.99-1.75-3.02-2.93-5.06-2.93c-1.37,0-2.61,0.52-3.6,1.5
			c-0.91,0.92-1.63,2.41-2.39,3.98c-1.43,2.98-3.06,6.36-6.27,6.36c-2.8,0-5.47-1.16-7.33-3.18c-2.09-2.28-3.03-5.5-2.71-9.32
			c0.03-0.37-0.22-0.71-0.58-0.79c-2.64-0.61-5.09-1.74-7.27-3.35c-2.06-1.53-3.78-3.41-5.11-5.6c1.33-2.19,3.04-4.08,5.11-5.6
			c2.18-1.62,4.62-2.74,7.27-3.36c0.36-0.08,0.61-0.42,0.58-0.79c-0.32-3.82,0.61-7.04,2.71-9.32c1.86-2.02,4.53-3.18,7.33-3.18
			c3.21,0,4.84,3.38,6.27,6.36c0.76,1.58,1.47,3.07,2.39,3.98c0.99,0.99,2.23,1.51,3.61,1.51c2.04,0,4.07-1.18,5.06-2.93
			c0.81-1.44,0.79-3.08-0.07-4.5c-0.86-1.43-2.23-2.39-3.56-3.33c-1.63-1.15-3.05-2.15-3.05-3.7c0-11.54,9.63-12.79,13.77-12.79
			c0.8,0,1.3,0.05,1.3,0.05c0.03,0,0.05,0,0.08,0c0.36,0,0.68-0.26,0.74-0.62c1.31-7.65,5.46-8.48,7.19-8.48
			c0.32,0,0.52,0.03,0.54,0.03c0.04,0.01,0.09,0.01,0.13,0.01h963.71c0.04,0,0.09,0,0.13-0.01c0.02,0,0.22-0.03,0.54-0.03
			c1.72,0,5.87,0.83,7.19,8.48c0.06,0.36,0.38,0.62,0.74,0.62c0.03,0,0.05,0,0.08,0c0,0,0.5-0.05,1.3-0.05
			c4.14,0,13.77,1.25,13.77,12.79c0,1.56-1.41,2.56-3.05,3.71c-1.33,0.93-2.7,1.89-3.55,3.32c-0.86,1.41-0.88,3.05-0.07,4.49
			c0.99,1.76,3.02,2.93,5.07,2.93c1.37,0,2.61-0.52,3.6-1.5c0.91-0.92,1.63-2.41,2.39-3.99c1.43-2.98,3.06-6.36,6.27-6.36
			c2.8,0,5.47,1.16,7.32,3.18c2.09,2.28,3.03,5.5,2.71,9.32c-0.03,0.37,0.21,0.71,0.58,0.79c2.64,0.61,5.09,1.74,7.27,3.36
			c2.06,1.53,3.78,3.41,5.1,5.6c-1.33,2.19-3.04,4.07-5.1,5.6c-2.18,1.61-4.62,2.74-7.26,3.36c-0.36,0.08-0.61,0.42-0.58,0.79
			c0.32,3.82-0.61,7.04-2.71,9.32c-1.86,2.02-4.53,3.18-7.33,3.18c-3.21,0-4.84-3.38-6.27-6.36c-0.76-1.58-1.48-3.07-2.39-3.99
			c-0.99-0.99-2.23-1.51-3.6-1.51c-2.04,0-4.07,1.18-5.06,2.93c-0.81,1.44-0.79,3.08,0.07,4.5c0.86,1.42,2.23,2.39,3.55,3.32
			c1.64,1.15,3.05,2.15,3.05,3.7c0,11.54-9.63,12.79-13.77,12.79c-0.8,0-1.3-0.05-1.3-0.05c-0.03,0-0.05,0-0.08,0
			c-0.18,0-0.35,0.06-0.48,0.18c-0.16,0.13-0.25,0.32-0.26,0.53c-0.56,9.26-6.22,11.15-7.7,11.15H58.11z"/>
		<path class="st1" d="M1022.64,1.69c1.53,0,5.23,0.77,6.45,7.85c0.12,0.73,0.76,1.25,1.48,1.25c0.05,0,0.1,0,0.15-0.01
			c0,0,0.47-0.05,1.23-0.05c4.86,0,13.02,1.56,13.02,12.04c0,1.12-1.04,1.9-2.73,3.09c-1.32,0.93-2.82,1.99-3.76,3.54
			c-1,1.65-1.03,3.56-0.09,5.25c1.12,1.98,3.42,3.32,5.72,3.32c1.57,0,3-0.6,4.13-1.73c1-1.01,1.75-2.55,2.53-4.19
			c1.67-3.48,3.05-5.94,5.59-5.94c2.59,0,5.06,1.07,6.77,2.94c1.95,2.12,2.81,5.14,2.51,8.75c-0.06,0.74,0.43,1.42,1.16,1.59
			c2.54,0.59,4.89,1.67,6.99,3.23c1.86,1.38,3.43,3.06,4.67,5c-1.24,1.94-2.81,3.62-4.67,5c-2.09,1.55-4.44,2.64-6.99,3.23
			c-0.73,0.17-1.22,0.84-1.16,1.59c0.31,3.6-0.56,6.63-2.51,8.75c-1.71,1.87-4.18,2.94-6.77,2.94c-2.54,0-3.92-2.46-5.59-5.93
			c-0.79-1.64-1.53-3.19-2.54-4.19c-1.13-1.13-2.56-1.73-4.13-1.73c-2.3,0-4.59,1.33-5.71,3.31c-0.95,1.68-0.92,3.6,0.08,5.26
			c0.94,1.56,2.44,2.61,3.76,3.54c1.69,1.19,2.73,1.98,2.73,3.09c0,10.47-8.16,12.04-13.02,12.04c-0.75,0-1.22-0.05-1.22-0.05
			c-0.05-0.01-0.11-0.01-0.16-0.01c-0.35,0-0.7,0.12-0.97,0.35c-0.31,0.26-0.5,0.65-0.53,1.05c-0.6,9.78-6.89,10.44-6.95,10.44
			H58.11c-0.06,0-6.36-0.66-6.96-10.44c-0.02-0.41-0.22-0.79-0.53-1.05c-0.27-0.23-0.62-0.36-0.97-0.36c-0.05,0-0.1,0-0.15,0.01
			c0,0-0.47,0.05-1.23,0.05c-4.86,0-13.02-1.56-13.02-12.04c0-1.12,1.04-1.91,2.74-3.11c1.32-0.93,2.81-1.98,3.75-3.52
			c1-1.65,1.03-3.57,0.08-5.25c-1.12-1.98-3.42-3.32-5.72-3.32c-1.57,0-3,0.6-4.13,1.72c-1,1-1.75,2.55-2.53,4.19
			c-1.67,3.48-3.05,5.94-5.59,5.94c-2.59,0-5.06-1.07-6.77-2.94c-1.95-2.12-2.82-5.15-2.51-8.75c0.06-0.74-0.43-1.42-1.16-1.59
			c-2.54-0.59-4.89-1.67-6.99-3.23c-1.86-1.38-3.43-3.06-4.67-5c1.24-1.94,2.81-3.62,4.67-5c2.1-1.55,4.45-2.64,6.99-3.23
			c0.73-0.17,1.22-0.84,1.16-1.59c-0.31-3.6,0.56-6.63,2.51-8.75c1.72-1.87,4.18-2.94,6.77-2.94c2.54,0,3.92,2.46,5.59,5.93
			c0.79,1.64,1.53,3.18,2.53,4.19c1.13,1.13,2.56,1.73,4.14,1.73c2.3,0,4.6-1.33,5.71-3.31c0.95-1.68,0.92-3.6-0.08-5.25
			c-0.94-1.56-2.44-2.62-3.77-3.55c-1.69-1.19-2.73-1.98-2.73-3.09c0-10.48,8.16-12.04,13.02-12.04c0.75,0,1.22,0.05,1.22,0.05
			c0.05,0.01,0.11,0.01,0.16,0.01c0.72,0,1.35-0.52,1.48-1.25c1.22-7.09,4.92-7.85,6.45-7.85c0.25,0,0.41,0.02,0.41,0.02
			c0,0,0,0,0,0c0.09,0.02,0.18,0.02,0.26,0.02h963.71c0.08,0,0.17-0.01,0.25-0.02C1022.22,1.71,1022.38,1.69,1022.64,1.69
			 M1022.64,0.19c-0.42,0-0.67,0.05-0.67,0.05H58.25c0,0-0.25-0.04-0.67-0.04c-1.76,0-6.5,0.8-7.93,9.1c0,0-0.52-0.06-1.38-0.06
			c-3.87,0-14.52,1.13-14.52,13.54c0,3.36,4.86,4.34,6.71,7.42c1.84,3.05-1.21,6.29-4.35,6.29c-1.08,0-2.17-0.38-3.07-1.29
			c-2.51-2.52-3.71-10.56-9.19-10.56c-5.48,0-11.54,4.27-10.78,13.31c-2.73,0.63-5.3,1.82-7.55,3.49C3.28,43.09,1.4,45.2,0,47.63
			c1.4,2.42,3.28,4.54,5.53,6.2c2.25,1.67,4.82,2.85,7.54,3.48c-0.77,9.05,5.3,13.31,10.78,13.31c5.48,0,6.68-8.05,9.19-10.56
			c0.9-0.9,1.99-1.28,3.07-1.28c3.14,0,6.2,3.24,4.35,6.29c-1.85,3.05-6.71,4.04-6.71,7.41c0,12.41,10.65,13.54,14.52,13.54
			c0.86,0,1.38-0.06,1.38-0.06c0.63,10.37,7.28,11.85,8.45,11.85h964.01c1.17,0,7.82-1.47,8.45-11.85c0,0,0.52,0.06,1.38,0.06
			c3.87,0,14.52-1.13,14.52-13.54c0-3.36-4.86-4.34-6.71-7.41c-1.84-3.05,1.21-6.29,4.35-6.29c1.08,0,2.17,0.38,3.07,1.29
			c2.51,2.51,3.71,10.56,9.19,10.56s11.54-4.27,10.78-13.31c2.72-0.63,5.29-1.82,7.54-3.48c2.25-1.67,4.13-3.78,5.53-6.2
			c-1.4-2.43-3.28-4.54-5.53-6.21c-2.25-1.67-4.82-2.85-7.55-3.48c0.77-9.04-5.3-13.31-10.78-13.31c-5.48,0-6.68,8.04-9.19,10.56
			c-0.9,0.9-1.99,1.28-3.07,1.28c-3.14,0-6.2-3.24-4.35-6.28c1.85-3.07,6.71-4.05,6.71-7.42c0-12.41-10.65-13.54-14.52-13.54
			c-0.86,0-1.38,0.06-1.38,0.06C1029.14,0.99,1024.41,0.19,1022.64,0.19L1022.64,0.19z"/>
	</g>
	<path class="st1" d="M1047.23,52.4c0,1.35,0,2.12,1.66,2.12c1.66,0,1.39-0.76,1.39-2.12v-9.09c0-1.35,0.28-2.12-1.39-2.12
		c-1.66,0-1.66,0.77-1.66,2.12V52.4z"/>
	<path class="st2" d="M1049.95,49.98c0.41,1.07,1.04,2.04,1.83,2.85c0.8,0.82,1.75,1.47,2.81,1.91c1.05,0.44,2.18,0.66,3.33,0.66
		c1.14-0.01,2.27-0.24,3.32-0.7c-0.39-3.25-4.99-4.72-4.99-4.72c1.53,0.61,3.2,0.73,4.8,0.35c1.6-0.38,3.04-1.25,4.12-2.48
		c-1.08-1.23-2.53-2.1-4.12-2.49c-1.6-0.38-3.28-0.26-4.8,0.35c0,0,4.59-1.46,4.99-4.7c-1.05-0.45-2.18-0.69-3.32-0.7
		c-1.14-0.01-2.28,0.22-3.33,0.66c-1.06,0.44-2.01,1.09-2.81,1.91c-0.8,0.82-1.42,1.79-1.83,2.85V49.98z"/>
	<path class="st1" d="M34.16,52.4c0,1.35,0,2.12-1.66,2.12c-1.66,0-1.39-0.76-1.39-2.12v-9.09c0-1.35-0.28-2.12,1.39-2.12
		c1.67,0,1.66,0.77,1.66,2.12V52.4z"/>
	<path class="st2" d="M31.44,49.98c-0.41,1.07-1.04,2.04-1.83,2.85c-0.8,0.82-1.75,1.47-2.8,1.91c-1.05,0.44-2.19,0.66-3.33,0.66
		c-1.14-0.01-2.27-0.24-3.32-0.7c0.4-3.25,4.99-4.72,4.99-4.72c-1.53,0.61-3.2,0.73-4.8,0.35c-1.6-0.38-3.04-1.25-4.12-2.49
		c1.08-1.23,2.53-2.1,4.12-2.49c1.6-0.38,3.28-0.26,4.8,0.35c0,0-4.59-1.46-4.99-4.7c1.05-0.45,2.18-0.69,3.32-0.7
		c1.14-0.01,2.27,0.22,3.33,0.66c1.05,0.44,2.01,1.09,2.81,1.91c0.8,0.82,1.42,1.79,1.83,2.85V49.98z"/>
</g>
</svg>
