<?xml version="1.0" encoding="utf-8"?>
<!-- Generator: Adobe Illustrator 27.1.1, SVG Export Plug-In . SVG Version: 6.00 Build 0)  -->
<svg version="1.1" id="Layer_1" xmlns="http://www.w3.org/2000/svg" xmlns:xlink="http://www.w3.org/1999/xlink" x="0px" y="0px"
	 viewBox="0 0 2162 228" style="enable-background:new 0 0 2162 228;" xml:space="preserve">
<style type="text/css">
	.st0{fill:none;}
	.st1{fill:#E8D5C4;stroke:#876844;stroke-miterlimit:10;}
	.st2{fill:#F0E4D6;}
	.st3{fill:#876844;}
	.st4{fill:#B3916C;}
	.st5{fill:#DDCAB3;}
	.st6{fill:#F3E6DA;}
</style>
<g>
	<g>
		<path class="st0" d="M2.4,208.7V19.2C2.4,10,9.4,2.8,18,2.8h2125.2c8.6,0,15.6,7.4,15.6,16.4v189.5c0,9.2-7,16.4-15.6,16.4H18.2
			C9.4,225.1,2.4,217.9,2.4,208.7z"/>
	</g>
	<g>
		<path class="st1" d="M1,210.5v-193C1,8.2,8,0.6,16.6,0.6h2128.8c8.6,0,15.6,7.6,15.6,16.8v193.3c0,9.2-7,16.8-15.6,16.8H16.6
			C8,227.5,1,219.9,1,210.5z M565.1,209.1h1032.3c3.8,0,7.2-1.8,10-4.8l70.2-78.6c5.8-6.8,5.8-17.8,0-24.4l-70-77.6
			c-2.6-3-6.2-4.8-10-4.8H565.3c-3.6,0-7.2,1.6-9.8,4.6l-71,77.6c-6,6.6-6,17.8,0,24.6l70.8,78.8
			C557.9,207.5,561.5,209.1,565.1,209.1z M1780.2,210.3h155.7c4.2,0,8.4-1.8,11.4-5.2l69.6-78.8c5.6-6.4,5.8-16.6,0-23L1947.3,23
			c-3-3.4-7-5.4-11.4-5.4h-155.4c-4.4,0-8.4,2-11.4,5.4l-69.8,80.2c-5.6,6.6-5.6,16.6,0,23l69.6,78.8
			C1771.8,208.5,1776,210.3,1780.2,210.3z M2105.6,25.2l-66.8,71.2c-8.4,9-8.4,23.6,0,32.5l66.8,74c13.4,14.4,36.4,4.2,36.4-16.2
			V41.5C2142,20.8,2119,10.6,2105.6,25.2z M392,205.1l69.6-78.8c5.6-6.4,5.8-16.6,0-23L392,23c-3-3.4-7-5.4-11.4-5.4H225.1
			c-4.4,0-8.4,2-11.4,5.4L144,103.3c-5.6,6.6-5.6,16.6,0,23l69.6,78.8c3,3.4,7,5.2,11.4,5.2h155.7C385,210.3,389,208.5,392,205.1z
			 M19,41.4v145.3c0,20.4,23,30.9,36.4,16.2l66.8-74c8.4-9,8.4-23.6,0-32.5L55.4,25.2C41.8,10.6,19,20.8,19,41.4z"/>
		<g>
			<path class="st2" d="M16.6,226.9C8,226.9,1,219.3,1,210.1V17.7C1,8.6,8,1,16.6,1h2128.8c8.6,0,15.6,7.6,15.6,16.8
				c0-9.2-7-16.8-15.6-16.8H16.6C8,1.2,1,8.6,1,17.8v192.3C1,219.3,8,226.7,16.6,226.9h2128.8c8.6,0,15.6-7.4,15.6-16.6
				c0,9.2-7,16.8-15.6,16.8H16.6V226.9z M1780.2,209.9c-4.2,0-8.4-1.8-11.4-5.2l-69.6-78.4c-5.8-6.4-5.8-16.6,0-23l69.8-79.8
				c3-3.4,7.2-5.4,11.4-5.4h155.5c4.4,0,8.4,2,11.4,5.4l69.6,79.8c5.6,6.4,5.6,16.6,0,23l-69.6,78.4c-3,3.4-7,5.2-11.4,5.2
				C1935.9,209.9,1780.2,209.9,1780.2,209.9z M224.9,209.9c-4.2,0-8.4-1.8-11.4-5.2l-69.3-78.4c-5.8-6.4-5.8-16.6,0-23l69.6-79.8
				c3-3.4,7.2-5.4,11.4-5.4h155.5c4.4,0,8.4,2,11.4,5.4l69.6,79.8c5.6,6.4,5.6,16.6,0,23l-69.6,78.4c-3,3.4-7,5.2-11.4,5.2
				C380.6,209.9,224.9,209.9,224.9,209.9z M2120.6,209.1c-5.6,0-11-2.4-15-6.8l-66.8-73.6c-8.4-9-8.4-23.4,0-32.5l66.8-70.8
				c4-4.4,9.4-6.8,15-6.8c2.6,0,5.2,0.6,7.8,1.6c8.4,3.4,13.6,11.6,13.6,21.4V186c0,9.6-5.2,17.8-13.6,21.4
				C2125.8,208.7,2123.2,209.1,2120.6,209.1z M40.4,209.1c-2.6,0-5.2-0.6-7.8-1.6C24.2,204.1,19,195.8,19,186V41.8
				c0-9.6,5.2-17.8,13.6-21.4c2.6-1,5.2-1.6,7.8-1.6c5.6,0,11,2.4,15,6.8l66.8,70.8c8.4,9,8.4,23.4,0,32.5l-66.8,73.6
				C51.2,206.7,46,209.1,40.4,209.1z M565.1,208.7c-3.8,0-7.2-1.6-10-4.8l-70.8-78.4c-5.8-6.6-5.8-18,0-24.6l71-77
				c2.6-3,6.2-4.6,9.8-4.6h1032.3c3.8,0,7.2,1.6,10,4.8l70,77.2c6,6.8,6,17.6,0,24.4l-70.2,78.2c-2.6,3-6.2,4.8-10,4.8H565.1z"/>
			<path class="st3" d="M2120.6,17.8v2c2.6,0,5,0.6,7.4,1.6c8,3.4,13,11.2,13,20.4v144.5c0,9.2-5,17-13,20.4c-2.4,1-5,1.6-7.4,1.6
				c-5.4,0-10.4-2.2-14.2-6.4l-67-73.6c-8-8.6-8-22.4,0-31.1l66.8-70.8c3.8-4.2,9-6.4,14.2-6.4L2120.6,17.8 M1935.9,19
				c4,0,8,1.8,10.6,5l69.6,79.8c5.4,6.2,5.2,15.6,0,21.6l-69.6,78.4c-2.8,3-6.6,4.8-10.6,4.8h-155.7c-4,0-7.8-1.8-10.6-4.8
				l-69.6-78.4c-5.4-6-5.4-15.6,0-21.6l69.6-79.8c2.8-3.2,6.6-5,10.6-5L1935.9,19 M380.6,19c4,0,8,1.8,10.6,5l69.6,79.8
				c5.4,6.2,5.2,15.6,0,21.6L391.2,204c-2.8,3-6.6,4.8-10.6,4.8H224.9c-4,0-7.8-1.8-10.6-4.8l-69.4-78.2c-5.4-6-5.4-15.6,0-21.6
				l69.6-79.8c2.8-3.2,6.6-5,10.6-5h155.5 M40.4,19.8c5.4,0,10.4,2.2,14.2,6.4l66.8,70.8c8,8.6,8,22.4,0,31.1l-66.8,73.6
				c-3.8,4.2-9,6.4-14.2,6.4c-2.6,0-5-0.6-7.4-1.6c-8-3.4-13-11.2-13-20.4V41.9c0-9.2,5-17,13-20.4C35.4,20.4,37.8,19.8,40.4,19.8
				 M1597.7,20.2c3.4,0,6.6,1.6,9.2,4.4l70,77.2c5.6,6.4,5.6,16.8,0,23l-70.2,78.2c-2.4,2.8-5.8,4.4-9.2,4.4H565.1
				c-3.4,0-6.6-1.6-9.2-4.4l-70.8-78.2c-5.6-6.4-5.6-17,0-23.2l71-77.2c2.4-2.8,5.8-4.2,9-4.2L1597.7,20.2 M2145.4,0H16.6
				C7.4,0,0,8,0,17.8v192.3C0,220,7.4,228,16.6,228h2128.8c9.2,0,16.6-8,16.6-17.8V17.8C2162,8,2154.6,0,2145.4,0L2145.4,0z
				 M16.6,225.7c-8,0-14.6-7-14.6-15.8v-192C2,9.2,8.6,2,16.6,2h2128.8c8,0,14.6,7,14.6,15.8v192.3c0,8.6-6.6,15.8-14.6,15.8H16.6
				V225.7z M1935.9,17h-155.5c-4.6,0-9,2-12.2,5.6l-69.6,79.8c-6,6.8-6,17.6,0.2,24.4l69.6,78.4c3.2,3.6,7.6,5.6,12,5.6h155.7
				c4.6,0,9-2,12-5.6l69.6-78.4c6-6.8,6-17.4,0.2-24.4l-69.6-79.8C1944.9,19.2,1940.5,17,1935.9,17L1935.9,17z M380.6,17H225.1
				c-4.6,0-9,2-12.2,5.6l-69.6,80c-6,6.8-6,17.6,0.2,24.4l69.6,78.4c3.2,3.6,7.6,5.6,12,5.6h155.7c4.6,0,9-2,12-5.6l69.6-78.4
				c6-6.8,6-17.4,0.2-24.4L393,22.8C389.6,19.2,385.2,17,380.6,17L380.6,17z M40.4,17.8c-2.8,0-5.6,0.6-8.2,1.6
				C23.4,23,18,31.6,18,41.6V186c0,10,5.4,18.6,14.2,22.2c2.6,1.2,5.4,1.6,8.2,1.6c5.8,0,11.4-2.4,15.8-7l66.8-73.4
				c8.6-9.4,8.6-24.4,0-33.9L56,24.8C51.8,20.2,46.2,17.8,40.4,17.8L40.4,17.8z M2120.6,17.8c-5.8,0-11.4,2.4-15.6,7l-66.8,70.8
				c-8.6,9.4-8.6,24.4,0,33.9l66.8,73.6c4.4,4.6,10,7,15.6,7c2.8,0,5.6-0.6,8.2-1.6c8.8-3.6,14.2-12.2,14.2-22.2V41.8
				c0-10-5.4-18.6-14.2-22.2C2126,18.4,2123.4,17.8,2120.6,17.8L2120.6,17.8z M1597.7,18.2H565.3c-4,0-7.8,1.8-10.6,5l-71,77.2
				c-6.2,7-6.2,18.8,0,25.8l70.8,78.4c2.8,3.2,6.6,5,10.6,5h1032.3c4,0,7.8-1.8,10.8-5l70.2-78.2c6.2-7.2,6.2-18.6,0-25.8l-70-77.2
				C1605.5,20,1601.7,18.2,1597.7,18.2L1597.7,18.2z"/>
		</g>
	</g>
	<g>
		<g>
			<g>
				<path class="st3" d="M162.3,210.5c3.2-0.2,16.8-6.2,16.8-17.6c0-11.4-9.4-15.2-9.4-15.2s5.2,3.8,5.2,11c0,3.6-2.8,3.6-2.8,6.6
					c0,3,2.8,3.2,4.2,1.6c0,0-1.8,8.8-14,12.8V210.5z"/>
			</g>
			<g>
				<path class="st3" d="M133.7,188.1c5,18.6,18.4,22.4,18.4,22.4l0.2-1.6c0,0-12.2-5-17.2-21.2L133.7,188.1"/>
			</g>
			<g>
				<path class="st3" d="M141.1,199.8l-1.4-2c9.2-1,11.2-15.2,11.2-15.2S151.5,197.1,141.1,199.8z"/>
			</g>
			<g>
				<path class="st3" d="M178.7,210.5c0,0-5.4-11.4-13.8-10.8c0,0,0.4-12.6-5.4-12.6s-6.2,13-10,10.4c-3.2-2.2,0.8-6,1.2-11.8
					c0.4-7.4-3.4-12.8-9-12.2c0,0-1-7.8-3.6-9.2c-2.8-1.8-4-4.6-4-4.6s-1,3-4,4.6c-2.6,1.6-3.6,9.2-3.6,9.2c-5.6-0.6-9.4,5-9,12.4
					c0.4,5.8,4.4,9.6,1.2,11.6c-3.8,2.6-4.2-10.4-10-10.4s-5.4,12.6-5.4,12.6c-8.4-0.6-13.8,10.8-13.8,10.8l-1-1
					c0,0,3.8-10.6,12.4-12.2c0,0-1-17.2,14.4-14c0,0-1-11.8,9.6-12.2c0,0,1-7,5-9.2c4-2.2,4.2-6.2,4.2-6.2s0.2,4,4.2,6.2
					c4,2.2,5,9.2,5,9.2c10.6,0.6,9.6,12.2,9.6,12.2c15.2-3.2,14.4,14,14.4,14c8.6,1.4,12.4,12.2,12.4,12.2L178.7,210.5z"/>
			</g>
			<g>
				<path class="st3" d="M106.1,210.5c-3.2-0.2-16.8-6.2-16.8-17.6c0-11.4,9.4-15.2,9.4-15.2s-5.2,3.8-5.2,11c0,3.6,2.8,3.6,2.8,6.6
					c0,3-2.8,3.2-4.2,1.6c0,0,1.8,8.8,14,12.8C106.1,209.7,106.1,210.5,106.1,210.5z"/>
			</g>
			<g>
				<path class="st3" d="M134.7,188.1c-5,18.6-18.4,22.4-18.4,22.4l-0.2-1.6c0,0,12.2-5,17.2-21.2L134.7,188.1"/>
			</g>
			<g>
				<path class="st3" d="M127.3,199.8l1.4-2c-9.2-1-11.4-15.2-11.4-15.2S116.9,197.1,127.3,199.8z"/>
			</g>
			<g>
				<path class="st3" d="M133.7,208.3c-5-2.6-6.4-5.6-6.4-5.6l1.2-1.6c0,0,1.6,3.2,5.2,4.8c3.6-1.6,5.8-5.2,5.8-5.2l1.4,1.8
					C140.9,202.3,138.7,205.7,133.7,208.3z"/>
			</g>
		</g>
		<g>
			<g>
				<path class="st3" d="M179.9,210.5c4-8,12.2-10,12.2-10c0.4,4.4-3.8,6.2-3.8,6.2c4.8-1.2,10.2,3.8,10.2,3.8H179.9"/>
			</g>
			<g>
				<path class="st3" d="M152.1,210.5c0.4-7.4,9-8.6,9-8.6c0,4-3.8,5.4-3.8,5.4c5-1.6,8,3.2,8,3.2L152.1,210.5z"/>
			</g>
			<g>
				<path class="st4" d="M133.9,186.3c6.4-0.6,7.2-10.4,7.2-10.4c-3.6,0-4.6,4.4-4.6,4.4c1.4-5.8-2.8-9.2-2.8-9.2s-3,3.6-1.6,9.2
					c0,0-1.2-4.4-4.6-4.4C127.5,175.9,127.5,185.7,133.9,186.3z"/>
				<path class="st3" d="M133.9,186.9L133.9,186.9c-6.8-0.6-7-10.6-7-11v-0.6h0.6c1.8,0,3,1,3.8,2c0-4.2,2-6.6,2-6.8l0.4-0.4
					l0.4,0.4c0.2,0.2,3,2.6,3.2,7c0.8-1.2,2-2.2,3.8-2.2h0.6v0.6C141.5,176.3,140.7,186.3,133.9,186.9L133.9,186.9z M127.9,176.5
					c0.2,2,1,8.8,6,9.4c5-0.4,6.2-7.2,6.6-9.4c-2.6,0.4-3.6,4-3.6,4l-1-0.4c1-4.4-1.2-7.4-2.2-8.4c-0.6,1-2.2,4-1.2,8.4l-1,0.2
					C131.7,180.3,130.7,176.9,127.9,176.5z"/>
			</g>
			<g>
				<path class="st3" d="M88.5,210.5c-4-8-12.2-10-12.2-10c-0.4,4.4,3.8,6.2,3.8,6.2c-4.8-1.2-10.2,3.8-10.2,3.8H88.5"/>
			</g>
			<g>
				<path class="st3" d="M116.3,210.5c-0.4-7.4-9-8.6-9-8.6c0,4,3.8,5.4,3.8,5.4c-5-1.6-8,3.2-8,3.2L116.3,210.5z"/>
			</g>
		</g>
		<g>
			<path class="st3" d="M137.3,188.3c3,0,3-3.6,0-3.6h-6.2c-3,0-3,3.6,0,3.6H137.3z"/>
		</g>
		<g>
			<path class="st3" d="M182.5,210.5v-4.8c0-4.2-3.8-4-3.8,0v4.8H182.5z"/>
		</g>
		<g>
			<path class="st3" d="M118.1,210.5v-4.2c0-3.4-3.2-3.6-3.2,0v4.2H118.1z"/>
		</g>
		<g>
			<path class="st3" d="M153.5,210.5v-4.2c0-3.4-3.2-3.6-3.2,0v4.2H153.5z"/>
		</g>
		<g>
			<path class="st3" d="M85.9,210.5v-4.8c0-4.2,3.8-4,3.8,0v4.8H85.9z"/>
		</g>
	</g>
	<g>
		<g>
			<g>
				<path class="st3" d="M162.3,16.6c3.2,0.2,16.8,6.2,16.8,17.6s-9.4,15.2-9.4,15.2s5.2-3.8,5.2-11c0-3.6-2.8-3.6-2.8-6.6
					c0-3,2.8-3.2,4.2-1.6c0,0-1.8-8.8-14-12.8V16.6z"/>
			</g>
			<g>
				<path class="st3" d="M133.7,39.2c5-18.6,18.4-22.4,18.4-22.4l0.2,1.6c0,0-12.2,5-17.2,21.2L133.7,39.2"/>
			</g>
			<g>
				<path class="st3" d="M141.1,27.5l-1.4,2c9.2,1,11.2,15.2,11.2,15.2S151.5,30,141.1,27.5z"/>
			</g>
			<g>
				<path class="st3" d="M178.7,16.6c0,0-5.4,11.4-13.8,10.8c0,0,0.4,12.6-5.4,12.6s-6.2-13-10-10.4c-3.2,2.2,0.8,6,1.2,11.8
					c0.4,7.4-3.4,12.8-9,12.2c0,0-1,7.8-3.6,9.2c-2.8,1.8-4,4.6-4,4.6s-1-3-4-4.6c-2.6-1.6-3.6-9.2-3.6-9.2c-5.6,0.6-9.4-5-9-12.4
					c0.4-5.8,4.4-9.6,1.2-11.6c-3.8-2.6-4.2,10.4-10,10.4s-5.4-12.6-5.4-12.6C94.9,28,89.5,16.6,89.5,16.6l-1,1
					c0,0,3.8,10.6,12.4,12.2c0,0-1,17.2,14.4,14c0,0-1,11.8,9.6,12.2c0,0,1,7,5,9.2c4,2.2,4.2,6.2,4.2,6.2s0.2-4,4.2-6.2
					c4-2.2,5-9.2,5-9.2c10.6-0.6,9.6-12.2,9.6-12.2c15.2,3.2,14.4-14,14.4-14c8.6-1.4,12.4-12.2,12.4-12.2L178.7,16.6z"/>
			</g>
			<g>
				<path class="st3" d="M106.1,16.6c-3.2,0.2-16.8,6.2-16.8,17.6s9.4,15.2,9.4,15.2s-5.2-3.8-5.2-11c0-3.6,2.8-3.6,2.8-6.6
					c0-3-2.8-3.2-4.2-1.6c0,0,1.8-8.8,14-12.8C106.1,17.4,106.1,16.6,106.1,16.6z"/>
			</g>
			<g>
				<path class="st3" d="M134.7,39.2c-5-18.6-18.4-22.4-18.4-22.4l-0.2,1.6c0,0,12.2,5,17.2,21.2L134.7,39.2"/>
			</g>
			<g>
				<path class="st3" d="M127.3,27.5l1.4,2c-9.2,1-11.4,15.2-11.4,15.2S116.9,30,127.3,27.5z"/>
			</g>
			<g>
				<path class="st3" d="M133.7,18.8c-5,2.6-6.4,5.6-6.4,5.6l1.2,1.6c0,0,1.6-3.2,5.2-4.8c3.6,1.6,5.8,5.2,5.8,5.2l1.4-1.8
					C140.9,25,138.7,21.4,133.7,18.8z"/>
			</g>
		</g>
		<g>
			<g>
				<path class="st3" d="M179.9,16.6c4,8,12.2,10,12.2,10c0.4-4.4-3.8-6.2-3.8-6.2c4.8,1.2,10.2-3.8,10.2-3.8L179.9,16.6"/>
			</g>
			<g>
				<path class="st3" d="M152.1,16.6c0.4,7.4,9,8.6,9,8.6c0-4-3.8-5.4-3.8-5.4c5,1.6,8-3.2,8-3.2H152.1z"/>
			</g>
			<g>
				<path class="st4" d="M133.9,40.8c6.4,0.6,7.2,10.4,7.2,10.4c-3.6,0-4.6-4.4-4.6-4.4c1.4,5.8-2.8,9.2-2.8,9.2s-3-3.6-1.6-9.2
					c0,0-1.2,4.4-4.6,4.4C127.5,51.4,127.5,41.4,133.9,40.8z"/>
				<path class="st3" d="M133.7,57l-0.4-0.4c-0.2-0.2-2.2-2.6-2-6.8c-0.8,1-2,2-3.8,2h-0.6v-0.6c0-0.4,0.2-10.4,7-11l0,0l0,0
					c6.6,0.6,7.6,10.4,7.6,11v0.6h-0.6c-1.8,0-3-1-3.8-2.2c-0.2,4.2-3,6.8-3.2,7L133.7,57z M131.7,46.8l1,0.2
					c-1,4.4,0.4,7.2,1.2,8.4c1-1,3.2-4,2.2-8.4l1-0.2c0,0,1,3.4,3.6,4c-0.4-2-1.6-8.8-6.6-9.4c-5,0.4-5.8,7.4-6,9.4
					C130.7,50.4,131.7,46.8,131.7,46.8z"/>
			</g>
			<g>
				<path class="st3" d="M88.5,16.6c-4,8-12.2,10-12.2,10c-0.4-4.4,3.8-6.2,3.8-6.2C75.3,21.6,70,16.6,70,16.6H88.5"/>
			</g>
			<g>
				<path class="st3" d="M116.3,16.6c-0.4,7.4-9,8.6-9,8.6c0-4,3.8-5.4,3.8-5.4c-5,1.6-8-3.2-8-3.2H116.3z"/>
			</g>
		</g>
		<g>
			<path class="st3" d="M137.3,39c3,0,3,3.6,0,3.6h-6.2c-3,0-3-3.6,0-3.6H137.3z"/>
		</g>
		<g>
			<path class="st3" d="M182.5,16.6v4.8c0,4.2-3.8,4-3.8,0v-4.8C178.7,16.6,182.5,16.6,182.5,16.6z"/>
		</g>
		<g>
			<path class="st3" d="M118.1,16.6v4.2c0,3.4-3.2,3.6-3.2,0v-4.2C114.9,16.6,118.1,16.6,118.1,16.6z"/>
		</g>
		<g>
			<path class="st3" d="M153.5,16.6v4.2c0,3.4-3.2,3.6-3.2,0v-4.2C150.3,16.6,153.5,16.6,153.5,16.6z"/>
		</g>
		<g>
			<path class="st3" d="M85.9,16.6v4.8c0,4.2,3.8,4,3.8,0v-4.8C89.7,16.6,85.9,16.6,85.9,16.6z"/>
		</g>
	</g>
	<g>
		<g>
			<g>
				<path class="st3" d="M500.4,210.5c3.2-0.2,16.8-6.2,16.8-17.6c0-11.4-9.4-15.2-9.4-15.2s5.2,3.8,5.2,11c0,3.6-2.8,3.6-2.8,6.6
					c0,3,2.8,3.2,4.2,1.6c0,0-1.8,8.8-14,12.8V210.5L500.4,210.5z"/>
			</g>
			<g>
				<path class="st3" d="M471.8,188.1c5,18.6,18.4,22.4,18.4,22.4l0.2-1.6c0,0-12.2-5-17.2-21.2L471.8,188.1"/>
			</g>
			<g>
				<path class="st3" d="M479.2,199.8l-1.4-2c9.2-1,11.2-15.2,11.2-15.2S489.8,197.1,479.2,199.8z"/>
			</g>
			<g>
				<path class="st3" d="M516.9,210.5c0,0-5.4-11.4-13.8-10.8c0,0,0.4-12.6-5.4-12.6s-6.2,13-10,10.4c-3.2-2.2,0.8-6,1.2-11.8
					c0.4-7.4-3.4-12.8-9-12.2c0,0-1-7.8-3.6-9.2c-2.8-1.8-4-4.6-4-4.6s-1,3-4,4.6c-2.6,1.6-3.6,9.2-3.6,9.2c-5.6-0.6-9.4,5-9,12.4
					c0.4,5.8,4.4,9.6,1.2,11.6c-3.8,2.6-4.2-10.4-10-10.4s-5.4,12.6-5.4,12.6c-8.4-0.6-13.8,10.8-13.8,10.8l-1-1
					c0,0,3.8-10.6,12.4-12.2c0,0-1-17.2,14.4-14c0,0-1-11.8,9.6-12.2c0,0,1-7,5-9.2c4-2.2,4.2-6.2,4.2-6.2s0.2,4,4.2,6.2
					c4,2.2,5,9.2,5,9.2c10.6,0.6,9.6,12.2,9.6,12.2c15.2-3.2,14.4,14,14.4,14c8.6,1.4,12.4,12.2,12.4,12.2L516.9,210.5z"/>
			</g>
			<g>
				<path class="st3" d="M444.2,210.5c-3.2-0.2-16.8-6.2-16.8-17.6c0-11.4,9.4-15.2,9.4-15.2s-5.2,3.8-5.2,11c0,3.6,2.8,3.6,2.8,6.6
					c0,3-2.8,3.2-4.2,1.6c0,0,1.8,8.8,14,12.8L444.2,210.5L444.2,210.5z"/>
			</g>
			<g>
				<path class="st3" d="M472.8,188.1c-5,18.6-18.4,22.4-18.4,22.4l-0.2-1.6c0,0,12.2-5,17.2-21.2L472.8,188.1"/>
			</g>
			<g>
				<path class="st3" d="M465.6,199.8l1.4-2c-9.2-1-11.4-15.2-11.4-15.2S455,197.1,465.6,199.8z"/>
			</g>
			<g>
				<path class="st3" d="M472,208.3c-5-2.6-6.4-5.6-6.4-5.6l1.2-1.6c0,0,1.6,3.2,5.2,4.8c3.6-1.6,5.8-5.2,5.8-5.2l1.4,1.8
					C479.2,202.3,476.8,205.7,472,208.3z"/>
			</g>
		</g>
		<g>
			<g>
				<path class="st3" d="M518.1,210.5c4-8,12.2-10,12.2-10c0.4,4.4-3.8,6.2-3.8,6.2c4.8-1.2,10.2,3.8,10.2,3.8H518.1"/>
			</g>
			<g>
				<path class="st3" d="M490.2,210.5c0.4-7.4,9-8.6,9-8.6c0,4-3.8,5.4-3.8,5.4c5-1.6,8,3.2,8,3.2L490.2,210.5z"/>
			</g>
			<g>
				<path class="st4" d="M472,186.3c6.4-0.6,7.2-10.4,7.2-10.4c-3.6,0-4.6,4.4-4.6,4.4c1.4-5.8-2.8-9.2-2.8-9.2s-3,3.6-1.6,9.2
					c0,0-1.2-4.4-4.6-4.4C465.6,175.9,465.8,185.7,472,186.3z"/>
				<path class="st3" d="M472,186.9L472,186.9c-6.8-0.6-7-10.6-7-11v-0.6h0.6c1.8,0,3,1,3.8,2c0-4.2,2-6.6,2-6.8l0.4-0.4l0.4,0.4
					c0.2,0.2,3,2.6,3.2,7c0.8-1.2,2-2.2,3.8-2.2h0.6v0.6C479.8,176.3,478.8,186.3,472,186.9L472,186.9z M466.2,176.5
					c0.2,2,1,8.8,6,9.4c5-0.4,6.2-7.2,6.6-9.4c-2.6,0.4-3.6,4-3.6,4l-1-0.2c1-4.4-1.2-7.4-2.2-8.4c-0.6,1-2.2,4-1.2,8.4l-1,0.2
					C469.8,180.3,468.8,176.9,466.2,176.5z"/>
			</g>
			<g>
				<path class="st3" d="M426.6,210.5c-4-8-12.2-10-12.2-10c-0.4,4.4,3.8,6.2,3.8,6.2c-4.8-1.2-10.2,3.8-10.2,3.8H426.6"/>
			</g>
			<g>
				<path class="st3" d="M454.6,210.5c-0.4-7.4-9-8.6-9-8.6c0,4,3.8,5.4,3.8,5.4c-5-1.6-8,3.2-8,3.2L454.6,210.5z"/>
			</g>
		</g>
		<g>
			<path class="st3" d="M475.4,188.3c3,0,3-3.6,0-3.6h-6.2c-3,0-3,3.6,0,3.6H475.4z"/>
		</g>
		<g>
			<path class="st3" d="M520.7,210.5v-4.8c0-4.2-3.8-4-3.8,0v4.8H520.7z"/>
		</g>
		<g>
			<path class="st3" d="M456.2,210.5v-4.2c0-3.4-3.2-3.6-3.2,0v4.2H456.2z"/>
		</g>
		<g>
			<path class="st3" d="M491.6,210.5v-4.2c0-3.4-3.2-3.6-3.2,0v4.2H491.6z"/>
		</g>
		<g>
			<path class="st3" d="M424,210.5v-4.8c0-4.2,3.8-4,3.8,0v4.8H424z"/>
		</g>
	</g>
	<g>
		<g>
			<g>
				<path class="st3" d="M500.4,16.6c3.2,0.2,16.8,6.2,16.8,17.6s-9.4,15.2-9.4,15.2s5.2-3.8,5.2-11c0-3.6-2.8-3.6-2.8-6.6
					c0-3,2.8-3.2,4.2-1.6c0,0-1.8-8.8-14-12.8V16.6L500.4,16.6z"/>
			</g>
			<g>
				<path class="st3" d="M471.8,39.2c5-18.6,18.4-22.4,18.4-22.4l0.2,1.6c0,0-12.2,5-17.2,21.2L471.8,39.2"/>
			</g>
			<g>
				<path class="st3" d="M479.2,27.5l-1.4,2c9.2,1,11.2,15.2,11.2,15.2S489.8,30,479.2,27.5z"/>
			</g>
			<g>
				<path class="st3" d="M516.9,16.6c0,0-5.4,11.4-13.8,10.8c0,0,0.4,12.6-5.4,12.6s-6.2-13-10-10.4c-3.2,2.2,0.8,6,1.2,11.8
					c0.4,7.4-3.4,12.8-9,12.2c0,0-1,7.8-3.6,9.2c-2.8,1.8-4,4.6-4,4.6s-1-3-4-4.6c-2.6-1.6-3.6-9.2-3.6-9.2c-5.6,0.6-9.4-5-9-12.4
					c0.4-5.8,4.4-9.6,1.2-11.6c-3.8-2.6-4.2,10.4-10,10.4s-5.4-12.6-5.4-12.6c-8.4,0.6-13.8-10.8-13.8-10.8l-1,1
					c0,0,3.8,10.6,12.4,12.2c0,0-1,17.2,14.4,14c0,0-1,11.8,9.6,12.2c0,0,1,7,5,9.2c4,2.2,4.2,6.2,4.2,6.2s0.2-4,4.2-6.2
					c4-2.2,5-9.2,5-9.2c10.6-0.6,9.6-12.2,9.6-12.2c15.2,3.2,14.4-14,14.4-14c8.6-1.4,12.4-12.2,12.4-12.2L516.9,16.6z"/>
			</g>
			<g>
				<path class="st3" d="M444.2,16.6c-3.2,0.2-16.8,6.2-16.8,17.6s9.4,15.2,9.4,15.2s-5.2-3.8-5.2-11c0-3.6,2.8-3.6,2.8-6.6
					c0-3-2.8-3.2-4.2-1.6c0,0,1.8-8.8,14-12.8L444.2,16.6L444.2,16.6z"/>
			</g>
			<g>
				<path class="st3" d="M472.8,39.2c-5-18.6-18.4-22.4-18.4-22.4l-0.2,1.6c0,0,12.2,5,17.2,21.2L472.8,39.2"/>
			</g>
			<g>
				<path class="st3" d="M465.6,27.5l1.4,2c-9.2,1-11.4,15.2-11.4,15.2S455,30,465.6,27.5z"/>
			</g>
			<g>
				<path class="st3" d="M472,18.8c-5,2.6-6.4,5.6-6.4,5.6l1.2,1.6c0,0,1.6-3.2,5.2-4.8c3.6,1.6,5.8,5.2,5.8,5.2l1.4-1.8
					C479.2,25,476.8,21.4,472,18.8z"/>
			</g>
		</g>
		<g>
			<g>
				<path class="st3" d="M518.1,16.6c4,8,12.2,10,12.2,10c0.4-4.4-3.8-6.2-3.8-6.2c4.8,1.2,10.2-3.8,10.2-3.8L518.1,16.6"/>
			</g>
			<g>
				<path class="st3" d="M490.2,16.6c0.4,7.4,9,8.6,9,8.6c0-4-3.8-5.4-3.8-5.4c5,1.6,8-3.2,8-3.2H490.2z"/>
			</g>
			<g>
				<path class="st4" d="M472,40.8c6.4,0.6,7.2,10.4,7.2,10.4c-3.6,0-4.6-4.4-4.6-4.4c1.4,5.8-2.8,9.2-2.8,9.2s-3-3.6-1.6-9.2
					c0,0-1.2,4.4-4.6,4.4C465.6,51.4,465.8,41.4,472,40.8z"/>
				<path class="st3" d="M471.8,57l-0.4-0.4c-0.2-0.2-2.2-2.6-2-6.8c-0.8,1-2,2-3.8,2H465v-0.6c0-0.4,0.2-10.4,7-11l0,0l0,0
					c6.6,0.6,7.6,10.4,7.6,11v0.6H479c-1.8,0-3-1-3.8-2.2c-0.2,4.2-3,6.8-3.2,7L471.8,57z M469.8,46.8l1,0.2c-1,4.4,0.4,7.2,1.2,8.4
					c1-1,3.2-4,2.2-8.4l1-0.2c0,0,1,3.4,3.6,4c-0.4-2-1.6-8.8-6.6-9.4c-5,0.4-5.8,7.4-6,9.4C468.8,50.4,469.8,46.8,469.8,46.8z"/>
			</g>
			<g>
				<path class="st3" d="M426.6,16.6c-4,8-12.2,10-12.2,10c-0.4-4.4,3.8-6.2,3.8-6.2c-4.8,1.2-10.2-3.8-10.2-3.8L426.6,16.6"/>
			</g>
			<g>
				<path class="st3" d="M454.6,16.6c-0.4,7.4-9,8.6-9,8.6c0-4,3.8-5.4,3.8-5.4c-5,1.6-8-3.2-8-3.2H454.6z"/>
			</g>
		</g>
		<g>
			<path class="st3" d="M475.4,39c3,0,3,3.6,0,3.6h-6.2c-3,0-3-3.6,0-3.6H475.4z"/>
		</g>
		<g>
			<path class="st3" d="M520.7,16.6v4.8c0,4.2-3.8,4-3.8,0v-4.8C516.9,16.6,520.7,16.6,520.7,16.6z"/>
		</g>
		<g>
			<path class="st3" d="M456.2,16.6v4.2c0,3.4-3.2,3.6-3.2,0v-4.2C453,16.6,456.2,16.6,456.2,16.6z"/>
		</g>
		<g>
			<path class="st3" d="M491.6,16.6v4.2c0,3.4-3.2,3.6-3.2,0v-4.2C488.4,16.6,491.6,16.6,491.6,16.6z"/>
		</g>
		<g>
			<path class="st3" d="M424,16.6v4.8c0,4.2,3.8,4,3.8,0v-4.8C427.8,16.6,424,16.6,424,16.6z"/>
		</g>
	</g>
	<g>
		<g>
			<path class="st1" d="M14.8,46.2c4-0.2,12.2,3.4,12.8,17.4c0,0,19-2.2,19,18.2c0,4.6-5.8,5.8-8,10c-3,5.6,4.6,11.4,8.8,6.8
				c3-3.4,4.4-14.2,11-14.2s13.8,5.8,12.8,18c0,0,11.2,1.4,15.8,11.8c-4.6,10.4-15.8,14.2-15.8,14.2c1,12.2-6.4,18-12.8,18
				c-6.6,0-8-10.8-11-14.2c-4.2-4.8-11.8,1.2-8.8,6.8c2.2,4.2,8,5.4,8,10c0,20.4-19,18.2-19,18.2c-2,13.8-13.2,13.6-13.2,13.6"/>
			<path class="st3" d="M14.6,181.5L14.6,181.5v-2c0.4,0,10.4,0,12.2-12.6l0.2-1l1,0.2c0,0,7.8,0.8,13.2-4c3.2-3,4.8-7.4,4.8-13.2
				c0-2.2-1.6-3.4-3.6-5c-1.6-1.2-3.2-2.6-4.2-4.4c-1.8-3.4-0.2-6.8,2.2-8.6c2.4-1.8,5.8-2.2,8.4,0.6c1,1.2,2,3.2,2.8,5.4
				c1.6,4,3.6,8.6,7.4,8.6c3,0,6.2-1.4,8.2-3.8c2-2.2,4.2-6.2,3.6-13v-0.8l0.8-0.2c0.2,0,10.4-3.6,15-13.2
				c-4.4-9.4-14.6-10.8-14.8-10.8l-1-0.2v-1c0.6-6.8-1.6-10.8-3.6-13C65,87.1,62,85.7,59,85.7c-3.8,0-5.6,4.6-7.4,8.6
				c-1,2.2-1.8,4.2-2.8,5.4c-2.6,2.8-6,2.4-8.4,0.6c-2.4-1.8-4-5.2-2.2-8.6c1-2,2.6-3.2,4.2-4.4c2-1.6,3.6-2.8,3.6-5
				c0-5.8-1.6-10.2-4.8-13.2c-5.2-4.8-13-4-13.2-4l-1,0.2v-1c-0.4-7.8-3.2-11.8-5.2-13.8c-2.4-2.2-5-2.8-6.6-2.6l-0.2-2
				c2.6-0.2,5.6,1,8,3.2c2.4,2.2,5.2,6.4,5.8,14.2c2.4,0,8.8,0.2,13.6,4.6c3.6,3.4,5.4,8.2,5.4,14.8c0,3.2-2.2,5-4.4,6.6
				c-1.4,1.2-2.8,2.2-3.8,3.8c-1.2,2.4-0.2,4.6,1.6,6c1.4,1.2,3.8,1.6,5.8-0.4c0.8-1,1.6-2.8,2.4-4.8c1.8-4.4,4.2-9.8,9.2-9.8
				c3.6,0,7.2,1.6,9.8,4.4c2,2.4,4.4,6.6,4.2,13.6c2.8,0.6,11.6,3,15.6,12.2l0.2,0.4l-0.4-0.2c-4,9.4-13,13.4-15.6,14.6
				c0.4,7.2-2,11.4-4.2,13.8c-2.6,2.8-6,4.4-9.8,4.4c-5,0-7.4-5.4-9.2-9.8c-0.8-2-1.6-3.8-2.4-4.8c-1.8-2-4.2-1.6-5.8-0.4
				c-1.6,1.2-2.8,3.6-1.6,6c0.8,1.6,2.2,2.8,3.8,3.8c2.2,1.8,4.4,3.4,4.4,6.6c0,6.4-1.8,11.4-5.4,14.8c-4.8,4.4-11.2,4.6-13.8,4.6
				C26.2,181.3,15,181.5,14.6,181.5z"/>
		</g>
		<g>
			<g>
				<path class="st3" d="M50.6,112.1C9,100.7,27.4,64.4,27.4,64.4l-0.6-5c0,0-24.4,43.3,23.8,55.8V112.1z"/>
			</g>
			<g>
				<path class="st3" d="M50.6,118.6C9,130,27.4,166.5,27.4,166.5l-1.2,4.8c0,0-23.8-43.4,24.4-55.8V118.6z"/>
			</g>
		</g>
		<g>
			<g>
				<path class="st3" d="M50.2,108.1c0-2.2,0-3.4,2-3.4s1.8,1.2,1.8,3.4v14.1c0,2.2,0.4,3.4-1.8,3.4c-2,0-2-1.2-2-3.4V108.1z"/>
			</g>
		</g>
		<g>
			<g>
				<path class="st4" d="M54,112.7c5-10.8,14.2-6.4,14.2-6.4c-0.4,4.4-6.2,6.4-6.2,6.4c6.8-2.8,11.2,2.8,11.2,2.8S69,121,62,118.2
					c0,0,5.8,2,6.2,6.4c0,0-9.2,4.6-14.2-6.4C54,118.2,54,112.7,54,112.7z"/>
				<path class="st3" d="M63.8,126.2c-3.2,0-7.4-1.4-10.2-7.6v-0.2v-6c5.2-11.2,14.6-6.6,14.8-6.6l0.4,0.2v0.4
					c-0.2,2.2-1.8,3.8-3.2,5c5-0.2,8,3.8,8,3.8l0.2,0.4l-0.2,0.4c0,0-3,4-8,3.8c1.4,1.2,3,2.8,3.2,5v0.4l-0.4,0.2
					C68.4,125.2,66.4,126.2,63.8,126.2z M54.6,118.2c4.2,9.2,11.4,6.8,13,6.2c-0.6-3.2-4.4-5-5.4-5.4c-0.2,0-0.2,0-0.4-0.2l0.4-1
					c0,0,0.2,0,0.4,0.2c5.2,2,9-1.4,9.8-2.6c-1-1.2-4.6-4.4-9.8-2.6c-0.2,0.2-0.4,0.2-0.4,0.2l-0.4-1c0.2,0,0.2-0.2,0.4-0.2
					c1.2-0.4,4.8-2.2,5.4-5.4c-1.6-0.6-8.8-3-13,6.2V118.2z"/>
			</g>
			<g>
				<path class="st3" d="M18.8,87.5c10-5.4,8.6-15.2,8.6-15.2c-4,0.6-6,6.8-6,6.8c2.6-7.4-2.6-12-2.6-12V87.5z"/>
			</g>
			<g>
				<path class="st3" d="M18.8,144.9c10,5.4,8.8,15.2,8.8,15.2c-4-0.6-6-6.8-6-6.8c2.6,7.4-2.8,12.2-2.8,12.2V144.9z"/>
			</g>
		</g>
	</g>
	<g>
		<g>
			<path class="st3" d="M309.9,64.8c3.8-3.6,10.2-7,20.2-7.8c1.6-0.2,3.6,0,4.8,0.8c1.4,0.8,2.2,1.8,2.6,3.6c0.2,1,0,2.2-0.6,3
				c-0.6,0.8-1.4,1.4-2,1.4c-0.8,0-2.2-0.6-2.2-2.2c0-0.8,0.6-1.2,1-1.4c0.6-0.2,0.6,0.2,0.8,0.4c0.2,0.6,1,1,1.4,0.6
				c0.6-0.2,0.8-1,0.6-1.6c-0.6-1.4-1.8-2.2-3.4-1.8c-1.4,0.4-3,1.8-2.8,4c0.2,3,2.4,4.8,4.6,4.6c1.4,0,4.8-1.4,4.8-5.4
				c0-1.8-0.4-3.6-1.8-5.6c6.6,0.8,12.6,3.6,18.4,7.4c3.6,2.8,10.6,9.4,13.8,20.6l2.6-0.8c-1.2-4-2.8-7.6-4.4-10.4
				c4,3.6,8,7.2,12,11.2c14.8,14.2,30,29.1,49,29.7v-3c-18-0.8-32.8-15-47.2-29.1c-5.4-5.2-10.8-10.2-16.4-14.8l0,0
				c4.8,1.2,11,2,18.4,0.2l-0.6-2.8c-7.4,1.8-13.6,1-18-0.4c3-1.2,4.2-3,4.6-4.8c0.2-1.6-0.2-3.4-1-4.6c-1.4-1.8-4.2-2.4-6.4-0.6
				c-1.4,1.4-1.4,3.4-0.8,4.8c0.8,1.4,2.2,2,3.6,1.4c0.6-0.2,0.8-1,0.6-1.6c-0.2-0.6-1-1-1.6-0.8l0,0c-0.2,0-0.4,0.2-0.8-0.4
				c-0.2-0.4-0.2-1.2,0.2-1.8c1.2-1.2,2.6-0.4,3,0.2s0.6,1.6,0.6,2.4c0,1.2-2.2,6.2-10.6,2c-7.8-4-15.4-7.8-24-7.8
				c-8.6,0-18.2,1.8-25.2,8.6L309.9,64.8z"/>
		</g>
		<g>
			<path class="st3" d="M309.9,163.1c3.8,3.6,10.2,7,20.2,7.8c1.6,0.2,3.6,0,4.8-0.8c1.4-0.8,2.2-1.8,2.6-3.6c0.2-1,0-2.2-0.6-3
				c-0.6-0.8-1.4-1.4-2-1.4c-0.8,0-2.2,0.6-2.2,2.2c0,0.8,0.6,1.2,1,1.4c0.6,0.2,0.6-0.2,0.8-0.4c0.2-0.6,1-1,1.4-0.6
				c0.6,0.2,0.8,1,0.6,1.6c-0.6,1.4-1.8,2.2-3.4,1.8c-1.4-0.4-3-1.8-2.8-4c0.2-3,2.4-4.8,4.6-4.6c1.4,0.2,4.8,1.4,4.8,5.4
				c0,1.8-0.4,3.6-1.8,5.6c6.6-0.8,12.6-3.6,18.4-7.4c3.6-2.8,10.6-9.4,13.8-20.6l2.6,0.8c-1.2,4-2.8,7.6-4.4,10.4
				c4-3.6,8-7.2,12-11.2c14.8-14.2,30-29.1,49-29.7v3c-18,0.8-32.8,15-47.2,29.1c-5.4,5.2-10.8,10.2-16.4,14.8l0,0
				c4.8-1.2,11-2,18.4-0.2l-0.6,2.8c-7.4-1.8-13.6-1-18,0.4c3,1.2,4.2,3,4.6,4.8c0.2,1.6-0.2,3.4-1,4.6c-1.4,1.8-4.2,2.4-6.4,0.6
				c-1.4-1.4-1.4-3.4-0.8-4.8c0.8-1.4,2.2-2,3.6-1.4c0.6,0.2,0.8,1,0.6,1.6c-0.2,0.6-1,1-1.6,0.8l0,0c-0.2,0-0.4-0.2-0.8,0.4
				c-0.2,0.4-0.2,1.2,0.2,1.8c1.2,1.2,2.6,0.4,3-0.2c0.4-0.6,0.6-1.6,0.6-2.4c0-1.2-2.2-6.2-10.6-2c-7.8,4-15.4,7.8-24,7.8
				c-8.6,0-18.2-1.8-25.2-8.6L309.9,163.1z"/>
		</g>
		<g>
			<path class="st3" d="M295.9,64.8c-3.8-3.6-10.2-7-20.2-7.8c-1.6-0.2-3.6,0-4.8,0.8c-1.4,0.8-2.2,1.8-2.6,3.6c-0.2,1,0,2.2,0.6,3
				c0.6,0.8,1.4,1.4,2,1.4c0.8,0,2.2-0.6,2.2-2.2c0-0.8-0.6-1.2-1-1.4c-0.6-0.2-0.6,0.2-0.8,0.4c-0.2,0.6-1,1-1.6,0.6
				c-0.6-0.2-0.8-1-0.6-1.6c0.6-1.4,1.8-2.2,3.4-1.8c1.4,0.4,3,1.8,2.8,4c-0.2,3-2.4,4.8-4.6,4.6c-1.4,0-4.8-1.4-4.8-5.4
				c0-1.8,0.4-3.6,1.8-5.6c-6.6,0.8-12.6,3.6-18.4,7.4c-3.6,2.8-10.6,9.4-13.8,20.6l-2.6-0.8c1.2-4,2.8-7.6,4.4-10.4
				c-4,3.6-8,7.2-12,11.2c-14.8,14.2-30,29.1-49,29.7l-0.2-3c18-0.8,32.8-15,47.2-29.1c5.4-5.2,10.8-10.2,16.4-14.8l0,0
				c-4.8,1.2-11,2-18.4,0.2l0.6-2.8c7.4,1.8,13.6,1,18-0.4c-3-1.2-4.2-3-4.6-4.8c-0.2-1.6,0.2-3.4,1-4.6c1.4-1.8,4.2-2.4,6.4-0.6
				c1.4,1.4,1.4,3.4,0.8,4.8c-0.8,1.4-2.2,2-3.6,1.4c-0.6-0.2-0.8-1-0.6-1.6s0.8-1,1.4-0.8l0,0c0.2,0,0.4,0.2,0.8-0.4
				c0.2-0.4,0.2-1.2-0.2-1.8c-1.2-1.2-2.6-0.4-3,0.2c-0.4,0.6-0.6,1.6-0.6,2.4c0,1.2,2.2,6.2,10.6,2c7.8-4,15.4-7.8,24-7.8
				s18.2,1.8,25.2,8.6L295.9,64.8z"/>
		</g>
		<g>
			<path class="st3" d="M295.9,163.1c-3.8,3.6-10.2,7-20.2,7.8c-1.6,0.2-3.6,0-4.8-0.8c-1.4-0.8-2.2-1.8-2.6-3.6c-0.2-1,0-2.2,0.6-3
				c0.6-0.8,1.4-1.4,2-1.4c0.8,0,2.2,0.6,2.2,2.2c0,0.8-0.6,1.2-1,1.4c-0.6,0.2-0.6-0.2-0.8-0.4c-0.2-0.6-1-1-1.6-0.6
				c-0.6,0.2-0.8,1-0.6,1.6c0.6,1.4,1.8,2.2,3.4,1.8c1.4-0.4,3-1.8,2.8-4c-0.2-3-2.4-4.8-4.6-4.6c-1.4,0.2-4.8,1.4-4.8,5.4
				c0,1.8,0.4,3.6,1.8,5.6c-6.6-0.8-12.6-3.6-18.4-7.4c-3.6-2.8-10.6-9.4-13.8-20.6l-2.6,0.8c1.2,4,2.8,7.6,4.4,10.4
				c-4-3.6-8-7.2-12-11.2c-14.8-14.2-30-29.1-49-29.7l-0.2,3c18,0.8,32.8,15,47.2,29.1c5.4,5.2,10.8,10.2,16.4,14.8l0,0
				c-4.8-1.2-11-2-18.4-0.2l0.6,2.8c7.4-1.8,13.6-1,18,0.4c-3,1.2-4.2,3-4.6,4.8c-0.2,1.6,0.2,3.4,1,4.6c1.4,1.8,4.2,2.4,6.4,0.6
				c1.4-1.4,1.4-3.4,0.8-4.8c-0.8-1.4-2.2-2-3.6-1.4c-0.6,0.2-0.8,1-0.6,1.6c0.2,0.6,0.8,1,1.4,0.8l0,0c0.2,0,0.4-0.2,0.8,0.4
				c0.2,0.4,0.2,1.2-0.2,1.8c-1.2,1.2-2.6,0.4-3-0.2c-0.4-0.6-0.6-1.6-0.6-2.4c0-1.2,2.2-6.2,10.6-2c7.8,4,15.4,7.8,24,7.8
				s18.2-1.8,25.2-8.6L295.9,163.1z"/>
		</g>
		<g>
			<path class="st5" d="M302.9,60.2c0,0-7,1.6-9.2,12.8c0,0-19.6-1.8-19.6,14.6c0,3.6,6,4.6,8.2,8c3,4.4-4.8,9.2-9.2,5.4
				c-3.2-2.8-4.6-11.4-11.4-11.4c-6.8,0-14.2,4.6-13.4,14.4c0,0-11.4,2-16.2,10.4c4.8,8.4,16.2,10.4,16.2,10.4
				c-1,9.8,6.6,14.4,13.4,14.4c6.8,0,8.2-8.6,11.4-11.4c4.4-3.8,12.2,1,9.2,5.4c-2.2,3.4-8.2,4.4-8.2,8c0,16.4,19.6,14.6,19.6,14.6
				c2.2,11,9.2,10.6,9.2,10.6s7,0.4,9.2-10.6c0,0,19.6,1.8,19.6-14.6c0-3.6-6-4.6-8.2-8c-3-4.4,4.8-9.2,9.2-5.4
				c3.2,2.8,4.6,11.4,11.4,11.4c6.8,0,14.2-4.6,13.4-14.4c0,0,11.4-2,16.2-10.4c-4.8-8.4-16.2-10.4-16.2-10.4
				c1-9.8-6.6-14.4-13.4-14.4c-6.8,0-8.2,8.6-11.4,11.4c-4.4,3.8-12.2-1-9.2-5.4c2.2-3.4,8.2-4.4,8.2-8c0-16.4-19.6-14.6-19.6-14.6
				C309.9,62,302.9,60.2,302.9,60.2z"/>
			<path class="st3" d="M302.9,167.3L302.9,167.3c0,0-7.6,0.4-10-10.6c-2.6,0.2-10.6,0-15.6-4.8c-2.8-2.6-4.2-6.2-4.2-10.8
				c0-2.6,2.4-4.2,4.6-5.6c1.4-1,3-1.8,3.8-3c1.2-1.6,0.2-3-0.6-3.6c-1.8-1.6-5-2.2-7.2-0.4c-0.8,0.8-1.6,2.2-2.6,3.8
				c-2,3.4-4.4,7.8-9.4,7.8c-4.4,0-8.6-1.8-11.2-4.8c-2.2-2.6-3.4-6-3.2-9.8c-2.8-0.6-11.8-3.4-16-10.8l-0.2-0.6l0.2-0.6
				c4.2-7.4,13-10,16-10.8c-0.2-3.8,1-7.2,3.2-9.8c2.6-3,6.8-4.8,11.2-4.8c5.2,0,7.6,4.4,9.4,7.8c0.8,1.6,1.6,3,2.6,3.8
				c2.2,1.8,5.4,1.2,7.2-0.4c0.6-0.6,1.6-2,0.6-3.6c-0.8-1.2-2.4-2.2-3.8-3c-2.2-1.4-4.6-2.8-4.6-5.6c0-4.6,1.4-8.2,4.2-10.8
				c5-4.8,13-5,15.6-4.8c2.4-10.8,9.4-12.6,9.8-12.6h0.2h0.2c0.4,0,7.2,1.8,9.8,12.6c2.6-0.2,10.6,0,15.6,4.8
				c2.8,2.6,4.2,6.2,4.2,10.8c0,2.6-2.4,4.2-4.6,5.6c-1.4,0.8-3,1.8-3.8,3c-1.2,1.6-0.2,3,0.6,3.6c1.8,1.6,5,2.2,7.2,0.4
				c0.8-0.8,1.6-2.2,2.6-3.8c2-3.4,4.4-7.8,9.4-7.8c4.4,0,8.6,1.8,11.2,4.8c2.2,2.6,3.4,6,3.2,9.8c2.8,0.6,11.8,3.4,16,10.8l0.2,0.6
				l-0.2,0.6c-4.2,7.4-13,10-16,10.8c0.2,3.8-1,7.2-3.2,9.8c-2.6,3-6.8,4.8-11.2,4.8c-5.2,0-7.6-4.4-9.4-7.8c-0.8-1.6-1.6-3-2.6-3.8
				c-2.2-1.8-5.4-1.2-7.2,0.4c-0.6,0.6-1.6,2-0.6,3.6c0.8,1.2,2.4,2.2,3.8,3c2.2,1.4,4.6,2.8,4.6,5.6c0,4.6-1.4,8.2-4.2,10.8
				c-5,4.8-13,5-15.6,4.8C310.5,166.9,303.9,167.3,302.9,167.3z M302.9,165.3c0.4,0,6.4,0.2,8.2-9.8l0.2-1h0.8c0,0,9.6,0.8,15-4.2
				c2.4-2.2,3.6-5.4,3.6-9.2c0-1.6-1.6-2.6-3.6-3.8c-1.6-1-3.4-2-4.4-3.6c-1.4-2-1.2-4.4,0.8-6.2c2.4-2.2,6.8-3.2,9.8-0.4
				c1.2,1,2,2.6,3,4.4c1.8,3.4,3.8,6.8,7.8,6.8c3.8,0,7.4-1.6,9.8-4.2c2-2.4,3-5.4,2.6-9v-1l1-0.2c0.2,0,10.6-2,15.2-9.4
				c-4.6-7.4-15-9.4-15.2-9.4l-1-0.2v-1c0.4-3.6-0.6-6.8-2.6-9c-2.2-2.6-5.8-4.2-9.8-4.2c-4,0-5.8,3.4-7.8,6.8c-1,1.8-1.8,3.4-3,4.4
				c-3,2.6-7.4,1.8-9.8-0.4c-2-1.8-2.2-4.2-0.8-6.2c1-1.6,2.8-2.6,4.4-3.6c2-1.2,3.6-2.2,3.6-3.8c0-3.8-1.2-7-3.6-9.2
				c-5.4-5-14.8-4.2-15-4.2h-0.8l-0.2-1c-1.8-9.2-7-11.4-8.2-11.8c-1.2,0.4-6.4,2.6-8.2,11.8l-0.2,1h-0.8c0,0-9.6-0.8-15,4.2
				c-2.4,2.2-3.6,5.4-3.6,9.2c0,1.6,1.8,2.6,3.6,3.8c1.6,1,3.4,2,4.4,3.6c1.4,2,1.2,4.4-0.8,6.2c-2.4,2.2-6.8,3.2-9.8,0.4
				c-1.2-1-2-2.6-3-4.4c-1.8-3.4-3.8-6.8-7.6-6.8c-3.8,0-7.4,1.6-9.8,4.2c-2,2.4-3,5.4-2.6,9v1l-1,0.2c-0.2,0-10.6,2-15.2,9.4
				c4.6,7.4,15,9.4,15.2,9.4l1,0.2v1c-0.4,3.6,0.6,6.8,2.6,9c2.2,2.6,6,4.2,9.8,4.2c4,0,5.8-3.4,7.8-6.8c1-1.8,1.8-3.4,3-4.4
				c3-2.6,7.4-1.8,9.8,0.4c2,1.8,2.2,4.2,0.8,6.2c-1,1.6-2.8,2.6-4.4,3.6c-2,1.2-3.6,2.2-3.6,3.8c0,3.8,1.2,7,3.6,9.2
				c5.4,5,14.8,4.2,15,4.2h0.8l0.2,1C296.7,165.5,302.5,165.3,302.9,165.3z"/>
		</g>
		<g>
			<path class="st3" d="M381.4,114.8c0,0,2.2,10.6,8.8,13.4c0,0,1.6-6.4-0.6-10.8c0,0,6,3.6,11.4-3.2c-5-7.4-12-2.8-12-2.8
				c2.2-4.4,1.2-11.2,1.2-11.2C381,106.3,381.4,114.8,381.4,114.8z"/>
		</g>
		<g>
			<path class="st3" d="M378.6,107.1c0-2.2,0-3.2,2-3.2s1.6,1.2,1.6,3.2v14.1c0,2.2,0.4,3.2-1.6,3.2s-2-1.2-2-3.2V107.1z"/>
		</g>
		<g>
			<path class="st3" d="M224.3,114.8c0,0-2.2,10.6-8.8,13.4c0,0-1.6-6.4,0.6-10.8c0,0-6,3.6-11.4-3.2c5-7.4,12-2.8,12-2.8
				c-2.2-4.4-1.2-11.2-1.2-11.2C224.7,106.3,224.3,114.8,224.3,114.8z"/>
		</g>
		<g>
			<path class="st3" d="M227.1,107.1c0-2.2,0-3.2-2-3.2c-2,0-1.6,1.2-1.6,3.2v14.1c0,2.2-0.4,3.2,1.6,3.2c2,0,2-1.2,2-3.2V107.1z"/>
		</g>
		<g>
			<path class="st3" d="M288.9,97.9c-13.4-14-7.8-22.6-7.8-22.6s-8,3.6-7,12.2c0.6,4.6,43,43.6,43,43.6c13.4,14,7.8,22.2,7.8,22.2
				s7-3.6,7-12.2C331.7,139.4,288.9,97.9,288.9,97.9z"/>
		</g>
		<g>
			<path class="st3" d="M288.9,130.8c-13.4,14-7.8,22.6-7.8,22.6s-8-3.6-7-12.2c0.6-4.6,42.8-43.3,42.8-43.3
				c13.4-14,7.8-22.6,7.8-22.6s8,3.6,7,12.2C331.1,92.3,288.9,130.8,288.9,130.8z"/>
		</g>
		<g>
			<path class="st3" d="M334.9,111.7c-46.6-9.8-22.8-38.7-22.8-38.7l-1.4-3.6c0,0-25.8,35.1,24.2,44.8L334.9,111.7L334.9,111.7z"/>
		</g>
		<g>
			<path class="st3" d="M270.9,111.7c49.2-9.8,19.4-43.3,22.8-38.7l1.4-3.6c0,0,25.8,35.1-24.2,44.8L270.9,111.7L270.9,111.7z"/>
		</g>
		<g>
			<path class="st3" d="M270.9,117c46.4,9.8,22.8,38.7,22.8,38.7l1.4,3.6c0,0,25.8-35.1-24.2-45L270.9,117L270.9,117z"/>
		</g>
		<g>
			<path class="st3" d="M334.9,117c-46.4,9.8-22.8,38.7-22.8,38.7l-1.4,3.6c0,0-25.8-35.1,24.2-45L334.9,117L334.9,117z"/>
		</g>
		<g>
			<g>
				<path class="st5" d="M384.6,66.2c0,0,5,11.2,10.2,7.2c0,0,6.4,0.2,5.2-6.2c0,0,3.8-1,2.2-6c-0.8-5-6-5-6-5
					c-1.8-6.2-6.8-1.6-6.8-1.6C383.2,53.4,384.6,66.2,384.6,66.2"/>
				<path class="st3" d="M392.4,74.8c-0.4,0-0.6,0-1-0.2c-4-1-7.2-8-7.2-8.2v-0.2c0-0.4-1-8.4,2-11.2c0.8-0.8,2-1.2,3.2-1
					c0.6-0.6,2.8-2.2,4.8-1.4c1.2,0.4,2,1.4,2.6,3.2c1.2,0.2,5.4,0.8,6,5.4c0.6,1.6,0.4,3.2-0.2,4.4c-0.6,1.2-1.6,1.6-2,2
					c0.2,1.8,0,3.4-1,4.4c-1.4,1.8-3.8,2-4.6,2C394.2,74.4,393.4,74.8,392.4,74.8z M385,66c0.4,0.8,3.2,6.8,6.6,7.6
					c1,0.2,2,0,2.8-0.6l0.2-0.2h0.2c0,0,2.6,0,4-1.6c0.8-1,1-2.2,0.8-4v-0.4l0.4-0.2c0,0,1.2-0.4,1.8-1.6c0.6-1,0.6-2.2,0-3.6
					c-0.6-4.6-5.2-4.8-5.4-4.8H396l-0.2-0.4c-0.4-1.6-1.2-2.6-2-2.8c-1.4-0.4-3.4,0.8-4,1.4l-0.2,0.2h-0.2c-1-0.2-2,0-2.6,0.8
					C384.4,58.2,385,65.2,385,66z"/>
			</g>
			<g>
				<path class="st5" d="M384.6,161.7c0,0,5-11.2,10.2-7.2c0,0,6.4-0.2,5.2,6.2c0,0,3.8,1,2.2,6c-0.8,5-6,5-6,5
					c-1.8,6.2-6.8,1.6-6.8,1.6C383.2,174.5,384.6,161.7,384.6,161.7"/>
				<path class="st3" d="M393.2,175.5c-1.6,0-3.4-1.2-3.8-1.6c-1.2,0.2-2.4-0.2-3.2-1c-3-3-2-10.8-2-11.2v-0.2
					c0.2-0.2,3.2-7.2,7.2-8.2c1.2-0.4,2.4,0,3.6,0.8c0.6,0,3.2,0.2,4.6,2c1,1.2,1.2,2.6,1,4.4c0.6,0.2,1.4,0.8,2,2
					c0.6,1.2,0.6,2.8,0.2,4.6c-0.6,4.6-4.8,5.2-6,5.4c-0.6,1.8-1.4,2.8-2.6,3.2C393.8,175.5,393.6,175.5,393.2,175.5z M389.6,172.9
					L389.6,172.9c0.2,0.2,2.4,2.2,4.2,1.6c1-0.2,1.6-1.2,2-2.8l0.2-0.4h0.4c0.2,0,4.8,0,5.4-4.6c0.4-1.6,0.4-2.8,0-3.8
					c-0.6-1.2-1.8-1.6-1.8-1.6l-0.4-0.2v-0.4c0.2-1.8,0-3-0.8-4c-1.4-1.6-4-1.6-4-1.6h-0.2l-0.2-0.2c-1-0.8-1.8-1-2.8-0.6
					c-3.4,0.8-6.2,6.8-6.6,7.6c0,0.8-0.8,7.8,1.8,10.2c0.6,0.6,1.6,1,2.6,0.8H389.6z"/>
			</g>
			<g>
				<path class="st5" d="M221.1,66.2c0,0-5,11.2-10.2,7.2c0,0-6.4,0.2-5.2-6.2c0,0-3.8-1-2.2-6c0.8-5,6-5,6-5
					c1.8-6.2,6.8-1.6,6.8-1.6C222.5,53.4,221.1,66.2,221.1,66.2"/>
				<path class="st3" d="M213.3,74.8c-0.8,0-1.8-0.2-2.6-0.8c-0.6,0-3.2-0.2-4.6-2c-1-1.2-1.2-2.6-1-4.4c-0.6-0.2-1.4-0.8-2-2
					c-0.6-1.2-0.6-2.8-0.2-4.6c0.6-4.6,4.8-5.2,6-5.4c0.6-1.8,1.4-2.8,2.6-3.2c2-0.6,4.2,1,4.8,1.4c1.2-0.2,2.4,0.2,3.2,1
					c3,3,2,10.8,2,11.2v0.2c-0.2,0.2-3.2,7.2-7.2,8.2C213.9,74.8,213.5,74.8,213.3,74.8z M211.1,72.8L211.1,72.8c1,0.8,2,1,3,0.8
					c3.4-0.8,6.2-6.8,6.6-7.6c0-0.8,0.8-7.8-1.8-10.2c-0.6-0.6-1.6-1-2.6-0.8h-0.2l-0.2-0.2c0,0-2.2-2-4-1.4c-1,0.2-1.6,1.2-2,2.8
					l-0.2,0.4h-0.4c-0.2,0-4.8,0-5.4,4.6c-0.4,1.6-0.4,2.8,0,3.8c0.6,1.2,1.8,1.6,1.8,1.6l0.4,0.2v0.4c-0.4,1.8,0,3,0.8,4
					C208.3,72.8,210.9,72.8,211.1,72.8L211.1,72.8z"/>
			</g>
			<g>
				<path class="st5" d="M221.1,161.7c0,0-5-11.2-10.2-7.2c0,0-6.4-0.2-5.2,6.2c0,0-3.8,1-2.2,6c0.8,5,6,5,6,5
					c1.8,6.2,6.8,1.6,6.8,1.6C222.5,174.5,221.1,161.7,221.1,161.7"/>
				<path class="st3" d="M212.5,175.5c-0.4,0-0.6,0-1-0.2c-1.2-0.4-2-1.4-2.6-3.2c-1.2-0.2-5.4-0.8-6-5.4c-0.6-1.6-0.4-3.2,0.2-4.4
					c0.6-1.2,1.6-1.6,2-2c-0.2-1.8,0-3.4,1-4.4c1.4-1.8,3.8-2,4.6-2c1.2-0.8,2.4-1,3.6-0.8c4,1,7.2,8,7.2,8.2v0.2
					c0,0.4,1,8.2-2,11.2c-0.8,0.8-2,1.2-3.2,1C215.9,174.3,214.1,175.5,212.5,175.5z M210.9,155.1c-0.4,0-2.6,0-4,1.6
					c-0.8,1-1,2.2-0.8,4v0.4l-0.4,0.2c0,0-1.2,0.4-1.8,1.6c-0.4,1-0.6,2.2,0,3.6c0.8,4.6,5.2,4.8,5.4,4.8h0.4l0.2,0.4
					c0.4,1.6,1.2,2.6,2,2.8c1.8,0.6,4-1.4,4-1.4l0.2-0.2h0.2c1,0.2,2,0,2.6-0.8c2.4-2.4,1.8-9.4,1.8-10.2c-0.4-0.8-3.2-6.8-6.6-7.6
					c-1-0.2-2,0-2.8,0.6l-0.2,0.2L210.9,155.1L210.9,155.1z"/>
			</g>
		</g>
		<g>
			<g>
				<path class="st3" d="M376.8,68.4c6.4,9.2,15.4,7.6,15.4,7.6s-1.4-4.6-6-7.2c0,0,3.2,1,9-5.2c-8.4-3.2-10.6-0.4-10.6-0.4
					c3.6-5.2,2.4-9,2.4-9S378.4,57,376.8,68.4z"/>
			</g>
			<g>
				<path class="st3" d="M376.8,159.7c6.4-9.2,15.4-7.6,15.4-7.6s-1.4,4.6-6,7.2c0,0,3.2-1,9,5.2c-8.4,3.2-10.6,0.4-10.6,0.4
					c3.6,5.2,2.4,9,2.4,9S378.4,170.9,376.8,159.7z"/>
			</g>
			<g>
				<path class="st3" d="M228.9,68.4c-6.4,9.2-15.4,7.6-15.4,7.6s1.4-4.6,6.2-7.2c0,0-3.2,1-9-5.2c8.4-3.2,10.6-0.4,10.6-0.4
					c-3.6-5.2-2.6-9-2.6-9S227.3,57,228.9,68.4z"/>
			</g>
			<g>
				<path class="st3" d="M228.9,159.7c-6.4-9.2-15.4-7.6-15.4-7.6s1.4,4.6,6.2,7.2c0,0-3.2-1-9,5.2c8.4,3.2,10.6,0.4,10.6,0.4
					c-3.6,5.2-2.6,9-2.6,9S227.3,170.9,228.9,159.7z"/>
			</g>
		</g>
		<g>
			<g>
				<path class="st4" d="M372,82.8c0,0,4.6-0.6,7,5.4l-2.6-0.8c0,0,3.6,3.8,3.4,9l-2-2.8c0,0,2.2,7.6-0.6,10.4c0,0-4-1.8-4.6-7
					l-0.4,3.2c0,0-3-3.6-2.2-6.2l-0.8,2.6c0,0-2.4-4.6-0.6-7.8l-2,2.2c0,0,0-4.4,3-7.4C371.4,81.4,372,82.8,372,82.8z"/>
				<path class="st3" d="M377.2,104.7l-0.4-0.2c-0.2,0-3-1.4-4.2-4.8l-0.2,1.6l-0.8-0.8c0-0.2-1.4-1.8-2-3.8l-0.4,1.2l-0.6-1
					c0-0.2-1.6-3-1.2-6l-1.4,1.4v-1.2c0-0.2,0-4.8,3-7.8c0.8-0.8,1.6-1.2,2.2-1c0.4,0,0.6,0.2,0.8,0.4c1.2,0,5,0.4,7.2,5.8l0.4,1
					l-2-0.6c1.2,1.6,2.6,4.4,2.4,8v1.4l-1.4-2c0.4,2.6,0.8,6.6-1.2,8.6L377.2,104.7z M372.8,92.9l0.4,4c0.4,4.2,3,6,4,6.6
					c2.2-2.8,0.2-9.6,0.2-9.6l-0.8-2.8l2.8,4c-0.4-4-3.2-6.8-3.2-7l-1.4-1.4l3.4,1c-2.2-4.4-5.8-4-6-4h-0.4l-0.2-0.4
					c0,0,0-0.2-0.2-0.2c-0.2,0-0.6,0-1.4,0.8c-1.8,1.8-2.4,4.2-2.6,5.6l4.2-4.4l-2.4,4c-1.2,2-0.6,4.6,0,6l0.4-1.4l1,0.2
					c-0.4,1.4,0.6,3.4,1.4,4.8L372.8,92.9z"/>
			</g>
			<g>
				<path class="st4" d="M372,145.1c0,0,4.6,0.6,7-5.4l-2.6,0.8c0,0,3.6-3.8,3.4-9l-2,2.8c0,0,2.2-7.6-0.6-10.4c0,0-4,1.8-4.6,7
					l-0.4-3.2c0,0-3,3.6-2.2,6.2l-0.8-2.6c0,0-2.4,4.6-0.6,7.8l-2-2.2c0,0,0,4.6,3,7.4C371.4,146.5,372,145.1,372,145.1z"/>
				<path class="st3" d="M371.2,146.1c-0.6,0-1.2-0.4-2-1.2c-3-3-3-7.6-3-7.8v-1.2l1.4,1.4c-0.4-3,1.2-6,1.2-6l0.6-1l0.4,1.2
					c0.6-2,2-3.6,2-3.8l0.8-0.8l0.2,1.6c1.2-3.4,4-4.8,4.2-4.8l0.4-0.2l0.2,0.2c2,2,1.6,6,1.2,8.6l1.4-2v1.4c0.2,3.4-1.4,6.4-2.4,8
					l2-0.6l-0.4,1c-2.2,5.2-6,5.8-7.2,5.8c-0.2,0.2-0.4,0.4-0.8,0.4C371.4,146.1,371.4,146.1,371.2,146.1z M367.2,138.4
					c0.2,1.6,0.8,4,2.6,5.6c0.8,0.8,1.2,0.8,1.4,0.8c0.2,0,0.2-0.2,0.2-0.2l0.2-0.4h0.4c0.2,0,3.6,0.4,6-4l-3.4,1l1.4-1.4
					c0,0,2.8-3,3.2-7l-2.8,4l0.8-2.8c0,0,2-6.8-0.2-9.6c-1,0.6-3.6,2.4-4,6.6l-0.4,4l-0.8-6c-0.8,1.2-1.8,3.2-1.4,4.8l-1,0.2
					l-0.4-1.4c-0.6,1.4-1.2,4,0,6l2.4,4L367.2,138.4z"/>
			</g>
			<g>
				<path class="st4" d="M233.7,82.8c0,0-4.6-0.6-7,5.4l2.6-0.8c0,0-3.6,3.8-3.4,9l2-2.8c0,0-2.2,7.6,0.4,10.4c0,0,4-1.8,4.6-7
					l0.4,3.2c0,0,3-3.6,2.2-6.2l0.8,2.6c0,0,2.4-4.6,0.6-7.8l2,2.2c0,0,0-4.4-3-7.4C234.3,81.4,233.7,82.8,233.7,82.8z"/>
				<path class="st3" d="M228.5,104.7l-0.2-0.2c-2-2-1.6-6-1.2-8.6l-1.4,2v-1.4c-0.2-3.4,1.4-6.4,2.4-8l-2,0.6l0.4-1
					c2.2-5.2,6-5.8,7.2-5.8c0.2-0.2,0.4-0.4,0.8-0.4c0.6-0.2,1.4,0.2,2.2,1c3,3,3,7.6,3,7.8v1.2l-1.4-1.4c0.4,3-1.2,6-1.2,6l-0.6,1
					l-0.4-1.2c-0.6,2-2,3.6-2,3.8l-0.8,0.8l-0.2-1.6c-1.4,3.4-4,4.8-4.2,4.8L228.5,104.7z M229.3,90.9l-0.8,2.8c0,0-2,6.8,0.2,9.6
					c1-0.6,3.6-2.4,4-6.6l0.4-4l0.8,6c0.8-1.2,1.8-3.2,1.4-4.8l1-0.2l0.4,1.4c0.6-1.4,1.2-4,0-6l-2.4-4l4.2,4.4
					c-0.2-1.6-0.8-3.8-2.6-5.6c-0.8-0.8-1.2-0.8-1.4-0.8s-0.2,0.2-0.2,0.2l-0.2,0.4h-0.4c-0.2,0-3.6-0.4-6,4l3.4-1l-1.4,1.4
					c0,0-2.8,3-3.2,7L229.3,90.9z"/>
			</g>
			<g>
				<path class="st4" d="M233.7,145.1c0,0-4.6,0.6-7-5.4l2.6,0.8c0,0-3.6-3.8-3.4-9l2,2.8c0,0-2.2-7.6,0.4-10.4c0,0,4,1.8,4.6,7
					l0.4-3.2c0,0,3,3.6,2.2,6.2l0.8-2.6c0,0,2.4,4.6,0.6,7.8l2-2.2c0,0,0,4.6-3,7.4C234.3,146.5,233.7,145.1,233.7,145.1z"/>
				<path class="st3" d="M234.5,146.1h-0.2c-0.4,0-0.6-0.2-0.8-0.4c-1.2,0-5-0.4-7.2-5.8l-0.4-1l2,0.6c-1.2-1.6-2.6-4.4-2.4-8V130
					l1.4,2c-0.4-2.6-0.8-6.6,1.2-8.6l0.2-0.2l0.4,0.2c0.2,0,3,1.4,4.2,4.8l0.2-1.6l0.8,0.8c0,0.2,1.4,1.8,2,3.8l0.4-1.2l0.6,1
					c0,0.2,1.6,3,1.2,6l1.4-1.4v1.2c0,0.2,0,4.8-3,7.8C235.7,145.7,235.1,146.1,234.5,146.1z M234.1,144.9c0,0,0,0.2,0.2,0.2
					s0.6,0,1.4-0.8c1.8-1.8,2.4-4.2,2.6-5.6l-4.2,4.4l2.4-4c1.2-2,0.6-4.6,0-6l-0.4,1.4l-1-0.2c0.4-1.6-0.6-3.6-1.4-4.8l-0.8,6
					l-0.4-4c-0.4-4-3-6-4-6.4c-2.2,2.8-0.2,9.6-0.2,9.6l0.8,2.8l-2.8-4c0.4,4,3.2,6.8,3.2,7l1.4,1.4l-3.4-1c2.2,4.4,5.8,4,6,4h0.4
					L234.1,144.9z"/>
			</g>
		</g>
		<g>
			<g>
				<path class="st3" d="M419.8,114.4c6.8,1,11.2,8.2,11.2,8.2c-4,5.4-15.8,2.4-15.8,2.4c5,3.4,5,14,5,14
					c-10.4,0.4-12.6-7.8-12.6-7.8c1.8,5.4-3.2,13.6-3.2,13.6c1-5.8-21.6-30.5-21.6-30.5s22.4-24.6,21.6-30.5c0,0,5,8.2,3.2,13.6
					c0,0,2.2-8.2,12.6-7.8c0,0,0,10.6-5,14c0,0,11.6-3,15.8,2.4C431.2,106.3,426.6,113.5,419.8,114.4"/>
			</g>
			<g>
				<path class="st3" d="M185.9,114.4c-6.8,1-11.2,8.2-11.2,8.2c4,5.4,15.8,2.4,15.8,2.4c-5,3.4-5,14-5,14
					c10.4,0.4,12.6-7.8,12.6-7.8c-1.8,5.4,3.2,13.6,3.2,13.6c-1-5.8,21.6-30.5,21.6-30.5s-22.4-24.6-21.6-30.5c0,0-5,8.2-3.2,13.6
					c0,0-2.2-8.2-12.6-7.8c0,0,0,10.6,5,14c0,0-11.6-3-15.8,2.4C174.5,106.3,179.1,113.5,185.9,114.4"/>
			</g>
		</g>
		<g>
			<g>
				<path class="st6" d="M334.7,108.7c0-1.6,0-2.6,2-2.6s1.8,1,1.8,2.6v11.4c0,1.6,0.4,2.6-1.8,2.6c-2,0-2-1-2-2.6V108.7z"/>
				<path class="st3" d="M336.7,123c-2.6,0-2.6-1.6-2.6-3.2v-11.4c0-1.6,0-3.2,2.6-3.2c0.8,0,1.4,0.2,1.8,0.6s0.4,1.2,0.4,2
					c0,0.2,0,0.4,0,0.6v11.4c0,0.2,0,0.4,0,0.6c0,0.8,0,1.6-0.4,2C338.1,122.8,337.5,123,336.7,123z M336.7,106.5
					c-1.6,0-1.6,0.4-1.6,2.2v11.4c0,1.8,0,2.2,1.6,2.2c0.8,0,1-0.2,1-0.2c0.2-0.2,0.2-0.6,0.2-1.2c0-0.2,0-0.4,0-0.6v-11.4
					c0-0.2,0-0.4,0-0.6c0-0.6,0-1-0.2-1.2C337.7,106.7,337.3,106.5,336.7,106.5z"/>
			</g>
			<g>
				<path class="st6" d="M297.3,95.5c-1.6,0-2.4,0-2.4-2.2c0-2.2,0.8-1.8,2.4-1.8h10.6c1.6,0,2.4-0.4,2.4,1.8c0,2.2-0.8,2.2-2.4,2.2
					H297.3z"/>
				<path class="st3" d="M307.9,96.1h-10.6c-1.6,0-3,0-3-2.8c0-1,0.2-1.6,0.6-2s1.2-0.4,1.8-0.4c0.2,0,0.4,0,0.6,0h10.6
					c0.2,0,0.4,0,0.6,0c0.8,0,1.4,0,1.8,0.4s0.6,1,0.6,2C310.9,96.1,309.5,96.1,307.9,96.1z M296.3,92.1c-0.4,0-0.6,0-0.6,0.2
					c-0.2,0.2-0.2,0.4-0.2,1.2c0,1.6,0.4,1.6,2,1.6h10.6c1.6,0,2,0,2-1.6c0-0.8-0.2-1-0.2-1.2c-0.2-0.2-0.6-0.2-1.2-0.2
					c-0.2,0-0.4,0-0.6,0h-10.6c-0.2,0-0.4,0-0.6,0C296.5,92.1,296.5,92.1,296.3,92.1z"/>
			</g>
			<g>
				<path class="st6" d="M271.5,108.7c0-1.6,0-2.6-2-2.6s-1.8,1-1.8,2.6v11.4c0,1.6-0.4,2.6,1.8,2.6c2,0,2-1,2-2.6V108.7z"/>
				<path class="st3" d="M269.5,123c-0.8,0-1.4-0.2-1.8-0.6s-0.4-1.2-0.4-2c0-0.2,0-0.4,0-0.6v-11.4c0-0.2,0-0.4,0-0.6
					c0-0.8,0-1.6,0.4-2s1-0.6,1.8-0.6c2.6,0,2.6,1.6,2.6,3.2v11.4C271.9,121.6,271.9,123,269.5,123z M269.5,106.5
					c-0.8,0-1,0.2-1,0.2c-0.2,0.2-0.2,0.6-0.2,1.2c0,0.2,0,0.4,0,0.6v11.4c0,0.2,0,0.4,0,0.6c0,0.6,0,1,0.2,1.2c0,0.2,0.4,0.2,1,0.2
					c1.6,0,1.6-0.4,1.6-2.2v-11.4C270.9,106.9,270.9,106.5,269.5,106.5z"/>
			</g>
			<g>
				<path class="st6" d="M297.3,133c-1.6,0-2.4,0-2.4,2.2c0,2.2,0.8,1.8,2.4,1.8h10.6c1.6,0,2.4,0.4,2.4-1.8c0-2.2-0.8-2.2-2.4-2.2
					H297.3z"/>
				<path class="st3" d="M296.3,137.4c-0.6,0-1,0-1.4-0.4c-0.4-0.4-0.6-1-0.6-2c0-2.8,1.4-2.8,3-2.8h10.6c1.6,0,3,0,3,2.8
					c0,1-0.2,1.6-0.6,2s-1.2,0.4-1.8,0.4c-0.2,0-0.4,0-0.6,0h-10.6c-0.2,0-0.4,0-0.6,0C296.5,137.4,296.5,137.4,296.3,137.4z
					 M297.3,133.4c-1.6,0-2,0-2,1.6c0,0.8,0.2,1,0.2,1.2c0.2,0.2,0.6,0.2,1.2,0.2c0.2,0,0.4,0,0.6,0h10.6c0.2,0,0.4,0,0.6,0
					c0.6,0,1,0,1.2-0.2c0.2-0.2,0.2-0.4,0.2-1.2c0-1.6-0.4-1.6-2-1.6H297.3z"/>
			</g>
		</g>
		<g>
			<g>
				<path class="st4" d="M338.3,112.1c5.2-8.6,14.6-5,14.6-5c-0.6,3.6-6.4,5-6.4,5c7.2-2.2,11.6,2.2,11.6,2.2s-4.4,4.6-11.6,2.2
					c0,0,6,1.6,6.4,5c0,0-9.4,3.6-14.6-5V112.1z"/>
				<path class="st3" d="M348.5,122.8c-3.2,0-7.6-1.2-10.6-6v-0.2v-4.8v-0.2c5.4-9,15.2-5.4,15.2-5.4l0.4,0.2v0.4
					c-0.2,1.6-1.6,3-3,3.8l0,0c4.8,0,7.8,3,8,3l0.4,0.4l-0.4,0.4c-0.2,0.2-3,3-8,3l0,0c1.4,0.8,2.8,2.2,3,3.8v0.4l-0.4,0.2
					C353.1,122,351.1,122.8,348.5,122.8z M338.9,116.4c4.4,7.2,11.6,5.4,13.6,4.8c-0.8-2.4-4.4-3.8-5.6-4.2c-0.2,0-0.2,0-0.4-0.2
					l0.2-1c0,0,0.2,0,0.4,0.2c5.4,1.6,9-1,10.2-2c-1.2-1-4.8-3.4-10.2-2c-0.2,0-0.4,0.2-0.4,0.2l-0.2-1c0.2,0,0.2,0,0.4-0.2
					c1.2-0.4,4.8-1.8,5.6-4.2c-1.8-0.6-9.2-2.2-13.6,4.8V116.4z"/>
			</g>
			<g>
				<path class="st4" d="M300.5,91.5c-8-5.6-4.8-15.8-4.8-15.8c3.2,0.6,4.8,7,4.8,7c-2.2-7.6,2.2-12.4,2.2-12.4s4.2,4.8,2.2,12.4
					c0,0,1.4-6.4,4.8-7c0,0,3.4,10.2-4.8,15.8H300.5z"/>
				<path class="st3" d="M304.9,92.1h-4.6h-0.2c-8.4-5.8-5-16.2-5-16.4l0.2-0.4h0.4c1.6,0.2,2.8,1.6,3.6,3.2c0-5.2,2.8-8.4,2.8-8.6
					l0.4-0.4l0.4,0.4c0.2,0.2,2.8,3.2,2.8,8.6c0.8-1.6,2-3,3.6-3.2h0.4l0.2,0.4C309.9,75.6,313.3,86.3,304.9,92.1L304.9,92.1z
					 M300.7,91.1h4c6.6-4.8,5-12.6,4.6-14.6c-2,0.8-3.2,4-3.8,6c0,0.2,0,0.4-0.2,0.6l-1-0.2c0,0,0-0.2,0.2-0.4
					c1.4-5.6-0.8-9.6-1.8-11c-1,1.4-3.2,5.4-1.8,11c0,0.2,0.2,0.4,0.2,0.4l-1,0.2c0-0.2,0-0.4-0.2-0.6c-0.6-1.8-1.8-5.2-3.8-6
					C295.5,78.4,293.9,86.3,300.7,91.1z"/>
			</g>
			<g>
				<path class="st4" d="M300.5,137c-8,5.6-4.8,15.8-4.8,15.8c3.2-0.6,4.8-7,4.8-7c-2.2,7.6,2.2,12.4,2.2,12.4s4.2-4.8,2.2-12.4
					c0,0,1.4,6.4,4.8,7c0,0,3.4-10.2-4.8-15.8H300.5z"/>
				<path class="st3" d="M302.7,159.1l-0.4-0.4c-0.2-0.2-2.8-3.2-2.8-8.6c-0.8,1.6-2,3-3.6,3.2h-0.4l-0.2-0.4c0-0.2-3.4-10.6,5-16.4
					h0.2h4.6h0.2c8.4,5.8,5,16.2,5,16.4l-0.2,0.4h-0.4c-1.6-0.2-2.8-1.6-3.6-3.2c0,5.2-2.8,8.4-2.8,8.6L302.7,159.1z M300.9,146.5
					c-1.4,5.8,0.8,9.6,1.8,11c1-1.4,3.2-5.4,1.8-11c0-0.2-0.2-0.4-0.2-0.4l1-0.2c0,0.2,0,0.4,0.2,0.6c0.6,1.8,1.8,5.2,3.8,6
					c0.6-2,2.2-9.8-4.6-14.6h-4c-6.6,4.8-5,12.6-4.6,14.6c2-0.8,3.2-4.2,3.8-6c0-0.2,0-0.4,0.2-0.6l1,0.2
					C300.9,145.9,300.9,146.1,300.9,146.5z"/>
			</g>
			<g>
				<path class="st4" d="M267.5,112.1c-5.2-8.6-14.6-5-14.6-5c0.6,3.6,6.4,5,6.4,5c-7.2-2.2-11.6,2.2-11.6,2.2s4.4,4.6,11.6,2.2
					c0,0-6,1.6-6.4,5c0,0,9.4,3.6,14.6-5V112.1z"/>
				<path class="st3" d="M257.3,122.8c-2.6,0-4.6-0.8-4.6-0.8l-0.4-0.2v-0.4c0.2-1.6,1.6-3,3-3.8l0,0c-4.8,0-7.8-3-8-3l-0.4-0.4
					l0.4-0.4c0.2-0.2,3-3,8-3l0,0c-1.4-0.8-2.8-2.2-3-3.8v-0.4l0.4-0.2c0,0,9.8-3.6,15.2,5.4v0.2v4.8v0.2
					C264.9,121.8,260.7,122.8,257.3,122.8z M253.5,121.2c1.8,0.6,9.2,2.2,13.6-4.8v-4.2c-4.4-7.2-11.6-5.4-13.6-4.8
					c0.8,2.4,4.4,3.8,5.6,4.2c0.2,0,0.2,0,0.4,0.2l-0.2,1c0,0-0.2,0-0.4-0.2c-5.4-1.4-9,1-10.2,2c1.2,1,4.8,3.4,10.2,2
					c0.2,0,0.4-0.2,0.4-0.2l0.2,1c-0.2,0-0.2,0-0.4,0.2C257.9,117.6,254.1,118.8,253.5,121.2z"/>
			</g>
		</g>
		<g>
			<g>
				<path class="st5" d="M392.6,114.8c0,0,3.8,12,9.2,11.2c0,0,8,4.8,8.6-3.4c0,0,9-0.4,5-7.8c4-7.2-5-7.8-5-7.8
					c-0.4-8.2-8.6-3.4-8.6-3.4C396.4,102.9,392.6,114.8,392.6,114.8z"/>
				<path class="st3" d="M407,127.8c-2,0-4-1-4.8-1.4c-5.8,0.6-9.6-10.6-10-11.8l-0.2-0.4l0.2-0.4c0.4-1.2,4.2-12.4,10-11.8
					c1-0.6,4.6-2.2,7.2-0.8c1.4,0.8,2.2,2.2,2.4,4.4c1.4,0.2,4.4,1,5.6,3.2c0.8,1.6,0.6,3.4-0.4,5.4c1,2.2,1.2,4,0.4,5.4
					c-1.2,2.2-4,3-5.6,3.2c-0.2,2.2-1.2,3.6-2.4,4.4C408.6,127.8,407.8,127.8,407,127.8z M402.6,124.4l0.4,0.2c1,0.6,3.8,1.8,5.6,1
					c0.8-0.6,1.4-1.6,1.4-3.4v-1h0.8c1,0,4-0.6,4.8-2.2c0.6-1,0.2-2.2-0.6-4l-0.2-0.6l0.2-0.6c1-1.6,1.2-3,0.6-4
					c-0.8-1.6-3.8-2.2-4.8-2.2H410v-1c0-1.8-0.6-3-1.4-3.4c-1.6-1-4.6,0.4-5.6,1l-0.4,0.2h-0.4c-3.6-0.6-6.8,6.8-8,10
					c1.2,3.4,4.4,10.8,8,10H402.6z"/>
			</g>
			<g>
				<path class="st5" d="M212.1,114.8c0,0-3.8,12-9.2,11.2c0,0-8,4.8-8.6-3.4c0,0-9-0.4-5-7.8c-4-7.2,5-7.8,5-7.8
					c0.4-8.2,8.6-3.4,8.6-3.4C208.3,102.9,212.1,114.8,212.1,114.8z"/>
				<path class="st3" d="M198.7,127.8c-0.8,0-1.6-0.2-2.4-0.6c-1.4-0.8-2.2-2.2-2.4-4.4c-1.4-0.2-4.4-1-5.6-3.2
					c-0.8-1.6-0.6-3.4,0.4-5.4c-1-2.2-1.2-4-0.4-5.4c1.2-2.2,4-3,5.6-3.2c0.2-2.2,1.2-3.6,2.4-4.4c2.6-1.4,6.2,0.2,7.2,0.8
					c5.8-0.6,9.6,10.6,10,11.8l0.2,0.4l-0.2,0.4c-0.4,1.2-4.2,12.6-10,11.8C202.7,127,200.7,127.8,198.7,127.8z M198.7,102.9
					c-0.6,0-1,0-1.4,0.4c-0.8,0.6-1.4,1.6-1.6,3.6v1h-0.8c-1,0-4,0.6-4.8,2.2c-0.6,1-0.2,2.2,0.6,4l0.2,0.6l-0.2,0.6
					c-1,1.6-1.2,3-0.6,4c0.8,1.6,3.8,2.2,4.8,2.2h0.8v1c0,1.8,0.6,3,1.6,3.6c1.6,1,4.6-0.4,5.6-1l0.4-0.2h0.4c3.6,0.6,7-7,8-10
					c-1.2-3.4-4.4-10.8-8-10h-0.4l-0.4-0.2C202.1,103.7,200.3,102.9,198.7,102.9z"/>
			</g>
		</g>
		<g>
			<g>
				<g>
					<path class="st5" d="M427.6,103.3c0,0,4-9.2-7.2-10.6l-5,11.2L427.6,103.3z"/>
					<path class="st3" d="M414.6,104.3l5.4-12.2h0.4c3.8,0.4,6.4,1.8,7.6,4.2c1.8,3.2,0.2,7,0,7.2l-0.2,0.2L414.6,104.3z
						 M420.6,93.3l-4.4,10l11-0.4c0.4-0.8,1.2-3.6-0.2-6C426,94.9,423.8,93.7,420.6,93.3z"/>
				</g>
				<g>
					<path class="st5" d="M407.8,97.5c0,0,0.4-7.8-1.4-10.6c-1.8-3,10.4-4.2,10.4,2.4C416.8,92.1,407.8,97.5,407.8,97.5z"/>
					<path class="st3" d="M407.2,98.5v-1c0,0,0.4-7.6-1.2-10.4c-0.4-0.6-0.4-1.2,0-1.8c1-1.4,4.8-1.8,7.6-0.8
						c2.4,0.8,3.6,2.6,3.6,4.8c0,3.2-8.4,8.2-9.2,8.6L407.2,98.5z M410.4,85c-1.6,0-3.2,0.4-3.6,1c-0.2,0.2-0.2,0.2,0,0.6
						c1.4,2.4,1.6,7.8,1.4,10c3.4-2,8-5.6,8-7.2c0-2.2-1.6-3.4-3-3.8C412.4,85,411.4,85,410.4,85z"/>
				</g>
				<g>
					<path class="st5" d="M427.6,125.4c0,0,4,9.2-7.2,10.6l-5-11.2L427.6,125.4z"/>
					<path class="st3" d="M420,136.6l-5.4-12.2l13.2,0.6l0.2,0.2c0,0.2,1.8,4,0,7.2c-1.2,2.2-3.8,3.6-7.6,4.2H420z M416.2,125.6
						l4.4,10c3.2-0.4,5.4-1.6,6.4-3.6c1.2-2.4,0.4-5.2,0.2-6L416.2,125.6z"/>
				</g>
				<g>
					<path class="st5" d="M407.8,131.2c0,0,0.4,7.8-1.4,10.6c-1.8,3,10.4,4.2,10.4-2.4C416.8,136.6,407.8,131.2,407.8,131.2z"/>
					<path class="st3" d="M410.4,144.9c-1.8,0-3.6-0.6-4.4-1.4c-0.4-0.6-0.4-1.2,0-1.8c1.6-2.8,1.2-10.2,1.2-10.4v-1l0.8,0.4
						c1,0.6,9.2,5.6,9.2,8.6c0,2.2-1.2,4-3.6,4.8C412.6,144.7,411.4,144.9,410.4,144.9z M408.2,132.2c0,2.2,0,7.6-1.4,10
						c-0.2,0.2-0.2,0.4,0,0.6c0.6,0.8,3.8,1.4,6.4,0.6c1.4-0.4,3-1.6,3-3.8C416.2,137.8,411.6,134.2,408.2,132.2z"/>
				</g>
				<g>
					<path class="st5" d="M418,114.4l8.8,6c2.6-1,7.4-2.2,8.8-6c-1.4-3.8-6.4-4.8-9.2-5.8L418,114.4z"/>
					<path class="st3" d="M426.8,121l-9.6-6.6l9.2-6.2h0.2c0.4,0.2,1,0.4,1.4,0.4c2.8,0.8,6.8,2,8,5.6v0.2v0.2
						c-1.4,3.8-5.4,5.2-8.2,6L426.8,121z M419,114.4l8,5.6c0.2,0,0.4-0.2,0.6-0.2c2.6-1,6.4-2.2,7.6-5.2c-1.2-2.8-4.6-4-7.2-4.8
						c-0.4-0.2-0.8-0.2-1.2-0.4L419,114.4z"/>
				</g>
			</g>
			<g>
				<g>
					<path class="st5" d="M178.1,103.3c0,0-4-9.2,7.2-10.6l5,11.2L178.1,103.3z"/>
					<path class="st3" d="M191.1,104.3l-13.2-0.4l-0.2-0.4c0-0.2-1.8-4,0-7.2c1.2-2.2,3.8-3.6,7.6-4.2h0.4L191.1,104.3z
						 M178.5,102.9l11,0.4l-4.4-10c-3.2,0.4-5.4,1.6-6.4,3.6C177.3,99.1,178.1,101.9,178.5,102.9z"/>
				</g>
				<g>
					<path class="st5" d="M197.9,97.5c0,0-0.4-7.8,1.4-10.6c1.8-3-10.4-4.2-10.4,2.4C188.9,92.1,197.9,97.5,197.9,97.5z"/>
				</g>
				<g>
					<path class="st5" d="M178.1,125.4c0,0-4,9.2,7.2,10.6l5-11.2L178.1,125.4z"/>
					<path class="st3" d="M185.7,136.6h-0.4c-3.8-0.4-6.4-1.8-7.6-4.2c-1.8-3.2-0.2-7,0-7.2l0.2-0.2l13.2-0.6L185.7,136.6z
						 M178.5,126c-0.4,0.8-1.2,3.6,0.2,6c1,1.8,3.2,3,6.4,3.6l4.4-10L178.5,126z"/>
				</g>
				<g>
					<path class="st5" d="M197.9,131.2c0,0-0.4,7.8,1.4,10.6c1.8,3-10.4,4.2-10.4-2.4C188.9,136.6,197.9,131.2,197.9,131.2z"/>
					<path class="st3" d="M195.3,144.9c-1.2,0-2.2-0.2-3.2-0.6c-2.4-0.8-3.6-2.6-3.6-4.8c0-3.2,8.4-8.2,9.2-8.6l0.8-0.4v1
						c0,0-0.4,7.6,1.2,10.4c0.4,0.6,0.4,1.2,0,1.8C198.9,144.3,197.3,144.9,195.3,144.9z M197.5,132.2c-3.4,2-8,5.6-8,7.2
						c0,2.2,1.6,3.4,3,3.8c2.6,1,5.8,0.4,6.4-0.6c0.2-0.2,0.2-0.2,0-0.6C197.3,139.8,197.3,134.4,197.5,132.2z"/>
				</g>
				<g>
					<path class="st5" d="M187.7,114.4l-8.8,6c-2.6-1-7.4-2.2-8.8-6c1.4-3.8,6.4-4.8,9.2-5.8L187.7,114.4z"/>
					<path class="st3" d="M178.9,121l-1-0.4c-2.8-1-7-2.4-8.2-6v-0.2v-0.2c1.2-3.4,5-4.6,8-5.6c0.6-0.2,1-0.4,1.4-0.4h0.2l9.2,6.2
						L178.9,121z M170.7,114.4c1.2,3.2,4.8,4.4,7.6,5.2c0.2,0,0.4,0.2,0.6,0.2l8-5.6l-7.6-5.2c-0.6,0.4-1,0.4-1.4,0.6
						C175.3,110.5,171.7,111.5,170.7,114.4z"/>
				</g>
			</g>
		</g>
	</g>
	<g>
		<g>
			<g>
				<path class="st3" d="M1998.5,210.5c-3.2-0.2-16.8-6.2-16.8-17.6c0-11.4,9.4-15.2,9.4-15.2s-5.2,3.8-5.2,11
					c0,3.6,2.8,3.6,2.8,6.6c0,3-2.8,3.2-4.2,1.6c0,0,1.8,8.8,14,12.8L1998.5,210.5L1998.5,210.5z"/>
			</g>
			<g>
				<path class="st3" d="M2027.3,188.1c-5,18.6-18.4,22.4-18.4,22.4l-0.2-1.6c0,0,12.2-5,17.2-21.2L2027.3,188.1"/>
			</g>
			<g>
				<path class="st3" d="M2019.9,199.8l1.4-2c-9.2-1-11.2-15.2-11.2-15.2S2009.3,197.1,2019.9,199.8z"/>
			</g>
			<g>
				<path class="st3" d="M1982.1,210.5c0,0,5.4-11.4,13.8-10.8c0,0-0.4-12.6,5.4-12.6s6.2,13,10,10.4c3.2-2.2-0.8-6-1.2-11.8
					c-0.4-7.4,3.4-12.8,9-12.2c0,0,1-7.8,3.6-9.2c2.8-1.8,4-4.6,4-4.6s1,3,4,4.6c2.6,1.6,3.6,9.2,3.6,9.2c5.6-0.6,9.4,5,9,12.4
					c-0.4,5.8-4.4,9.6-1.2,11.6c3.8,2.6,4.2-10.4,10-10.4c5.8,0,5.4,12.6,5.4,12.6c8.4-0.6,13.8,10.8,13.8,10.8l1-1
					c0,0-3.8-10.6-12.4-12.2c0,0,1-17.2-14.4-14c0,0,1-11.8-9.6-12.2c0,0-1-7-5-9.2c-4-2.2-4.2-6.2-4.2-6.2s-0.2,4-4.2,6.2
					c-4,2.2-5,9.2-5,9.2c-10.6,0.6-9.6,12.2-9.6,12.2c-15.2-3.2-14.4,14-14.4,14c-8.6,1.4-12.4,12.2-12.4,12.2L1982.1,210.5z"/>
			</g>
			<g>
				<path class="st3" d="M2054.9,210.5c3.2-0.2,16.8-6.2,16.8-17.6c0-11.4-9.4-15.2-9.4-15.2s5.2,3.8,5.2,11c0,3.6-2.8,3.6-2.8,6.6
					c0,3,2.8,3.2,4.2,1.6c0,0-1.8,8.8-14,12.8V210.5z"/>
			</g>
			<g>
				<path class="st3" d="M2026.3,188.1c5,18.6,18.4,22.4,18.4,22.4l0.2-1.6c0,0-12.2-5-17.2-21.2L2026.3,188.1"/>
			</g>
			<g>
				<path class="st3" d="M2033.5,199.8l-1.4-2c9.2-1,11.4-15.2,11.4-15.2S2044.1,197.1,2033.5,199.8z"/>
			</g>
			<g>
				<path class="st3" d="M2027.1,208.3c5-2.6,6.4-5.6,6.4-5.6l-1.2-1.6c0,0-1.6,3.2-5.2,4.8c-3.6-1.6-5.8-5.2-5.8-5.2l-1.4,1.8
					C2019.9,202.3,2022.3,205.7,2027.1,208.3z"/>
			</g>
		</g>
		<g>
			<g>
				<path class="st3" d="M1980.9,210.5c-4-8-12.2-10-12.2-10c-0.4,4.4,3.8,6.2,3.8,6.2c-4.8-1.2-10.2,3.8-10.2,3.8H1980.9"/>
			</g>
			<g>
				<path class="st3" d="M2008.9,210.5c-0.4-7.4-9-8.6-9-8.6c0,4,3.8,5.4,3.8,5.4c-5-1.6-8,3.2-8,3.2L2008.9,210.5z"/>
			</g>
			<g>
				<path class="st4" d="M2027.1,186.3c-6.4-0.6-7.2-10.4-7.2-10.4c3.6,0,4.6,4.4,4.6,4.4c-1.4-5.8,2.8-9.2,2.8-9.2s3,3.6,1.6,9.2
					c0,0,1.2-4.4,4.6-4.4C2033.5,175.9,2033.3,185.7,2027.1,186.3z"/>
				<path class="st3" d="M2027.1,186.9L2027.1,186.9c-6.8-0.6-7.6-10.4-7.6-11v-0.6h0.6c1.8,0,3,1,3.8,2.2c0.2-4.2,3-6.8,3.2-7
					l0.4-0.4l0.4,0.4c0.2,0.2,2.2,2.6,2,6.8c0.8-1,2-2,3.8-2h0.6v0.6C2033.9,176.3,2033.7,186.3,2027.1,186.9L2027.1,186.9z
					 M2020.5,176.5c0.4,2,1.6,8.8,6.6,9.4c5-0.4,5.8-7.4,6-9.4c-2.6,0.4-3.6,4-3.6,4l-1-0.2c1-4.4-0.4-7.2-1.2-8.4
					c-1,1-3.2,4-2.2,8.4l-1,0.2C2024.1,180.3,2023.1,176.9,2020.5,176.5z"/>
			</g>
			<g>
				<path class="st3" d="M2072.5,210.5c4-8,12.2-10,12.2-10c0.4,4.4-3.8,6.2-3.8,6.2c4.8-1.2,10.2,3.8,10.2,3.8H2072.5"/>
			</g>
			<g>
				<path class="st3" d="M2044.5,210.5c0.4-7.4,9-8.6,9-8.6c0,4-3.8,5.4-3.8,5.4c5-1.6,8,3.2,8,3.2L2044.5,210.5z"/>
			</g>
		</g>
		<g>
			<path class="st3" d="M2023.7,188.3c-3,0-3-3.6,0-3.6h6.2c3,0,3,3.6,0,3.6H2023.7z"/>
		</g>
		<g>
			<path class="st3" d="M1978.3,210.5v-4.8c0-4.2,3.8-4,3.8,0v4.8H1978.3z"/>
		</g>
		<g>
			<path class="st3" d="M2042.9,210.5v-4.2c0-3.4,3.2-3.6,3.2,0v4.2H2042.9z"/>
		</g>
		<g>
			<path class="st3" d="M2007.5,210.5v-4.2c0-3.4,3.2-3.6,3.2,0v4.2H2007.5z"/>
		</g>
		<g>
			<path class="st3" d="M2075.1,210.5v-4.8c0-4.2-3.8-4-3.8,0v4.8H2075.1z"/>
		</g>
	</g>
	<g>
		<g>
			<g>
				<path class="st3" d="M1998.5,16.6c-3.2,0.2-16.8,6.2-16.8,17.6s9.4,15.2,9.4,15.2s-5.2-3.8-5.2-11c0-3.6,2.8-3.6,2.8-6.6
					c0-3-2.8-3.2-4.2-1.6c0,0,1.8-8.8,14-12.8L1998.5,16.6L1998.5,16.6z"/>
			</g>
			<g>
				<path class="st3" d="M2027.3,39.2c-5-18.6-18.4-22.4-18.4-22.4l-0.2,1.6c0,0,12.2,5,17.2,21.2L2027.3,39.2"/>
			</g>
			<g>
				<path class="st3" d="M2019.9,27.5l1.4,2c-9.2,1-11.2,15.2-11.2,15.2S2009.3,30,2019.9,27.5z"/>
			</g>
			<g>
				<path class="st3" d="M1982.1,16.6c0,0,5.4,11.4,13.8,10.8c0,0-0.4,12.6,5.4,12.6s6.2-13,10-10.4c3.2,2.2-0.8,6-1.2,11.8
					c-0.4,7.4,3.4,12.8,9,12.2c0,0,1,7.8,3.6,9.2c2.8,1.8,4,4.6,4,4.6s1-3,4-4.6c2.6-1.6,3.6-9.2,3.6-9.2c5.6,0.6,9.4-5,9-12.4
					c-0.4-5.8-4.4-9.6-1.2-11.6c3.8-2.6,4.2,10.4,10,10.4c5.8,0,5.4-12.6,5.4-12.6c8.4,0.6,13.8-10.8,13.8-10.8l1,1
					c0,0-3.8,10.6-12.4,12.2c0,0,1,17.2-14.4,14c0,0,1,11.8-9.6,12.2c0,0-1,7-5,9.2c-4,2.2-4.2,6.2-4.2,6.2s-0.2-4-4.2-6.2
					c-4-2.2-5-9.2-5-9.2c-10.6-0.6-9.6-12.2-9.6-12.2c-15.2,3.2-14.4-14-14.4-14c-8.6-1.4-12.4-12.2-12.4-12.2L1982.1,16.6z"/>
			</g>
			<g>
				<path class="st3" d="M2054.9,16.6c3.2,0.2,16.8,6.2,16.8,17.6s-9.4,15.2-9.4,15.2s5.2-3.8,5.2-11c0-3.6-2.8-3.6-2.8-6.6
					c0-3,2.8-3.2,4.2-1.6c0,0-1.8-8.8-14-12.8V16.6z"/>
			</g>
			<g>
				<path class="st3" d="M2026.3,39.2c5-18.6,18.4-22.4,18.4-22.4l0.2,1.6c0,0-12.2,5-17.2,21.2L2026.3,39.2"/>
			</g>
			<g>
				<path class="st3" d="M2033.5,27.5l-1.4,2c9.2,1,11.4,15.2,11.4,15.2S2044.1,30,2033.5,27.5z"/>
			</g>
			<g>
				<path class="st3" d="M2027.1,18.8c5,2.6,6.4,5.6,6.4,5.6l-1.2,1.6c0,0-1.6-3.2-5.2-4.8c-3.6,1.6-5.8,5.2-5.8,5.2l-1.4-1.8
					C2019.9,25,2022.3,21.4,2027.1,18.8z"/>
			</g>
		</g>
		<g>
			<g>
				<path class="st3" d="M1980.9,16.6c-4,8-12.2,10-12.2,10c-0.4-4.4,3.8-6.2,3.8-6.2c-4.8,1.2-10.2-3.8-10.2-3.8L1980.9,16.6"/>
			</g>
			<g>
				<path class="st3" d="M2008.9,16.6c-0.4,7.4-9,8.6-9,8.6c0-4,3.8-5.4,3.8-5.4c-5,1.6-8-3.2-8-3.2H2008.9z"/>
			</g>
			<g>
				<path class="st4" d="M2027.1,40.8c-6.4,0.6-7.2,10.4-7.2,10.4c3.6,0,4.6-4.4,4.6-4.4c-1.4,5.8,2.8,9.2,2.8,9.2s3-3.6,1.6-9.2
					c0,0,1.2,4.4,4.6,4.4C2033.5,51.4,2033.3,41.4,2027.1,40.8z"/>
				<path class="st3" d="M2027.3,57l-0.4-0.4c-0.2-0.2-3-2.6-3.2-7c-0.8,1.2-2,2.2-3.8,2.2h-0.6v-0.6c0-0.4,1-10.4,7.6-11l0,0l0,0
					c6.8,0.6,7,10.6,7,11v0.6h-0.6c-1.8,0-3-1-3.8-2c0,4.2-2,6.6-2,6.8L2027.3,57z M2024.1,46.8l1,0.2c-1,4.4,1.2,7.4,2.2,8.4
					c0.6-1,2.2-4,1.2-8.4l1-0.2c0,0,1,3.6,3.6,4c-0.2-2-1-8.8-6-9.4c-5,0.4-6.2,7.2-6.6,9.4C2023.1,50.4,2024.1,46.8,2024.1,46.8z"
					/>
			</g>
			<g>
				<path class="st3" d="M2072.5,16.6c4,8,12.2,10,12.2,10c0.4-4.4-3.8-6.2-3.8-6.2c4.8,1.2,10.2-3.8,10.2-3.8L2072.5,16.6"/>
			</g>
			<g>
				<path class="st3" d="M2044.5,16.6c0.4,7.4,9,8.6,9,8.6c0-4-3.8-5.4-3.8-5.4c5,1.6,8-3.2,8-3.2H2044.5z"/>
			</g>
		</g>
		<g>
			<path class="st3" d="M2023.7,39c-3,0-3,3.6,0,3.6h6.2c3,0,3-3.6,0-3.6H2023.7z"/>
		</g>
		<g>
			<path class="st3" d="M1978.3,16.6v4.8c0,4.2,3.8,4,3.8,0v-4.8C1982.1,16.6,1978.3,16.6,1978.3,16.6z"/>
		</g>
		<g>
			<path class="st3" d="M2042.9,16.6v4.2c0,3.4,3.2,3.6,3.2,0v-4.2C2046.1,16.6,2042.9,16.6,2042.9,16.6z"/>
		</g>
		<g>
			<path class="st3" d="M2007.5,16.6v4.2c0,3.4,3.2,3.6,3.2,0v-4.2C2010.7,16.6,2007.5,16.6,2007.5,16.6z"/>
		</g>
		<g>
			<path class="st3" d="M2075.1,16.6v4.8c0,4.2-3.8,4-3.8,0v-4.8C2071.3,16.6,2075.1,16.6,2075.1,16.6z"/>
		</g>
	</g>
	<g>
		<g>
			<g>
				<path class="st3" d="M1660.4,210.5c-3.2-0.2-16.8-6.2-16.8-17.6c0-11.4,9.4-15.2,9.4-15.2s-5.2,3.8-5.2,11
					c0,3.6,2.8,3.6,2.8,6.6c0,3-2.8,3.2-4.2,1.6c0,0,1.8,8.8,14,12.8L1660.4,210.5L1660.4,210.5z"/>
			</g>
			<g>
				<path class="st3" d="M1689,188.1c-5,18.6-18.4,22.4-18.4,22.4l-0.2-1.6c0,0,12.2-5,17.2-21.2L1689,188.1"/>
			</g>
			<g>
				<path class="st3" d="M1681.8,199.8l1.4-2c-9.2-1-11.2-15.2-11.2-15.2S1671.2,197.1,1681.8,199.8z"/>
			</g>
			<g>
				<path class="st3" d="M1644.1,210.5c0,0,5.4-11.4,13.8-10.8c0,0-0.4-12.6,5.4-12.6s6.2,13,10,10.4c3.2-2.2-0.8-6-1.2-11.8
					c-0.4-7.4,3.4-12.8,9-12.2c0,0,1-7.8,3.6-9.2c2.8-1.8,4-4.6,4-4.6s1,3,4,4.6c2.6,1.6,3.6,9.2,3.6,9.2c5.6-0.6,9.4,5,9,12.4
					c-0.4,5.8-4.4,9.6-1.2,11.6c3.8,2.6,4.2-10.4,10-10.4s5.4,12.6,5.4,12.6c8.4-0.6,13.8,10.8,13.8,10.8l1-1
					c0,0-3.8-10.6-12.4-12.2c0,0,1-17.2-14.4-14c0,0,1-11.8-9.6-12.2c0,0-1-7-5-9.2c-4-2.2-4.2-6.2-4.2-6.2s-0.2,4-4.2,6.2
					c-4,2.2-5,9.2-5,9.2c-10.6,0.6-9.6,12.2-9.6,12.2c-15.2-3.2-14.4,14-14.4,14c-8.6,1.4-12.4,12.2-12.4,12.2L1644.1,210.5z"/>
			</g>
			<g>
				<path class="st3" d="M1716.6,210.5c3.2-0.2,16.8-6.2,16.8-17.6c0-11.4-9.4-15.2-9.4-15.2s5.2,3.8,5.2,11c0,3.6-2.8,3.6-2.8,6.6
					c0,3,2.8,3.2,4.2,1.6c0,0-1.8,8.8-14,12.8L1716.6,210.5L1716.6,210.5z"/>
			</g>
			<g>
				<path class="st3" d="M1688,188.1c5,18.6,18.4,22.4,18.4,22.4l0.2-1.6c0,0-12.2-5-17.2-21.2L1688,188.1"/>
			</g>
			<g>
				<path class="st3" d="M1695.4,199.8l-1.4-2c9.2-1,11.4-15.2,11.4-15.2S1705.8,197.1,1695.4,199.8z"/>
			</g>
			<g>
				<path class="st3" d="M1689,208.3c5-2.6,6.4-5.6,6.4-5.6l-1.2-1.6c0,0-1.6,3.2-5.2,4.8c-3.6-1.6-5.8-5.2-5.8-5.2l-1.4,1.8
					C1681.8,202.3,1684,205.7,1689,208.3z"/>
			</g>
		</g>
		<g>
			<g>
				<path class="st3" d="M1642.9,210.5c-4-8-12.2-10-12.2-10c-0.4,4.4,3.8,6.2,3.8,6.2c-4.8-1.2-10.2,3.8-10.2,3.8H1642.9"/>
			</g>
			<g>
				<path class="st3" d="M1670.8,210.5c-0.4-7.4-9-8.6-9-8.6c0,4,3.8,5.4,3.8,5.4c-5-1.6-8,3.2-8,3.2L1670.8,210.5z"/>
			</g>
			<g>
				<path class="st4" d="M1688.8,186.3c-6.4-0.6-7.2-10.4-7.2-10.4c3.6,0,4.6,4.4,4.6,4.4c-1.4-5.8,2.8-9.2,2.8-9.2s3,3.6,1.6,9.2
					c0,0,1.2-4.4,4.6-4.4C1695.4,175.9,1695.2,185.7,1688.8,186.3z"/>
				<path class="st3" d="M1688.8,186.9L1688.8,186.9c-6.8-0.6-7.6-10.4-7.6-11v-0.6h0.6c1.8,0,3,1,3.8,2.2c0.2-4.2,3-6.8,3.2-7
					l0.4-0.4l0.4,0.4c0.2,0.2,2.2,2.6,2,6.8c0.8-1,2-2,3.8-2h0.6v0.6C1695.8,176.3,1695.6,186.3,1688.8,186.9L1688.8,186.9z
					 M1682.2,176.5c0.4,2,1.6,8.8,6.6,9.4c5-0.4,5.8-7.4,6-9.4c-2.6,0.4-3.6,4-3.6,4l-1-0.2c1-4.4-0.4-7.2-1.2-8.4
					c-1,1-3.2,4-2.2,8.4l-1,0.2C1685.8,180.3,1685,176.9,1682.2,176.5z"/>
			</g>
			<g>
				<path class="st3" d="M1734.4,210.5c4-8,12.2-10,12.2-10c0.4,4.4-3.8,6.2-3.8,6.2c4.8-1.2,10.2,3.8,10.2,3.8H1734.4"/>
			</g>
			<g>
				<path class="st3" d="M1706.4,210.5c0.4-7.4,9-8.6,9-8.6c0,4-3.8,5.4-3.8,5.4c5-1.6,8,3.2,8,3.2L1706.4,210.5z"/>
			</g>
		</g>
		<g>
			<path class="st3" d="M1685.4,188.3c-3,0-3-3.6,0-3.6h6.2c3,0,3,3.6,0,3.6H1685.4z"/>
		</g>
		<g>
			<path class="st3" d="M1640.3,210.5v-4.8c0-4.2,3.8-4,3.8,0v4.8H1640.3z"/>
		</g>
		<g>
			<path class="st3" d="M1704.6,210.5v-4.2c0-3.4,3.2-3.6,3.2,0v4.2H1704.6z"/>
		</g>
		<g>
			<path class="st3" d="M1669.4,210.5v-4.2c0-3.4,3.2-3.6,3.2,0v4.2H1669.4z"/>
		</g>
		<g>
			<path class="st3" d="M1737,210.5v-4.8c0-4.2-3.8-4-3.8,0v4.8H1737z"/>
		</g>
	</g>
	<g>
		<g>
			<g>
				<path class="st3" d="M1660.4,16.6c-3.2,0.2-16.8,6.2-16.8,17.6s9.4,15.2,9.4,15.2s-5.2-3.8-5.2-11c0-3.6,2.8-3.6,2.8-6.6
					c0-3-2.8-3.2-4.2-1.6c0,0,1.8-8.8,14-12.8L1660.4,16.6L1660.4,16.6z"/>
			</g>
			<g>
				<path class="st3" d="M1689,39.2c-5-18.6-18.4-22.4-18.4-22.4l-0.2,1.6c0,0,12.2,5,17.2,21.2L1689,39.2"/>
			</g>
			<g>
				<path class="st3" d="M1681.8,27.5l1.4,2c-9.2,1-11.2,15.2-11.2,15.2S1671.2,30,1681.8,27.5z"/>
			</g>
			<g>
				<path class="st3" d="M1644.1,16.6c0,0,5.4,11.4,13.8,10.8c0,0-0.4,12.6,5.4,12.6s6.2-13,10-10.4c3.2,2.2-0.8,6-1.2,11.8
					c-0.4,7.4,3.4,12.8,9,12.2c0,0,1,7.8,3.6,9.2c2.8,1.8,4,4.6,4,4.6s1-3,4-4.6c2.6-1.6,3.6-9.2,3.6-9.2c5.6,0.6,9.4-5,9-12.4
					c-0.4-5.8-4.4-9.6-1.2-11.6c3.8-2.6,4.2,10.4,10,10.4s5.4-12.6,5.4-12.6c8.4,0.6,13.8-10.8,13.8-10.8l1,1
					c0,0-3.8,10.6-12.4,12.2c0,0,1,17.2-14.4,14c0,0,1,11.8-9.6,12.2c0,0-1,7-5,9.2c-4,2.2-4.2,6.2-4.2,6.2s-0.2-4-4.2-6.2
					c-4-2.2-5-9.2-5-9.2c-10.6-0.6-9.6-12.2-9.6-12.2c-15.2,3.2-14.4-14-14.4-14c-8.6-1.4-12.4-12.2-12.4-12.2L1644.1,16.6z"/>
			</g>
			<g>
				<path class="st3" d="M1716.6,16.6c3.2,0.2,16.8,6.2,16.8,17.6s-9.4,15.2-9.4,15.2s5.2-3.8,5.2-11c0-3.6-2.8-3.6-2.8-6.6
					c0-3,2.8-3.2,4.2-1.6c0,0-1.8-8.8-14-12.8L1716.6,16.6L1716.6,16.6z"/>
			</g>
			<g>
				<path class="st3" d="M1688,39.2c5-18.6,18.4-22.4,18.4-22.4l0.2,1.6c0,0-12.2,5-17.2,21.2L1688,39.2"/>
			</g>
			<g>
				<path class="st3" d="M1695.4,27.5l-1.4,2c9.2,1,11.4,15.2,11.4,15.2S1705.8,30,1695.4,27.5z"/>
			</g>
			<g>
				<path class="st3" d="M1689,18.8c5,2.6,6.4,5.6,6.4,5.6l-1.2,1.6c0,0-1.6-3.2-5.2-4.8c-3.6,1.6-5.8,5.2-5.8,5.2l-1.4-1.8
					C1681.8,25,1684,21.4,1689,18.8z"/>
			</g>
		</g>
		<g>
			<g>
				<path class="st3" d="M1642.9,16.6c-4,8-12.2,10-12.2,10c-0.4-4.4,3.8-6.2,3.8-6.2c-4.8,1.2-10.2-3.8-10.2-3.8L1642.9,16.6"/>
			</g>
			<g>
				<path class="st3" d="M1670.8,16.6c-0.4,7.4-9,8.6-9,8.6c0-4,3.8-5.4,3.8-5.4c-5,1.6-8-3.2-8-3.2H1670.8z"/>
			</g>
			<g>
				<path class="st4" d="M1688.8,40.8c-6.4,0.6-7.2,10.4-7.2,10.4c3.6,0,4.6-4.4,4.6-4.4c-1.4,5.8,2.8,9.2,2.8,9.2s3-3.6,1.6-9.2
					c0,0,1.2,4.4,4.6,4.4C1695.4,51.4,1695.2,41.4,1688.8,40.8z"/>
				<path class="st3" d="M1689.2,57l-0.4-0.4c-0.2-0.2-3-2.6-3.2-7c-0.8,1.2-2,2.2-3.8,2.2h-0.6v-0.6c0-0.4,1-10.4,7.6-11l0,0l0,0
					c6.8,0.6,7,10.6,7,11v0.6h-0.6c-1.8,0-3-1-3.8-2c0,4.2-2,6.6-2,6.8L1689.2,57z M1685.8,46.8l1,0.2c-1,4.4,1.2,7.4,2.2,8.4
					c0.6-1,2.2-4,1.2-8.4l1-0.2c0,0,1,3.6,3.6,4c-0.2-2-1-8.8-6-9.4c-5,0.4-6.2,7.2-6.6,9.4C1685,50.4,1685.8,46.8,1685.8,46.8z"/>
			</g>
			<g>
				<path class="st3" d="M1734.4,16.6c4,8,12.2,10,12.2,10c0.4-4.4-3.8-6.2-3.8-6.2c4.8,1.2,10.2-3.8,10.2-3.8L1734.4,16.6"/>
			</g>
			<g>
				<path class="st3" d="M1706.4,16.6c0.4,7.4,9,8.6,9,8.6c0-4-3.8-5.4-3.8-5.4c5,1.6,8-3.2,8-3.2H1706.4z"/>
			</g>
		</g>
		<g>
			<path class="st3" d="M1685.4,39c-3,0-3,3.6,0,3.6h6.2c3,0,3-3.6,0-3.6H1685.4z"/>
		</g>
		<g>
			<path class="st3" d="M1640.3,16.6v4.8c0,4.2,3.8,4,3.8,0v-4.8C1644.1,16.6,1640.3,16.6,1640.3,16.6z"/>
		</g>
		<g>
			<path class="st3" d="M1704.6,16.6v4.2c0,3.4,3.2,3.6,3.2,0v-4.2C1707.8,16.6,1704.6,16.6,1704.6,16.6z"/>
		</g>
		<g>
			<path class="st3" d="M1669.4,16.6v4.2c0,3.4,3.2,3.6,3.2,0v-4.2C1672.6,16.6,1669.4,16.6,1669.4,16.6z"/>
		</g>
		<g>
			<path class="st3" d="M1737,16.6v4.8c0,4.2-3.8,4-3.8,0v-4.8C1733.2,16.6,1737,16.6,1737,16.6z"/>
		</g>
	</g>
	<g>
		<g>
			<path class="st3" d="M1850.9,64.8c-3.8-3.6-10.2-7-20.2-7.8c-1.6-0.2-3.6,0-4.8,0.8c-1.4,0.8-2.2,1.8-2.6,3.6c-0.2,1,0,2.2,0.6,3
				s1.4,1.4,2,1.4c0.8,0,2.2-0.6,2.2-2.2c0-0.8-0.6-1.2-1-1.4c-0.6-0.2-0.6,0.2-0.8,0.4c-0.2,0.6-1,1-1.4,0.6
				c-0.6-0.2-0.8-1-0.6-1.6c0.6-1.4,1.8-2.2,3.4-1.8c1.4,0.4,3,1.8,2.8,4c-0.2,3-2.4,4.8-4.6,4.6c-1.4,0-4.8-1.4-4.8-5.4
				c0-1.8,0.4-3.6,1.8-5.6c-6.6,0.8-12.6,3.6-18.4,7.4c-3.6,2.8-10.6,9.4-13.8,20.6l-2.6-0.8c1.2-4,2.8-7.6,4.4-10.4
				c-4,3.6-8,7.2-12,11.2c-14.8,14.2-30,29.1-49,29.7v-3c18-0.8,32.8-15,47.2-29.1c5.4-5.2,10.8-10.2,16.4-14.8l0,0
				c-4.8,1.2-11,2-18.4,0.2l0.6-2.8c7.4,1.8,13.6,1,18-0.4c-3-1.2-4.2-3-4.6-4.8c-0.2-1.6,0.2-3.4,1-4.6c1.4-1.8,4.2-2.4,6.4-0.6
				c1.4,1.4,1.4,3.4,0.8,4.8c-0.8,1.4-2.2,2-3.6,1.4c-0.6-0.2-0.8-1-0.6-1.6c0.2-0.6,1-1,1.6-0.8l0,0c0.2,0,0.4,0.2,0.8-0.4
				c0.2-0.4,0.2-1.2-0.2-1.8c-1.2-1.2-2.6-0.4-3,0.2s-0.6,1.6-0.6,2.4c0,1.2,2.2,6.2,10.6,2c7.8-4,15.4-7.8,24-7.8
				c8.6,0,18.2,1.8,25.2,8.6L1850.9,64.8z"/>
		</g>
		<g>
			<path class="st3" d="M1850.9,163.1c-3.8,3.6-10.2,7-20.2,7.8c-1.6,0.2-3.6,0-4.8-0.8c-1.4-0.8-2.2-1.8-2.6-3.6
				c-0.2-1,0-2.2,0.6-3s1.4-1.4,2-1.4c0.8,0,2.2,0.6,2.2,2.2c0,0.8-0.6,1.2-1,1.4c-0.6,0.2-0.6-0.2-0.8-0.4c-0.2-0.6-1-1-1.4-0.6
				c-0.6,0.2-0.8,1-0.6,1.6c0.6,1.4,1.8,2.2,3.4,1.8c1.4-0.4,3-1.8,2.8-4c-0.2-3-2.4-4.8-4.6-4.6c-1.4,0.2-4.8,1.4-4.8,5.4
				c0,1.8,0.4,3.6,1.8,5.6c-6.6-0.8-12.6-3.6-18.4-7.4c-3.6-2.8-10.6-9.4-13.8-20.6l-2.6,0.8c1.2,4,2.8,7.6,4.4,10.4
				c-4-3.6-8-7.2-12-11.2c-14.8-14.2-30-29.1-49-29.7v3c18,0.8,32.8,15,47.2,29.1c5.4,5.2,10.8,10.2,16.4,14.8l0,0
				c-4.8-1.2-11-2-18.4-0.2l0.6,2.8c7.4-1.8,13.6-1,18,0.4c-3,1.2-4.2,3-4.6,4.8c-0.2,1.6,0.2,3.4,1,4.6c1.4,1.8,4.2,2.4,6.4,0.6
				c1.4-1.4,1.4-3.4,0.8-4.8c-0.8-1.4-2.2-2-3.6-1.4c-0.6,0.2-0.8,1-0.6,1.6c0.2,0.6,1,1,1.6,0.8l0,0c0.2,0,0.4-0.2,0.8,0.4
				c0.2,0.4,0.2,1.2-0.2,1.8c-1.2,1.2-2.6,0.4-3-0.2c-0.4-0.6-0.6-1.6-0.6-2.4c0-1.2,2.2-6.2,10.6-2c7.8,4,15.4,7.8,24,7.8
				c8.6,0,18.2-1.8,25.2-8.6L1850.9,163.1z"/>
		</g>
		<g>
			<path class="st3" d="M1865.1,64.8c3.8-3.6,10.2-7,20.2-7.8c1.6-0.2,3.6,0,4.8,0.8c1.4,0.8,2.2,1.8,2.6,3.6c0.2,1,0,2.2-0.6,3
				s-1.4,1.4-2,1.4c-0.8,0-2.2-0.6-2.2-2.2c0-0.8,0.6-1.2,1-1.4c0.6-0.2,0.6,0.2,0.8,0.4c0.2,0.6,1,1,1.6,0.6c0.6-0.2,0.8-1,0.6-1.6
				c-0.6-1.4-1.8-2.2-3.4-1.8c-1.4,0.4-3,1.8-2.8,4c0.2,3,2.4,4.8,4.6,4.6c1.4,0,4.8-1.4,4.8-5.4c0-1.8-0.4-3.6-1.8-5.6
				c6.6,0.8,12.6,3.6,18.4,7.4c3.6,2.8,10.6,9.4,13.8,20.6l2.6-0.8c-1.2-4-2.8-7.6-4.4-10.4c4,3.6,8,7.2,12,11.2
				c14.8,14.2,30,29.1,49,29.7l0.2-3c-18-0.8-32.8-15-47.2-29.1c-5.4-5.2-10.8-10.2-16.4-14.8l0,0c4.8,1.2,11,2,18.4,0.2l-0.6-2.8
				c-7.4,1.8-13.6,1-18-0.4c3-1.2,4.2-3,4.6-4.8c0.2-1.6-0.2-3.4-1-4.6c-1.4-1.8-4.2-2.4-6.4-0.6c-1.4,1.4-1.4,3.4-0.8,4.8
				c0.8,1.4,2.2,2,3.6,1.4c0.6-0.2,0.8-1,0.6-1.6c-0.2-0.6-0.8-1-1.4-0.8l0,0c-0.2,0-0.4,0.2-0.8-0.4c-0.2-0.4-0.2-1.2,0.2-1.8
				c1.2-1.2,2.6-0.4,3,0.2c0.4,0.6,0.6,1.6,0.6,2.4c0,1.2-2.2,6.2-10.6,2c-7.8-4-15.4-7.8-24-7.8c-8.6,0-18.2,1.8-25.2,8.6
				L1865.1,64.8z"/>
		</g>
		<g>
			<path class="st3" d="M1865.1,163.1c3.8,3.6,10.2,7,20.2,7.8c1.6,0.2,3.6,0,4.8-0.8c1.4-0.8,2.2-1.8,2.6-3.6c0.2-1,0-2.2-0.6-3
				s-1.4-1.4-2-1.4c-0.8,0-2.2,0.6-2.2,2.2c0,0.8,0.6,1.2,1,1.4c0.6,0.2,0.6-0.2,0.8-0.4c0.2-0.6,1-1,1.6-0.6c0.6,0.2,0.8,1,0.6,1.6
				c-0.6,1.4-1.8,2.2-3.4,1.8c-1.4-0.4-3-1.8-2.8-4c0.2-3,2.4-4.8,4.6-4.6c1.4,0.2,4.8,1.4,4.8,5.4c0,1.8-0.4,3.6-1.8,5.6
				c6.6-0.8,12.6-3.6,18.4-7.4c3.6-2.8,10.6-9.4,13.8-20.6l2.6,0.8c-1.2,4-2.8,7.6-4.4,10.4c4-3.6,8-7.2,12-11.2
				c14.8-14.2,30-29.1,49-29.7l0.2,3c-18,0.8-32.8,15-47.2,29.1c-5.4,5.2-10.8,10.2-16.4,14.8l0,0c4.8-1.2,11-2,18.4-0.2l-0.6,2.8
				c-7.4-1.8-13.6-1-18,0.4c3,1.2,4.2,3,4.6,4.8c0.2,1.6-0.2,3.4-1,4.6c-1.4,1.8-4.2,2.4-6.4,0.6c-1.4-1.4-1.4-3.4-0.8-4.8
				c0.8-1.4,2.2-2,3.6-1.4c0.6,0.2,0.8,1,0.6,1.6c-0.2,0.6-0.8,1-1.4,0.8l0,0c-0.2,0-0.4-0.2-0.8,0.4c-0.2,0.4-0.2,1.2,0.2,1.8
				c1.2,1.2,2.6,0.4,3-0.2c0.4-0.6,0.6-1.6,0.6-2.4c0-1.2-2.2-6.2-10.6-2c-7.8,4-15.4,7.8-24,7.8c-8.6,0-18.2-1.8-25.2-8.6
				L1865.1,163.1z"/>
		</g>
		<g>
			<path class="st5" d="M1858.1,60.2c0,0,7,1.6,9.2,12.8c0,0,19.6-1.8,19.6,14.6c0,3.6-6,4.6-8.2,8c-3,4.4,4.8,9.2,9.2,5.4
				c3.2-2.8,4.6-11.4,11.4-11.4s14.2,4.6,13.4,14.4c0,0,11.4,2,16.2,10.4c-4.8,8.4-16.2,10.4-16.2,10.4c1,9.8-6.6,14.4-13.4,14.4
				s-8.2-8.6-11.4-11.4c-4.4-3.8-12.2,1-9.2,5.4c2.2,3.4,8.2,4.4,8.2,8c0,16.4-19.6,14.6-19.6,14.6c-2.2,11-9.2,10.6-9.2,10.6
				s-7,0.4-9.2-10.6c0,0-19.6,1.8-19.6-14.6c0-3.6,6-4.6,8.2-8c3-4.4-4.8-9.2-9.2-5.4c-3,2.8-4.6,11.4-11.4,11.4
				c-6.8,0-14.2-4.6-13.4-14.4c0,0-11.4-2-16.2-10.4c4.8-8.4,16.2-10.4,16.2-10.4c-1-9.8,6.6-14.4,13.4-14.4
				c6.8,0,8.2,8.6,11.4,11.4c4.4,3.8,12.2-1,9.2-5.4c-2.2-3.4-8.2-4.4-8.2-8c0-16.4,19.6-14.6,19.6-14.6
				C1851.1,62,1858.1,60.2,1858.1,60.2z"/>
			<path class="st3" d="M1858.1,167.3C1858.1,167.3,1857.9,167.3,1858.1,167.3c0,0-7.6,0.4-10-10.6c-2.6,0.2-10.6,0-15.6-4.8
				c-2.8-2.6-4.2-6.2-4.2-10.8c0-2.6,2.4-4.2,4.6-5.6c1.4-1,3-1.8,3.8-3c1.2-1.6,0.2-3-0.6-3.6c-1.8-1.6-5-2.2-7.2-0.4
				c-0.8,0.8-1.6,2.2-2.6,3.8c-2,3.4-4.4,7.8-9.4,7.8c-4.4,0-8.6-1.8-11.2-4.8c-2.2-2.6-3.4-6-3.2-9.8c-2.8-0.6-11.8-3.4-16-10.8
				l-0.2-0.6l0.2-0.6c4.2-7.4,13-10,16-10.8c-0.2-3.8,1-7.2,3.2-9.8c2.6-3,6.8-4.8,11.2-4.8c5.2,0,7.6,4.4,9.4,7.8
				c0.8,1.6,1.6,3,2.6,3.8c2.2,1.8,5.4,1.2,7.2-0.4c0.6-0.6,1.6-2,0.6-3.6c-0.8-1.2-2.4-2.2-3.8-3c-2.2-1.4-4.6-2.8-4.6-5.6
				c0-4.6,1.4-8.2,4.2-10.8c5-4.8,13-5,15.6-4.8c2.4-10.8,9.4-12.6,9.8-12.6h0.2h0.2c0.4,0,7.2,1.8,9.8,12.6
				c2.6-0.2,10.6,0,15.6,4.8c2.8,2.6,4.2,6.2,4.2,10.8c0,2.6-2.4,4.2-4.6,5.6c-1.4,0.8-3,1.8-3.8,3c-1.2,1.6-0.2,3,0.6,3.6
				c1.8,1.6,5,2.2,7.2,0.4c0.8-0.8,1.6-2.2,2.6-3.8c2-3.4,4.4-7.8,9.4-7.8c4.4,0,8.6,1.8,11.2,4.8c2.2,2.6,3.4,6,3.2,9.8
				c2.8,0.6,11.8,3.4,16,10.8l0.2,0.6l-0.2,0.6c-4.2,7.4-13,10-16,10.8c0.2,3.8-1,7.2-3.2,9.8c-2.6,3-6.8,4.8-11.2,4.8
				c-5.2,0-7.6-4.4-9.4-7.8c-0.8-1.6-1.6-3-2.6-3.8c-2.2-1.8-5.4-1.2-7.2,0.4c-0.6,0.6-1.6,2-0.6,3.6c0.8,1.2,2.4,2.2,3.8,3
				c2.2,1.4,4.6,2.8,4.6,5.6c0,4.6-1.4,8.2-4.2,10.8c-5,4.8-13,5-15.6,4.8C1865.7,166.9,1859.1,167.3,1858.1,167.3z M1857.9,165.3
				c0.4,0,6.4,0.2,8.2-9.8l0.2-1h0.8c0,0,9.6,0.8,15-4.2c2.4-2.2,3.6-5.4,3.6-9.2c0-1.6-1.6-2.6-3.6-3.8c-1.6-1-3.4-2-4.4-3.6
				c-1.4-2-1.2-4.4,0.8-6.2c2.4-2.2,6.8-3.2,9.8-0.4c1.2,1,2,2.6,3,4.4c1.8,3.4,3.8,6.8,7.8,6.8c3.8,0,7.4-1.6,9.8-4.2
				c2-2.4,3-5.4,2.6-9v-1l1-0.2c0.2,0,10.6-2,15.2-9.4c-4.6-7.4-15-9.4-15.2-9.4l-1-0.2v-1c0.4-3.6-0.6-6.8-2.6-9
				c-2.2-2.6-6-4.2-9.8-4.2c-4,0-5.8,3.4-7.8,6.8c-1,1.8-1.8,3.4-3,4.4c-3,2.6-7.4,1.8-9.8-0.4c-2-1.8-2.2-4.2-0.8-6.2
				c1-1.6,2.8-2.6,4.4-3.6c2-1.2,3.6-2.2,3.6-3.8c0-3.8-1.2-7-3.6-9.2c-5.4-5-14.8-4.2-15-4.2h-0.8l-0.2-1c-1.8-9.2-7-11.4-8.2-11.8
				c-1.2,0.4-6.4,2.6-8.2,11.8l-0.2,1h-0.8c0,0-9.6-0.8-15,4.2c-2.4,2.2-3.6,5.4-3.6,9.2c0,1.6,1.8,2.6,3.6,3.8c1.6,1,3.4,2,4.4,3.6
				c1.4,2,1.2,4.4-0.8,6.2c-2.4,2.2-6.8,3.2-9.8,0.4c-1.2-1-2-2.6-3-4.4c-1.8-3.4-3.8-6.8-7.8-6.8c-3.8,0-7.4,1.6-9.8,4.2
				c-2,2.4-3,5.4-2.6,9v1l-1,0.2c-0.2,0-10.6,2-15.2,9.4c4.6,7.4,15,9.4,15.2,9.4l1,0.2v1c-0.4,3.6,0.6,6.8,2.6,9
				c2.2,2.6,5.8,4.2,9.8,4.2c4,0,5.8-3.4,7.8-6.8c1-1.8,1.8-3.4,3-4.4c3-2.6,7.4-1.8,9.8,0.4c2,1.8,2.2,4.2,0.8,6.2
				c-1,1.6-2.8,2.6-4.4,3.6c-2,1.2-3.6,2.2-3.6,3.8c0,3.8,1.2,7,3.6,9.2c5.4,5,14.8,4.2,15,4.2h0.8l0.2,1
				C1851.7,165.5,1857.7,165.3,1857.9,165.3z"/>
		</g>
		<g>
			<path class="st3" d="M1779.6,114.8c0,0-2.2,10.6-8.8,13.4c0,0-1.6-6.4,0.6-10.8c0,0-6,3.6-11.4-3.2c5-7.4,12-2.8,12-2.8
				c-2.2-4.4-1.2-11.2-1.2-11.2C1779.8,106.3,1779.6,114.8,1779.6,114.8z"/>
		</g>
		<g>
			<path class="st3" d="M1782.4,107.1c0-2.2,0-3.2-2-3.2c-2,0-1.6,1.2-1.6,3.2v14.1c0,2.2-0.4,3.2,1.6,3.2c2,0,2-1.2,2-3.2V107.1z"
				/>
		</g>
		<g>
			<path class="st3" d="M1936.5,114.8c0,0,2.2,10.6,8.8,13.4c0,0,1.6-6.4-0.6-10.8c0,0,6,3.6,11.4-3.2c-5-7.4-12-2.8-12-2.8
				c2.2-4.4,1.2-11.2,1.2-11.2C1936.3,106.3,1936.5,114.8,1936.5,114.8z"/>
		</g>
		<g>
			<path class="st3" d="M1933.9,107.1c0-2.2,0-3.2,2-3.2s1.6,1.2,1.6,3.2v14.1c0,2.2,0.4,3.2-1.6,3.2s-2-1.2-2-3.2V107.1z"/>
		</g>
		<g>
			<path class="st3" d="M1872.1,97.9c13.4-14,7.8-22.6,7.8-22.6s8,3.6,7,12.2c-0.6,4.6-43,43.6-43,43.6c-13.4,14-7.8,22.2-7.8,22.2
				s-7-3.6-7-12.2C1829.3,139.4,1872.1,97.9,1872.1,97.9z"/>
		</g>
		<g>
			<path class="st3" d="M1872.1,130.8c13.4,14,7.8,22.6,7.8,22.6s8-3.6,7-12.2c-0.6-4.6-42.8-43.3-42.8-43.3
				c-13.4-14-7.8-22.6-7.8-22.6s-8,3.6-7,12.2C1829.9,92.3,1872.1,130.8,1872.1,130.8z"/>
		</g>
		<g>
			<path class="st3" d="M1826.1,111.7c46.6-9.8,22.8-38.7,22.8-38.7l1.4-3.6c0,0,25.8,35.1-24.2,44.8L1826.1,111.7L1826.1,111.7z"/>
		</g>
		<g>
			<path class="st3" d="M1890.1,111.7c-49.2-9.8-19.4-43.3-22.8-38.7l-1.4-3.6c0,0-25.8,35.1,24.2,44.8L1890.1,111.7L1890.1,111.7z"
				/>
		</g>
		<g>
			<path class="st3" d="M1890.1,117c-46.4,9.8-22.8,38.7-22.8,38.7l-1.4,3.6c0,0-25.8-35.1,24.2-45L1890.1,117L1890.1,117z"/>
		</g>
		<g>
			<path class="st3" d="M1826.1,117c46.4,9.8,22.8,38.7,22.8,38.7l1.4,3.6c0,0,25.8-35.1-24.2-45L1826.1,117L1826.1,117z"/>
		</g>
		<g>
			<g>
				<path class="st5" d="M1776.4,66.2c0,0-5,11.2-10.2,7.2c0,0-6.4,0.2-5.2-6.2c0,0-3.8-1-2.2-6c0.8-5,6-5,6-5
					c1.8-6.2,6.8-1.6,6.8-1.6C1777.8,53.4,1776.4,66.2,1776.4,66.2"/>
				<path class="st3" d="M1768.4,74.8c-0.8,0-1.8-0.2-2.6-0.8c-0.6,0-3.2-0.2-4.6-2c-1-1.2-1.2-2.6-1-4.4c-0.6-0.2-1.4-0.8-2-2
					c-0.6-1.2-0.6-2.8-0.2-4.6c0.6-4.6,4.8-5.2,6-5.4c0.6-1.8,1.4-2.8,2.6-3.2c2-0.6,4.2,1,4.8,1.4c1.2-0.2,2.4,0.2,3.2,1
					c3,3,2,10.8,2,11.2v0.2c-0.2,0.2-3.2,7.2-7.2,8.2C1769.2,74.8,1768.8,74.8,1768.4,74.8z M1766.4,72.8L1766.4,72.8
					c1,0.8,2,1,3,0.8c3.4-0.8,6.2-6.8,6.6-7.6c0-0.8,0.8-7.8-1.8-10.2c-0.6-0.6-1.6-0.8-2.6-0.8h-0.2l-0.2-0.2c0,0-2.2-2-4-1.4
					c-1,0.2-1.6,1.2-2,2.8l-0.2,0.4h-0.4c-0.2,0-4.8,0-5.4,4.6c-0.4,1.6-0.4,2.8,0,3.8c0.6,1.2,1.8,1.6,1.8,1.6l0.4,0.2v0.4
					c-0.4,1.8,0,3,0.8,4C1763.6,72.8,1766,72.8,1766.4,72.8L1766.4,72.8z"/>
			</g>
			<g>
				<path class="st5" d="M1776.4,161.7c0,0-5-11.2-10.2-7.2c0,0-6.4-0.2-5.2,6.2c0,0-3.8,1-2.2,6c0.8,5,6,5,6,5
					c1.8,6.2,6.8,1.6,6.8,1.6C1777.8,174.5,1776.4,161.7,1776.4,161.7"/>
				<path class="st3" d="M1767.8,175.5c-0.4,0-0.6,0-1-0.2c-1.2-0.4-2-1.4-2.6-3.2c-1.2-0.2-5.4-0.8-6-5.4c-0.6-1.6-0.4-3.2,0.2-4.4
					c0.6-1.2,1.6-1.6,2-2c-0.2-1.8,0-3.4,1-4.4c1.4-1.8,3.8-2,4.6-2c1.2-0.8,2.4-1,3.6-0.8c4,1,7.2,8,7.2,8.2v0.2
					c0,0.4,1,8.2-2,11.2c-0.8,0.8-2,1.2-3.2,1C1771,174.3,1769.4,175.5,1767.8,175.5z M1766,155.1c-0.4,0-2.6,0-4,1.6
					c-0.8,1-1,2.2-0.8,4v0.4l-0.4,0.2c0,0-1.2,0.4-1.8,1.6c-0.6,1-0.6,2.2,0,3.6c0.8,4.6,5.2,4.8,5.4,4.8h0.4l0.2,0.4
					c0.4,1.6,1.2,2.6,2,2.8c1.8,0.6,4-1.4,4-1.4l0.2-0.2h0.2c1,0.2,2,0,2.6-0.8c2.4-2.4,1.8-9.4,1.8-10.2c-0.4-0.8-3.2-6.8-6.6-7.6
					c-1-0.2-2,0-2.8,0.6l-0.2,0.2L1766,155.1C1766.2,155.1,1766.2,155.1,1766,155.1z"/>
			</g>
			<g>
				<path class="st5" d="M1939.9,66.2c0,0,5,11.2,10.2,7.2c0,0,6.4,0.2,5.2-6.2c0,0,3.8-1,2.2-6c-0.8-5-6-5-6-5
					c-1.8-6.2-6.8-1.6-6.8-1.6C1938.3,53.4,1939.9,66.2,1939.9,66.2"/>
				<path class="st3" d="M1947.7,74.8c-0.4,0-0.6,0-1-0.2c-4-1-7.2-8-7.2-8.2v-0.2c0-0.4-1-8.2,2-11.2c0.8-0.8,2-1.2,3.2-1
					c0.6-0.6,2.8-2.2,4.8-1.4c1.2,0.4,2,1.4,2.6,3.2c1.2,0.2,5.4,0.8,6,5.4c0.6,1.6,0.4,3.2-0.2,4.4c-0.6,1.2-1.6,1.6-2,2
					c0.2,1.8,0,3.4-1,4.4c-1.4,1.8-3.8,2-4.6,2C1949.3,74.4,1948.5,74.8,1947.7,74.8z M1940.3,66c0.4,0.8,3.2,6.8,6.6,7.6
					c1,0.2,2,0,2.8-0.6l0.2-0.2h0.2c0,0,2.6,0,4-1.6c0.8-1,1-2.2,0.8-4v-0.4l0.4-0.2c0,0,1.2-0.4,1.8-1.6c0.6-1,0.6-2.2,0-3.6
					c-0.8-4.6-5.2-4.8-5.4-4.8h-0.4l-0.2-0.4c-0.4-1.6-1.2-2.6-2-2.8c-1.8-0.6-4,1.4-4,1.4l-0.2,0.2h-0.2c-1-0.2-2,0-2.6,0.8
					C1939.7,58.2,1940.3,65.2,1940.3,66z"/>
			</g>
			<g>
				<path class="st5" d="M1939.9,161.7c0,0,5-11.2,10.2-7.2c0,0,6.4-0.2,5.2,6.2c0,0,3.8,1,2.2,6c-0.8,5-6,5-6,5
					c-1.8,6.2-6.8,1.6-6.8,1.6C1938.3,174.5,1939.9,161.7,1939.9,161.7"/>
				<path class="st3" d="M1948.5,175.5c-1.6,0-3.4-1.2-3.8-1.6c-1.2,0.2-2.4-0.2-3.2-1c-3-3-2-10.8-2-11.2v-0.2
					c0.2-0.2,3.2-7.2,7.2-8.2c1.2-0.4,2.4,0,3.6,0.8c0.6,0,3.2,0.2,4.6,2c1,1.2,1.2,2.6,1,4.4c0.6,0.2,1.4,0.8,2,2
					c0.6,1.2,0.6,2.8,0.2,4.6c-0.6,4.6-4.8,5.2-6,5.4c-0.6,1.8-1.4,2.8-2.6,3.2C1949.1,175.5,1948.7,175.5,1948.5,175.5z
					 M1944.9,172.9L1944.9,172.9c0.2,0.2,2.4,2.2,4.2,1.6c1-0.2,1.6-1.2,2-2.8l0.2-0.4h0.4c0.2,0,4.8,0,5.4-4.6
					c0.4-1.6,0.4-2.8,0-3.8c-0.6-1.2-1.8-1.6-1.8-1.6l-0.4-0.2v-0.4c0.4-1.8,0-3-0.8-4c-1.4-1.6-4-1.6-4-1.6h-0.2l-0.2-0.2
					c-1-0.8-1.8-1-2.8-0.6c-3.4,0.8-6.2,6.8-6.6,7.6c0,0.8-0.8,7.8,1.8,10.2c0.6,0.6,1.6,1,2.6,0.8H1944.9z"/>
			</g>
		</g>
		<g>
			<g>
				<path class="st3" d="M1784.2,68.4c-6.4,9.2-15.4,7.6-15.4,7.6s1.4-4.6,6-7.2c0,0-3.2,1-9-5.2c8.4-3.2,10.6-0.4,10.6-0.4
					c-3.6-5.2-2.4-9-2.4-9S1782.4,57,1784.2,68.4z"/>
			</g>
			<g>
				<path class="st3" d="M1784.2,159.7c-6.4-9.2-15.4-7.6-15.4-7.6s1.4,4.6,6,7.2c0,0-3.2-1-9,5.2c8.4,3.2,10.6,0.4,10.6,0.4
					c-3.6,5.2-2.4,9-2.4,9S1782.4,170.9,1784.2,159.7z"/>
			</g>
			<g>
				<path class="st3" d="M1931.9,68.4c6.4,9.2,15.4,7.6,15.4,7.6s-1.4-4.6-6.2-7.2c0,0,3.2,1,9-5.2c-8.4-3.2-10.6-0.4-10.6-0.4
					c3.6-5.2,2.6-9,2.6-9S1933.7,57,1931.9,68.4z"/>
			</g>
			<g>
				<path class="st3" d="M1931.9,159.7c6.4-9.2,15.4-7.6,15.4-7.6s-1.4,4.6-6.2,7.2c0,0,3.2-1,9,5.2c-8.4,3.2-10.6,0.4-10.6,0.4
					c3.6,5.2,2.6,9,2.6,9S1933.7,170.9,1931.9,159.7z"/>
			</g>
		</g>
		<g>
			<g>
				<path class="st4" d="M1789,82.8c0,0-4.6-0.6-7,5.4l2.6-0.8c0,0-3.6,3.8-3.4,9l2-2.8c0,0-2.2,7.6,0.6,10.4c0,0,4-1.8,4.6-7
					l0.4,3.2c0,0,3-3.6,2.2-6.2l0.8,2.6c0,0,2.4-4.6,0.6-7.8l2,2.2c0,0,0-4.4-3-7.4C1789.6,81.4,1789,82.8,1789,82.8z"/>
				<path class="st3" d="M1783.6,104.7l-0.2-0.2c-2-2-1.6-6-1.2-8.6l-1.4,2v-1.4c-0.2-3.4,1.4-6.4,2.4-8l-2,0.6l0.4-1
					c2.2-5.2,6-5.8,7.2-5.8c0.2-0.2,0.4-0.4,0.8-0.4c0.6-0.2,1.4,0.2,2.2,1c3,3,3,7.6,3,7.8v1.2l-1.4-1.4c0.4,3-1.2,6-1.2,6l-0.6,1
					l-0.4-1.2c-0.6,2-2,3.6-2,3.8l-0.8,0.8l-0.2-1.6c-1.2,3.4-4,4.8-4.2,4.8L1783.6,104.7z M1784.6,90.9l-0.8,2.8c0,0-2,6.8,0.2,9.6
					c1-0.6,3.4-2.4,4-6.6l0.4-4l0.8,6c0.8-1.2,1.8-3.2,1.4-4.8l1-0.2l0.4,1.4c0.6-1.4,1.2-4,0-6l-2.4-4l4.2,4.4
					c-0.2-1.6-0.8-3.8-2.6-5.6c-0.8-0.8-1.2-0.8-1.4-0.8c-0.2,0-0.2,0.2-0.2,0.2l-0.4,0.2h-0.4c-0.2,0-3.6-0.4-6,4l3.4-1l-1.4,1.4
					c0,0-2.8,3-3.2,7L1784.6,90.9z"/>
			</g>
			<g>
				<path class="st4" d="M1789,145.1c0,0-4.6,0.6-7-5.4l2.6,0.8c0,0-3.6-3.8-3.4-9l2,2.8c0,0-2.2-7.6,0.6-10.4c0,0,4,1.8,4.6,7
					l0.4-3.2c0,0,3,3.6,2.2,6.2l0.8-2.6c0,0,2.4,4.6,0.6,7.8l2-2.2c0,0,0,4.6-3,7.4C1789.6,146.5,1789,145.1,1789,145.1z"/>
				<path class="st3" d="M1789.8,146.1h-0.2c-0.4,0-0.6-0.2-0.8-0.4c-1.2,0-5-0.4-7.2-5.8l-0.4-1l2,0.6c-1.2-1.6-2.6-4.4-2.4-8V130
					l1.4,2c-0.4-2.6-0.8-6.6,1.2-8.6l0.2-0.2l0.4,0.2c0.2,0,3,1.4,4.2,4.8l0.2-1.6l0.8,0.8c0,0.2,1.4,1.8,2,3.8l0.4-1.2l0.6,1
					c0,0.2,1.6,3,1.2,6l1.4-1.4v1.2c0,0.2,0,4.8-3,7.8C1791,145.7,1790.2,146.1,1789.8,146.1z M1789.4,144.9c0,0,0,0.2,0.2,0.2
					c0.2,0,0.6,0,1.4-0.8c1.8-1.8,2.4-4.2,2.6-5.6l-4.2,4.4l2.4-4c1.2-2,0.6-4.6,0-6l-0.4,1.4l-1-0.2c0.4-1.4-0.6-3.4-1.4-4.8
					l-0.8,6l-0.4-4c-0.4-4.2-3-6-4-6.6c-2.2,2.8-0.2,9.6-0.2,9.6l0.8,2.8l-2.8-4c0.4,4,3.2,6.8,3.2,7l1.4,1.4l-3.4-1
					c2.2,4.4,5.8,4,6,4h0.4L1789.4,144.9z"/>
			</g>
			<g>
				<path class="st4" d="M1927.3,82.8c0,0,4.6-0.6,7,5.4l-2.6-0.8c0,0,3.6,3.8,3.4,9l-2-2.8c0,0,2.2,7.6-0.4,10.4c0,0-4-1.8-4.6-7
					l-0.4,3.2c0,0-3-3.6-2.2-6.2l-0.8,2.6c0,0-2.4-4.6-0.6-7.8l-2,2.2c0,0,0-4.4,3-7.4C1926.7,81.4,1927.3,82.8,1927.3,82.8z"/>
				<path class="st3" d="M1932.5,104.7l-0.4-0.2c-0.2,0-3-1.4-4.2-4.8l-0.2,1.6l-0.8-0.8c0-0.2-1.4-1.8-2-3.8l-0.4,1.2l-0.6-1
					c0-0.2-1.6-3-1.2-6l-1.4,1.4v-1.2c0-0.2,0-4.8,3-7.8c0.8-0.8,1.6-1.2,2.2-1c0.4,0,0.6,0.2,0.8,0.4c1.2,0,5,0.4,7.2,5.8l0.4,1
					l-2-0.6c1.2,1.6,2.6,4.4,2.4,8v1.4l-1.4-2c0.4,2.6,0.8,6.6-1.2,8.6L1932.5,104.7z M1927.9,92.9l0.4,4c0.4,4.2,3,6,4,6.6
					c2.2-2.8,0.2-9.6,0.2-9.6l-0.8-2.8l2.8,4c-0.4-4-3.2-6.8-3.2-7l-1.4-1.4l3.4,1c-2.2-4.4-5.8-4-6-4h-0.4l-0.2-0.4
					c0,0,0-0.2-0.2-0.2c-0.2,0-0.6,0-1.4,0.8c-1.8,1.8-2.4,4.2-2.6,5.6l4.2-4.4l-2.4,4c-1.2,2-0.6,4.6,0,6l0.4-1.4l1,0.2
					c-0.4,1.4,0.6,3.4,1.4,4.8L1927.9,92.9z"/>
			</g>
			<g>
				<path class="st4" d="M1927.3,145.1c0,0,4.6,0.6,7-5.4l-2.6,0.8c0,0,3.6-3.8,3.4-9l-2,2.8c0,0,2.2-7.6-0.4-10.4c0,0-4,1.8-4.6,7
					l-0.4-3.2c0,0-3,3.6-2.2,6.2l-0.8-2.6c0,0-2.4,4.6-0.6,7.8l-2-2.2c0,0,0,4.6,3,7.4C1926.7,146.5,1927.3,145.1,1927.3,145.1z"/>
				<path class="st3" d="M1926.5,146.1c-0.6,0-1.2-0.4-2-1.2c-3-3-3-7.6-3-7.8v-1.2l1.4,1.4c-0.4-3,1.2-6,1.2-6l0.6-1l0.4,1.2
					c0.6-2,2-3.6,2-3.8l0.8-0.8l0.2,1.6c1.4-3.4,4-4.8,4.2-4.8l0.4-0.2l0.2,0.2c2,2,1.6,6,1.2,8.6l1.4-2v1.4c0.2,3.4-1.4,6.4-2.4,8
					l2-0.6l-0.4,1c-2.2,5.2-6,5.8-7.2,5.8c-0.2,0.2-0.4,0.4-0.8,0.4C1926.7,146.1,1926.5,146.1,1926.5,146.1z M1922.5,138.4
					c0.2,1.6,0.8,3.8,2.6,5.6c0.8,0.8,1.2,0.8,1.4,0.8s0.2-0.2,0.2-0.2l0.2-0.4h0.4c0.2,0,3.6,0.4,6-4l-3.4,1l1.4-1.4
					c0,0,2.8-3,3.2-7l-2.8,4l0.8-2.8c0,0,2-6.8-0.2-9.6c-1,0.6-3.6,2.4-4,6.6l-0.4,4l-0.8-6c-0.8,1.2-1.8,3.2-1.4,4.8l-1,0.2
					l-0.4-1.4c-0.6,1.4-1.2,4,0,6l2.4,4L1922.5,138.4z"/>
			</g>
		</g>
		<g>
			<g>
				<path class="st3" d="M1741,114.4c-6.8,1-11.2,8.2-11.2,8.2c4,5.4,15.8,2.4,15.8,2.4c-5,3.4-5,14-5,14
					c10.4,0.4,12.6-7.8,12.6-7.8c-1.8,5.4,3.2,13.6,3.2,13.6c-1-5.8,21.6-30.5,21.6-30.5s-22.4-24.6-21.6-30.5c0,0-5,8.2-3.2,13.6
					c0,0-2.2-8.2-12.6-7.8c0,0,0,10.6,5,14c0,0-11.6-3-15.8,2.4C1729.8,106.3,1734.4,113.5,1741,114.4"/>
			</g>
			<g>
				<path class="st3" d="M1975.1,114.4c6.8,1,11.2,8.2,11.2,8.2c-4,5.4-15.8,2.4-15.8,2.4c5,3.4,5,14,5,14
					c-10.4,0.4-12.6-7.8-12.6-7.8c1.8,5.4-3.2,13.6-3.2,13.6c1-5.8-21.6-30.5-21.6-30.5s22.4-24.6,21.6-30.5c0,0,5,8.2,3.2,13.6
					c0,0,2.2-8.2,12.6-7.8c0,0,0,10.6-5,14c0,0,11.6-3,15.8,2.4C1986.3,106.3,1981.9,113.5,1975.1,114.4"/>
			</g>
		</g>
		<g>
			<g>
				<path class="st6" d="M1826.3,108.7c0-1.6,0-2.6-2-2.6c-2,0-1.8,1-1.8,2.6v11.4c0,1.6-0.4,2.6,1.8,2.6c2,0,2-1,2-2.6V108.7z"/>
				<path class="st3" d="M1824.3,123c-0.8,0-1.4-0.2-1.8-0.6s-0.4-1.2-0.4-2c0-0.2,0-0.4,0-0.6v-11.4c0-0.2,0-0.4,0-0.6
					c0-0.8,0-1.6,0.4-2s1-0.6,1.8-0.6c2.6,0,2.6,1.6,2.6,3.2v11.4C1826.9,121.6,1826.9,123,1824.3,123z M1824.3,106.5
					c-0.8,0-1,0.2-1,0.2c-0.2,0.2-0.2,0.6-0.2,1.2c0,0.2,0,0.4,0,0.6v11.4c0,0.2,0,0.4,0,0.6c0,0.6,0,1,0.2,1.2c0,0.2,0.4,0.2,1,0.2
					c1.6,0,1.6-0.4,1.6-2.2v-11.4C1825.9,106.9,1825.9,106.5,1824.3,106.5z"/>
			</g>
			<g>
				<path class="st6" d="M1863.7,95.5c1.6,0,2.4,0,2.4-2.2c0-2.2-0.8-1.8-2.4-1.8h-10.6c-1.6,0-2.4-0.4-2.4,1.8
					c0,2.2,0.8,2.2,2.4,2.2H1863.7z"/>
				<path class="st3" d="M1863.7,96.1h-10.6c-1.6,0-3,0-3-2.8c0-1,0.2-1.6,0.6-2c0.4-0.4,1.2-0.4,1.8-0.4c0.2,0,0.4,0,0.6,0h10.6
					c0.2,0,0.4,0,0.6,0c0.8,0,1.4,0,1.8,0.4c0.4,0.4,0.6,1,0.6,2C1866.5,96.1,1865.1,96.1,1863.7,96.1z M1851.9,92.1
					c-0.4,0-0.6,0-0.6,0.2c-0.2,0.2-0.2,0.4-0.2,1.2c0,1.6,0.4,1.6,2,1.6h10.6c1.6,0,2,0,2-1.6c0-0.8-0.2-1-0.2-1.2
					c-0.2-0.2-0.6-0.2-1.2-0.2c-0.2,0-0.4,0-0.6,0h-10.6c-0.2,0-0.4,0-0.6,0C1852.3,92.1,1852.1,92.1,1851.9,92.1z"/>
			</g>
			<g>
				<path class="st6" d="M1889.5,108.7c0-1.6,0-2.6,2-2.6s1.8,1,1.8,2.6v11.4c0,1.6,0.4,2.6-1.8,2.6c-2,0-2-1-2-2.6V108.7z"/>
				<path class="st3" d="M1891.5,123c-2.6,0-2.6-1.6-2.6-3.2v-11.4c0-1.6,0-3.2,2.6-3.2c0.8,0,1.4,0.2,1.8,0.6s0.4,1.2,0.4,2
					c0,0.2,0,0.4,0,0.6v11.4c0,0.2,0,0.4,0,0.6c0,0.8,0,1.6-0.4,2C1892.9,122.8,1892.3,123,1891.5,123z M1891.5,106.5
					c-1.6,0-1.6,0.4-1.6,2.2v11.4c0,1.8,0,2.2,1.6,2.2c0.8,0,1-0.2,1-0.2c0.2-0.2,0.2-0.6,0.2-1.2c0-0.2,0-0.4,0-0.6v-11.4
					c0-0.2,0-0.4,0-0.6c0-0.6,0-1-0.2-1.2C1892.5,106.7,1892.1,106.5,1891.5,106.5z"/>
			</g>
			<g>
				<path class="st6" d="M1863.7,133c1.6,0,2.4,0,2.4,2.2c0,2.2-0.8,1.8-2.4,1.8h-10.6c-1.6,0-2.4,0.4-2.4-1.8
					c0-2.2,0.8-2.2,2.4-2.2H1863.7z"/>
				<path class="st3" d="M1864.7,137.4c-0.2,0-0.4,0-0.4,0c-0.2,0-0.4,0-0.6,0h-10.6c-0.2,0-0.4,0-0.6,0c-0.8,0-1.4,0-1.8-0.4
					c-0.4-0.4-0.6-1-0.6-2c0-2.8,1.4-2.8,3-2.8h10.6c1.6,0,3,0,3,2.8c0,1-0.2,1.6-0.6,2C1865.7,137.4,1865.1,137.4,1864.7,137.4z
					 M1853.1,136.4h10.6c0.2,0,0.4,0,0.6,0c0.6,0,1,0,1.2-0.2c0.2-0.2,0.2-0.4,0.2-1.2c0-1.6-0.4-1.6-2-1.6h-10.6c-1.6,0-2,0-2,1.6
					c0,0.8,0.2,1,0.2,1.2c0.2,0.2,0.6,0.2,1.2,0.2C1852.7,136.4,1852.9,136.4,1853.1,136.4z"/>
			</g>
		</g>
		<g>
			<g>
				<path class="st4" d="M1822.5,112.1c-5.2-8.6-14.6-5-14.6-5c0.6,3.6,6.4,5,6.4,5c-7.2-2.2-11.6,2.2-11.6,2.2s4.4,4.6,11.6,2.2
					c0,0-6,1.6-6.4,5c0,0,9.4,3.6,14.6-5V112.1z"/>
				<path class="st3" d="M1812.5,122.8c-2.6,0-4.6-0.8-4.8-0.8l-0.4-0.2v-0.4c0.2-1.6,1.6-3,3-3.8l0,0c-4.8,0-7.8-3-8-3l-0.4-0.4
					l0.4-0.4c0.2-0.2,3-3,8-3l0,0c-1.4-0.8-2.8-2.2-3-3.8v-0.4l0.4-0.2c0,0,9.8-3.6,15.2,5.4v0.2v4.8v0.2
					C1820.1,121.8,1815.7,122.8,1812.5,122.8z M1808.5,121.2c1.8,0.6,9.2,2.2,13.6-4.8v-4.2c-4.4-7-11.6-5.4-13.6-4.8
					c0.8,2.4,4.4,3.8,5.6,4.2c0.2,0,0.2,0,0.4,0.2l-0.2,1c0,0-0.2,0-0.4-0.2c-5.4-1.6-9,1-10.2,2c1.2,1,4.8,3.4,10.2,2
					c0.2,0,0.4-0.2,0.4-0.2l0.2,1c-0.2,0-0.2,0-0.4,0.2C1812.9,117.6,1809.3,118.8,1808.5,121.2z"/>
			</g>
			<g>
				<path class="st4" d="M1860.5,91.5c8-5.6,4.8-15.8,4.8-15.8c-3.2,0.6-4.8,7-4.8,7c2.2-7.6-2.2-12.4-2.2-12.4s-4.2,4.8-2.2,12.4
					c0,0-1.4-6.4-4.8-7c0,0-3.4,10.2,4.8,15.8H1860.5z"/>
				<path class="st3" d="M1860.5,92.1h-4.6h-0.2c-8.4-5.8-5-16.2-5-16.4l0.2-0.4h0.4c1.6,0.2,2.8,1.6,3.6,3.2c0-5.2,2.8-8.4,2.8-8.6
					l0.4-0.4l0.4,0.4c0.2,0.2,2.8,3.2,2.8,8.6c0.8-1.6,2-3,3.6-3.2h0.4l0.2,0.4C1865.7,75.6,1869.1,86.3,1860.5,92.1L1860.5,92.1z
					 M1856.3,91.1h4c6.6-4.8,5-12.6,4.6-14.6c-2,0.8-3.2,4.2-3.8,6c0,0.2,0,0.4-0.2,0.6l-1-0.2c0,0,0-0.2,0.2-0.4
					c1.4-5.6-0.8-9.6-1.8-11c-1,1.4-3.2,5.4-1.8,11c0,0.2,0.2,0.4,0.2,0.4l-1,0.2c0-0.2,0-0.4-0.2-0.6c-0.6-1.8-1.8-5.2-3.8-6
					C1851.3,78.4,1849.7,86.3,1856.3,91.1z"/>
			</g>
			<g>
				<path class="st4" d="M1860.5,137c8,5.6,4.8,15.8,4.8,15.8c-3.2-0.6-4.8-7-4.8-7c2.2,7.6-2.2,12.4-2.2,12.4s-4.2-4.8-2.2-12.4
					c0,0-1.4,6.4-4.8,7c0,0-3.4-10.2,4.8-15.8H1860.5z"/>
				<path class="st3" d="M1858.3,159.1l-0.4-0.4c-0.2-0.2-2.8-3.2-2.8-8.6c-0.8,1.6-2,3-3.6,3.2h-0.4l-0.2-0.4
					c0-0.2-3.4-10.6,5-16.4h0.2h4.6h0.2c8.4,5.8,5,16.2,5,16.4l-0.2,0.4h-0.4c-1.6-0.2-2.8-1.6-3.6-3.2c0,5.2-2.8,8.4-2.8,8.6
					L1858.3,159.1z M1856.5,146.5c-1.4,5.8,0.8,9.6,1.8,11c1-1.4,3.2-5.4,1.8-11c0-0.2-0.2-0.4-0.2-0.4l1-0.2c0,0.2,0,0.4,0.2,0.6
					c0.6,1.8,1.8,5.2,3.8,6c0.6-2,2.2-9.8-4.6-14.6h-4c-6.6,4.6-5,12.6-4.6,14.6c2-0.8,3.2-4.2,3.8-6c0-0.2,0-0.4,0.2-0.6l1,0.2
					C1856.7,145.9,1856.7,146.1,1856.5,146.5z"/>
			</g>
			<g>
				<path class="st4" d="M1893.5,112.1c5.2-8.6,14.6-5,14.6-5c-0.6,3.6-6.4,5-6.4,5c7.2-2.2,11.6,2.2,11.6,2.2s-4.4,4.6-11.6,2.2
					c0,0,6,1.6,6.4,5c0,0-9.4,3.6-14.6-5V112.1z"/>
				<path class="st3" d="M1903.5,122.8c-3.2,0-7.6-1.2-10.6-6v-0.2v-4.8v-0.2c5.4-9,15.2-5.4,15.2-5.4l0.4,0.2v0.4
					c-0.2,1.6-1.6,3-3,3.8l0,0c4.8,0,7.8,3,8,3l0.4,0.4l-0.4,0.4c-0.2,0.2-3,3-8,3l0,0c1.4,0.8,2.8,2.2,3,3.8v0.4l-0.4,0.2
					C1908.3,122,1906.3,122.8,1903.5,122.8z M1893.9,116.4c4.4,7.2,11.6,5.4,13.6,4.8c-0.8-2.4-4.4-3.8-5.6-4.2
					c-0.2,0-0.2,0-0.4-0.2l0.2-1c0,0,0.2,0,0.4,0.2c5.4,1.4,9-1,10.2-2c-1.2-1-4.8-3.4-10.2-2c-0.2,0-0.4,0.2-0.4,0.2l-0.2-1
					c0.2,0,0.2,0,0.4-0.2c1.2-0.4,4.8-1.8,5.6-4.2c-1.8-0.6-9.2-2.2-13.6,4.8V116.4z"/>
			</g>
		</g>
		<g>
			<g>
				<path class="st5" d="M1767.8,114.4c0,0-3.8,12-9.2,11.2c0,0-8,4.8-8.6-3.4c0,0-9-0.4-5-7.8c-4-7.2,5-7.8,5-7.8
					c0.4-8.2,8.6-3.4,8.6-3.4C1764,102.3,1767.8,114.4,1767.8,114.4z"/>
				<path class="st3" d="M1754,127.4c-0.8,0-1.4-0.2-2.2-0.6c-1.2-0.8-2-2.2-2.2-4.4c-1.2-0.2-4.4-0.8-5.6-3
					c-0.8-1.4-0.6-3.2,0.6-5.2c-1-2-1.2-3.8-0.6-5.2c1.2-2.2,4.4-2.8,5.6-3c0.2-2.2,1-3.6,2.2-4.4c2.4-1.4,6,0.4,6.8,0.8
					c5.6-0.8,9.4,11,9.6,11.4v0.2v0.2c-0.2,0.6-4,12.2-9.6,11.4C1758,126.2,1756,127.4,1754,127.4z M1754,102.5
					c-0.6,0-1.2,0.2-1.6,0.4c-1,0.6-1.6,2-1.8,4v0.4h-0.4c0,0-4,0.2-5.2,2.4c-0.6,1.2-0.4,2.6,0.6,4.4l0.2,0.2l-0.2,0.2
					c-1,1.8-1.2,3.4-0.6,4.4c1.2,2.2,5.2,2.4,5.2,2.4h0.4v0.4c0.2,2,0.6,3.4,1.8,4c2.2,1.2,6-1,6-1h0.2h0.2
					c4.6,0.8,8.2-9.2,8.6-10.6c-0.4-1.4-4-11.4-8.6-10.6h-0.2h-0.2C1758.4,103.7,1756,102.5,1754,102.5z"/>
			</g>
			<g>
				<path class="st5" d="M1948.3,114.4c0,0,3.8,12,9.2,11.2c0,0,8,4.8,8.6-3.4c0,0,9-0.4,5-7.8c4-7.2-5-7.8-5-7.8
					c-0.4-8.2-8.6-3.4-8.6-3.4C1952.1,102.3,1948.3,114.4,1948.3,114.4z"/>
				<path class="st3" d="M1962.1,127.4c-2,0-4.2-1-4.6-1.4c-5.6,0.8-9.4-11-9.6-11.4v-0.2v-0.2c0.2-0.6,4-12.2,9.6-11.4
					c0.8-0.4,4.4-2.2,6.8-0.8c1.2,0.8,2,2.2,2.2,4.4c1.2,0.2,4.4,0.6,5.6,3c0.8,1.4,0.6,3.2-0.6,5.2c1,2,1.2,3.8,0.6,5.2
					c-1.2,2.2-4.4,2.8-5.6,3c-0.2,2.2-1,3.6-2.2,4.4C1963.7,127.2,1962.9,127.4,1962.1,127.4z M1957.7,124.8L1957.7,124.8
					c0.2,0.2,4,2.4,6.2,1c1-0.6,1.6-2,1.8-4v-0.4h0.4c0,0,4-0.2,5.2-2.4c0.6-1.2,0.4-2.6-0.6-4.4l-0.2-0.2l0.2-0.2
					c1-1.8,1.2-3.4,0.6-4.4c-1.2-2.2-5.2-2.4-5.2-2.4h-0.4V107c-0.2-2-0.8-3.4-1.8-4c-2.2-1.2-6,1-6,1h-0.2h-0.2
					c-4.6-0.8-8.2,9.2-8.6,10.6C1949.3,115.8,1952.9,125.8,1957.7,124.8L1957.7,124.8z"/>
			</g>
		</g>
		<g>
			<g>
				<g>
					<path class="st5" d="M1733.4,103.3c0,0-4-9.2,7.2-10.6l5,11.2L1733.4,103.3z"/>
				</g>
				<g>
					<path class="st5" d="M1753.2,97.5c0,0-0.4-7.8,1.4-10.6c1.8-3-10.4-4.2-10.4,2.4C1744.2,92.1,1753.2,97.5,1753.2,97.5z"/>
				</g>
				<g>
					<path class="st5" d="M1733.4,125.4c0,0-4,9.2,7.2,10.6l5-11.2L1733.4,125.4z"/>
					<path class="st3" d="M1741,136.6h-0.4c-3.8-0.4-6.4-1.8-7.6-4.2c-1.8-3.2-0.2-7,0-7.2l0.2-0.2l13.2-0.6L1741,136.6z
						 M1733.8,126c-0.4,0.8-1.2,3.6,0.2,6c1,1.8,3.2,3.2,6.4,3.6l4.4-10L1733.8,126z"/>
				</g>
				<g>
					<path class="st5" d="M1753.2,131.2c0,0-0.4,7.8,1.4,10.6c1.8,3-10.4,4.2-10.4-2.4C1744.2,136.6,1753.2,131.2,1753.2,131.2z"/>
					<path class="st3" d="M1750.6,144.9c-1,0-2.2-0.2-3.2-0.6c-2.4-0.8-3.6-2.6-3.6-4.8c0-3.2,8.4-8.2,9.2-8.6l0.8-0.4v1
						c0,0-0.4,7.6,1.2,10.4c0.4,0.6,0.4,1.2,0,1.8C1754.2,144.3,1752.4,144.9,1750.6,144.9z M1752.6,132.2c-3.4,2-8,5.6-8,7.2
						c0,2.2,1.6,3.4,3,3.8c2.6,1,5.8,0.4,6.4-0.6c0.2-0.2,0.2-0.2,0-0.6C1752.6,139.8,1752.6,134.4,1752.6,132.2z"/>
				</g>
				<g>
					<path class="st5" d="M1742.8,114.4l-8.8,6c-2.6-1-7.4-2.2-8.8-6c1.4-3.8,6.4-4.8,9.2-5.8L1742.8,114.4z"/>
					<path class="st3" d="M1734.2,121l-1.2-0.4c-2.8-1-7-2.4-8.2-6v-0.2v-0.2c1.2-3.4,5.2-4.6,8-5.6c0.6-0.2,1-0.4,1.4-0.4h0.2
						l9.2,6.2L1734.2,121z M1725.8,114.4c1.2,3.2,4.8,4.4,7.6,5.2c0.2,0,0.4,0.2,0.6,0.2l8-5.6l-7.6-5.2c-0.4,0.2-0.8,0.2-1.2,0.4
						C1730.4,110.5,1727,111.5,1725.8,114.4z"/>
				</g>
			</g>
			<g>
				<g>
					<path class="st5" d="M1982.7,103.3c0,0,4-9.2-7.2-10.6l-5,11.2L1982.7,103.3z"/>
					<path class="st3" d="M1969.9,104.3l5.4-12.2h0.4c3.8,0.4,6.4,1.8,7.6,4.2c1.8,3.2,0.2,7,0,7.2l-0.2,0.2L1969.9,104.3z
						 M1975.9,93.3l-4.4,10l11-0.4c0.4-0.8,1.2-3.6-0.2-6C1981.3,94.9,1979.1,93.7,1975.9,93.3z"/>
				</g>
				<g>
					<path class="st5" d="M1962.9,97.5c0,0,0.4-7.8-1.4-10.6c-1.8-3,10.4-4.2,10.4,2.4C1971.9,92.1,1962.9,97.5,1962.9,97.5z"/>
					<path class="st3" d="M1962.5,98.5v-1c0,0,0.4-7.6-1.2-10.4c-0.4-0.6-0.4-1.2,0-1.8c1-1.4,4.8-1.8,7.6-0.8
						c2.4,0.8,3.6,2.6,3.6,4.8c0,3.2-8.4,8.2-9.2,8.6L1962.5,98.5z M1965.7,85c-1.6,0-3.2,0.4-3.6,1c-0.2,0.2-0.2,0.2,0,0.6
						c1.6,2.4,1.6,7.8,1.4,10c3.4-2,8-5.6,8-7.2c0-2.2-1.6-3.4-3-3.8C1967.5,85,1966.5,85,1965.7,85z"/>
				</g>
				<g>
					<path class="st5" d="M1982.7,125.4c0,0,4,9.2-7.2,10.6l-5-11.2L1982.7,125.4z"/>
					<path class="st3" d="M1975.3,136.6l-5.4-12.2l13.2,0.6l0.2,0.2c0,0.2,1.8,4,0,7.2c-1.2,2.2-3.8,3.6-7.6,4.2H1975.3z
						 M1971.5,125.6l4.4,10c3.2-0.4,5.4-1.6,6.4-3.6c1.2-2.4,0.4-5.2,0.2-6L1971.5,125.6z"/>
				</g>
				<g>
					<path class="st5" d="M1962.9,131.2c0,0,0.4,7.8-1.4,10.6c-1.8,3,10.4,4.2,10.4-2.4C1971.9,136.6,1962.9,131.2,1962.9,131.2z"/>
					<path class="st5" d="M1965.5,144.9c-1.8,0-3.6-0.6-4.4-1.4c-0.4-0.6-0.4-1.2,0-1.8c1.6-2.8,1.2-10.2,1.2-10.4v-1l0.8,0.4
						c1,0.6,9.2,5.6,9.2,8.6c0,2.2-1.2,4-3.6,4.8C1967.9,144.7,1966.7,144.9,1965.5,144.9z M1963.5,132.2c0,2.2,0,7.6-1.4,10
						c-0.2,0.2-0.2,0.4,0,0.6c0.6,0.8,3.8,1.4,6.4,0.6c1.4-0.4,3-1.6,3-3.8C1971.5,137.8,1966.9,134.2,1963.5,132.2z"/>
				</g>
				<g>
					<path class="st5" d="M1973.3,114.4l8.8,6c2.6-1,7.4-2.2,8.8-6c-1.4-3.8-6.4-4.8-9.2-5.8L1973.3,114.4z"/>
					<path class="st3" d="M1982.1,121l-9.6-6.6l9.2-6.2h0.2c0.4,0.2,1,0.4,1.4,0.4c2.8,0.8,6.8,2,8,5.6v0.2v0.2
						c-1.2,3.8-5.4,5.2-8.2,6L1982.1,121z M1974.3,114.4l8,5.6c0.2,0,0.4-0.2,0.6-0.2c2.6-1,6.4-2.2,7.6-5.2c-1.2-2.8-4.6-4-7.2-4.8
						c-0.4-0.2-0.8-0.2-1.2-0.4L1974.3,114.4z"/>
				</g>
			</g>
		</g>
	</g>
	<g>
		<g>
			<path class="st1" d="M2145.6,46c-1.4,0-11.4,3.6-12.2,17.6c0,0-19-2.2-19,18.2c0,4.6,5.8,5.8,8,10c3,5.6-4.6,11.4-8.8,6.8
				c-3-3.4-4.4-14.2-11-14.2c-6.6,0-13.8,5.8-12.8,18c0,0-11,2.6-15.6,13c4.6,10.4,15.6,13,15.6,13c-1,12.2,6.4,18,12.8,18
				c6.6,0,8-10.8,11-14.2c4.2-4.8,11.8,1.2,8.8,6.8c-2.2,4.2-8,5.4-8,10c0,20.4,19,18.2,19,18.2c2.2,13.8,12.2,13.6,12.2,13.6"/>
			<path class="st3" d="M2145.6,181.7c-0.6,0-10.6-0.2-13-13.6c-2.4,0.2-8.8,0-13.8-4.6c-3.6-3.4-5.4-8.2-5.4-14.8
				c0-3.2,2.2-5,4.4-6.6c1.4-1.2,2.8-2.2,3.8-3.8c1.2-2.4,0.2-4.6-1.6-6c-1.4-1.2-3.8-1.6-5.8,0.4c-0.8,1-1.6,2.8-2.4,4.8
				c-1.8,4.4-4.2,9.8-9.2,9.8c-3.6,0-7.2-1.6-9.8-4.4c-2.2-2.4-4.4-6.6-4.2-13.6c-2.8-0.8-11.4-4.2-15.4-13.4l-0.2-0.4l0.2-0.4
				c4-9.2,12.8-12.6,15.4-13.4c-0.4-7,2-11.4,4.2-13.8c2.6-2.8,6-4.4,9.8-4.4c5,0,7.4,5.4,9.2,9.8c0.8,2,1.6,3.8,2.4,4.8
				c1.8,2,4.2,1.6,5.8,0.4c1.6-1.2,2.8-3.6,1.6-6c-0.8-1.6-2.2-2.8-3.8-3.8c-2.2-1.8-4.4-3.4-4.4-6.6c0-6.4,1.8-11.4,5.4-14.8
				c4.8-4.4,11.2-4.6,13.6-4.6c1.2-14,11.6-17.6,13.2-17.6v2c-1.2,0-10.6,3.6-11.2,16.6v1l-1-0.2c0,0-8-0.8-13.2,4
				c-3.2,3-4.8,7.4-4.8,13.2c0,2.2,1.6,3.4,3.6,5c1.6,1.2,3.2,2.6,4.2,4.4c1.8,3.4,0.2,7-2.2,8.6c-2.4,1.8-5.8,2.2-8.4-0.6
				c-1-1.2-2-3.2-2.8-5.4c-1.6-4-3.6-8.6-7.4-8.6c-3,0-6.2,1.4-8.2,3.8c-2,2.2-4.2,6.2-3.6,13v0.8l-0.8,0.2c-0.2,0-10.4,2.6-14.8,12
				c4.4,9.6,14.6,12,14.8,12l0.8,0.2v0.8c-0.6,6.8,1.6,10.8,3.6,13c2.2,2.4,5.2,3.8,8.2,3.8c3.8,0,5.6-4.6,7.4-8.6
				c1-2.2,1.8-4.2,2.8-5.4c2.6-2.8,6-2.4,8.4-0.6s4,5.2,2.2,8.6c-1,2-2.6,3.2-4.2,4.4c-2,1.6-3.6,2.8-3.6,5c0,5.8,1.6,10.2,4.8,13.2
				c5.2,4.8,13,4,13.2,4l1-0.2l0.2,1c2,12.8,10.8,12.8,11.2,12.8L2145.6,181.7L2145.6,181.7z"/>
		</g>
		<g>
			<g>
				<path class="st3" d="M2110.4,112.1c41.6-11.4,23-47.8,23-47.8l0.8-4.6c0,0,24.4,43.3-23.8,55.8V112.1z"/>
			</g>
			<g>
				<path class="st3" d="M2110.4,118.6c41.6,11.4,23.2,47.8,23.2,47.8l1.2,5c0,0,24-43.4-24.2-56v3.2H2110.4z"/>
			</g>
		</g>
		<g>
			<g>
				<path class="st3" d="M2111,108.1c0-2.2,0-3.4-2-3.4s-1.8,1.2-1.8,3.4v14.1c0,2.2-0.4,3.4,1.8,3.4s2-1.2,2-3.4V108.1z"/>
			</g>
		</g>
		<g>
			<g>
				<path class="st4" d="M2107,112.3c-5-10.8-14.2-6.4-14.2-6.4c0.4,4.4,6.2,6.4,6.2,6.4c-6.8-2.8-11.2,2.8-11.2,2.8
					s4.2,5.6,11.2,2.8c0,0-5.8,2-6.2,6.4c0,0,9.2,4.6,14.2-6.4V112.3z"/>
				<path class="st3" d="M2097.4,125.6c-2.6,0-4.6-1-4.6-1l-0.4-0.2V124c0.2-2.2,1.8-3.8,3.2-5c-5,0.2-8-3.8-8-3.8l-0.2-0.4l0.2-0.4
					c0,0,3-4,8-3.8c-1.6-1.2-3-2.8-3.2-5v-0.4l0.4-0.2c0,0,9.6-4.6,14.8,6.6v0.2v6C2104.6,124.2,2100.6,125.6,2097.4,125.6z
					 M2093.4,124c1.6,0.6,8.8,3,13-6.2v-5.4c-4.2-9-11.4-6.8-13-6.2c0.6,3.2,4.2,5,5.4,5.4c0.2,0,0.2,0,0.4,0.2l-0.4,1
					c0,0-0.2,0-0.4-0.2c-5.2-2-9,1.4-9.8,2.6c1,1.2,4.6,4.4,9.8,2.6c0.2-0.2,0.4-0.2,0.4-0.2l0.4,1c-0.2,0-0.2,0.2-0.4,0.2
					C2097.8,119,2094.2,120.8,2093.4,124z"/>
			</g>
			<g>
				<path class="st3" d="M2142.4,87.5c-10-5.4-8.6-15.2-8.6-15.2c4,0.6,6,6.8,6,6.8c-2.6-7.4,2.6-12,2.6-12V87.5z"/>
			</g>
			<g>
				<path class="st3" d="M2142.4,144.9c-10,5.4-8.8,15.2-8.8,15.2c4-0.6,6-6.8,6-6.8c-2.6,7.4,2.8,12.2,2.8,12.2V144.9z"/>
			</g>
		</g>
	</g>
	<g>
		<ellipse class="st6" cx="18" cy="180.3" rx="3" ry="3.2"/>
		<path class="st3" d="M18,184.5c-2.2,0-4-2-4-4.2c0-2.4,1.8-4.2,4-4.2s4,2,4,4.2C22,182.7,20.2,184.5,18,184.5z M18,178.1
			c-1.2,0-2,1-2,2.2c0,1.2,1,2.2,2,2.2c1.2,0,2-1,2-2.2C20,179.1,19,178.1,18,178.1z"/>
	</g>
	<g>
		<ellipse class="st6" cx="18.2" cy="47" rx="3" ry="3.2"/>
		<path class="st3" d="M18.2,51.2c-2.2,0-4-2-4-4.2s1.8-4.2,4-4.2s4,2,4,4.2S20.4,51.2,18.2,51.2z M18.2,44.8c-1.2,0-2,1-2,2.2
			s1,2.2,2,2.2c1.2,0,2-1,2-2.2S19.4,44.8,18.2,44.8z"/>
	</g>
	<g>
		<ellipse class="st6" cx="2142.8" cy="180.1" rx="3" ry="3.2"/>
		<path class="st3" d="M2142.8,184.3c-2.2,0-4-2-4-4.2c0-2.2,1.8-4.2,4-4.2s4,2,4,4.2C2146.8,182.3,2145,184.3,2142.8,184.3z
			 M2142.8,177.9c-1.2,0-2,1-2,2.2c0,1.2,1,2.2,2,2.2c1.2,0,2-1,2-2.2C2144.8,178.9,2144,177.9,2142.8,177.9z"/>
	</g>
	<g>
		<ellipse class="st6" cx="2143.2" cy="46.8" rx="3" ry="3.2"/>
		<path class="st3" d="M2143.2,51c-2.2,0-4-2-4-4.2c0-2.2,1.8-4.2,4-4.2s4,2,4,4.2C2147.2,49,2145.4,51,2143.2,51z M2143.2,44.6
			c-1.2,0-2,1-2,2.2s1,2.2,2,2.2s2-1,2-2.2S2144.2,44.6,2143.2,44.6z"/>
	</g>
</g>
</svg>
