<?xml version="1.0" encoding="utf-8"?>
<!-- Generator: Adobe Illustrator 27.1.1, SVG Export Plug-In . SVG Version: 6.00 Build 0)  -->
<svg version="1.1" id="Layer_2_00000129893406245188048480000006469036894933346950_"
	 xmlns="http://www.w3.org/2000/svg" xmlns:xlink="http://www.w3.org/1999/xlink" x="0px" y="0px" viewBox="0 0 1080 115"
	 style="enable-background:new 0 0 1080 115;" xml:space="preserve">
<style type="text/css">
	.st0{fill:none;}
	.st1{fill:#E8D5C4;stroke:#876844;stroke-miterlimit:10;}
	.st2{fill:#F0E4D6;}
	.st3{fill:#876844;}
	.st4{fill:#B3916C;}
	.st5{fill:#DDCAB3;}
	.st6{fill:#F3E6DA;}
</style>
<g>
	<g>
		<path class="st0" d="M1.2,104.8V10.2C1.2,5.6,4.7,2,9,2h1061.6c4.3,0,7.8,3.7,7.8,8.2v94.7c0,4.6-3.5,8.2-7.8,8.2H9.1
			C4.7,113.1,1.2,109.4,1.2,104.8z"/>
	</g>
	<g>
		<path class="st1" d="M0.5,105.8V9.3c0-4.6,3.5-8.4,7.8-8.4h1063.4c4.3,0,7.8,3.8,7.8,8.4v96.6c0,4.6-3.5,8.4-7.8,8.4H8.3
			C4,114.2,0.5,110.4,0.5,105.8z M282.3,105.1H798c1.9,0,3.6-0.9,5-2.4L838,63.4c2.9-3.4,2.9-8.9,0-12.2l-35-38.8
			c-1.3-1.5-3.1-2.4-5-2.4H282.4c-1.8,0-3.6,0.8-4.9,2.3l-35.5,38.8c-3,3.3-3,8.9,0,12.3l35.4,39.4
			C278.7,104.2,280.5,105.1,282.3,105.1z M889.3,105.7h77.8c2.1,0,4.2-0.9,5.7-2.6l34.8-39.4c2.8-3.2,2.9-8.3,0-11.5l-34.8-40.1
			c-1.5-1.7-3.5-2.7-5.7-2.7h-77.7c-2.2,0-4.2,1-5.7,2.7l-34.9,40.1c-2.8,3.3-2.8,8.3,0,11.5l34.8,39.4
			C885.1,104.8,887.2,105.7,889.3,105.7z M1051.8,13.2l-33.4,35.6c-4.2,4.5-4.2,11.8,0,16.2l33.4,37c6.7,7.2,18.2,2.1,18.2-8.1V21.3
			C1070,11,1058.5,5.9,1051.8,13.2z M195.8,103.1l34.8-39.4c2.8-3.2,2.9-8.3,0-11.5l-34.8-40.1c-1.5-1.7-3.5-2.7-5.7-2.7h-77.7
			c-2.2,0-4.2,1-5.7,2.7L72,52.2c-2.8,3.3-2.8,8.3,0,11.5l34.8,39.4c1.5,1.7,3.5,2.6,5.7,2.6h77.8
			C192.3,105.7,194.3,104.8,195.8,103.1z M9.5,21.3v72.6c0,10.2,11.5,15.4,18.2,8.1l33.4-37c4.2-4.5,4.2-11.8,0-16.2L27.7,13.2
			C20.9,5.9,9.5,11,9.5,21.3z"/>
		<g>
			<path class="st2" d="M8.3,113.9c-4.3,0-7.8-3.8-7.8-8.4V9.5c0-4.6,3.5-8.4,7.8-8.4h1063.4c4.3,0,7.8,3.8,7.8,8.4
				c0-4.6-3.5-8.4-7.8-8.4H8.3C4,1.2,0.5,4.9,0.5,9.5v96.1C0.5,110.2,4,113.8,8.3,113.9h1063.4c4.3,0,7.8-3.7,7.8-8.3
				c0,4.6-3.5,8.4-7.8,8.4L8.3,113.9L8.3,113.9z M889.3,105.4c-2.1,0-4.2-0.9-5.7-2.6l-34.8-39.2c-2.9-3.2-2.9-8.3,0-11.5l34.9-39.9
				c1.5-1.7,3.6-2.7,5.7-2.7h77.7c2.2,0,4.2,1,5.7,2.7l34.8,39.9c2.8,3.2,2.8,8.3,0,11.5l-34.8,39.2c-1.5,1.7-3.5,2.6-5.7,2.6
				C967.1,105.5,889.3,105.5,889.3,105.4z M112.3,105.4c-2.1,0-4.2-0.9-5.7-2.6L72,63.7c-2.9-3.2-2.9-8.3,0-11.5l34.8-39.9
				c1.5-1.7,3.6-2.7,5.7-2.7h77.7c2.2,0,4.2,1,5.7,2.7l34.8,39.9c2.8,3.2,2.8,8.3,0,11.5l-34.8,39.2c-1.5,1.7-3.5,2.6-5.7,2.6
				C190.1,105.5,112.3,105.5,112.3,105.4z M1059.3,105.1c-2.8,0-5.5-1.2-7.5-3.4l-33.4-36.8c-4.2-4.5-4.2-11.7,0-16.2l33.4-35.4
				c2-2.2,4.7-3.4,7.5-3.4c1.3,0,2.6,0.3,3.9,0.8c4.2,1.7,6.8,5.8,6.8,10.7v72.2c0,4.8-2.6,8.9-6.8,10.7
				C1061.9,104.8,1060.6,105.1,1059.3,105.1z M20.2,105.1c-1.3,0-2.6-0.3-3.9-0.8c-4.2-1.7-6.8-5.8-6.8-10.7V21.5
				c0-4.8,2.6-8.9,6.8-10.7c1.3-0.5,2.6-0.8,3.9-0.8c2.8,0,5.5,1.2,7.5,3.4L61,48.8c4.2,4.5,4.2,11.7,0,16.2l-33.4,36.8
				C25.6,103.8,23,105.1,20.2,105.1z M282.3,104.8c-1.9,0-3.6-0.8-5-2.4L242,63.2c-2.9-3.3-2.9-9,0-12.3l35.5-38.5
				c1.3-1.5,3.1-2.3,4.9-2.3H798c1.9,0,3.6,0.8,5,2.4l35,38.6c3,3.4,3,8.8,0,12.2l-35.1,39.1c-1.3,1.5-3.1,2.4-5,2.4H282.3z"/>
			<path class="st3" d="M1059.3,9.5v1c1.3,0,2.5,0.3,3.7,0.8c4,1.7,6.5,5.6,6.5,10.2v72.2c0,4.6-2.5,8.5-6.5,10.2
				c-1.2,0.5-2.5,0.8-3.7,0.8c-2.7,0-5.2-1.1-7.1-3.2l-33.5-36.8c-4-4.3-4-11.2,0-15.5l33.4-35.4c1.9-2.1,4.5-3.2,7.1-3.2
				L1059.3,9.5 M967.1,10.1c2,0,4,0.9,5.3,2.5l34.8,39.9c2.7,3.1,2.6,7.8,0,10.8l-34.8,39.2c-1.4,1.5-3.3,2.4-5.3,2.4h-77.8
				c-2,0-3.9-0.9-5.3-2.4l-34.8-39.2c-2.7-3-2.7-7.8,0-10.8L884,12.5c1.4-1.6,3.3-2.5,5.3-2.5L967.1,10.1 M190.1,10.1
				c2,0,4,0.9,5.3,2.5l34.8,39.9c2.7,3.1,2.6,7.8,0,10.8l-34.8,39.2c-1.4,1.5-3.3,2.4-5.3,2.4h-77.8c-2,0-3.9-0.9-5.3-2.4L72.4,63.3
				c-2.7-3-2.7-7.8,0-10.8l34.8-39.9c1.4-1.6,3.3-2.5,5.3-2.5L190.1,10.1 M20.2,10.5c2.7,0,5.2,1.1,7.1,3.2l33.4,35.4
				c4,4.3,4,11.2,0,15.5l-33.4,36.8c-1.9,2.1-4.5,3.2-7.1,3.2c-1.3,0-2.5-0.3-3.7-0.8c-4-1.7-6.5-5.6-6.5-10.2V21.5
				c0-4.6,2.5-8.5,6.5-10.2C17.7,10.8,18.9,10.5,20.2,10.5 M798.1,10.7c1.7,0,3.3,0.8,4.6,2.2l35,38.6c2.8,3.2,2.8,8.4,0,11.5
				L802.6,102c-1.2,1.4-2.9,2.2-4.6,2.2H282.3c-1.7,0-3.3-0.8-4.6-2.2l-35.4-39.1c-2.8-3.2-2.8-8.5,0-11.6l35.5-38.6
				c1.2-1.4,2.9-2.1,4.5-2.1H798.1 M1071.7,0.6H8.3C3.7,0.6,0,4.6,0,9.5v96.1c0,4.9,3.7,8.9,8.3,8.9h1063.4c4.6,0,8.3-4,8.3-8.9V9.5
				C1080,4.6,1076.3,0.6,1071.7,0.6L1071.7,0.6z M8.3,113.3c-4,0-7.3-3.5-7.3-7.9v-96c0-4.3,3.3-7.9,7.3-7.9h1063.4
				c4,0,7.3,3.5,7.3,7.9v96.1c0,4.3-3.3,7.9-7.3,7.9L8.3,113.3L8.3,113.3z M967.1,9.1h-77.7c-2.3,0-4.5,1-6.1,2.8l-34.8,39.9
				c-3,3.4-3,8.8,0.1,12.2l34.8,39.2c1.6,1.8,3.8,2.8,6,2.8h77.8c2.3,0,4.5-1,6-2.8l34.8-39.2c3-3.4,3-8.7,0.1-12.2l-34.8-39.9
				C971.6,10.2,969.4,9.1,967.1,9.1L967.1,9.1z M190.1,9.1h-77.7c-2.3,0-4.5,1-6.1,2.8l-34.8,40c-3,3.4-3,8.8,0.1,12.2l34.8,39.2
				c1.6,1.8,3.8,2.8,6,2.8h77.8c2.3,0,4.5-1,6-2.8L231,64.1c3-3.4,3-8.7,0.1-12.2l-34.8-39.9C194.6,10.2,192.4,9.1,190.1,9.1
				L190.1,9.1z M20.2,9.5c-1.4,0-2.8,0.3-4.1,0.8C11.7,12.1,9,16.4,9,21.4v72.2c0,5,2.7,9.3,7.1,11.1c1.3,0.6,2.7,0.8,4.1,0.8
				c2.9,0,5.7-1.2,7.9-3.5l33.4-36.7c4.3-4.7,4.3-12.2,0-16.9L28,13C25.9,10.7,23.1,9.5,20.2,9.5L20.2,9.5z M1059.3,9.5
				c-2.9,0-5.7,1.2-7.8,3.5l-33.4,35.4c-4.3,4.7-4.3,12.2,0,16.9l33.4,36.8c2.2,2.3,5,3.5,7.8,3.5c1.4,0,2.8-0.3,4.1-0.8
				c4.4-1.8,7.1-6.1,7.1-11.1V21.5c0-5-2.7-9.3-7.1-11.1C1062,9.8,1060.7,9.5,1059.3,9.5L1059.3,9.5z M798.1,9.7H282.4
				c-2,0-3.9,0.9-5.3,2.5l-35.5,38.6c-3.1,3.5-3.1,9.4,0,12.9l35.4,39.2c1.4,1.6,3.3,2.5,5.3,2.5H798c2,0,3.9-0.9,5.4-2.5l35.1-39.1
				c3.1-3.6,3.1-9.3,0-12.9l-35-38.6C802,10.6,800.1,9.7,798.1,9.7L798.1,9.7z"/>
		</g>
	</g>
	<g>
		<g>
			<g>
				<path class="st3" d="M81.1,105.8c1.6-0.1,8.4-3.1,8.4-8.8c0-5.7-4.7-7.6-4.7-7.6s2.6,1.9,2.6,5.5c0,1.8-1.4,1.8-1.4,3.3
					s1.4,1.6,2.1,0.8c0,0-0.9,4.4-7,6.4V105.8z"/>
			</g>
			<g>
				<path class="st3" d="M66.8,94.6c2.5,9.3,9.2,11.2,9.2,11.2l0.1-0.8c0,0-6.1-2.5-8.6-10.6L66.8,94.6"/>
			</g>
			<g>
				<path class="st3" d="M70.5,100.3l-0.7-1c4.6-0.5,5.6-7.6,5.6-7.6S75.7,99.1,70.5,100.3z"/>
			</g>
			<g>
				<path class="st3" d="M89.3,105.8c0,0-2.7-5.7-6.9-5.4c0,0,0.2-6.3-2.7-6.3c-2.9,0-3.1,6.5-5,5.2c-1.6-1.1,0.4-3,0.6-5.9
					c0.2-3.7-1.7-6.4-4.5-6.1c0,0-0.5-3.9-1.8-4.6c-1.4-0.9-2-2.3-2-2.3s-0.5,1.5-2,2.3c-1.3,0.8-1.8,4.6-1.8,4.6
					c-2.8-0.3-4.7,2.5-4.5,6.2c0.2,2.9,2.2,4.8,0.6,5.8c-1.9,1.3-2.1-5.2-5-5.2c-2.9,0-2.7,6.3-2.7,6.3c-4.2-0.3-6.9,5.4-6.9,5.4
					l-0.5-0.5c0,0,1.9-5.3,6.2-6.1c0,0-0.5-8.6,7.2-7c0,0-0.5-5.9,4.8-6.1c0,0,0.5-3.5,2.5-4.6c2-1.1,2.1-3.1,2.1-3.1s0.1,2,2.1,3.1
					s2.5,4.6,2.5,4.6c5.3,0.3,4.8,6.1,4.8,6.1c7.6-1.6,7.2,7,7.2,7c4.3,0.7,6.2,6.1,6.2,6.1L89.3,105.8z"/>
			</g>
			<g>
				<path class="st3" d="M53,105.8c-1.6-0.1-8.4-3.1-8.4-8.8c0-5.7,4.7-7.6,4.7-7.6s-2.6,1.9-2.6,5.5c0,1.8,1.4,1.8,1.4,3.3
					S46.7,99.8,46,99c0,0,0.9,4.4,7,6.4C53,105.4,53,105.8,53,105.8z"/>
			</g>
			<g>
				<path class="st3" d="M67.3,94.6c-2.5,9.3-9.2,11.2-9.2,11.2l-0.1-0.8c0,0,6.1-2.5,8.6-10.6L67.3,94.6"/>
			</g>
			<g>
				<path class="st3" d="M63.6,100.3l0.7-1c-4.6-0.5-5.7-7.6-5.7-7.6S58.4,99.1,63.6,100.3z"/>
			</g>
			<g>
				<path class="st3" d="M66.8,104.7c-2.5-1.3-3.2-2.8-3.2-2.8l0.6-0.8c0,0,0.8,1.6,2.6,2.4c1.8-0.8,2.9-2.6,2.9-2.6l0.7,0.9
					C70.4,101.7,69.3,103.3,66.8,104.7z"/>
			</g>
		</g>
		<g>
			<g>
				<path class="st3" d="M89.9,105.8c2-4,6.1-5,6.1-5c0.2,2.2-1.9,3.1-1.9,3.1c2.4-0.6,5.1,1.9,5.1,1.9H89.9"/>
			</g>
			<g>
				<path class="st3" d="M76,105.8c0.2-3.7,4.5-4.3,4.5-4.3c0,2-1.9,2.7-1.9,2.7c2.5-0.8,4,1.6,4,1.6S76,105.7,76,105.8z"/>
			</g>
			<g>
				<path class="st4" d="M66.9,93.7c3.2-0.3,3.6-5.2,3.6-5.2c-1.8,0-2.3,2.2-2.3,2.2c0.7-2.9-1.4-4.6-1.4-4.6s-1.5,1.8-0.8,4.6
					c0,0-0.6-2.2-2.3-2.2C63.7,88.4,63.7,93.3,66.9,93.7z"/>
				<path class="st3" d="M66.9,93.9L66.9,93.9c-3.4-0.3-3.5-5.3-3.5-5.5v-0.3h0.3c0.9,0,1.5,0.5,1.9,1c0-2.1,1-3.3,1-3.4l0.2-0.2
					l0.2,0.2c0.1,0.1,1.5,1.3,1.6,3.5c0.4-0.6,1-1.1,1.9-1.1h0.3v0.3C70.7,88.7,70.3,93.7,66.9,93.9L66.9,93.9z M63.9,88.8
					c0.1,1,0.5,4.4,3,4.7c2.5-0.2,3.1-3.6,3.3-4.7c-1.3,0.2-1.8,2-1.8,2l-0.5-0.2c0.5-2.2-0.6-3.7-1.1-4.2c-0.3,0.5-1.1,2-0.6,4.2
					l-0.5,0.1C65.8,90.7,65.3,88.9,63.9,88.8z"/>
			</g>
			<g>
				<path class="st3" d="M44.2,105.8c-2-4-6.1-5-6.1-5c-0.2,2.2,1.9,3.1,1.9,3.1c-2.4-0.6-5.1,1.9-5.1,1.9H44.2"/>
			</g>
			<g>
				<path class="st3" d="M58.1,105.8c-0.2-3.7-4.5-4.3-4.5-4.3c0,2,1.9,2.7,1.9,2.7c-2.5-0.8-4,1.6-4,1.6S58.1,105.7,58.1,105.8z"/>
			</g>
		</g>
		<g>
			<path class="st3" d="M68.6,94.7c1.5,0,1.5-1.8,0-1.8h-3.1c-1.5,0-1.5,1.8,0,1.8H68.6z"/>
		</g>
		<g>
			<path class="st3" d="M91.2,105.8v-2.4c0-2.1-1.9-2-1.9,0v2.4H91.2z"/>
		</g>
		<g>
			<path class="st3" d="M59,105.8v-2.1c0-1.7-1.6-1.8-1.6,0v2.1H59z"/>
		</g>
		<g>
			<path class="st3" d="M76.7,105.8v-2.1c0-1.7-1.6-1.8-1.6,0v2.1H76.7z"/>
		</g>
		<g>
			<path class="st3" d="M42.9,105.8v-2.4c0-2.1,1.9-2,1.9,0v2.4H42.9z"/>
		</g>
	</g>
	<g>
		<g>
			<g>
				<path class="st3" d="M81.1,8.9c1.6,0.1,8.4,3.1,8.4,8.8s-4.7,7.6-4.7,7.6s2.6-1.9,2.6-5.5c0-1.8-1.4-1.8-1.4-3.3
					s1.4-1.6,2.1-0.8c0,0-0.9-4.4-7-6.4V8.9z"/>
			</g>
			<g>
				<path class="st3" d="M66.8,20.2C69.3,10.9,76,9,76,9l0.1,0.8c0,0-6.1,2.5-8.6,10.6L66.8,20.2"/>
			</g>
			<g>
				<path class="st3" d="M70.5,14.4l-0.7,1c4.6,0.5,5.6,7.6,5.6,7.6S75.7,15.6,70.5,14.4z"/>
			</g>
			<g>
				<path class="st3" d="M89.3,8.9c0,0-2.7,5.7-6.9,5.4c0,0,0.2,6.3-2.7,6.3c-2.9,0-3.1-6.5-5-5.2c-1.6,1.1,0.4,3,0.6,5.9
					c0.2,3.7-1.7,6.4-4.5,6.1c0,0-0.5,3.9-1.8,4.6c-1.4,0.9-2,2.3-2,2.3s-0.5-1.5-2-2.3c-1.3-0.8-1.8-4.6-1.8-4.6
					c-2.8,0.3-4.7-2.5-4.5-6.2c0.2-2.9,2.2-4.8,0.6-5.8c-1.9-1.3-2.1,5.2-5,5.2c-2.9,0-2.7-6.3-2.7-6.3c-4.2,0.3-6.9-5.4-6.9-5.4
					l-0.5,0.5c0,0,1.9,5.3,6.2,6.1c0,0-0.5,8.6,7.2,7c0,0-0.5,5.9,4.8,6.1c0,0,0.5,3.5,2.5,4.6c2,1.1,2.1,3.1,2.1,3.1s0.1-2,2.1-3.1
					s2.5-4.6,2.5-4.6c5.3-0.3,4.8-6.1,4.8-6.1c7.6,1.6,7.2-7,7.2-7c4.3-0.7,6.2-6.1,6.2-6.1L89.3,8.9z"/>
			</g>
			<g>
				<path class="st3" d="M53,8.9c-1.6,0.1-8.4,3.1-8.4,8.8s4.7,7.6,4.7,7.6s-2.6-1.9-2.6-5.5c0-1.8,1.4-1.8,1.4-3.3
					s-1.4-1.6-2.1-0.8c0,0,0.9-4.4,7-6.4C53,9.3,53,8.9,53,8.9z"/>
			</g>
			<g>
				<path class="st3" d="M67.3,20.2C64.8,10.9,58.1,9,58.1,9L58,9.8c0,0,6.1,2.5,8.6,10.6L67.3,20.2"/>
			</g>
			<g>
				<path class="st3" d="M63.6,14.4l0.7,1c-4.6,0.5-5.7,7.6-5.7,7.6S58.4,15.6,63.6,14.4z"/>
			</g>
			<g>
				<path class="st3" d="M66.8,10c-2.5,1.3-3.2,2.8-3.2,2.8l0.6,0.8c0,0,0.8-1.6,2.6-2.4c1.8,0.8,2.9,2.6,2.9,2.6l0.7-0.9
					C70.4,13.1,69.3,11.3,66.8,10z"/>
			</g>
		</g>
		<g>
			<g>
				<path class="st3" d="M89.9,8.9c2,4,6.1,5,6.1,5c0.2-2.2-1.9-3.1-1.9-3.1c2.4,0.6,5.1-1.9,5.1-1.9H89.9"/>
			</g>
			<g>
				<path class="st3" d="M76,8.9c0.2,3.7,4.5,4.3,4.5,4.3c0-2-1.9-2.7-1.9-2.7c2.5,0.8,4-1.6,4-1.6H76z"/>
			</g>
			<g>
				<path class="st4" d="M66.9,21c3.2,0.3,3.6,5.2,3.6,5.2c-1.8,0-2.3-2.2-2.3-2.2c0.7,2.9-1.4,4.6-1.4,4.6S65.3,26.8,66,24
					c0,0-0.6,2.2-2.3,2.2C63.7,26.3,63.7,21.3,66.9,21z"/>
				<path class="st3" d="M66.8,29.1l-0.2-0.2c-0.1-0.1-1.1-1.3-1-3.4c-0.4,0.5-1,1-1.9,1h-0.3v-0.3c0-0.2,0.1-5.2,3.5-5.5l0,0l0,0
					c3.3,0.3,3.8,5.2,3.8,5.5v0.3h-0.3c-0.9,0-1.5-0.5-1.9-1.1c-0.1,2.1-1.5,3.4-1.6,3.5L66.8,29.1z M65.8,24l0.5,0.1
					c-0.5,2.2,0.2,3.6,0.6,4.2c0.5-0.5,1.6-2,1.1-4.2l0.5-0.1c0,0,0.5,1.7,1.8,2c-0.2-1-0.8-4.4-3.3-4.7c-2.5,0.2-2.9,3.7-3,4.7
					C65.3,25.8,65.8,24,65.8,24z"/>
			</g>
			<g>
				<path class="st3" d="M44.2,8.9c-2,4-6.1,5-6.1,5c-0.2-2.2,1.9-3.1,1.9-3.1C37.6,11.4,35,8.9,35,8.9H44.2"/>
			</g>
			<g>
				<path class="st3" d="M58.1,8.9c-0.2,3.7-4.5,4.3-4.5,4.3c0-2,1.9-2.7,1.9-2.7c-2.5,0.8-4-1.6-4-1.6H58.1z"/>
			</g>
		</g>
		<g>
			<path class="st3" d="M68.6,20.1c1.5,0,1.5,1.8,0,1.8h-3.1c-1.5,0-1.5-1.8,0-1.8H68.6z"/>
		</g>
		<g>
			<path class="st3" d="M91.2,8.9v2.4c0,2.1-1.9,2-1.9,0V8.9H91.2z"/>
		</g>
		<g>
			<path class="st3" d="M59,8.9V11c0,1.7-1.6,1.8-1.6,0V8.9H59z"/>
		</g>
		<g>
			<path class="st3" d="M76.7,8.9V11c0,1.7-1.6,1.8-1.6,0V8.9H76.7z"/>
		</g>
		<g>
			<path class="st3" d="M42.9,8.9v2.4c0,2.1,1.9,2,1.9,0V8.9H42.9z"/>
		</g>
	</g>
	<g>
		<g>
			<g>
				<path class="st3" d="M250,105.8c1.6-0.1,8.4-3.1,8.4-8.8c0-5.7-4.7-7.6-4.7-7.6s2.6,1.9,2.6,5.5c0,1.8-1.4,1.8-1.4,3.3
					s1.4,1.6,2.1,0.8c0,0-0.9,4.4-7,6.4L250,105.8L250,105.8z"/>
			</g>
			<g>
				<path class="st3" d="M235.7,94.6c2.5,9.3,9.2,11.2,9.2,11.2l0.1-0.8c0,0-6.1-2.5-8.6-10.6L235.7,94.6"/>
			</g>
			<g>
				<path class="st3" d="M239.4,100.3l-0.7-1c4.6-0.5,5.6-7.6,5.6-7.6S244.7,99.1,239.4,100.3z"/>
			</g>
			<g>
				<path class="st3" d="M258.2,105.8c0,0-2.7-5.7-6.9-5.4c0,0,0.2-6.3-2.7-6.3c-2.9,0-3.1,6.5-5,5.2c-1.6-1.1,0.4-3,0.6-5.9
					c0.2-3.7-1.7-6.4-4.5-6.1c0,0-0.5-3.9-1.8-4.6c-1.4-0.9-2-2.3-2-2.3s-0.5,1.5-2,2.3c-1.3,0.8-1.8,4.6-1.8,4.6
					c-2.8-0.3-4.7,2.5-4.5,6.2c0.2,2.9,2.2,4.8,0.6,5.8c-1.9,1.3-2.1-5.2-5-5.2c-2.9,0-2.7,6.3-2.7,6.3c-4.2-0.3-6.9,5.4-6.9,5.4
					l-0.5-0.5c0,0,1.9-5.3,6.2-6.1c0,0-0.5-8.6,7.2-7c0,0-0.5-5.9,4.8-6.1c0,0,0.5-3.5,2.5-4.6s2.1-3.1,2.1-3.1s0.1,2,2.1,3.1
					s2.5,4.6,2.5,4.6c5.3,0.3,4.8,6.1,4.8,6.1c7.6-1.6,7.2,7,7.2,7c4.3,0.7,6.2,6.1,6.2,6.1L258.2,105.8z"/>
			</g>
			<g>
				<path class="st3" d="M221.9,105.8c-1.6-0.1-8.4-3.1-8.4-8.8c0-5.7,4.7-7.6,4.7-7.6s-2.6,1.9-2.6,5.5c0,1.8,1.4,1.8,1.4,3.3
					s-1.4,1.6-2.1,0.8c0,0,0.9,4.4,7,6.4L221.9,105.8L221.9,105.8z"/>
			</g>
			<g>
				<path class="st3" d="M236.2,94.6c-2.5,9.3-9.2,11.2-9.2,11.2l-0.1-0.8c0,0,6.1-2.5,8.6-10.6L236.2,94.6"/>
			</g>
			<g>
				<path class="st3" d="M232.6,100.3l0.7-1c-4.6-0.5-5.7-7.6-5.7-7.6S227.3,99.1,232.6,100.3z"/>
			</g>
			<g>
				<path class="st3" d="M235.8,104.7c-2.5-1.3-3.2-2.8-3.2-2.8l0.6-0.8c0,0,0.8,1.6,2.6,2.4c1.8-0.8,2.9-2.6,2.9-2.6l0.7,0.9
					C239.4,101.7,238.2,103.3,235.8,104.7z"/>
			</g>
		</g>
		<g>
			<g>
				<path class="st3" d="M258.8,105.8c2-4,6.1-5,6.1-5c0.2,2.2-1.9,3.1-1.9,3.1c2.4-0.6,5.1,1.9,5.1,1.9H258.8"/>
			</g>
			<g>
				<path class="st3" d="M244.9,105.8c0.2-3.7,4.5-4.3,4.5-4.3c0,2-1.9,2.7-1.9,2.7c2.5-0.8,4,1.6,4,1.6S244.9,105.7,244.9,105.8z"
					/>
			</g>
			<g>
				<path class="st4" d="M235.8,93.7c3.2-0.3,3.6-5.2,3.6-5.2c-1.8,0-2.3,2.2-2.3,2.2c0.7-2.9-1.4-4.6-1.4-4.6s-1.5,1.8-0.8,4.6
					c0,0-0.6-2.2-2.3-2.2C232.6,88.4,232.7,93.3,235.8,93.7z"/>
				<path class="st3" d="M235.8,93.9L235.8,93.9c-3.4-0.3-3.5-5.3-3.5-5.5v-0.3h0.3c0.9,0,1.5,0.5,1.9,1c0-2.1,1-3.3,1-3.4l0.2-0.2
					l0.2,0.2c0.1,0.1,1.5,1.3,1.6,3.5c0.4-0.6,1-1.1,1.9-1.1h0.3v0.3C239.7,88.7,239.2,93.7,235.8,93.9L235.8,93.9z M232.9,88.8
					c0.1,1,0.5,4.4,3,4.7c2.5-0.2,3.1-3.6,3.3-4.7c-1.3,0.2-1.8,2-1.8,2l-0.5-0.1c0.5-2.2-0.6-3.7-1.1-4.2c-0.3,0.5-1.1,2-0.6,4.2
					l-0.5,0.1C234.7,90.7,234.2,88.9,232.9,88.8z"/>
			</g>
			<g>
				<path class="st3" d="M213.1,105.8c-2-4-6.1-5-6.1-5c-0.2,2.2,1.9,3.1,1.9,3.1c-2.4-0.6-5.1,1.9-5.1,1.9H213.1"/>
			</g>
			<g>
				<path class="st3" d="M227.1,105.8c-0.2-3.7-4.5-4.3-4.5-4.3c0,2,1.9,2.7,1.9,2.7c-2.5-0.8-4,1.6-4,1.6S227.1,105.7,227.1,105.8z
					"/>
			</g>
		</g>
		<g>
			<path class="st3" d="M237.5,94.7c1.5,0,1.5-1.8,0-1.8h-3.1c-1.5,0-1.5,1.8,0,1.8H237.5z"/>
		</g>
		<g>
			<path class="st3" d="M260.1,105.8v-2.4c0-2.1-1.9-2-1.9,0v2.4H260.1z"/>
		</g>
		<g>
			<path class="st3" d="M227.9,105.8v-2.1c0-1.7-1.6-1.8-1.6,0v2.1H227.9z"/>
		</g>
		<g>
			<path class="st3" d="M245.6,105.8v-2.1c0-1.7-1.6-1.8-1.6,0v2.1H245.6z"/>
		</g>
		<g>
			<path class="st3" d="M211.8,105.8v-2.4c0-2.1,1.9-2,1.9,0v2.4H211.8z"/>
		</g>
	</g>
	<g>
		<g>
			<g>
				<path class="st3" d="M250,8.9c1.6,0.1,8.4,3.1,8.4,8.8s-4.7,7.6-4.7,7.6s2.6-1.9,2.6-5.5c0-1.8-1.4-1.8-1.4-3.3s1.4-1.6,2.1-0.8
					c0,0-0.9-4.4-7-6.4L250,8.9L250,8.9z"/>
			</g>
			<g>
				<path class="st3" d="M235.7,20.2c2.5-9.3,9.2-11.2,9.2-11.2l0.1,0.8c0,0-6.1,2.5-8.6,10.6L235.7,20.2"/>
			</g>
			<g>
				<path class="st3" d="M239.4,14.4l-0.7,1c4.6,0.5,5.6,7.6,5.6,7.6S244.7,15.6,239.4,14.4z"/>
			</g>
			<g>
				<path class="st3" d="M258.2,8.9c0,0-2.7,5.7-6.9,5.4c0,0,0.2,6.3-2.7,6.3c-2.9,0-3.1-6.5-5-5.2c-1.6,1.1,0.4,3,0.6,5.9
					c0.2,3.7-1.7,6.4-4.5,6.1c0,0-0.5,3.9-1.8,4.6c-1.4,0.9-2,2.3-2,2.3s-0.5-1.5-2-2.3c-1.3-0.8-1.8-4.6-1.8-4.6
					c-2.8,0.3-4.7-2.5-4.5-6.2c0.2-2.9,2.2-4.8,0.6-5.8c-1.9-1.3-2.1,5.2-5,5.2c-2.9,0-2.7-6.3-2.7-6.3c-4.2,0.3-6.9-5.4-6.9-5.4
					l-0.5,0.5c0,0,1.9,5.3,6.2,6.1c0,0-0.5,8.6,7.2,7c0,0-0.5,5.9,4.8,6.1c0,0,0.5,3.5,2.5,4.6s2.1,3.1,2.1,3.1s0.1-2,2.1-3.1
					s2.5-4.6,2.5-4.6c5.3-0.3,4.8-6.1,4.8-6.1c7.6,1.6,7.2-7,7.2-7c4.3-0.7,6.2-6.1,6.2-6.1L258.2,8.9z"/>
			</g>
			<g>
				<path class="st3" d="M221.9,8.9c-1.6,0.1-8.4,3.1-8.4,8.8s4.7,7.6,4.7,7.6s-2.6-1.9-2.6-5.5c0-1.8,1.4-1.8,1.4-3.3
					s-1.4-1.6-2.1-0.8c0,0,0.9-4.4,7-6.4L221.9,8.9L221.9,8.9z"/>
			</g>
			<g>
				<path class="st3" d="M236.2,20.2C233.7,10.9,227,9,227,9l-0.1,0.8c0,0,6.1,2.5,8.6,10.6L236.2,20.2"/>
			</g>
			<g>
				<path class="st3" d="M232.6,14.4l0.7,1c-4.6,0.5-5.7,7.6-5.7,7.6S227.3,15.6,232.6,14.4z"/>
			</g>
			<g>
				<path class="st3" d="M235.8,10c-2.5,1.3-3.2,2.8-3.2,2.8l0.6,0.8c0,0,0.8-1.6,2.6-2.4c1.8,0.8,2.9,2.6,2.9,2.6l0.7-0.9
					C239.4,13.1,238.2,11.3,235.8,10z"/>
			</g>
		</g>
		<g>
			<g>
				<path class="st3" d="M258.8,8.9c2,4,6.1,5,6.1,5c0.2-2.2-1.9-3.1-1.9-3.1c2.4,0.6,5.1-1.9,5.1-1.9H258.8"/>
			</g>
			<g>
				<path class="st3" d="M244.9,8.9c0.2,3.7,4.5,4.3,4.5,4.3c0-2-1.9-2.7-1.9-2.7c2.5,0.8,4-1.6,4-1.6H244.9z"/>
			</g>
			<g>
				<path class="st4" d="M235.8,21c3.2,0.3,3.6,5.2,3.6,5.2c-1.8,0-2.3-2.2-2.3-2.2c0.7,2.9-1.4,4.6-1.4,4.6s-1.5-1.8-0.8-4.6
					c0,0-0.6,2.2-2.3,2.2C232.6,26.3,232.7,21.3,235.8,21z"/>
				<path class="st3" d="M235.7,29.1l-0.2-0.2c-0.1-0.1-1.1-1.3-1-3.4c-0.4,0.5-1,1-1.9,1h-0.3v-0.3c0-0.2,0.1-5.2,3.5-5.5l0,0l0,0
					c3.3,0.3,3.8,5.2,3.8,5.5v0.3h-0.3c-0.9,0-1.5-0.5-1.9-1.1c-0.1,2.1-1.5,3.4-1.6,3.5L235.7,29.1z M234.7,24l0.5,0.1
					c-0.5,2.2,0.2,3.6,0.6,4.2c0.5-0.5,1.6-2,1.1-4.2l0.5-0.1c0,0,0.5,1.7,1.8,2c-0.2-1-0.8-4.4-3.3-4.7c-2.5,0.2-2.9,3.7-3,4.7
					C234.2,25.8,234.7,24,234.7,24z"/>
			</g>
			<g>
				<path class="st3" d="M213.1,8.9c-2,4-6.1,5-6.1,5c-0.2-2.2,1.9-3.1,1.9-3.1c-2.4,0.6-5.1-1.9-5.1-1.9H213.1"/>
			</g>
			<g>
				<path class="st3" d="M227.1,8.9c-0.2,3.7-4.5,4.3-4.5,4.3c0-2,1.9-2.7,1.9-2.7c-2.5,0.8-4-1.6-4-1.6H227.1z"/>
			</g>
		</g>
		<g>
			<path class="st3" d="M237.5,20.1c1.5,0,1.5,1.8,0,1.8h-3.1c-1.5,0-1.5-1.8,0-1.8H237.5z"/>
		</g>
		<g>
			<path class="st3" d="M260.1,8.9v2.4c0,2.1-1.9,2-1.9,0V8.9H260.1z"/>
		</g>
		<g>
			<path class="st3" d="M227.9,8.9V11c0,1.7-1.6,1.8-1.6,0V8.9H227.9z"/>
		</g>
		<g>
			<path class="st3" d="M245.6,8.9V11c0,1.7-1.6,1.8-1.6,0V8.9H245.6z"/>
		</g>
		<g>
			<path class="st3" d="M211.8,8.9v2.4c0,2.1,1.9,2,1.9,0V8.9H211.8z"/>
		</g>
	</g>
	<g>
		<g>
			<path class="st1" d="M7.4,23.7c2-0.1,6.1,1.7,6.4,8.7c0,0,9.5-1.1,9.5,9.1c0,2.3-2.9,2.9-4,5c-1.5,2.8,2.3,5.7,4.4,3.4
				c1.5-1.7,2.2-7.1,5.5-7.1c3.3,0,6.9,2.9,6.4,9c0,0,5.6,0.7,7.9,5.9c-2.3,5.2-7.9,7.1-7.9,7.1c0.5,6.1-3.2,9-6.4,9
				c-3.3,0-4-5.4-5.5-7.1c-2.1-2.4-5.9,0.6-4.4,3.4c1.1,2.1,4,2.7,4,5c0,10.2-9.5,9.1-9.5,9.1c-1,6.9-6.6,6.8-6.6,6.8"/>
			<path class="st3" d="M7.3,91.2L7.3,91.2v-1c0.2,0,5.2,0,6.1-6.3l0.1-0.5l0.5,0.1c0,0,3.9,0.4,6.6-2c1.6-1.5,2.4-3.7,2.4-6.6
				c0-1.1-0.8-1.7-1.8-2.5c-0.8-0.6-1.6-1.3-2.1-2.2c-0.9-1.7-0.1-3.4,1.1-4.3s2.9-1.1,4.2,0.3c0.5,0.6,1,1.6,1.4,2.7
				c0.8,2,1.8,4.3,3.7,4.3c1.5,0,3.1-0.7,4.1-1.9c1-1.1,2.1-3.1,1.8-6.5v-0.4l0.4-0.1c0.1,0,5.2-1.8,7.5-6.6
				C41,53,36,52.3,35.9,52.3l-0.5-0.1v-0.5c0.3-3.4-0.8-5.4-1.8-6.5c-1.1-1.2-2.6-1.9-4.1-1.9c-1.9,0-2.8,2.3-3.7,4.3
				c-0.5,1.1-0.9,2.1-1.4,2.7c-1.3,1.4-3,1.2-4.2,0.3s-2-2.6-1.1-4.3c0.5-1,1.3-1.6,2.1-2.2c1-0.8,1.8-1.4,1.8-2.5
				c0-2.9-0.8-5.1-2.4-6.6c-2.6-2.4-6.5-2-6.6-2l-0.5,0.1v-0.5c-0.2-3.9-1.6-5.9-2.6-6.9c-1.2-1.1-2.5-1.4-3.3-1.3l-0.1-1
				c1.3-0.1,2.8,0.5,4,1.6s2.6,3.2,2.9,7.1c1.2,0,4.4,0.1,6.8,2.3c1.8,1.7,2.7,4.1,2.7,7.4c0,1.6-1.1,2.5-2.2,3.3
				c-0.7,0.6-1.4,1.1-1.9,1.9c-0.6,1.2-0.1,2.3,0.8,3c0.7,0.6,1.9,0.8,2.9-0.2c0.4-0.5,0.8-1.4,1.2-2.4c0.9-2.2,2.1-4.9,4.6-4.9
				c1.8,0,3.6,0.8,4.9,2.2c1,1.2,2.2,3.3,2.1,6.8c1.4,0.3,5.8,1.5,7.8,6.1l0.1,0.2l-0.2-0.1c-2,4.7-6.5,6.7-7.8,7.3
				c0.2,3.6-1,5.7-2.1,6.9c-1.3,1.4-3,2.2-4.9,2.2c-2.5,0-3.7-2.7-4.6-4.9c-0.4-1-0.8-1.9-1.2-2.4c-0.9-1-2.1-0.8-2.9-0.2
				c-0.8,0.6-1.4,1.8-0.8,3c0.4,0.8,1.1,1.4,1.9,1.9c1.1,0.9,2.2,1.7,2.2,3.3c0,3.2-0.9,5.7-2.7,7.4c-2.4,2.2-5.6,2.3-6.9,2.3
				C13.1,91.2,7.5,91.2,7.3,91.2z"/>
		</g>
		<g>
			<g>
				<path class="st3" d="M25.3,56.5C4.5,50.8,13.7,32.8,13.7,32.8l-0.3-2.5c0,0-12.2,21.6,11.9,27.9V56.5z"/>
			</g>
			<g>
				<path class="st3" d="M25.3,59.8C4.5,65.6,13.7,83.8,13.7,83.8l-0.6,2.4c0,0-11.9-21.7,12.2-27.9V59.8z"/>
			</g>
		</g>
		<g>
			<g>
				<path class="st3" d="M25.1,54.5c0-1.1,0-1.7,1-1.7s0.9,0.6,0.9,1.7v7.1c0,1.1,0.2,1.7-0.9,1.7c-1,0-1-0.6-1-1.7V54.5z"/>
			</g>
		</g>
		<g>
			<g>
				<path class="st4" d="M27,56.8c2.5-5.4,7.1-3.2,7.1-3.2c-0.2,2.2-3.1,3.2-3.1,3.2c3.4-1.4,5.6,1.4,5.6,1.4S34.5,61,31,59.7
					c0,0,2.9,1,3.1,3.2c0,0-4.6,2.3-7.1-3.2C27,59.7,27,56.8,27,56.8z"/>
				<path class="st3" d="M31.9,63.7c-1.6,0-3.7-0.7-5.1-3.8v-0.1v-3c2.6-5.6,7.3-3.3,7.4-3.3l0.2,0.1v0.2c-0.1,1.1-0.9,1.9-1.6,2.5
					c2.5-0.1,4,1.9,4,1.9l0.1,0.2l-0.1,0.2c0,0-1.5,2-4,1.9c0.7,0.6,1.5,1.4,1.6,2.5v0.2l-0.2,0.1C34.2,63.2,33.2,63.7,31.9,63.7z
					 M27.3,59.7c2.1,4.6,5.7,3.4,6.5,3.1c-0.3-1.6-2.2-2.5-2.7-2.7C31,60,31,60,30.9,60l0.2-0.5c0,0,0.1,0,0.2,0.1
					c2.6,1,4.5-0.7,4.9-1.3c-0.5-0.6-2.3-2.2-4.9-1.3C31.2,57,31.1,57,31.1,57l-0.2-0.5c0.1,0,0.1-0.1,0.2-0.1
					c0.6-0.2,2.4-1.1,2.7-2.7c-0.8-0.3-4.4-1.5-6.5,3.1V59.7z"/>
			</g>
			<g>
				<path class="st3" d="M9.4,44.2c5-2.7,4.3-7.6,4.3-7.6c-2,0.3-3,3.4-3,3.4c1.3-3.7-1.3-6-1.3-6V44.2z"/>
			</g>
			<g>
				<path class="st3" d="M9.4,72.9c5,2.7,4.4,7.6,4.4,7.6c-2-0.3-3-3.4-3-3.4c1.3,3.7-1.4,6.1-1.4,6.1V72.9z"/>
			</g>
		</g>
	</g>
	<g>
		<g>
			<path class="st3" d="M154.8,33c1.9-1.8,5.1-3.5,10.1-3.9c0.8-0.1,1.8,0,2.4,0.4c0.7,0.4,1.1,0.9,1.3,1.8c0.1,0.5,0,1.1-0.3,1.5
				c-0.3,0.4-0.7,0.7-1,0.7c-0.4,0-1.1-0.3-1.1-1.1c0-0.4,0.3-0.6,0.5-0.7c0.3-0.1,0.3,0.1,0.4,0.2c0.1,0.3,0.5,0.5,0.7,0.3
				c0.3-0.1,0.4-0.5,0.3-0.8c-0.3-0.7-0.9-1.1-1.7-0.9c-0.7,0.2-1.5,0.9-1.4,2c0.1,1.5,1.2,2.4,2.3,2.3c0.7,0,2.4-0.7,2.4-2.7
				c0-0.9-0.2-1.8-0.9-2.8c3.3,0.4,6.3,1.8,9.2,3.7c1.8,1.4,5.3,4.7,6.9,10.3l1.3-0.4c-0.6-2-1.4-3.8-2.2-5.2c2,1.8,4,3.6,6,5.6
				c7.4,7.1,15,14.5,24.5,14.8v-1.5c-9-0.4-16.4-7.5-23.6-14.5c-2.7-2.6-5.4-5.1-8.2-7.4l0,0c2.4,0.6,5.5,1,9.2,0.1l-0.3-1.4
				c-3.7,0.9-6.8,0.5-9-0.2c1.5-0.6,2.1-1.5,2.3-2.4c0.1-0.8-0.1-1.7-0.5-2.3c-0.7-0.9-2.1-1.2-3.2-0.3c-0.7,0.7-0.7,1.7-0.4,2.4
				c0.4,0.7,1.1,1,1.8,0.7c0.3-0.1,0.4-0.5,0.3-0.8c-0.1-0.3-0.5-0.5-0.8-0.4l0,0c-0.1,0-0.2,0.1-0.4-0.2c-0.1-0.2-0.1-0.6,0.1-0.9
				c0.6-0.6,1.3-0.2,1.5,0.1c0.2,0.3,0.3,0.8,0.3,1.2c0,0.6-1.1,3.1-5.3,1c-3.9-2-7.7-3.9-12-3.9s-9.1,0.9-12.6,4.3L154.8,33z"/>
		</g>
		<g>
			<path class="st3" d="M154.8,82.1c1.9,1.8,5.1,3.5,10.1,3.9c0.8,0.1,1.8,0,2.4-0.4c0.7-0.4,1.1-0.9,1.3-1.8c0.1-0.5,0-1.1-0.3-1.5
				c-0.3-0.4-0.7-0.7-1-0.7c-0.4,0-1.1,0.3-1.1,1.1c0,0.4,0.3,0.6,0.5,0.7c0.3,0.1,0.3-0.1,0.4-0.2c0.1-0.3,0.5-0.5,0.7-0.3
				c0.3,0.1,0.4,0.5,0.3,0.8c-0.3,0.7-0.9,1.1-1.7,0.9c-0.7-0.2-1.5-0.9-1.4-2c0.1-1.5,1.2-2.4,2.3-2.3c0.7,0.1,2.4,0.7,2.4,2.7
				c0,0.9-0.2,1.8-0.9,2.8c3.3-0.4,6.3-1.8,9.2-3.7c1.8-1.4,5.3-4.7,6.9-10.3l1.3,0.4c-0.6,2-1.4,3.8-2.2,5.2c2-1.8,4-3.6,6-5.6
				c7.4-7.1,15-14.5,24.5-14.8v1.5c-9,0.4-16.4,7.5-23.6,14.5c-2.7,2.6-5.4,5.1-8.2,7.4l0,0c2.4-0.6,5.5-1,9.2-0.1l-0.3,1.4
				c-3.7-0.9-6.8-0.5-9,0.2c1.5,0.6,2.1,1.5,2.3,2.4c0.1,0.8-0.1,1.7-0.5,2.3c-0.7,0.9-2.1,1.2-3.2,0.3c-0.7-0.7-0.7-1.7-0.4-2.4
				c0.4-0.7,1.1-1,1.8-0.7c0.3,0.1,0.4,0.5,0.3,0.8c-0.1,0.3-0.5,0.5-0.8,0.4l0,0c-0.1,0-0.2-0.1-0.4,0.2c-0.1,0.2-0.1,0.6,0.1,0.9
				c0.6,0.6,1.3,0.2,1.5-0.1c0.2-0.3,0.3-0.8,0.3-1.2c0-0.6-1.1-3.1-5.3-1c-3.9,2-7.7,3.9-12,3.9s-9.1-0.9-12.6-4.3L154.8,82.1z"/>
		</g>
		<g>
			<path class="st3" d="M147.8,33c-1.9-1.8-5.1-3.5-10.1-3.9c-0.8-0.1-1.8,0-2.4,0.4c-0.7,0.4-1.1,0.9-1.3,1.8
				c-0.1,0.5,0,1.1,0.3,1.5c0.3,0.4,0.7,0.7,1,0.7c0.4,0,1.1-0.3,1.1-1.1c0-0.4-0.3-0.6-0.5-0.7c-0.3-0.1-0.3,0.1-0.4,0.2
				c-0.1,0.3-0.5,0.5-0.8,0.3c-0.3-0.1-0.4-0.5-0.3-0.8c0.3-0.7,0.9-1.1,1.7-0.9c0.7,0.2,1.5,0.9,1.4,2c-0.1,1.5-1.2,2.4-2.3,2.3
				c-0.7,0-2.4-0.7-2.4-2.7c0-0.9,0.2-1.8,0.9-2.8c-3.3,0.4-6.3,1.8-9.2,3.7c-1.8,1.4-5.3,4.7-6.9,10.3l-1.3-0.4
				c0.6-2,1.4-3.8,2.2-5.2c-2,1.8-4,3.6-6,5.6c-7.4,7.1-15,14.5-24.5,14.8L88,56.5c9-0.4,16.4-7.5,23.6-14.5
				c2.7-2.6,5.4-5.1,8.2-7.4l0,0c-2.4,0.6-5.5,1-9.2,0.1l0.3-1.4c3.7,0.9,6.8,0.5,9-0.2c-1.5-0.6-2.1-1.5-2.3-2.4
				c-0.1-0.8,0.1-1.7,0.5-2.3c0.7-0.9,2.1-1.2,3.2-0.3c0.7,0.7,0.7,1.7,0.4,2.4c-0.4,0.7-1.1,1-1.8,0.7c-0.3-0.1-0.4-0.5-0.3-0.8
				s0.4-0.5,0.7-0.4l0,0c0.1,0,0.2,0.1,0.4-0.2c0.1-0.2,0.1-0.6-0.1-0.9c-0.6-0.6-1.3-0.2-1.5,0.1c-0.2,0.3-0.3,0.8-0.3,1.2
				c0,0.6,1.1,3.1,5.3,1c3.9-2,7.7-3.9,12-3.9s9.1,0.9,12.6,4.3L147.8,33z"/>
		</g>
		<g>
			<path class="st3" d="M147.8,82.1c-1.9,1.8-5.1,3.5-10.1,3.9c-0.8,0.1-1.8,0-2.4-0.4c-0.7-0.4-1.1-0.9-1.3-1.8
				c-0.1-0.5,0-1.1,0.3-1.5c0.3-0.4,0.7-0.7,1-0.7c0.4,0,1.1,0.3,1.1,1.1c0,0.4-0.3,0.6-0.5,0.7c-0.3,0.1-0.3-0.1-0.4-0.2
				c-0.1-0.3-0.5-0.5-0.8-0.3c-0.3,0.1-0.4,0.5-0.3,0.8c0.3,0.7,0.9,1.1,1.7,0.9c0.7-0.2,1.5-0.9,1.4-2c-0.1-1.5-1.2-2.4-2.3-2.3
				c-0.7,0.1-2.4,0.7-2.4,2.7c0,0.9,0.2,1.8,0.9,2.8c-3.3-0.4-6.3-1.8-9.2-3.7c-1.8-1.4-5.3-4.7-6.9-10.3l-1.3,0.4
				c0.6,2,1.4,3.8,2.2,5.2c-2-1.8-4-3.6-6-5.6c-7.4-7.1-15-14.5-24.5-14.8L88,58.5c9,0.4,16.4,7.5,23.6,14.5
				c2.7,2.6,5.4,5.1,8.2,7.4l0,0c-2.4-0.6-5.5-1-9.2-0.1l0.3,1.4c3.7-0.9,6.8-0.5,9,0.2c-1.5,0.6-2.1,1.5-2.3,2.4
				c-0.1,0.8,0.1,1.7,0.5,2.3c0.7,0.9,2.1,1.2,3.2,0.3c0.7-0.7,0.7-1.7,0.4-2.4c-0.4-0.7-1.1-1-1.8-0.7c-0.3,0.1-0.4,0.5-0.3,0.8
				s0.4,0.5,0.7,0.4l0,0c0.1,0,0.2-0.1,0.4,0.2c0.1,0.2,0.1,0.6-0.1,0.9c-0.6,0.6-1.3,0.2-1.5-0.1c-0.2-0.3-0.3-0.8-0.3-1.2
				c0-0.6,1.1-3.1,5.3-1c3.9,2,7.7,3.9,12,3.9s9.1-0.9,12.6-4.3L147.8,82.1z"/>
		</g>
		<g>
			<path class="st5" d="M151.3,30.7c0,0-3.5,0.8-4.6,6.4c0,0-9.8-0.9-9.8,7.3c0,1.8,3,2.3,4.1,4c1.5,2.2-2.4,4.6-4.6,2.7
				c-1.6-1.4-2.3-5.7-5.7-5.7c-3.4,0-7.1,2.3-6.7,7.2c0,0-5.7,1-8.1,5.2C118.3,62,124,63,124,63c-0.5,4.9,3.3,7.2,6.7,7.2
				s4.1-4.3,5.7-5.7c2.2-1.9,6.1,0.5,4.6,2.7c-1.1,1.7-4.1,2.2-4.1,4c0,8.2,9.8,7.3,9.8,7.3c1.1,5.5,4.6,5.3,4.6,5.3
				s3.5,0.2,4.6-5.3c0,0,9.8,0.9,9.8-7.3c0-1.8-3-2.3-4.1-4c-1.5-2.2,2.4-4.6,4.6-2.7c1.6,1.4,2.3,5.7,5.7,5.7s7.1-2.3,6.7-7.2
				c0,0,5.7-1,8.1-5.2c-2.4-4.2-8.1-5.2-8.1-5.2c0.5-4.9-3.3-7.2-6.7-7.2s-4.1,4.3-5.7,5.7c-2.2,1.9-6.1-0.5-4.6-2.7
				c1.1-1.7,4.1-2.2,4.1-4c0-8.2-9.8-7.3-9.8-7.3C154.8,31.6,151.3,30.7,151.3,30.7z"/>
			<path class="st3" d="M151.3,84.2L151.3,84.2c0,0-3.8,0.2-5-5.3c-1.3,0.1-5.3,0-7.8-2.4c-1.4-1.3-2.1-3.1-2.1-5.4
				c0-1.3,1.2-2.1,2.3-2.8c0.7-0.5,1.5-0.9,1.9-1.5c0.6-0.8,0.1-1.5-0.3-1.8c-0.9-0.8-2.5-1.1-3.6-0.2c-0.4,0.4-0.8,1.1-1.3,1.9
				c-1,1.7-2.2,3.9-4.7,3.9c-2.2,0-4.3-0.9-5.6-2.4c-1.1-1.3-1.7-3-1.6-4.9c-1.4-0.3-5.9-1.7-8-5.4l-0.1-0.3l0.1-0.3
				c2.1-3.7,6.5-5,8-5.4c-0.1-1.9,0.5-3.6,1.6-4.9c1.3-1.5,3.4-2.4,5.6-2.4c2.6,0,3.8,2.2,4.7,3.9c0.4,0.8,0.8,1.5,1.3,1.9
				c1.1,0.9,2.7,0.6,3.6-0.2c0.3-0.3,0.8-1,0.3-1.8c-0.4-0.6-1.2-1.1-1.9-1.5c-1.1-0.7-2.3-1.4-2.3-2.8c0-2.3,0.7-4.1,2.1-5.4
				c2.5-2.4,6.5-2.5,7.8-2.4c1.2-5.4,4.7-6.3,4.9-6.3h0.1h0.1c0.2,0,3.6,0.9,4.9,6.3c1.3-0.1,5.3,0,7.8,2.4c1.4,1.3,2.1,3.1,2.1,5.4
				c0,1.3-1.2,2.1-2.3,2.8c-0.7,0.4-1.5,0.9-1.9,1.5c-0.6,0.8-0.1,1.5,0.3,1.8c0.9,0.8,2.5,1.1,3.6,0.2c0.4-0.4,0.8-1.1,1.3-1.9
				c1-1.7,2.2-3.9,4.7-3.9c2.2,0,4.3,0.9,5.6,2.4c1.1,1.3,1.7,3,1.6,4.9c1.4,0.3,5.9,1.7,8,5.4l0.1,0.3l-0.1,0.3
				c-2.1,3.7-6.5,5-8,5.4c0.1,1.9-0.5,3.6-1.6,4.9c-1.3,1.5-3.4,2.4-5.6,2.4c-2.6,0-3.8-2.2-4.7-3.9c-0.4-0.8-0.8-1.5-1.3-1.9
				c-1.1-0.9-2.7-0.6-3.6,0.2c-0.3,0.3-0.8,1-0.3,1.8c0.4,0.6,1.2,1.1,1.9,1.5c1.1,0.7,2.3,1.4,2.3,2.8c0,2.3-0.7,4.1-2.1,5.4
				c-2.5,2.4-6.5,2.5-7.8,2.4C155.1,83.9,151.8,84.2,151.3,84.2z M151.3,83.2c0.2,0,3.2,0.1,4.1-4.9l0.1-0.5h0.4
				c0,0,4.8,0.4,7.5-2.1c1.2-1.1,1.8-2.7,1.8-4.6c0-0.8-0.8-1.3-1.8-1.9c-0.8-0.5-1.7-1-2.2-1.8c-0.7-1-0.6-2.2,0.4-3.1
				c1.2-1.1,3.4-1.6,4.9-0.2c0.6,0.5,1,1.3,1.5,2.2c0.9,1.7,1.9,3.4,3.9,3.4c1.9,0,3.7-0.8,4.9-2.1c1-1.2,1.5-2.7,1.3-4.5v-0.5
				l0.5-0.1c0.1,0,5.3-1,7.6-4.7c-2.3-3.7-7.5-4.7-7.6-4.7l-0.5-0.1v-0.5c0.2-1.8-0.3-3.4-1.3-4.5c-1.1-1.3-2.9-2.1-4.9-2.1
				s-2.9,1.7-3.9,3.4c-0.5,0.9-0.9,1.7-1.5,2.2c-1.5,1.3-3.7,0.9-4.9-0.2c-1-0.9-1.1-2.1-0.4-3.1c0.5-0.8,1.4-1.3,2.2-1.8
				c1-0.6,1.8-1.1,1.8-1.9c0-1.9-0.6-3.5-1.8-4.6c-2.7-2.5-7.4-2.1-7.5-2.1h-0.4l-0.1-0.5c-0.9-4.6-3.5-5.7-4.1-5.9
				c-0.6,0.2-3.2,1.3-4.1,5.9l-0.1,0.5h-0.4c0,0-4.8-0.4-7.5,2.1c-1.2,1.1-1.8,2.7-1.8,4.6c0,0.8,0.9,1.3,1.8,1.9
				c0.8,0.5,1.7,1,2.2,1.8c0.7,1,0.6,2.2-0.4,3.1c-1.2,1.1-3.4,1.6-4.9,0.2c-0.6-0.5-1-1.3-1.5-2.2c-0.9-1.7-1.9-3.4-3.8-3.4
				s-3.7,0.8-4.9,2.1c-1,1.2-1.5,2.7-1.3,4.5V53l-0.5,0.1c-0.1,0-5.3,1-7.6,4.7c2.3,3.7,7.5,4.7,7.6,4.7l0.5,0.1v0.5
				c-0.2,1.8,0.3,3.4,1.3,4.5c1.1,1.3,3,2.1,4.9,2.1c2,0,2.9-1.7,3.9-3.4c0.5-0.9,0.9-1.7,1.5-2.2c1.5-1.3,3.7-0.9,4.9,0.2
				c1,0.9,1.1,2.1,0.4,3.1c-0.5,0.8-1.4,1.3-2.2,1.8c-1,0.6-1.8,1.1-1.8,1.9c0,1.9,0.6,3.5,1.8,4.6c2.7,2.5,7.4,2.1,7.5,2.1h0.4
				l0.1,0.5C148.2,83.2,151.1,83.2,151.3,83.2z"/>
		</g>
		<g>
			<path class="st3" d="M190.5,58c0,0,1.1,5.3,4.4,6.7c0,0,0.8-3.2-0.3-5.4c0,0,3,1.8,5.7-1.6c-2.5-3.7-6-1.4-6-1.4
				c1.1-2.2,0.6-5.6,0.6-5.6C190.3,53.7,190.5,58,190.5,58z"/>
		</g>
		<g>
			<path class="st3" d="M189.1,54c0-1.1,0-1.6,1-1.6s0.8,0.6,0.8,1.6v7.1c0,1.1,0.2,1.6-0.8,1.6s-1-0.6-1-1.6V54z"/>
		</g>
		<g>
			<path class="st3" d="M112,58c0,0-1.1,5.3-4.4,6.7c0,0-0.8-3.2,0.3-5.4c0,0-3,1.8-5.7-1.6c2.5-3.7,6-1.4,6-1.4
				c-1.1-2.2-0.6-5.6-0.6-5.6C112.2,53.7,112,58,112,58z"/>
		</g>
		<g>
			<path class="st3" d="M113.4,54c0-1.1,0-1.6-1-1.6s-0.8,0.6-0.8,1.6v7.1c0,1.1-0.2,1.6,0.8,1.6s1-0.6,1-1.6V54z"/>
		</g>
		<g>
			<path class="st3" d="M144.3,49.5c-6.7-7-3.9-11.3-3.9-11.3s-4,1.8-3.5,6.1c0.3,2.3,21.5,21.8,21.5,21.8c6.7,7,3.9,11.1,3.9,11.1
				s3.5-1.8,3.5-6.1C165.7,70.2,144.3,49.5,144.3,49.5z"/>
		</g>
		<g>
			<path class="st3" d="M144.3,65.9c-6.7,7-3.9,11.3-3.9,11.3s-4-1.8-3.5-6.1c0.3-2.3,21.4-21.6,21.4-21.6c6.7-7,3.9-11.3,3.9-11.3
				s4,1.8,3.5,6.1C165.4,46.7,144.3,65.9,144.3,65.9z"/>
		</g>
		<g>
			<path class="st3" d="M167.3,56.3C144,51.4,155.9,37,155.9,37l-0.7-1.8c0,0-12.9,17.5,12.1,22.4L167.3,56.3L167.3,56.3z"/>
		</g>
		<g>
			<path class="st3" d="M135.3,56.3c24.6-4.9,9.7-21.6,11.4-19.3l0.7-1.8c0,0,12.9,17.5-12.1,22.4L135.3,56.3L135.3,56.3z"/>
		</g>
		<g>
			<path class="st3" d="M135.3,59c23.2,4.9,11.4,19.3,11.4,19.3l0.7,1.8c0,0,12.9-17.5-12.1-22.5L135.3,59L135.3,59z"/>
		</g>
		<g>
			<path class="st3" d="M167.3,59c-23.2,4.9-11.4,19.3-11.4,19.3l-0.7,1.8c0,0-12.9-17.5,12.1-22.5L167.3,59L167.3,59z"/>
		</g>
		<g>
			<g>
				<path class="st5" d="M192.1,33.7c0,0,2.5,5.6,5.1,3.6c0,0,3.2,0.1,2.6-3.1c0,0,1.9-0.5,1.1-3c-0.4-2.5-3-2.5-3-2.5
					c-0.9-3.1-3.4-0.8-3.4-0.8C191.4,27.3,192.1,33.7,192.1,33.7"/>
				<path class="st3" d="M196,38c-0.2,0-0.3,0-0.5-0.1c-2-0.5-3.6-4-3.6-4.1v-0.1c0-0.2-0.5-4.2,1-5.6c0.4-0.4,1-0.6,1.6-0.5
					c0.3-0.3,1.4-1.1,2.4-0.7c0.6,0.2,1,0.7,1.3,1.6c0.6,0.1,2.7,0.4,3,2.7c0.3,0.8,0.2,1.6-0.1,2.2c-0.3,0.6-0.8,0.8-1,1
					c0.1,0.9,0,1.7-0.5,2.2c-0.7,0.9-1.9,1-2.3,1C196.9,37.8,196.5,38,196,38z M192.3,33.5c0.2,0.4,1.6,3.4,3.3,3.8
					c0.5,0.1,1,0,1.4-0.3l0.1-0.1h0.1c0,0,1.3,0,2-0.8c0.4-0.5,0.5-1.1,0.4-2V34l0.2-0.1c0,0,0.6-0.2,0.9-0.8c0.3-0.5,0.3-1.1,0-1.8
					c-0.3-2.3-2.6-2.4-2.7-2.4h-0.2l-0.1-0.2c-0.2-0.8-0.6-1.3-1-1.4c-0.7-0.2-1.7,0.4-2,0.7l-0.1,0.1h-0.1c-0.5-0.1-1,0-1.3,0.4
					C192,29.7,192.3,33.2,192.3,33.5z"/>
			</g>
			<g>
				<path class="st5" d="M192.1,81.3c0,0,2.5-5.6,5.1-3.6c0,0,3.2-0.1,2.6,3.1c0,0,1.9,0.5,1.1,3c-0.4,2.5-3,2.5-3,2.5
					c-0.9,3.1-3.4,0.8-3.4,0.8C191.4,87.8,192.1,81.3,192.1,81.3"/>
				<path class="st3" d="M196.4,88.2c-0.8,0-1.7-0.6-1.9-0.8c-0.6,0.1-1.2-0.1-1.6-0.5c-1.5-1.5-1-5.4-1-5.6v-0.1
					c0.1-0.1,1.6-3.6,3.6-4.1c0.6-0.2,1.2,0,1.8,0.4c0.3,0,1.6,0.1,2.3,1c0.5,0.6,0.6,1.3,0.5,2.2c0.3,0.1,0.7,0.4,1,1
					c0.3,0.6,0.3,1.4,0.1,2.3c-0.3,2.3-2.4,2.6-3,2.7c-0.3,0.9-0.7,1.4-1.3,1.6C196.7,88.2,196.6,88.2,196.4,88.2z M194.6,86.9
					L194.6,86.9c0.1,0.1,1.2,1.1,2.1,0.8c0.5-0.1,0.8-0.6,1-1.4l0.1-0.2h0.2c0.1,0,2.4,0,2.7-2.3c0.2-0.8,0.2-1.4,0-1.9
					c-0.3-0.6-0.9-0.8-0.9-0.8l-0.2-0.1v-0.2c0.1-0.9,0-1.5-0.4-2c-0.7-0.8-2-0.8-2-0.8h-0.1l-0.1-0.1c-0.5-0.4-0.9-0.5-1.4-0.3
					c-1.7,0.4-3.1,3.4-3.3,3.8c0,0.4-0.4,3.9,0.9,5.1C193.5,86.8,194,87,194.6,86.9L194.6,86.9z"/>
			</g>
			<g>
				<path class="st5" d="M110.4,33.7c0,0-2.5,5.6-5.1,3.6c0,0-3.2,0.1-2.6-3.1c0,0-1.9-0.5-1.1-3c0.4-2.5,3-2.5,3-2.5
					c0.9-3.1,3.4-0.8,3.4-0.8C111.1,27.3,110.4,33.7,110.4,33.7"/>
				<path class="st3" d="M106.6,38c-0.4,0-0.9-0.1-1.3-0.4c-0.3,0-1.6-0.1-2.3-1c-0.5-0.6-0.6-1.3-0.5-2.2c-0.3-0.1-0.7-0.4-1-1
					c-0.3-0.6-0.3-1.4-0.1-2.3c0.3-2.3,2.4-2.6,3-2.7c0.3-0.9,0.7-1.4,1.3-1.6c1-0.3,2.1,0.5,2.4,0.7c0.6-0.1,1.2,0.1,1.6,0.5
					c1.5,1.5,1,5.4,1,5.6v0.1c-0.1,0.1-1.6,3.6-3.6,4.1C106.9,38,106.7,38,106.6,38z M105.5,37L105.5,37c0.5,0.4,1,0.5,1.5,0.4
					c1.7-0.4,3.1-3.4,3.3-3.8c0-0.4,0.4-3.9-0.9-5.1c-0.3-0.3-0.8-0.5-1.3-0.4H108l-0.1-0.1c0,0-1.1-1-2-0.7c-0.5,0.1-0.8,0.6-1,1.4
					l-0.1,0.2h-0.2c-0.1,0-2.4,0-2.7,2.3c-0.2,0.8-0.2,1.4,0,1.9c0.3,0.6,0.9,0.8,0.9,0.8L103,34v0.2c-0.2,0.9,0,1.5,0.4,2
					C104.1,37,105.4,37,105.5,37L105.5,37z"/>
			</g>
			<g>
				<path class="st5" d="M110.4,81.3c0,0-2.5-5.6-5.1-3.6c0,0-3.2-0.1-2.6,3.1c0,0-1.9,0.5-1.1,3c0.4,2.5,3,2.5,3,2.5
					c0.9,3.1,3.4,0.8,3.4,0.8C111.1,87.8,110.4,81.3,110.4,81.3"/>
				<path class="st3" d="M106.2,88.2c-0.2,0-0.3,0-0.5-0.1c-0.6-0.2-1-0.7-1.3-1.6c-0.6-0.1-2.7-0.4-3-2.7c-0.3-0.8-0.2-1.6,0.1-2.2
					s0.8-0.8,1-1c-0.1-0.9,0-1.7,0.5-2.2c0.7-0.9,1.9-1,2.3-1c0.6-0.4,1.2-0.5,1.8-0.4c2,0.5,3.6,4,3.6,4.1v0.1c0,0.2,0.5,4.1-1,5.6
					c-0.4,0.4-1,0.6-1.6,0.5C107.9,87.7,107,88.2,106.2,88.2z M105.4,78.1c-0.2,0-1.3,0-2,0.8c-0.4,0.5-0.5,1.1-0.4,2v0.2l-0.2,0.1
					c0,0-0.6,0.2-0.9,0.8c-0.2,0.5-0.3,1.1,0,1.8c0.4,2.3,2.6,2.4,2.7,2.4h0.2l0.1,0.2c0.2,0.8,0.6,1.3,1,1.4c0.9,0.3,2-0.7,2-0.7
					L108,87h0.1c0.5,0.1,1,0,1.3-0.4c1.2-1.2,0.9-4.7,0.9-5.1c-0.2-0.4-1.6-3.4-3.3-3.8c-0.5-0.1-1,0-1.4,0.3L105.4,78.1L105.4,78.1
					L105.4,78.1z"/>
			</g>
		</g>
		<g>
			<g>
				<path class="st3" d="M188.2,34.8c3.2,4.6,7.7,3.8,7.7,3.8s-0.7-2.3-3-3.6c0,0,1.6,0.5,4.5-2.6c-4.2-1.6-5.3-0.2-5.3-0.2
					c1.8-2.6,1.2-4.5,1.2-4.5S189,29.1,188.2,34.8z"/>
			</g>
			<g>
				<path class="st3" d="M188.2,80.3c3.2-4.6,7.7-3.8,7.7-3.8s-0.7,2.3-3,3.6c0,0,1.6-0.5,4.5,2.6c-4.2,1.6-5.3,0.2-5.3,0.2
					c1.8,2.6,1.2,4.5,1.2,4.5S189,85.9,188.2,80.3z"/>
			</g>
			<g>
				<path class="st3" d="M114.3,34.8c-3.2,4.6-7.7,3.8-7.7,3.8s0.7-2.3,3.1-3.6c0,0-1.6,0.5-4.5-2.6c4.2-1.6,5.3-0.2,5.3-0.2
					c-1.8-2.6-1.3-4.5-1.3-4.5S113.5,29.1,114.3,34.8z"/>
			</g>
			<g>
				<path class="st3" d="M114.3,80.3c-3.2-4.6-7.7-3.8-7.7-3.8s0.7,2.3,3.1,3.6c0,0-1.6-0.5-4.5,2.6c4.2,1.6,5.3,0.2,5.3,0.2
					c-1.8,2.6-1.3,4.5-1.3,4.5S113.5,85.9,114.3,80.3z"/>
			</g>
		</g>
		<g>
			<g>
				<path class="st4" d="M185.8,42c0,0,2.3-0.3,3.5,2.7l-1.3-0.4c0,0,1.8,1.9,1.7,4.5l-1-1.4c0,0,1.1,3.8-0.3,5.2c0,0-2-0.9-2.3-3.5
					l-0.2,1.6c0,0-1.5-1.8-1.1-3.1l-0.4,1.3c0,0-1.2-2.3-0.3-3.9l-1,1.1c0,0,0-2.2,1.5-3.7C185.5,41.2,185.8,42,185.8,42z"/>
				<path class="st3" d="M188.4,52.8l-0.2-0.1c-0.1,0-1.5-0.7-2.1-2.4l-0.1,0.8l-0.4-0.4c0-0.1-0.7-0.9-1-1.9l-0.2,0.6l-0.3-0.5
					c0-0.1-0.8-1.5-0.6-3l-0.7,0.7V46c0-0.1,0-2.4,1.5-3.9c0.4-0.4,0.8-0.6,1.1-0.5c0.2,0,0.3,0.1,0.4,0.2c0.6,0,2.5,0.2,3.6,2.9
					l0.2,0.5l-1-0.3c0.6,0.8,1.3,2.2,1.2,4v0.7l-0.7-1C189.3,49.9,189.5,51.9,188.4,52.8L188.4,52.8z M186.2,47l0.2,2
					c0.2,2.1,1.5,3,2,3.3c1.1-1.4,0.1-4.8,0.1-4.8l-0.4-1.4l1.4,2c-0.2-2-1.6-3.4-1.6-3.5l-0.7-0.7l1.7,0.5c-1.1-2.2-2.9-2-3-2h-0.2
					l-0.1-0.2c0,0,0-0.1-0.1-0.1s-0.3,0-0.7,0.4c-0.9,0.9-1.2,2.1-1.3,2.8l2.1-2.2l-1.2,2c-0.6,1-0.3,2.3,0,3l0.2-0.7l0.5,0.1
					c-0.2,0.7,0.3,1.7,0.7,2.4L186.2,47z"/>
			</g>
			<g>
				<path class="st4" d="M185.8,73.1c0,0,2.3,0.3,3.5-2.7l-1.3,0.4c0,0,1.8-1.9,1.7-4.5l-1,1.4c0,0,1.1-3.8-0.3-5.2
					c0,0-2,0.9-2.3,3.5l-0.2-1.6c0,0-1.5,1.8-1.1,3.1l-0.4-1.3c0,0-1.2,2.3-0.3,3.9l-1-1.1c0,0,0,2.3,1.5,3.7
					C185.5,73.8,185.8,73.1,185.8,73.1z"/>
				<path class="st3" d="M185.4,73.6c-0.3,0-0.6-0.2-1-0.6c-1.5-1.5-1.5-3.8-1.5-3.9v-0.6l0.7,0.7c-0.2-1.5,0.6-3,0.6-3l0.3-0.5
					l0.2,0.6c0.3-1,1-1.8,1-1.9l0.4-0.4l0.1,0.8c0.6-1.7,2-2.4,2.1-2.4l0.2-0.1l0.1,0.1c1,1,0.8,3,0.6,4.3l0.7-1v0.7
					c0.1,1.7-0.7,3.2-1.2,4l1-0.3l-0.2,0.5c-1.1,2.6-3,2.9-3.6,2.9C185.8,73.5,185.7,73.6,185.4,73.6
					C185.5,73.6,185.5,73.6,185.4,73.6z M183.4,69.8c0.1,0.8,0.4,2,1.3,2.8c0.4,0.4,0.6,0.4,0.7,0.4c0.1,0,0.1-0.1,0.1-0.1l0.1-0.2
					h0.2c0.1,0,1.8,0.2,3-2l-1.7,0.5l0.7-0.7c0,0,1.4-1.5,1.6-3.5l-1.4,2l0.4-1.4c0,0,1-3.4-0.1-4.8c-0.5,0.3-1.8,1.2-2,3.3l-0.2,2
					l-0.4-3c-0.4,0.6-0.9,1.6-0.7,2.4l-0.5,0.1l-0.2-0.7c-0.3,0.7-0.6,2,0,3l1.2,2L183.4,69.8z"/>
			</g>
			<g>
				<path class="st4" d="M116.7,42c0,0-2.3-0.3-3.5,2.7l1.3-0.4c0,0-1.8,1.9-1.7,4.5l1-1.4c0,0-1.1,3.8,0.2,5.2c0,0,2-0.9,2.3-3.5
					l0.2,1.6c0,0,1.5-1.8,1.1-3.1l0.4,1.3c0,0,1.2-2.3,0.3-3.9l1,1.1c0,0,0-2.2-1.5-3.7C117,41.2,116.7,42,116.7,42z"/>
				<path class="st3" d="M114.1,52.8L114.1,52.8c-1.1-1.1-0.9-3.1-0.7-4.4l-0.7,1v-0.7c-0.1-1.7,0.7-3.2,1.2-4l-1,0.3l0.2-0.5
					c1.1-2.6,3-2.9,3.6-2.9c0.1-0.1,0.2-0.2,0.4-0.2c0.3-0.1,0.7,0.1,1.1,0.5c1.5,1.5,1.5,3.8,1.5,3.9v0.6l-0.7-0.7
					c0.2,1.5-0.6,3-0.6,3l-0.3,0.5l-0.2-0.6c-0.3,1-1,1.8-1,1.9l-0.4,0.4l-0.1-0.8c-0.7,1.7-2,2.4-2.1,2.4L114.1,52.8z M114.5,46
					l-0.4,1.4c0,0-1,3.4,0.1,4.8c0.5-0.3,1.8-1.2,2-3.3l0.2-2l0.4,3c0.4-0.6,0.9-1.6,0.7-2.4l0.5-0.1l0.2,0.7c0.3-0.7,0.6-2,0-3
					l-1.2-2l2.1,2.2c-0.1-0.8-0.4-1.9-1.3-2.8c-0.4-0.4-0.6-0.4-0.7-0.4c-0.1,0-0.1,0.1-0.1,0.1l-0.1,0.2h-0.2c-0.1,0-1.8-0.2-3,2
					l1.7-0.5l-0.7,0.7c0,0-1.4,1.5-1.6,3.5L114.5,46z"/>
			</g>
			<g>
				<path class="st4" d="M116.7,73.1c0,0-2.3,0.3-3.5-2.7l1.3,0.4c0,0-1.8-1.9-1.7-4.5l1,1.4c0,0-1.1-3.8,0.2-5.2c0,0,2,0.9,2.3,3.5
					l0.2-1.6c0,0,1.5,1.8,1.1,3.1l0.4-1.3c0,0,1.2,2.3,0.3,3.9l1-1.1c0,0,0,2.3-1.5,3.7C117,73.8,116.7,73.1,116.7,73.1z"/>
				<path class="st3" d="M117.1,73.6L117.1,73.6c-0.3,0-0.4-0.1-0.5-0.2c-0.6,0-2.5-0.2-3.6-2.9l-0.2-0.5l1,0.3
					c-0.6-0.8-1.3-2.2-1.2-4v-0.7l0.7,1c-0.2-1.3-0.4-3.3,0.6-4.3l0.1-0.1l0.2,0.1c0.1,0,1.5,0.7,2.1,2.4l0.1-0.8l0.4,0.4
					c0,0.1,0.7,0.9,1,1.9l0.2-0.6l0.3,0.5c0,0.1,0.8,1.5,0.6,3l0.7-0.7V69c0,0.1,0,2.4-1.5,3.9C117.7,73.3,117.4,73.6,117.1,73.6z
					 M116.9,72.9C116.9,72.9,116.9,73,116.9,72.9c0.2,0.1,0.4,0.1,0.8-0.3c0.9-0.9,1.2-2.1,1.3-2.8l-2.1,2.2l1.2-2
					c0.6-1,0.3-2.3,0-3l-0.2,0.7l-0.5-0.1c0.2-0.8-0.3-1.8-0.7-2.4l-0.4,3l-0.2-2c-0.2-2-1.5-3-2-3.2c-1.1,1.4-0.1,4.8-0.1,4.8
					l0.4,1.4l-1.4-2c0.2,2,1.6,3.4,1.6,3.5l0.7,0.7l-1.7-0.5c1.1,2.2,2.9,2,3,2L116.9,72.9L116.9,72.9z"/>
			</g>
		</g>
		<g>
			<g>
				<path class="st3" d="M209.7,57.8c3.4,0.5,5.6,4.1,5.6,4.1c-2,2.7-7.9,1.2-7.9,1.2c2.5,1.7,2.5,7,2.5,7c-5.2,0.2-6.3-3.9-6.3-3.9
					c0.9,2.7-1.6,6.8-1.6,6.8c0.5-2.9-10.8-15.2-10.8-15.2s11.2-12.3,10.8-15.2c0,0,2.5,4.1,1.6,6.8c0,0,1.1-4.1,6.3-3.9
					c0,0,0,5.3-2.5,7c0,0,5.8-1.5,7.9,1.2C215.4,53.7,213.1,57.2,209.7,57.8"/>
			</g>
			<g>
				<path class="st3" d="M92.9,57.8c-3.4,0.5-5.6,4.1-5.6,4.1c2,2.7,7.9,1.2,7.9,1.2c-2.5,1.7-2.5,7-2.5,7c5.2,0.2,6.3-3.9,6.3-3.9
					c-0.9,2.7,1.6,6.8,1.6,6.8c-0.5-2.9,10.8-15.2,10.8-15.2s-11.2-12.3-10.8-15.2c0,0-2.5,4.1-1.6,6.8c0,0-1.1-4.1-6.3-3.9
					c0,0,0,5.3,2.5,7c0,0-5.8-1.5-7.9,1.2C87.2,53.7,89.5,57.2,92.9,57.8"/>
			</g>
		</g>
		<g>
			<g>
				<path class="st6" d="M167.2,54.8c0-0.8,0-1.3,1-1.3s0.9,0.5,0.9,1.3v5.7c0,0.8,0.2,1.3-0.9,1.3c-1,0-1-0.5-1-1.3V54.8z"/>
				<path class="st3" d="M168.2,62c-1.3,0-1.3-0.8-1.3-1.6v-5.7c0-0.8,0-1.6,1.3-1.6c0.4,0,0.7,0.1,0.9,0.3s0.2,0.6,0.2,1
					c0,0.1,0,0.2,0,0.3v5.7c0,0.1,0,0.2,0,0.3c0,0.4,0,0.8-0.2,1C168.9,62,168.6,62,168.2,62z M168.2,53.8c-0.8,0-0.8,0.2-0.8,1.1
					v5.7c0,0.9,0,1.1,0.8,1.1c0.4,0,0.5-0.1,0.5-0.1c0.1-0.1,0.1-0.3,0.1-0.6c0-0.1,0-0.2,0-0.3V55c0-0.1,0-0.2,0-0.3
					c0-0.3,0-0.5-0.1-0.6C168.7,53.8,168.5,53.8,168.2,53.8z"/>
			</g>
			<g>
				<path class="st6" d="M148.5,48.2c-0.8,0-1.2,0-1.2-1.1s0.4-0.9,1.2-0.9h5.3c0.8,0,1.2-0.2,1.2,0.9c0,1.1-0.4,1.1-1.2,1.1H148.5z
					"/>
				<path class="st3" d="M153.8,48.5h-5.3c-0.8,0-1.5,0-1.5-1.4c0-0.5,0.1-0.8,0.3-1c0.2-0.2,0.6-0.2,0.9-0.2c0.1,0,0.2,0,0.3,0h5.3
					c0.1,0,0.2,0,0.3,0c0.4,0,0.7,0,0.9,0.2c0.2,0.2,0.3,0.5,0.3,1C155.3,48.5,154.6,48.5,153.8,48.5z M148,46.5
					c-0.2,0-0.3,0-0.3,0.1c-0.1,0.1-0.1,0.2-0.1,0.6c0,0.8,0.2,0.8,1,0.8h5.3c0.8,0,1,0,1-0.8c0-0.4-0.1-0.5-0.1-0.6
					c-0.1-0.1-0.3-0.1-0.6-0.1c-0.1,0-0.2,0-0.3,0h-5.3c-0.1,0-0.2,0-0.3,0C148.1,46.5,148.1,46.5,148,46.5z"/>
			</g>
			<g>
				<path class="st6" d="M135.6,54.8c0-0.8,0-1.3-1-1.3s-0.9,0.5-0.9,1.3v5.7c0,0.8-0.2,1.3,0.9,1.3c1,0,1-0.5,1-1.3V54.8z"/>
				<path class="st3" d="M134.6,62c-0.4,0-0.7-0.1-0.9-0.3s-0.2-0.6-0.2-1c0-0.1,0-0.2,0-0.3v-5.7c0-0.1,0-0.2,0-0.3
					c0-0.4,0-0.8,0.2-1s0.5-0.3,0.9-0.3c1.3,0,1.3,0.8,1.3,1.6v5.7C135.8,61.3,135.8,62,134.6,62z M134.6,53.8
					c-0.4,0-0.5,0.1-0.5,0.1c-0.1,0.1-0.1,0.3-0.1,0.6c0,0.1,0,0.2,0,0.3v5.7c0,0.1,0,0.2,0,0.3c0,0.3,0,0.5,0.1,0.6
					c0,0.1,0.2,0.1,0.5,0.1c0.8,0,0.8-0.2,0.8-1.1v-5.7C135.3,54,135.3,53.8,134.6,53.8z"/>
			</g>
			<g>
				<path class="st6" d="M148.5,67.1c-0.8,0-1.2,0-1.2,1.1s0.4,0.9,1.2,0.9h5.3c0.8,0,1.2,0.2,1.2-0.9s-0.4-1.1-1.2-1.1H148.5z"/>
				<path class="st3" d="M148,69.2c-0.3,0-0.5,0-0.7-0.2c-0.2-0.2-0.3-0.5-0.3-1c0-1.4,0.7-1.4,1.5-1.4h5.3c0.8,0,1.5,0,1.5,1.4
					c0,0.5-0.1,0.8-0.3,1c-0.2,0.2-0.6,0.2-0.9,0.2c-0.1,0-0.2,0-0.3,0h-5.3c-0.1,0-0.2,0-0.3,0C148.1,69.2,148.1,69.2,148,69.2z
					 M148.5,67.2c-0.8,0-1,0-1,0.8c0,0.4,0.1,0.5,0.1,0.6c0.1,0.1,0.3,0.1,0.6,0.1c0.1,0,0.2,0,0.3,0h5.3c0.1,0,0.2,0,0.3,0
					c0.3,0,0.5,0,0.6-0.1s0.1-0.2,0.1-0.6c0-0.8-0.2-0.8-1-0.8H148.5z"/>
			</g>
		</g>
		<g>
			<g>
				<path class="st4" d="M169,56.5c2.6-4.3,7.3-2.5,7.3-2.5c-0.3,1.8-3.2,2.5-3.2,2.5c3.6-1.1,5.8,1.1,5.8,1.1s-2.2,2.3-5.8,1.1
					c0,0,3,0.8,3.2,2.5c0,0-4.7,1.8-7.3-2.5V56.5z"/>
				<path class="st3" d="M174.1,62c-1.6,0-3.8-0.6-5.3-3v-0.1v-2.4v-0.1c2.7-4.5,7.6-2.7,7.6-2.7l0.2,0.1V54
					c-0.1,0.8-0.8,1.5-1.5,1.9l0,0c2.4,0,3.9,1.5,4,1.5l0.2,0.2l-0.2,0.2c-0.1,0.1-1.5,1.5-4,1.5l0,0c0.7,0.4,1.4,1.1,1.5,1.9v0.2
					l-0.2,0.1C176.4,61.5,175.4,62,174.1,62z M169.3,58.8c2.2,3.6,5.8,2.7,6.8,2.4c-0.4-1.2-2.2-1.9-2.8-2.1c-0.1,0-0.1,0-0.2-0.1
					l0.1-0.5c0,0,0.1,0,0.2,0.1c2.7,0.8,4.5-0.5,5.1-1c-0.6-0.5-2.4-1.7-5.1-1c-0.1,0-0.2,0.1-0.2,0.1l-0.1-0.5c0.1,0,0.1,0,0.2-0.1
					c0.6-0.2,2.4-0.9,2.8-2.1c-0.9-0.3-4.6-1.1-6.8,2.4V58.8z"/>
			</g>
			<g>
				<path class="st4" d="M150.1,46.2c-4-2.8-2.4-7.9-2.4-7.9c1.6,0.3,2.4,3.5,2.4,3.5c-1.1-3.8,1.1-6.2,1.1-6.2s2.1,2.4,1.1,6.2
					c0,0,0.7-3.2,2.4-3.5c0,0,1.7,5.1-2.4,7.9H150.1z"/>
				<path class="st3" d="M152.3,46.5H150h-0.1c-4.2-2.9-2.5-8.1-2.5-8.2l0.1-0.2h0.2c0.8,0.1,1.4,0.8,1.8,1.6c0-2.6,1.4-4.2,1.4-4.3
					l0.2-0.2l0.2,0.2c0.1,0.1,1.4,1.6,1.4,4.3c0.4-0.8,1-1.5,1.8-1.6h0.2l0.1,0.2C154.8,38.3,156.5,43.7,152.3,46.5L152.3,46.5z
					 M150.2,46h2c3.3-2.4,2.5-6.3,2.3-7.3c-1,0.4-1.6,2-1.9,3c0,0.1,0,0.2-0.1,0.3L152,42c0,0,0-0.1,0.1-0.2
					c0.7-2.8-0.4-4.8-0.9-5.5c-0.5,0.7-1.6,2.7-0.9,5.5c0,0.1,0.1,0.2,0.1,0.2l-0.5,0.1c0-0.1,0-0.2-0.1-0.3c-0.3-0.9-0.9-2.6-1.9-3
					C147.6,39.8,146.8,43.7,150.2,46z"/>
			</g>
			<g>
				<path class="st4" d="M150.1,69.1c-4,2.8-2.4,7.9-2.4,7.9c1.6-0.3,2.4-3.5,2.4-3.5c-1.1,3.8,1.1,6.2,1.1,6.2s2.1-2.4,1.1-6.2
					c0,0,0.7,3.2,2.4,3.5c0,0,1.7-5.1-2.4-7.9H150.1z"/>
				<path class="st3" d="M151.2,80.1l-0.2-0.2c-0.1-0.1-1.4-1.6-1.4-4.3c-0.4,0.8-1,1.5-1.8,1.6h-0.2l-0.1-0.2
					c0-0.1-1.7-5.3,2.5-8.2h0.1h2.3h0.1c4.2,2.9,2.5,8.1,2.5,8.2l-0.1,0.2h-0.2c-0.8-0.1-1.4-0.8-1.8-1.6c0,2.6-1.4,4.2-1.4,4.3
					L151.2,80.1z M150.3,73.8c-0.7,2.9,0.4,4.8,0.9,5.5c0.5-0.7,1.6-2.7,0.9-5.5c0-0.1-0.1-0.2-0.1-0.2l0.5-0.1c0,0.1,0,0.2,0.1,0.3
					c0.3,0.9,0.9,2.6,1.9,3c0.3-1,1.1-4.9-2.3-7.3h-2c-3.3,2.4-2.5,6.3-2.3,7.3c1-0.4,1.6-2.1,1.9-3c0-0.1,0-0.2,0.1-0.3l0.5,0.1
					C150.3,73.4,150.3,73.6,150.3,73.8z"/>
			</g>
			<g>
				<path class="st4" d="M133.6,56.5c-2.6-4.3-7.3-2.5-7.3-2.5c0.3,1.8,3.2,2.5,3.2,2.5c-3.6-1.1-5.8,1.1-5.8,1.1s2.2,2.3,5.8,1.1
					c0,0-3,0.8-3.2,2.5c0,0,4.7,1.8,7.3-2.5V56.5z"/>
				<path class="st3" d="M128.5,62c-1.3,0-2.3-0.4-2.3-0.4l-0.2-0.1v-0.2c0.1-0.8,0.8-1.5,1.5-1.9l0,0c-2.4,0-3.9-1.5-4-1.5
					l-0.2-0.2l0.2-0.2c0.1-0.1,1.5-1.5,4-1.5l0,0c-0.7-0.4-1.4-1.1-1.5-1.9v-0.2l0.2-0.1c0,0,4.9-1.8,7.6,2.7v0.1v2.4V59
					C132.3,61.5,130.2,62,128.5,62z M126.6,61.2c0.9,0.3,4.6,1.1,6.8-2.4v-2.1c-2.2-3.6-5.8-2.7-6.8-2.4c0.4,1.2,2.2,1.9,2.8,2.1
					c0.1,0,0.1,0,0.2,0.1l-0.1,0.5c0,0-0.1,0-0.2-0.1c-2.7-0.7-4.5,0.5-5.1,1c0.6,0.5,2.4,1.7,5.1,1c0.1,0,0.2-0.1,0.2-0.1l0.1,0.5
					c-0.1,0-0.1,0-0.2,0.1C128.8,59.3,126.9,60,126.6,61.2z"/>
			</g>
		</g>
		<g>
			<g>
				<path class="st5" d="M196.1,58c0,0,1.9,6,4.6,5.6c0,0,4,2.4,4.3-1.7c0,0,4.5-0.2,2.5-3.9c2-3.6-2.5-3.9-2.5-3.9
					c-0.2-4.1-4.3-1.7-4.3-1.7C198,52,196.1,58,196.1,58z"/>
				<path class="st3" d="M203.3,64.4c-1,0-2-0.5-2.4-0.7c-2.9,0.3-4.8-5.3-5-5.9l-0.1-0.2l0.1-0.2c0.2-0.6,2.1-6.2,5-5.9
					c0.5-0.3,2.3-1.1,3.6-0.4c0.7,0.4,1.1,1.1,1.2,2.2c0.7,0.1,2.2,0.5,2.8,1.6c0.4,0.8,0.3,1.7-0.2,2.7c0.5,1.1,0.6,2,0.2,2.7
					c-0.6,1.1-2,1.5-2.8,1.6c-0.1,1.1-0.6,1.8-1.2,2.2C204.1,64.4,203.7,64.4,203.3,64.4z M201.1,62.8l0.2,0.1
					c0.5,0.3,1.9,0.9,2.8,0.5c0.4-0.3,0.7-0.8,0.7-1.7v-0.5h0.4c0.5,0,2-0.3,2.4-1.1c0.3-0.5,0.1-1.1-0.3-2l-0.1-0.3l0.1-0.3
					c0.5-0.8,0.6-1.5,0.3-2c-0.4-0.8-1.9-1.1-2.4-1.1h-0.4v-0.5c0-0.9-0.3-1.5-0.7-1.7c-0.8-0.5-2.3,0.2-2.8,0.5l-0.2,0.1h-0.2
					c-1.8-0.3-3.4,3.4-4,5c0.6,1.7,2.2,5.4,4,5H201.1z"/>
			</g>
			<g>
				<path class="st5" d="M106,58c0,0-1.9,6-4.6,5.6c0,0-4,2.4-4.3-1.7c0,0-4.5-0.2-2.5-3.9c-2-3.6,2.5-3.9,2.5-3.9
					c0.2-4.1,4.3-1.7,4.3-1.7C104.1,52,106,58,106,58z"/>
				<path class="st3" d="M99.3,64.4c-0.4,0-0.8-0.1-1.2-0.3c-0.7-0.4-1.1-1.1-1.2-2.2c-0.7-0.1-2.2-0.5-2.8-1.6
					c-0.4-0.8-0.3-1.7,0.2-2.7c-0.5-1.1-0.6-2-0.2-2.7c0.6-1.1,2-1.5,2.8-1.6c0.1-1.1,0.6-1.8,1.2-2.2c1.3-0.7,3.1,0.1,3.6,0.4
					c2.9-0.3,4.8,5.3,5,5.9l0.1,0.2l-0.1,0.2c-0.2,0.6-2.1,6.3-5,5.9C101.3,64.1,100.3,64.4,99.3,64.4z M99.3,52
					c-0.3,0-0.5,0-0.7,0.2c-0.4,0.3-0.7,0.8-0.8,1.8v0.5h-0.4c-0.5,0-2,0.3-2.4,1.1c-0.3,0.5-0.1,1.1,0.3,2l0.1,0.3l-0.1,0.3
					c-0.5,0.8-0.6,1.5-0.3,2c0.4,0.8,1.9,1.1,2.4,1.1h0.4v0.5c0,0.9,0.3,1.5,0.8,1.8c0.8,0.5,2.3-0.2,2.8-0.5l0.2-0.1h0.2
					c1.8,0.3,3.5-3.5,4-5c-0.6-1.7-2.2-5.4-4-5h-0.2l-0.2-0.1C101,52.3,100.1,52,99.3,52z"/>
			</g>
		</g>
		<g>
			<g>
				<g>
					<path class="st5" d="M213.6,52.2c0,0,2-4.6-3.6-5.3l-2.5,5.6L213.6,52.2z"/>
					<path class="st3" d="M207.1,52.7l2.7-6.1h0.2c1.9,0.2,3.2,0.9,3.8,2.1c0.9,1.6,0.1,3.5,0,3.6l-0.1,0.1L207.1,52.7z M210.1,47.2
						l-2.2,5l5.5-0.2c0.2-0.4,0.6-1.8-0.1-3C212.8,48,211.7,47.3,210.1,47.2z"/>
				</g>
				<g>
					<path class="st5" d="M203.7,49.2c0,0,0.2-3.9-0.7-5.3c-0.9-1.5,5.2-2.1,5.2,1.2C208.2,46.5,203.7,49.2,203.7,49.2z"/>
					<path class="st3" d="M203.4,49.8v-0.5c0,0,0.2-3.8-0.6-5.2c-0.2-0.3-0.2-0.6,0-0.9c0.5-0.7,2.4-0.9,3.8-0.4
						c1.2,0.4,1.8,1.3,1.8,2.4c0,1.6-4.2,4.1-4.6,4.3L203.4,49.8z M205,43c-0.8,0-1.6,0.2-1.8,0.5c-0.1,0.1-0.1,0.1,0,0.3
						c0.7,1.2,0.8,3.9,0.7,5c1.7-1,4-2.8,4-3.6c0-1.1-0.8-1.7-1.5-1.9C206,43,205.5,43,205,43z"/>
				</g>
				<g>
					<path class="st5" d="M213.6,63.2c0,0,2,4.6-3.6,5.3l-2.5-5.6L213.6,63.2z"/>
					<path class="st3" d="M209.8,68.8l-2.7-6.1l6.6,0.3l0.1,0.1c0,0.1,0.9,2,0,3.6c-0.6,1.1-1.9,1.8-3.8,2.1H209.8z M207.9,63.3
						l2.2,5c1.6-0.2,2.7-0.8,3.2-1.8c0.6-1.2,0.2-2.6,0.1-3L207.9,63.3z"/>
				</g>
				<g>
					<path class="st5" d="M203.7,66.2c0,0,0.2,3.9-0.7,5.3c-0.9,1.5,5.2,2.1,5.2-1.2C208.2,68.8,203.7,66.2,203.7,66.2z"/>
					<path class="st3" d="M205,72.9c-0.9,0-1.8-0.3-2.2-0.7c-0.2-0.3-0.2-0.6,0-0.9c0.8-1.4,0.6-5.1,0.6-5.2v-0.5l0.4,0.2
						c0.5,0.3,4.6,2.8,4.6,4.3c0,1.1-0.6,2-1.8,2.4C206.1,72.8,205.5,72.9,205,72.9z M203.9,66.7c0,1.1,0,3.8-0.7,5
						c-0.1,0.1-0.1,0.2,0,0.3c0.3,0.4,1.9,0.7,3.2,0.3c0.7-0.2,1.5-0.8,1.5-1.9C207.9,69.4,205.6,67.7,203.9,66.7z"/>
				</g>
				<g>
					<path class="st5" d="M208.8,57.8l4.4,3c1.3-0.5,3.7-1.1,4.4-3c-0.7-1.9-3.2-2.4-4.6-2.9L208.8,57.8z"/>
					<path class="st3" d="M213.2,61l-4.8-3.3l4.6-3.1h0.1c0.2,0.1,0.5,0.2,0.7,0.2c1.4,0.4,3.4,1,4,2.8v0.1v0.1
						c-0.7,1.9-2.7,2.6-4.1,3L213.2,61z M209.3,57.8l4,2.8c0.1,0,0.2-0.1,0.3-0.1c1.3-0.5,3.2-1.1,3.8-2.6c-0.6-1.4-2.3-2-3.6-2.4
						c-0.2-0.1-0.4-0.1-0.6-0.2L209.3,57.8z"/>
				</g>
			</g>
			<g>
				<g>
					<path class="st5" d="M89,52.2c0,0-2-4.6,3.6-5.3l2.5,5.6L89,52.2z"/>
					<path class="st3" d="M95.5,52.7l-6.6-0.2l-0.1-0.2c0-0.1-0.9-2,0-3.6c0.6-1.1,1.9-1.8,3.8-2.1h0.2L95.5,52.7z M89.2,52l5.5,0.2
						l-2.2-5c-1.6,0.2-2.7,0.8-3.2,1.8C88.6,50,89,51.5,89.2,52z"/>
				</g>
				<g>
					<path class="st5" d="M98.9,49.2c0,0-0.2-3.9,0.7-5.3c0.9-1.5-5.2-2.1-5.2,1.2C94.4,46.5,98.9,49.2,98.9,49.2z"/>
				</g>
				<g>
					<path class="st5" d="M89,63.2c0,0-2,4.6,3.6,5.3l2.5-5.6L89,63.2z"/>
					<path class="st3" d="M92.8,68.8h-0.2c-1.9-0.2-3.2-0.9-3.8-2.1c-0.9-1.6-0.1-3.5,0-3.6l0.1-0.1l6.6-0.3L92.8,68.8z M89.2,63.5
						c-0.2,0.4-0.6,1.8,0.1,3c0.5,0.9,1.6,1.5,3.2,1.8l2.2-5L89.2,63.5z"/>
				</g>
				<g>
					<path class="st5" d="M98.9,66.2c0,0-0.2,3.9,0.7,5.3c0.9,1.5-5.2,2.1-5.2-1.2C94.4,68.8,98.9,66.2,98.9,66.2z"/>
					<path class="st3" d="M97.6,72.9c-0.6,0-1.1-0.1-1.6-0.3c-1.2-0.4-1.8-1.3-1.8-2.4c0-1.6,4.2-4.1,4.6-4.3l0.4-0.2v0.5
						c0,0-0.2,3.8,0.6,5.2c0.2,0.3,0.2,0.6,0,0.9C99.4,72.7,98.6,72.9,97.6,72.9z M98.7,66.7c-1.7,1-4,2.8-4,3.6
						c0,1.1,0.8,1.7,1.5,1.9c1.3,0.5,2.9,0.2,3.2-0.3c0.1-0.1,0.1-0.1,0-0.3C98.6,70.4,98.6,67.8,98.7,66.7z"/>
				</g>
				<g>
					<path class="st5" d="M93.8,57.8l-4.4,3c-1.3-0.5-3.7-1.1-4.4-3c0.7-1.9,3.2-2.4,4.6-2.9L93.8,57.8z"/>
					<path class="st3" d="M89.4,61l-0.5-0.2c-1.4-0.5-3.5-1.2-4.1-3v-0.1v-0.1c0.6-1.7,2.5-2.3,4-2.8c0.3-0.1,0.5-0.2,0.7-0.2h0.1
						l4.6,3.1L89.4,61z M85.3,57.8c0.6,1.6,2.4,2.2,3.8,2.6c0.1,0,0.2,0.1,0.3,0.1l4-2.8L89.6,55c-0.3,0.2-0.5,0.2-0.7,0.3
						C87.6,55.8,85.8,56.2,85.3,57.8z"/>
				</g>
			</g>
		</g>
	</g>
	<g>
		<g>
			<g>
				<path class="st3" d="M998.3,105.8c-1.6-0.1-8.4-3.1-8.4-8.8c0-5.7,4.7-7.6,4.7-7.6s-2.6,1.9-2.6,5.5c0,1.8,1.4,1.8,1.4,3.3
					s-1.4,1.6-2.1,0.8c0,0,0.9,4.4,7,6.4L998.3,105.8L998.3,105.8z"/>
			</g>
			<g>
				<path class="st3" d="M1012.7,94.6c-2.5,9.3-9.2,11.2-9.2,11.2l-0.1-0.8c0,0,6.1-2.5,8.6-10.6L1012.7,94.6"/>
			</g>
			<g>
				<path class="st3" d="M1009,100.3l0.7-1c-4.6-0.5-5.6-7.6-5.6-7.6S1003.7,99.1,1009,100.3z"/>
			</g>
			<g>
				<path class="st3" d="M990.1,105.8c0,0,2.7-5.7,6.9-5.4c0,0-0.2-6.3,2.7-6.3s3.1,6.5,5,5.2c1.6-1.1-0.4-3-0.6-5.9
					c-0.2-3.7,1.7-6.4,4.5-6.1c0,0,0.5-3.9,1.8-4.6c1.4-0.9,2-2.3,2-2.3s0.5,1.5,2,2.3c1.3,0.8,1.8,4.6,1.8,4.6
					c2.8-0.3,4.7,2.5,4.5,6.2c-0.2,2.9-2.2,4.8-0.6,5.8c1.9,1.3,2.1-5.2,5-5.2s2.7,6.3,2.7,6.3c4.2-0.3,6.9,5.4,6.9,5.4l0.5-0.5
					c0,0-1.9-5.3-6.2-6.1c0,0,0.5-8.6-7.2-7c0,0,0.5-5.9-4.8-6.1c0,0-0.5-3.5-2.5-4.6c-2-1.1-2.1-3.1-2.1-3.1s-0.1,2-2.1,3.1
					c-2,1.1-2.5,4.6-2.5,4.6c-5.3,0.3-4.8,6.1-4.8,6.1c-7.6-1.6-7.2,7-7.2,7c-4.3,0.7-6.2,6.1-6.2,6.1L990.1,105.8z"/>
			</g>
			<g>
				<path class="st3" d="M1026.5,105.8c1.6-0.1,8.4-3.1,8.4-8.8c0-5.7-4.7-7.6-4.7-7.6s2.6,1.9,2.6,5.5c0,1.8-1.4,1.8-1.4,3.3
					s1.4,1.6,2.1,0.8c0,0-0.9,4.4-7,6.4V105.8z"/>
			</g>
			<g>
				<path class="st3" d="M1012.2,94.6c2.5,9.3,9.2,11.2,9.2,11.2l0.1-0.8c0,0-6.1-2.5-8.6-10.6L1012.2,94.6"/>
			</g>
			<g>
				<path class="st3" d="M1015.8,100.3l-0.7-1c4.6-0.5,5.7-7.6,5.7-7.6S1021.1,99.1,1015.8,100.3z"/>
			</g>
			<g>
				<path class="st3" d="M1012.6,104.7c2.5-1.3,3.2-2.8,3.2-2.8l-0.6-0.8c0,0-0.8,1.6-2.6,2.4c-1.8-0.8-2.9-2.6-2.9-2.6l-0.7,0.9
					C1009,101.7,1010.2,103.3,1012.6,104.7z"/>
			</g>
		</g>
		<g>
			<g>
				<path class="st3" d="M989.5,105.8c-2-4-6.1-5-6.1-5c-0.2,2.2,1.9,3.1,1.9,3.1c-2.4-0.6-5.1,1.9-5.1,1.9H989.5"/>
			</g>
			<g>
				<path class="st3" d="M1003.5,105.8c-0.2-3.7-4.5-4.3-4.5-4.3c0,2,1.9,2.7,1.9,2.7c-2.5-0.8-4,1.6-4,1.6
					S1003.5,105.7,1003.5,105.8z"/>
			</g>
			<g>
				<path class="st4" d="M1012.6,93.7c-3.2-0.3-3.6-5.2-3.6-5.2c1.8,0,2.3,2.2,2.3,2.2c-0.7-2.9,1.4-4.6,1.4-4.6s1.5,1.8,0.8,4.6
					c0,0,0.6-2.2,2.3-2.2C1015.8,88.4,1015.7,93.3,1012.6,93.7z"/>
				<path class="st3" d="M1012.6,93.9L1012.6,93.9c-3.4-0.3-3.8-5.2-3.8-5.5v-0.3h0.3c0.9,0,1.5,0.5,1.9,1.1
					c0.1-2.1,1.5-3.4,1.6-3.5l0.2-0.2l0.2,0.2c0.1,0.1,1.1,1.3,1,3.4c0.4-0.5,1-1,1.9-1h0.3v0.3C1016,88.7,1015.9,93.7,1012.6,93.9
					L1012.6,93.9z M1009.3,88.8c0.2,1,0.8,4.4,3.3,4.7c2.5-0.2,2.9-3.7,3-4.7c-1.3,0.2-1.8,2-1.8,2l-0.5-0.1
					c0.5-2.2-0.2-3.6-0.6-4.2c-0.5,0.5-1.6,2-1.1,4.2l-0.5,0.1C1011.1,90.7,1010.6,88.9,1009.3,88.8z"/>
			</g>
			<g>
				<path class="st3" d="M1035.3,105.8c2-4,6.1-5,6.1-5c0.2,2.2-1.9,3.1-1.9,3.1c2.4-0.6,5.1,1.9,5.1,1.9H1035.3"/>
			</g>
			<g>
				<path class="st3" d="M1021.3,105.8c0.2-3.7,4.5-4.3,4.5-4.3c0,2-1.9,2.7-1.9,2.7c2.5-0.8,4,1.6,4,1.6S1021.3,105.7,1021.3,105.8
					z"/>
			</g>
		</g>
		<g>
			<path class="st3" d="M1010.9,94.7c-1.5,0-1.5-1.8,0-1.8h3.1c1.5,0,1.5,1.8,0,1.8H1010.9z"/>
		</g>
		<g>
			<path class="st3" d="M988.2,105.8v-2.4c0-2.1,1.9-2,1.9,0v2.4H988.2z"/>
		</g>
		<g>
			<path class="st3" d="M1020.5,105.8v-2.1c0-1.7,1.6-1.8,1.6,0v2.1H1020.5z"/>
		</g>
		<g>
			<path class="st3" d="M1002.8,105.8v-2.1c0-1.7,1.6-1.8,1.6,0v2.1H1002.8z"/>
		</g>
		<g>
			<path class="st3" d="M1036.6,105.8v-2.4c0-2.1-1.9-2-1.9,0v2.4H1036.6z"/>
		</g>
	</g>
	<g>
		<g>
			<g>
				<path class="st3" d="M998.3,8.9c-1.6,0.1-8.4,3.1-8.4,8.8s4.7,7.6,4.7,7.6s-2.6-1.9-2.6-5.5c0-1.8,1.4-1.8,1.4-3.3
					s-1.4-1.6-2.1-0.8c0,0,0.9-4.4,7-6.4L998.3,8.9L998.3,8.9z"/>
			</g>
			<g>
				<path class="st3" d="M1012.7,20.2c-2.5-9.3-9.2-11.2-9.2-11.2l-0.1,0.8c0,0,6.1,2.5,8.6,10.6L1012.7,20.2"/>
			</g>
			<g>
				<path class="st3" d="M1009,14.4l0.7,1c-4.6,0.5-5.6,7.6-5.6,7.6S1003.7,15.6,1009,14.4z"/>
			</g>
			<g>
				<path class="st3" d="M990.1,8.9c0,0,2.7,5.7,6.9,5.4c0,0-0.2,6.3,2.7,6.3s3.1-6.5,5-5.2c1.6,1.1-0.4,3-0.6,5.9
					c-0.2,3.7,1.7,6.4,4.5,6.1c0,0,0.5,3.9,1.8,4.6c1.4,0.9,2,2.3,2,2.3s0.5-1.5,2-2.3c1.3-0.8,1.8-4.6,1.8-4.6
					c2.8,0.3,4.7-2.5,4.5-6.2c-0.2-2.9-2.2-4.8-0.6-5.8c1.9-1.3,2.1,5.2,5,5.2s2.7-6.3,2.7-6.3c4.2,0.3,6.9-5.4,6.9-5.4l0.5,0.5
					c0,0-1.9,5.3-6.2,6.1c0,0,0.5,8.6-7.2,7c0,0,0.5,5.9-4.8,6.1c0,0-0.5,3.5-2.5,4.6c-2,1.1-2.1,3.1-2.1,3.1s-0.1-2-2.1-3.1
					c-2-1.1-2.5-4.6-2.5-4.6c-5.3-0.3-4.8-6.1-4.8-6.1c-7.6,1.6-7.2-7-7.2-7c-4.3-0.7-6.2-6.1-6.2-6.1L990.1,8.9z"/>
			</g>
			<g>
				<path class="st3" d="M1026.5,8.9c1.6,0.1,8.4,3.1,8.4,8.8s-4.7,7.6-4.7,7.6s2.6-1.9,2.6-5.5c0-1.8-1.4-1.8-1.4-3.3
					s1.4-1.6,2.1-0.8c0,0-0.9-4.4-7-6.4V8.9z"/>
			</g>
			<g>
				<path class="st3" d="M1012.2,20.2c2.5-9.3,9.2-11.2,9.2-11.2l0.1,0.8c0,0-6.1,2.5-8.6,10.6L1012.2,20.2"/>
			</g>
			<g>
				<path class="st3" d="M1015.8,14.4l-0.7,1c4.6,0.5,5.7,7.6,5.7,7.6S1021.1,15.6,1015.8,14.4z"/>
			</g>
			<g>
				<path class="st3" d="M1012.6,10c2.5,1.3,3.2,2.8,3.2,2.8l-0.6,0.8c0,0-0.8-1.6-2.6-2.4c-1.8,0.8-2.9,2.6-2.9,2.6l-0.7-0.9
					C1009,13.1,1010.2,11.3,1012.6,10z"/>
			</g>
		</g>
		<g>
			<g>
				<path class="st3" d="M989.5,8.9c-2,4-6.1,5-6.1,5c-0.2-2.2,1.9-3.1,1.9-3.1c-2.4,0.6-5.1-1.9-5.1-1.9H989.5"/>
			</g>
			<g>
				<path class="st3" d="M1003.5,8.9c-0.2,3.7-4.5,4.3-4.5,4.3c0-2,1.9-2.7,1.9-2.7c-2.5,0.8-4-1.6-4-1.6H1003.5z"/>
			</g>
			<g>
				<path class="st4" d="M1012.6,21c-3.2,0.3-3.6,5.2-3.6,5.2c1.8,0,2.3-2.2,2.3-2.2c-0.7,2.9,1.4,4.6,1.4,4.6s1.5-1.8,0.8-4.6
					c0,0,0.6,2.2,2.3,2.2C1015.8,26.3,1015.7,21.3,1012.6,21z"/>
				<path class="st3" d="M1012.7,29.1l-0.2-0.2c-0.1-0.1-1.5-1.3-1.6-3.5c-0.4,0.6-1,1.1-1.9,1.1h-0.3v-0.3c0-0.2,0.5-5.2,3.8-5.5
					l0,0l0,0c3.4,0.3,3.5,5.3,3.5,5.5v0.3h-0.3c-0.9,0-1.5-0.5-1.9-1c0,2.1-1,3.3-1,3.4L1012.7,29.1z M1011.1,24l0.5,0.1
					c-0.5,2.2,0.6,3.7,1.1,4.2c0.3-0.5,1.1-2,0.6-4.2l0.5-0.1c0,0,0.5,1.8,1.8,2c-0.1-1-0.5-4.4-3-4.7c-2.5,0.2-3.1,3.6-3.3,4.7
					C1010.6,25.8,1011.1,24,1011.1,24z"/>
			</g>
			<g>
				<path class="st3" d="M1035.3,8.9c2,4,6.1,5,6.1,5c0.2-2.2-1.9-3.1-1.9-3.1c2.4,0.6,5.1-1.9,5.1-1.9H1035.3"/>
			</g>
			<g>
				<path class="st3" d="M1021.3,8.9c0.2,3.7,4.5,4.3,4.5,4.3c0-2-1.9-2.7-1.9-2.7c2.5,0.8,4-1.6,4-1.6H1021.3z"/>
			</g>
		</g>
		<g>
			<path class="st3" d="M1010.9,20.1c-1.5,0-1.5,1.8,0,1.8h3.1c1.5,0,1.5-1.8,0-1.8H1010.9z"/>
		</g>
		<g>
			<path class="st3" d="M988.2,8.9v2.4c0,2.1,1.9,2,1.9,0V8.9H988.2z"/>
		</g>
		<g>
			<path class="st3" d="M1020.5,8.9V11c0,1.7,1.6,1.8,1.6,0V8.9H1020.5z"/>
		</g>
		<g>
			<path class="st3" d="M1002.8,8.9V11c0,1.7,1.6,1.8,1.6,0V8.9H1002.8z"/>
		</g>
		<g>
			<path class="st3" d="M1036.6,8.9v2.4c0,2.1-1.9,2-1.9,0V8.9H1036.6z"/>
		</g>
	</g>
	<g>
		<g>
			<g>
				<path class="st3" d="M829.4,105.8c-1.6-0.1-8.4-3.1-8.4-8.8c0-5.7,4.7-7.6,4.7-7.6s-2.6,1.9-2.6,5.5c0,1.8,1.4,1.8,1.4,3.3
					s-1.4,1.6-2.1,0.8c0,0,0.9,4.4,7,6.4L829.4,105.8L829.4,105.8z"/>
			</g>
			<g>
				<path class="st3" d="M843.7,94.6c-2.5,9.3-9.2,11.2-9.2,11.2l-0.1-0.8c0,0,6.1-2.5,8.6-10.6L843.7,94.6"/>
			</g>
			<g>
				<path class="st3" d="M840.1,100.3l0.7-1c-4.6-0.5-5.6-7.6-5.6-7.6S834.8,99.1,840.1,100.3z"/>
			</g>
			<g>
				<path class="st3" d="M821.3,105.8c0,0,2.7-5.7,6.9-5.4c0,0-0.2-6.3,2.7-6.3c2.9,0,3.1,6.5,5,5.2c1.6-1.1-0.4-3-0.6-5.9
					c-0.2-3.7,1.7-6.4,4.5-6.1c0,0,0.5-3.9,1.8-4.6c1.4-0.9,2-2.3,2-2.3s0.5,1.5,2,2.3c1.3,0.8,1.8,4.6,1.8,4.6
					c2.8-0.3,4.7,2.5,4.5,6.2c-0.2,2.9-2.2,4.8-0.6,5.8c1.9,1.3,2.1-5.2,5-5.2s2.7,6.3,2.7,6.3c4.2-0.3,6.9,5.4,6.9,5.4l0.5-0.5
					c0,0-1.9-5.3-6.2-6.1c0,0,0.5-8.6-7.2-7c0,0,0.5-5.9-4.8-6.1c0,0-0.5-3.5-2.5-4.6c-2-1.1-2.1-3.1-2.1-3.1s-0.1,2-2.1,3.1
					c-2,1.1-2.5,4.6-2.5,4.6c-5.3,0.3-4.8,6.1-4.8,6.1c-7.6-1.6-7.2,7-7.2,7c-4.3,0.7-6.2,6.1-6.2,6.1L821.3,105.8z"/>
			</g>
			<g>
				<path class="st3" d="M857.5,105.8c1.6-0.1,8.4-3.1,8.4-8.8c0-5.7-4.7-7.6-4.7-7.6s2.6,1.9,2.6,5.5c0,1.8-1.4,1.8-1.4,3.3
					s1.4,1.6,2.1,0.8c0,0-0.9,4.4-7,6.4L857.5,105.8L857.5,105.8z"/>
			</g>
			<g>
				<path class="st3" d="M843.2,94.6c2.5,9.3,9.2,11.2,9.2,11.2l0.1-0.8c0,0-6.1-2.5-8.6-10.6L843.2,94.6"/>
			</g>
			<g>
				<path class="st3" d="M846.9,100.3l-0.7-1c4.6-0.5,5.7-7.6,5.7-7.6S852.1,99.1,846.9,100.3z"/>
			</g>
			<g>
				<path class="st3" d="M843.7,104.7c2.5-1.3,3.2-2.8,3.2-2.8l-0.6-0.8c0,0-0.8,1.6-2.6,2.4c-1.8-0.8-2.9-2.6-2.9-2.6l-0.7,0.9
					C840.1,101.7,841.2,103.3,843.7,104.7z"/>
			</g>
		</g>
		<g>
			<g>
				<path class="st3" d="M820.7,105.8c-2-4-6.1-5-6.1-5c-0.2,2.2,1.9,3.1,1.9,3.1c-2.4-0.6-5.1,1.9-5.1,1.9H820.7"/>
			</g>
			<g>
				<path class="st3" d="M834.6,105.8c-0.2-3.7-4.5-4.3-4.5-4.3c0,2,1.9,2.7,1.9,2.7c-2.5-0.8-4,1.6-4,1.6S834.6,105.7,834.6,105.8z
					"/>
			</g>
			<g>
				<path class="st4" d="M843.6,93.7c-3.2-0.3-3.6-5.2-3.6-5.2c1.8,0,2.3,2.2,2.3,2.2c-0.7-2.9,1.4-4.6,1.4-4.6s1.5,1.8,0.8,4.6
					c0,0,0.6-2.2,2.3-2.2C846.9,88.4,846.8,93.3,843.6,93.7z"/>
				<path class="st3" d="M843.6,93.9L843.6,93.9c-3.4-0.3-3.8-5.2-3.8-5.5v-0.3h0.3c0.9,0,1.5,0.5,1.9,1.1c0.1-2.1,1.5-3.4,1.6-3.5
					l0.2-0.2l0.2,0.2c0.1,0.1,1.1,1.3,1,3.4c0.4-0.5,1-1,1.9-1h0.3v0.3C847.1,88.7,847,93.7,843.6,93.9L843.6,93.9z M840.3,88.8
					c0.2,1,0.8,4.4,3.3,4.7c2.5-0.2,2.9-3.7,3-4.7c-1.3,0.2-1.8,2-1.8,2l-0.5-0.1c0.5-2.2-0.2-3.6-0.6-4.2c-0.5,0.5-1.6,2-1.1,4.2
					l-0.5,0.1C842.1,90.7,841.7,88.9,840.3,88.8z"/>
			</g>
			<g>
				<path class="st3" d="M866.4,105.8c2-4,6.1-5,6.1-5c0.2,2.2-1.9,3.1-1.9,3.1c2.4-0.6,5.1,1.9,5.1,1.9H866.4"/>
			</g>
			<g>
				<path class="st3" d="M852.4,105.8c0.2-3.7,4.5-4.3,4.5-4.3c0,2-1.9,2.7-1.9,2.7c2.5-0.8,4,1.6,4,1.6S852.4,105.7,852.4,105.8z"
					/>
			</g>
		</g>
		<g>
			<path class="st3" d="M841.9,94.7c-1.5,0-1.5-1.8,0-1.8h3.1c1.5,0,1.5,1.8,0,1.8H841.9z"/>
		</g>
		<g>
			<path class="st3" d="M819.4,105.8v-2.4c0-2.1,1.9-2,1.9,0v2.4H819.4z"/>
		</g>
		<g>
			<path class="st3" d="M851.5,105.8v-2.1c0-1.7,1.6-1.8,1.6,0v2.1H851.5z"/>
		</g>
		<g>
			<path class="st3" d="M833.9,105.8v-2.1c0-1.7,1.6-1.8,1.6,0v2.1H833.9z"/>
		</g>
		<g>
			<path class="st3" d="M867.7,105.8v-2.4c0-2.1-1.9-2-1.9,0v2.4H867.7z"/>
		</g>
	</g>
	<g>
		<g>
			<g>
				<path class="st3" d="M829.4,8.9c-1.6,0.1-8.4,3.1-8.4,8.8s4.7,7.6,4.7,7.6s-2.6-1.9-2.6-5.5c0-1.8,1.4-1.8,1.4-3.3
					s-1.4-1.6-2.1-0.8c0,0,0.9-4.4,7-6.4L829.4,8.9L829.4,8.9z"/>
			</g>
			<g>
				<path class="st3" d="M843.7,20.2c-2.5-9.3-9.2-11.2-9.2-11.2l-0.1,0.8c0,0,6.1,2.5,8.6,10.6L843.7,20.2"/>
			</g>
			<g>
				<path class="st3" d="M840.1,14.4l0.7,1c-4.6,0.5-5.6,7.6-5.6,7.6S834.8,15.6,840.1,14.4z"/>
			</g>
			<g>
				<path class="st3" d="M821.3,8.9c0,0,2.7,5.7,6.9,5.4c0,0-0.2,6.3,2.7,6.3c2.9,0,3.1-6.5,5-5.2c1.6,1.1-0.4,3-0.6,5.9
					c-0.2,3.7,1.7,6.4,4.5,6.1c0,0,0.5,3.9,1.8,4.6c1.4,0.9,2,2.3,2,2.3s0.5-1.5,2-2.3c1.3-0.8,1.8-4.6,1.8-4.6
					c2.8,0.3,4.7-2.5,4.5-6.2c-0.2-2.9-2.2-4.8-0.6-5.8c1.9-1.3,2.1,5.2,5,5.2s2.7-6.3,2.7-6.3c4.2,0.3,6.9-5.4,6.9-5.4l0.5,0.5
					c0,0-1.9,5.3-6.2,6.1c0,0,0.5,8.6-7.2,7c0,0,0.5,5.9-4.8,6.1c0,0-0.5,3.5-2.5,4.6c-2,1.1-2.1,3.1-2.1,3.1s-0.1-2-2.1-3.1
					c-2-1.1-2.5-4.6-2.5-4.6c-5.3-0.3-4.8-6.1-4.8-6.1c-7.6,1.6-7.2-7-7.2-7c-4.3-0.7-6.2-6.1-6.2-6.1L821.3,8.9z"/>
			</g>
			<g>
				<path class="st3" d="M857.5,8.9c1.6,0.1,8.4,3.1,8.4,8.8s-4.7,7.6-4.7,7.6s2.6-1.9,2.6-5.5c0-1.8-1.4-1.8-1.4-3.3
					s1.4-1.6,2.1-0.8c0,0-0.9-4.4-7-6.4L857.5,8.9L857.5,8.9z"/>
			</g>
			<g>
				<path class="st3" d="M843.2,20.2c2.5-9.3,9.2-11.2,9.2-11.2l0.1,0.8c0,0-6.1,2.5-8.6,10.6L843.2,20.2"/>
			</g>
			<g>
				<path class="st3" d="M846.9,14.4l-0.7,1c4.6,0.5,5.7,7.6,5.7,7.6S852.1,15.6,846.9,14.4z"/>
			</g>
			<g>
				<path class="st3" d="M843.7,10c2.5,1.3,3.2,2.8,3.2,2.8l-0.6,0.8c0,0-0.8-1.6-2.6-2.4c-1.8,0.8-2.9,2.6-2.9,2.6l-0.7-0.9
					C840.1,13.1,841.2,11.3,843.7,10z"/>
			</g>
		</g>
		<g>
			<g>
				<path class="st3" d="M820.7,8.9c-2,4-6.1,5-6.1,5c-0.2-2.2,1.9-3.1,1.9-3.1c-2.4,0.6-5.1-1.9-5.1-1.9H820.7"/>
			</g>
			<g>
				<path class="st3" d="M834.6,8.9c-0.2,3.7-4.5,4.3-4.5,4.3c0-2,1.9-2.7,1.9-2.7c-2.5,0.8-4-1.6-4-1.6H834.6z"/>
			</g>
			<g>
				<path class="st4" d="M843.6,21c-3.2,0.3-3.6,5.2-3.6,5.2c1.8,0,2.3-2.2,2.3-2.2c-0.7,2.9,1.4,4.6,1.4,4.6s1.5-1.8,0.8-4.6
					c0,0,0.6,2.2,2.3,2.2C846.9,26.3,846.8,21.3,843.6,21z"/>
				<path class="st3" d="M843.8,29.1l-0.2-0.2c-0.1-0.1-1.5-1.3-1.6-3.5c-0.4,0.6-1,1.1-1.9,1.1h-0.3v-0.3c0-0.2,0.5-5.2,3.8-5.5
					l0,0l0,0c3.4,0.3,3.5,5.3,3.5,5.5v0.3h-0.3c-0.9,0-1.5-0.5-1.9-1c0,2.1-1,3.3-1,3.4L843.8,29.1z M842.1,24l0.5,0.1
					c-0.5,2.2,0.6,3.7,1.1,4.2c0.3-0.5,1.1-2,0.6-4.2l0.5-0.1c0,0,0.5,1.8,1.8,2c-0.1-1-0.5-4.4-3-4.7c-2.5,0.2-3.1,3.6-3.3,4.7
					C841.7,25.8,842.1,24,842.1,24z"/>
			</g>
			<g>
				<path class="st3" d="M866.4,8.9c2,4,6.1,5,6.1,5c0.2-2.2-1.9-3.1-1.9-3.1c2.4,0.6,5.1-1.9,5.1-1.9H866.4"/>
			</g>
			<g>
				<path class="st3" d="M852.4,8.9c0.2,3.7,4.5,4.3,4.5,4.3c0-2-1.9-2.7-1.9-2.7c2.5,0.8,4-1.6,4-1.6H852.4z"/>
			</g>
		</g>
		<g>
			<path class="st3" d="M841.9,20.1c-1.5,0-1.5,1.8,0,1.8h3.1c1.5,0,1.5-1.8,0-1.8H841.9z"/>
		</g>
		<g>
			<path class="st3" d="M819.4,8.9v2.4c0,2.1,1.9,2,1.9,0V8.9H819.4z"/>
		</g>
		<g>
			<path class="st3" d="M851.5,8.9V11c0,1.7,1.6,1.8,1.6,0V8.9H851.5z"/>
		</g>
		<g>
			<path class="st3" d="M833.9,8.9V11c0,1.7,1.6,1.8,1.6,0V8.9H833.9z"/>
		</g>
		<g>
			<path class="st3" d="M867.7,8.9v2.4c0,2.1-1.9,2-1.9,0V8.9H867.7z"/>
		</g>
	</g>
	<g>
		<g>
			<path class="st3" d="M924.6,33c-1.9-1.8-5.1-3.5-10.1-3.9c-0.8-0.1-1.8,0-2.4,0.4c-0.7,0.4-1.1,0.9-1.3,1.8
				c-0.1,0.5,0,1.1,0.3,1.5s0.7,0.7,1,0.7c0.4,0,1.1-0.3,1.1-1.1c0-0.4-0.3-0.6-0.5-0.7c-0.3-0.1-0.3,0.1-0.4,0.2
				c-0.1,0.3-0.5,0.5-0.7,0.3c-0.3-0.1-0.4-0.5-0.3-0.8c0.3-0.7,0.9-1.1,1.7-0.9c0.7,0.2,1.5,0.9,1.4,2c-0.1,1.5-1.2,2.4-2.3,2.3
				c-0.7,0-2.4-0.7-2.4-2.7c0-0.9,0.2-1.8,0.9-2.8c-3.3,0.4-6.3,1.8-9.2,3.7c-1.8,1.4-5.3,4.7-6.9,10.3l-1.3-0.4
				c0.6-2,1.4-3.8,2.2-5.2c-2,1.8-4,3.6-6,5.6c-7.4,7.1-15,14.5-24.5,14.8v-1.5c9-0.4,16.4-7.5,23.6-14.5c2.7-2.6,5.4-5.1,8.2-7.4
				l0,0c-2.4,0.6-5.5,1-9.2,0.1l0.3-1.4c3.7,0.9,6.8,0.5,9-0.2c-1.5-0.6-2.1-1.5-2.3-2.4c-0.1-0.8,0.1-1.7,0.5-2.3
				c0.7-0.9,2.1-1.2,3.2-0.3c0.7,0.7,0.7,1.7,0.4,2.4c-0.4,0.7-1.1,1-1.8,0.7c-0.3-0.1-0.4-0.5-0.3-0.8c0.1-0.3,0.5-0.5,0.8-0.4l0,0
				c0.1,0,0.2,0.1,0.4-0.2c0.1-0.2,0.1-0.6-0.1-0.9c-0.6-0.6-1.3-0.2-1.5,0.1c-0.2,0.3-0.3,0.8-0.3,1.2c0,0.6,1.1,3.1,5.3,1
				c3.9-2,7.7-3.9,12-3.9s9.1,0.9,12.6,4.3L924.6,33z"/>
		</g>
		<g>
			<path class="st3" d="M924.6,82.1c-1.9,1.8-5.1,3.5-10.1,3.9c-0.8,0.1-1.8,0-2.4-0.4c-0.7-0.4-1.1-0.9-1.3-1.8
				c-0.1-0.5,0-1.1,0.3-1.5s0.7-0.7,1-0.7c0.4,0,1.1,0.3,1.1,1.1c0,0.4-0.3,0.6-0.5,0.7c-0.3,0.1-0.3-0.1-0.4-0.2
				c-0.1-0.3-0.5-0.5-0.7-0.3c-0.3,0.1-0.4,0.5-0.3,0.8c0.3,0.7,0.9,1.1,1.7,0.9c0.7-0.2,1.5-0.9,1.4-2c-0.1-1.5-1.2-2.4-2.3-2.3
				c-0.7,0.1-2.4,0.7-2.4,2.7c0,0.9,0.2,1.8,0.9,2.8c-3.3-0.4-6.3-1.8-9.2-3.7c-1.8-1.4-5.3-4.7-6.9-10.3l-1.3,0.4
				c0.6,2,1.4,3.8,2.2,5.2c-2-1.8-4-3.6-6-5.6c-7.4-7.1-15-14.5-24.5-14.8v1.5c9,0.4,16.4,7.5,23.6,14.5c2.7,2.6,5.4,5.1,8.2,7.4
				l0,0c-2.4-0.6-5.5-1-9.2-0.1l0.3,1.4c3.7-0.9,6.8-0.5,9,0.2c-1.5,0.6-2.1,1.5-2.3,2.4c-0.1,0.8,0.1,1.7,0.5,2.3
				c0.7,0.9,2.1,1.2,3.2,0.3c0.7-0.7,0.7-1.7,0.4-2.4c-0.4-0.7-1.1-1-1.8-0.7c-0.3,0.1-0.4,0.5-0.3,0.8c0.1,0.3,0.5,0.5,0.8,0.4l0,0
				c0.1,0,0.2-0.1,0.4,0.2c0.1,0.2,0.1,0.6-0.1,0.9c-0.6,0.6-1.3,0.2-1.5-0.1c-0.2-0.3-0.3-0.8-0.3-1.2c0-0.6,1.1-3.1,5.3-1
				c3.9,2,7.7,3.9,12,3.9s9.1-0.9,12.6-4.3L924.6,82.1z"/>
		</g>
		<g>
			<path class="st3" d="M931.7,33c1.9-1.8,5.1-3.5,10.1-3.9c0.8-0.1,1.8,0,2.4,0.4c0.7,0.4,1.1,0.9,1.3,1.8c0.1,0.5,0,1.1-0.3,1.5
				s-0.7,0.7-1,0.7c-0.4,0-1.1-0.3-1.1-1.1c0-0.4,0.3-0.6,0.5-0.7c0.3-0.1,0.3,0.1,0.4,0.2c0.1,0.3,0.5,0.5,0.8,0.3
				c0.3-0.1,0.4-0.5,0.3-0.8c-0.3-0.7-0.9-1.1-1.7-0.9c-0.7,0.2-1.5,0.9-1.4,2c0.1,1.5,1.2,2.4,2.3,2.3c0.7,0,2.4-0.7,2.4-2.7
				c0-0.9-0.2-1.8-0.9-2.8c3.3,0.4,6.3,1.8,9.2,3.7c1.8,1.4,5.3,4.7,6.9,10.3l1.3-0.4c-0.6-2-1.4-3.8-2.2-5.2c2,1.8,4,3.6,6,5.6
				c7.4,7.1,15,14.5,24.5,14.8l0.1-1.5c-9-0.4-16.4-7.5-23.6-14.5c-2.7-2.6-5.4-5.1-8.2-7.4l0,0c2.4,0.6,5.5,1,9.2,0.1l-0.3-1.4
				c-3.7,0.9-6.8,0.5-9-0.2c1.5-0.6,2.1-1.5,2.3-2.4c0.1-0.8-0.1-1.7-0.5-2.3c-0.7-0.9-2.1-1.2-3.2-0.3c-0.7,0.7-0.7,1.7-0.4,2.4
				c0.4,0.7,1.1,1,1.8,0.7c0.3-0.1,0.4-0.5,0.3-0.8c-0.1-0.3-0.4-0.5-0.7-0.4l0,0c-0.1,0-0.2,0.1-0.4-0.2c-0.1-0.2-0.1-0.6,0.1-0.9
				c0.6-0.6,1.3-0.2,1.5,0.1c0.2,0.3,0.3,0.8,0.3,1.2c0,0.6-1.1,3.1-5.3,1c-3.9-2-7.7-3.9-12-3.9s-9.1,0.9-12.6,4.3L931.7,33z"/>
		</g>
		<g>
			<path class="st3" d="M931.7,82.1c1.9,1.8,5.1,3.5,10.1,3.9c0.8,0.1,1.8,0,2.4-0.4c0.7-0.4,1.1-0.9,1.3-1.8c0.1-0.5,0-1.1-0.3-1.5
				s-0.7-0.7-1-0.7c-0.4,0-1.1,0.3-1.1,1.1c0,0.4,0.3,0.6,0.5,0.7c0.3,0.1,0.3-0.1,0.4-0.2c0.1-0.3,0.5-0.5,0.8-0.3
				c0.3,0.1,0.4,0.5,0.3,0.8c-0.3,0.7-0.9,1.1-1.7,0.9c-0.7-0.2-1.5-0.9-1.4-2c0.1-1.5,1.2-2.4,2.3-2.3c0.7,0.1,2.4,0.7,2.4,2.7
				c0,0.9-0.2,1.8-0.9,2.8c3.3-0.4,6.3-1.8,9.2-3.7c1.8-1.4,5.3-4.7,6.9-10.3l1.3,0.4c-0.6,2-1.4,3.8-2.2,5.2c2-1.8,4-3.6,6-5.6
				c7.4-7.1,15-14.5,24.5-14.8l0.1,1.5c-9,0.4-16.4,7.5-23.6,14.5c-2.7,2.6-5.4,5.1-8.2,7.4l0,0c2.4-0.6,5.5-1,9.2-0.1l-0.3,1.4
				c-3.7-0.9-6.8-0.5-9,0.2c1.5,0.6,2.1,1.5,2.3,2.4c0.1,0.8-0.1,1.7-0.5,2.3c-0.7,0.9-2.1,1.2-3.2,0.3c-0.7-0.7-0.7-1.7-0.4-2.4
				c0.4-0.7,1.1-1,1.8-0.7c0.3,0.1,0.4,0.5,0.3,0.8c-0.1,0.3-0.4,0.5-0.7,0.4l0,0c-0.1,0-0.2-0.1-0.4,0.2c-0.1,0.2-0.1,0.6,0.1,0.9
				c0.6,0.6,1.3,0.2,1.5-0.1c0.2-0.3,0.3-0.8,0.3-1.2c0-0.6-1.1-3.1-5.3-1c-3.9,2-7.7,3.9-12,3.9s-9.1-0.9-12.6-4.3L931.7,82.1z"/>
		</g>
		<g>
			<path class="st5" d="M928.2,30.7c0,0,3.5,0.8,4.6,6.4c0,0,9.8-0.9,9.8,7.3c0,1.8-3,2.3-4.1,4c-1.5,2.2,2.4,4.6,4.6,2.7
				c1.6-1.4,2.3-5.7,5.7-5.7c3.4,0,7.1,2.3,6.7,7.2c0,0,5.7,1,8.1,5.2c-2.4,4.2-8.1,5.2-8.1,5.2c0.5,4.9-3.3,7.2-6.7,7.2
				c-3.4,0-4.1-4.3-5.7-5.7c-2.2-1.9-6.1,0.5-4.6,2.7c1.1,1.7,4.1,2.2,4.1,4c0,8.2-9.8,7.3-9.8,7.3c-1.1,5.5-4.6,5.3-4.6,5.3
				s-3.5,0.2-4.6-5.3c0,0-9.8,0.9-9.8-7.3c0-1.8,3-2.3,4.1-4c1.5-2.2-2.4-4.6-4.6-2.7c-1.5,1.4-2.3,5.7-5.7,5.7s-7.1-2.3-6.7-7.2
				c0,0-5.7-1-8.1-5.2c2.4-4.2,8.1-5.2,8.1-5.2c-0.5-4.9,3.3-7.2,6.7-7.2s4.1,4.3,5.7,5.7c2.2,1.9,6.1-0.5,4.6-2.7
				c-1.1-1.7-4.1-2.2-4.1-4c0-8.2,9.8-7.3,9.8-7.3C924.7,31.6,928.2,30.7,928.2,30.7z"/>
			<path class="st3" d="M928.2,84.2C928.2,84.2,928.1,84.2,928.2,84.2c0,0-3.8,0.2-5-5.3c-1.3,0.1-5.3,0-7.8-2.4
				c-1.4-1.3-2.1-3.1-2.1-5.4c0-1.3,1.2-2.1,2.3-2.8c0.7-0.5,1.5-0.9,1.9-1.5c0.6-0.8,0.1-1.5-0.3-1.8c-0.9-0.8-2.5-1.1-3.6-0.2
				c-0.4,0.4-0.8,1.1-1.3,1.9c-1,1.7-2.2,3.9-4.7,3.9c-2.2,0-4.3-0.9-5.6-2.4c-1.1-1.3-1.7-3-1.6-4.9c-1.4-0.3-5.9-1.7-8-5.4
				l-0.1-0.3l0.1-0.3c2.1-3.7,6.5-5,8-5.4c-0.1-1.9,0.5-3.6,1.6-4.9c1.3-1.5,3.4-2.4,5.6-2.4c2.6,0,3.8,2.2,4.7,3.9
				c0.4,0.8,0.8,1.5,1.3,1.9c1.1,0.9,2.7,0.6,3.6-0.2c0.3-0.3,0.8-1,0.3-1.8c-0.4-0.6-1.2-1.1-1.9-1.5c-1.1-0.7-2.3-1.4-2.3-2.8
				c0-2.3,0.7-4.1,2.1-5.4c2.5-2.4,6.5-2.5,7.8-2.4c1.2-5.4,4.7-6.3,4.9-6.3h0.1h0.1c0.2,0,3.6,0.9,4.9,6.3c1.3-0.1,5.3,0,7.8,2.4
				c1.4,1.3,2.1,3.1,2.1,5.4c0,1.3-1.2,2.1-2.3,2.8c-0.7,0.4-1.5,0.9-1.9,1.5c-0.6,0.8-0.1,1.5,0.3,1.8c0.9,0.8,2.5,1.1,3.6,0.2
				c0.4-0.4,0.8-1.1,1.3-1.9c1-1.7,2.2-3.9,4.7-3.9c2.2,0,4.3,0.9,5.6,2.4c1.1,1.3,1.7,3,1.6,4.9c1.4,0.3,5.9,1.7,8,5.4l0.1,0.3
				l-0.1,0.3c-2.1,3.7-6.5,5-8,5.4c0.1,1.9-0.5,3.6-1.6,4.9c-1.3,1.5-3.4,2.4-5.6,2.4c-2.6,0-3.8-2.2-4.7-3.9
				c-0.4-0.8-0.8-1.5-1.3-1.9c-1.1-0.9-2.7-0.6-3.6,0.2c-0.3,0.3-0.8,1-0.3,1.8c0.4,0.6,1.2,1.1,1.9,1.5c1.1,0.7,2.3,1.4,2.3,2.8
				c0,2.3-0.7,4.1-2.1,5.4c-2.5,2.4-6.5,2.5-7.8,2.4C932,83.9,928.7,84.2,928.2,84.2z M928.1,83.2c0.2,0,3.2,0.1,4.1-4.9l0.1-0.5
				h0.4c0,0,4.8,0.4,7.5-2.1c1.2-1.1,1.8-2.7,1.8-4.6c0-0.8-0.8-1.3-1.8-1.9c-0.8-0.5-1.7-1-2.2-1.8c-0.7-1-0.6-2.2,0.4-3.1
				c1.2-1.1,3.4-1.6,4.9-0.2c0.6,0.5,1,1.3,1.5,2.2c0.9,1.7,1.9,3.4,3.9,3.4c1.9,0,3.7-0.8,4.9-2.1c1-1.2,1.5-2.7,1.3-4.5v-0.5
				l0.5-0.1c0.1,0,5.3-1,7.6-4.7c-2.3-3.7-7.5-4.7-7.6-4.7l-0.5-0.1v-0.5c0.2-1.8-0.3-3.4-1.3-4.5c-1.1-1.3-3-2.1-4.9-2.1
				c-2,0-2.9,1.7-3.9,3.4c-0.5,0.9-0.9,1.7-1.5,2.2c-1.5,1.3-3.7,0.9-4.9-0.2c-1-0.9-1.1-2.1-0.4-3.1c0.5-0.8,1.4-1.3,2.2-1.8
				c1-0.6,1.8-1.1,1.8-1.9c0-1.9-0.6-3.5-1.8-4.6c-2.7-2.5-7.4-2.1-7.5-2.1h-0.4l-0.1-0.5c-0.9-4.6-3.5-5.7-4.1-5.9
				c-0.6,0.2-3.2,1.3-4.1,5.9l-0.1,0.5h-0.4c0,0-4.8-0.4-7.5,2.1c-1.2,1.1-1.8,2.7-1.8,4.6c0,0.8,0.9,1.3,1.8,1.9
				c0.8,0.5,1.7,1,2.2,1.8c0.7,1,0.6,2.2-0.4,3.1c-1.2,1.1-3.4,1.6-4.9,0.2c-0.6-0.5-1-1.3-1.5-2.2c-0.9-1.7-1.9-3.4-3.9-3.4
				c-1.9,0-3.7,0.8-4.9,2.1c-1,1.2-1.5,2.7-1.3,4.5V53l-0.5,0.1c-0.1,0-5.3,1-7.6,4.7c2.3,3.7,7.5,4.7,7.6,4.7l0.5,0.1v0.5
				c-0.2,1.8,0.3,3.4,1.3,4.5c1.1,1.3,2.9,2.1,4.9,2.1c2,0,2.9-1.7,3.9-3.4c0.5-0.9,0.9-1.7,1.5-2.2c1.5-1.3,3.7-0.9,4.9,0.2
				c1,0.9,1.1,2.1,0.4,3.1c-0.5,0.8-1.4,1.3-2.2,1.8c-1,0.6-1.8,1.1-1.8,1.9c0,1.9,0.6,3.5,1.8,4.6c2.7,2.5,7.4,2.1,7.5,2.1h0.4
				l0.1,0.5C925,83.2,928,83.2,928.1,83.2z"/>
		</g>
		<g>
			<path class="st3" d="M889,58c0,0-1.1,5.3-4.4,6.7c0,0-0.8-3.2,0.3-5.4c0,0-3,1.8-5.7-1.6c2.5-3.7,6-1.4,6-1.4
				c-1.1-2.2-0.6-5.6-0.6-5.6C889.1,53.7,889,58,889,58z"/>
		</g>
		<g>
			<path class="st3" d="M890.4,54c0-1.1,0-1.6-1-1.6c-1,0-0.8,0.6-0.8,1.6v7.1c0,1.1-0.2,1.6,0.8,1.6c1,0,1-0.6,1-1.6V54z"/>
		</g>
		<g>
			<path class="st3" d="M967.4,58c0,0,1.1,5.3,4.4,6.7c0,0,0.8-3.2-0.3-5.4c0,0,3,1.8,5.7-1.6c-2.5-3.7-6-1.4-6-1.4
				c1.1-2.2,0.6-5.6,0.6-5.6C967.3,53.7,967.4,58,967.4,58z"/>
		</g>
		<g>
			<path class="st3" d="M966.1,54c0-1.1,0-1.6,1-1.6c1,0,0.8,0.6,0.8,1.6v7.1c0,1.1,0.2,1.6-0.8,1.6c-1,0-1-0.6-1-1.6V54z"/>
		</g>
		<g>
			<path class="st3" d="M935.2,49.5c6.7-7,3.9-11.3,3.9-11.3s4,1.8,3.5,6.1c-0.3,2.3-21.5,21.8-21.5,21.8c-6.7,7-3.9,11.1-3.9,11.1
				s-3.5-1.8-3.5-6.1C913.8,70.2,935.2,49.5,935.2,49.5z"/>
		</g>
		<g>
			<path class="st3" d="M935.2,65.9c6.7,7,3.9,11.3,3.9,11.3s4-1.8,3.5-6.1c-0.3-2.3-21.4-21.6-21.4-21.6c-6.7-7-3.9-11.3-3.9-11.3
				s-4,1.8-3.5,6.1C914.1,46.7,935.2,65.9,935.2,65.9z"/>
		</g>
		<g>
			<path class="st3" d="M912.2,56.3c23.3-4.9,11.4-19.3,11.4-19.3l0.7-1.8c0,0,12.9,17.5-12.1,22.4L912.2,56.3L912.2,56.3z"/>
		</g>
		<g>
			<path class="st3" d="M944.2,56.3c-24.6-4.9-9.7-21.6-11.4-19.3l-0.7-1.8c0,0-12.9,17.5,12.1,22.4L944.2,56.3L944.2,56.3z"/>
		</g>
		<g>
			<path class="st3" d="M944.2,59C921,64,932.8,78.3,932.8,78.3l-0.7,1.8c0,0-12.9-17.5,12.1-22.5L944.2,59L944.2,59z"/>
		</g>
		<g>
			<path class="st3" d="M912.2,59c23.2,4.9,11.4,19.3,11.4,19.3l0.7,1.8c0,0,12.9-17.5-12.1-22.5L912.2,59L912.2,59z"/>
		</g>
		<g>
			<g>
				<path class="st5" d="M887.4,33.7c0,0-2.5,5.6-5.1,3.6c0,0-3.2,0.1-2.6-3.1c0,0-1.9-0.5-1.1-3c0.4-2.5,3-2.5,3-2.5
					c0.9-3.1,3.4-0.8,3.4-0.8C888.1,27.3,887.4,33.7,887.4,33.7"/>
				<path class="st3" d="M883.4,38c-0.4,0-0.9-0.1-1.3-0.4c-0.3,0-1.6-0.1-2.3-1c-0.5-0.6-0.6-1.3-0.5-2.2c-0.3-0.1-0.7-0.4-1-1
					s-0.3-1.4-0.1-2.3c0.3-2.3,2.4-2.6,3-2.7c0.3-0.9,0.7-1.4,1.3-1.6c1-0.3,2.1,0.5,2.4,0.7c0.6-0.1,1.2,0.1,1.6,0.5
					c1.5,1.5,1,5.4,1,5.6v0.1c-0.1,0.1-1.6,3.6-3.6,4.1C883.8,38,883.6,38,883.4,38z M882.4,37L882.4,37c0.5,0.4,1,0.5,1.5,0.4
					c1.7-0.4,3.1-3.4,3.3-3.8c0-0.4,0.4-3.9-0.9-5.1c-0.3-0.3-0.8-0.4-1.3-0.4h-0.1l-0.1-0.1c0,0-1.1-1-2-0.7
					c-0.5,0.1-0.8,0.6-1,1.4l-0.1,0.2h-0.2c-0.1,0-2.4,0-2.7,2.3c-0.2,0.8-0.2,1.4,0,1.9c0.3,0.6,0.9,0.8,0.9,0.8l0.2,0.1v0.2
					c-0.2,0.9,0,1.5,0.4,2C881,37,882.2,37,882.4,37L882.4,37z"/>
			</g>
			<g>
				<path class="st5" d="M887.4,81.3c0,0-2.5-5.6-5.1-3.6c0,0-3.2-0.1-2.6,3.1c0,0-1.9,0.5-1.1,3c0.4,2.5,3,2.5,3,2.5
					c0.9,3.1,3.4,0.8,3.4,0.8C888.1,87.8,887.4,81.3,887.4,81.3"/>
				<path class="st3" d="M883.1,88.2c-0.2,0-0.3,0-0.5-0.1c-0.6-0.2-1-0.7-1.3-1.6c-0.6-0.1-2.7-0.4-3-2.7c-0.3-0.8-0.2-1.6,0.1-2.2
					s0.8-0.8,1-1c-0.1-0.9,0-1.7,0.5-2.2c0.7-0.9,1.9-1,2.3-1c0.6-0.4,1.2-0.5,1.8-0.4c2,0.5,3.6,4,3.6,4.1v0.1c0,0.2,0.5,4.1-1,5.6
					c-0.4,0.4-1,0.6-1.6,0.5C884.7,87.7,883.9,88.2,883.1,88.2z M882.2,78.1c-0.2,0-1.3,0-2,0.8c-0.4,0.5-0.5,1.1-0.4,2v0.2
					l-0.2,0.1c0,0-0.6,0.2-0.9,0.8c-0.3,0.5-0.3,1.1,0,1.8c0.4,2.3,2.6,2.4,2.7,2.4h0.2l0.1,0.2c0.2,0.8,0.6,1.3,1,1.4
					c0.9,0.3,2-0.7,2-0.7l0.1-0.1h0.1c0.5,0.1,1,0,1.3-0.4c1.2-1.2,0.9-4.7,0.9-5.1c-0.2-0.4-1.6-3.4-3.3-3.8c-0.5-0.1-1,0-1.4,0.3
					L882.2,78.1L882.2,78.1C882.3,78.1,882.3,78.1,882.2,78.1z"/>
			</g>
			<g>
				<path class="st5" d="M969.1,33.7c0,0,2.5,5.6,5.1,3.6c0,0,3.2,0.1,2.6-3.1c0,0,1.9-0.5,1.1-3c-0.4-2.5-3-2.5-3-2.5
					c-0.9-3.1-3.4-0.8-3.4-0.8C968.3,27.3,969.1,33.7,969.1,33.7"/>
				<path class="st3" d="M972.9,38c-0.2,0-0.3,0-0.5-0.1c-2-0.5-3.6-4-3.6-4.1v-0.1c0-0.2-0.5-4.1,1-5.6c0.4-0.4,1-0.6,1.6-0.5
					c0.3-0.3,1.4-1.1,2.4-0.7c0.6,0.2,1,0.7,1.3,1.6c0.6,0.1,2.7,0.4,3,2.7c0.3,0.8,0.2,1.6-0.1,2.2c-0.3,0.6-0.8,0.8-1,1
					c0.1,0.9,0,1.7-0.5,2.2c-0.7,0.9-1.9,1-2.3,1C973.7,37.8,973.3,38,972.9,38z M969.3,33.5c0.2,0.4,1.6,3.4,3.3,3.8
					c0.5,0.1,1,0,1.4-0.3L974,37h0.1c0,0,1.3,0,2-0.8c0.4-0.5,0.5-1.1,0.4-2V34l0.2-0.1c0,0,0.6-0.2,0.9-0.8c0.3-0.5,0.3-1.1,0-1.8
					c-0.4-2.3-2.6-2.4-2.7-2.4h-0.2l-0.1-0.2c-0.2-0.8-0.6-1.3-1-1.4c-0.9-0.3-2,0.7-2,0.7l-0.1,0.1h-0.1c-0.5-0.1-1,0-1.3,0.4
					C969,29.7,969.3,33.2,969.3,33.5z"/>
			</g>
			<g>
				<path class="st5" d="M969.1,81.3c0,0,2.5-5.6,5.1-3.6c0,0,3.2-0.1,2.6,3.1c0,0,1.9,0.5,1.1,3c-0.4,2.5-3,2.5-3,2.5
					c-0.9,3.1-3.4,0.8-3.4,0.8C968.3,87.8,969.1,81.3,969.1,81.3"/>
				<path class="st3" d="M973.3,88.2c-0.8,0-1.7-0.6-1.9-0.8c-0.6,0.1-1.2-0.1-1.6-0.5c-1.5-1.5-1-5.4-1-5.6v-0.1
					c0.1-0.1,1.6-3.6,3.6-4.1c0.6-0.2,1.2,0,1.8,0.4c0.3,0,1.6,0.1,2.3,1c0.5,0.6,0.6,1.3,0.5,2.2c0.3,0.1,0.7,0.4,1,1
					c0.3,0.6,0.3,1.4,0.1,2.3c-0.3,2.3-2.4,2.6-3,2.7c-0.3,0.9-0.7,1.4-1.3,1.6C973.6,88.2,973.4,88.2,973.3,88.2z M971.6,86.9
					L971.6,86.9c0.1,0.1,1.2,1.1,2.1,0.8c0.5-0.1,0.8-0.6,1-1.4l0.1-0.2h0.2c0.1,0,2.4,0,2.7-2.3c0.2-0.8,0.2-1.4,0-1.9
					c-0.3-0.6-0.9-0.8-0.9-0.8l-0.2-0.1v-0.2c0.2-0.9,0-1.5-0.4-2c-0.7-0.8-2-0.8-2-0.8H974l-0.1-0.1c-0.5-0.4-0.9-0.5-1.4-0.3
					c-1.7,0.4-3.1,3.4-3.3,3.8c0,0.4-0.4,3.9,0.9,5.1C970.5,86.8,971,87,971.6,86.9L971.6,86.9z"/>
			</g>
		</g>
		<g>
			<g>
				<path class="st3" d="M891.3,34.8c-3.2,4.6-7.7,3.8-7.7,3.8s0.7-2.3,3-3.6c0,0-1.6,0.5-4.5-2.6c4.2-1.6,5.3-0.2,5.3-0.2
					c-1.8-2.6-1.2-4.5-1.2-4.5S890.4,29.1,891.3,34.8z"/>
			</g>
			<g>
				<path class="st3" d="M891.3,80.3c-3.2-4.6-7.7-3.8-7.7-3.8s0.7,2.3,3,3.6c0,0-1.6-0.5-4.5,2.6c4.2,1.6,5.3,0.2,5.3,0.2
					c-1.8,2.6-1.2,4.5-1.2,4.5S890.4,85.9,891.3,80.3z"/>
			</g>
			<g>
				<path class="st3" d="M965.1,34.8c3.2,4.6,7.7,3.8,7.7,3.8s-0.7-2.3-3.1-3.6c0,0,1.6,0.5,4.5-2.6c-4.2-1.6-5.3-0.2-5.3-0.2
					c1.8-2.6,1.3-4.5,1.3-4.5S966,29.1,965.1,34.8z"/>
			</g>
			<g>
				<path class="st3" d="M965.1,80.3c3.2-4.6,7.7-3.8,7.7-3.8s-0.7,2.3-3.1,3.6c0,0,1.6-0.5,4.5,2.6c-4.2,1.6-5.3,0.2-5.3,0.2
					c1.8,2.6,1.3,4.5,1.3,4.5S966,85.9,965.1,80.3z"/>
			</g>
		</g>
		<g>
			<g>
				<path class="st4" d="M893.7,42c0,0-2.3-0.3-3.5,2.7l1.3-0.4c0,0-1.8,1.9-1.7,4.5l1-1.4c0,0-1.1,3.8,0.3,5.2c0,0,2-0.9,2.3-3.5
					l0.2,1.6c0,0,1.5-1.8,1.1-3.1l0.4,1.3c0,0,1.2-2.3,0.3-3.9l1,1.1c0,0,0-2.2-1.5-3.7C894,41.2,893.7,42,893.7,42z"/>
				<path class="st3" d="M891,52.8L891,52.8c-1.1-1.1-0.9-3.1-0.7-4.4l-0.7,1v-0.7c-0.1-1.7,0.7-3.2,1.2-4l-1,0.3l0.2-0.5
					c1.1-2.6,3-2.9,3.6-2.9c0.1-0.1,0.2-0.2,0.4-0.2c0.3-0.1,0.7,0.1,1.1,0.5c1.5,1.5,1.5,3.8,1.5,3.9v0.6l-0.7-0.7
					c0.2,1.5-0.6,3-0.6,3l-0.3,0.5l-0.2-0.6c-0.3,1-1,1.8-1,1.9l-0.4,0.4l-0.1-0.8c-0.6,1.7-2,2.4-2.1,2.4L891,52.8z M891.5,46
					l-0.4,1.4c0,0-1,3.4,0.1,4.8c0.5-0.3,1.7-1.2,2-3.3l0.2-2l0.4,3c0.4-0.6,0.9-1.6,0.7-2.4l0.5-0.1l0.2,0.7c0.3-0.7,0.6-2,0-3
					l-1.2-2l2.1,2.2c-0.1-0.8-0.4-1.9-1.3-2.8c-0.4-0.4-0.6-0.4-0.7-0.4c-0.1,0-0.1,0.1-0.1,0.1l-0.2,0.1h-0.2c-0.1,0-1.8-0.2-3,2
					l1.7-0.5l-0.7,0.7c0,0-1.4,1.5-1.6,3.5L891.5,46z"/>
			</g>
			<g>
				<path class="st4" d="M893.7,73.1c0,0-2.3,0.3-3.5-2.7l1.3,0.4c0,0-1.8-1.9-1.7-4.5l1,1.4c0,0-1.1-3.8,0.3-5.2c0,0,2,0.9,2.3,3.5
					l0.2-1.6c0,0,1.5,1.8,1.1,3.1l0.4-1.3c0,0,1.2,2.3,0.3,3.9l1-1.1c0,0,0,2.3-1.5,3.7C894,73.8,893.7,73.1,893.7,73.1z"/>
				<path class="st3" d="M894.1,73.6L894.1,73.6c-0.3,0-0.4-0.1-0.5-0.2c-0.6,0-2.5-0.2-3.6-2.9l-0.2-0.5l1,0.3
					c-0.6-0.8-1.3-2.2-1.2-4v-0.7l0.7,1c-0.2-1.3-0.4-3.3,0.6-4.3l0.1-0.1l0.2,0.1c0.1,0,1.5,0.7,2.1,2.4l0.1-0.8l0.4,0.4
					c0,0.1,0.7,0.9,1,1.9l0.2-0.6l0.3,0.5c0,0.1,0.8,1.5,0.6,3l0.7-0.7V69c0,0.1,0,2.4-1.5,3.9C894.7,73.3,894.3,73.6,894.1,73.6z
					 M893.9,72.9C893.9,72.9,893.9,73,893.9,72.9c0.2,0.1,0.4,0.1,0.8-0.3c0.9-0.9,1.2-2.1,1.3-2.8l-2.1,2.2l1.2-2
					c0.6-1,0.3-2.3,0-3l-0.2,0.7l-0.5-0.1c0.2-0.7-0.3-1.7-0.7-2.4l-0.4,3l-0.2-2c-0.2-2.1-1.5-3-2-3.3c-1.1,1.4-0.1,4.8-0.1,4.8
					l0.4,1.4l-1.4-2c0.2,2,1.6,3.4,1.6,3.5l0.7,0.7l-1.7-0.5c1.1,2.2,2.9,2,3,2h0.2L893.9,72.9z"/>
			</g>
			<g>
				<path class="st4" d="M962.8,42c0,0,2.3-0.3,3.5,2.7l-1.3-0.4c0,0,1.8,1.9,1.7,4.5l-1-1.4c0,0,1.1,3.8-0.2,5.2c0,0-2-0.9-2.3-3.5
					l-0.2,1.6c0,0-1.5-1.8-1.1-3.1l-0.4,1.3c0,0-1.2-2.3-0.3-3.9l-1,1.1c0,0,0-2.2,1.5-3.7C962.5,41.2,962.8,42,962.8,42z"/>
				<path class="st3" d="M965.4,52.8l-0.2-0.1c-0.1,0-1.5-0.7-2.1-2.4l-0.1,0.8l-0.4-0.4c0-0.1-0.7-0.9-1-1.9l-0.2,0.6l-0.3-0.5
					c0-0.1-0.8-1.5-0.6-3l-0.7,0.7V46c0-0.1,0-2.4,1.5-3.9c0.4-0.4,0.8-0.6,1.1-0.5c0.2,0,0.3,0.1,0.4,0.2c0.6,0,2.5,0.2,3.6,2.9
					l0.2,0.5l-1-0.3c0.6,0.8,1.3,2.2,1.2,4v0.7l-0.7-1C966.3,49.9,966.5,51.9,965.4,52.8L965.4,52.8z M963.1,47l0.2,2
					c0.2,2.1,1.5,3,2,3.3c1.1-1.4,0.1-4.8,0.1-4.8L965,46l1.4,2c-0.2-2-1.6-3.4-1.6-3.5l-0.7-0.7l1.7,0.5c-1.1-2.2-2.9-2-3-2h-0.2
					l-0.1-0.2c0,0,0-0.1-0.1-0.1c-0.1,0-0.3,0-0.7,0.4c-0.9,0.9-1.2,2.1-1.3,2.8l2.1-2.2l-1.2,2c-0.6,1-0.3,2.3,0,3l0.2-0.7l0.5,0.1
					c-0.2,0.7,0.3,1.7,0.7,2.4L963.1,47z"/>
			</g>
			<g>
				<path class="st4" d="M962.8,73.1c0,0,2.3,0.3,3.5-2.7l-1.3,0.4c0,0,1.8-1.9,1.7-4.5l-1,1.4c0,0,1.1-3.8-0.2-5.2
					c0,0-2,0.9-2.3,3.5l-0.2-1.6c0,0-1.5,1.8-1.1,3.1l-0.4-1.3c0,0-1.2,2.3-0.3,3.9l-1-1.1c0,0,0,2.3,1.5,3.7
					C962.5,73.8,962.8,73.1,962.8,73.1z"/>
				<path class="st3" d="M962.4,73.6c-0.3,0-0.6-0.2-1-0.6c-1.5-1.5-1.5-3.8-1.5-3.9v-0.6l0.7,0.7c-0.2-1.5,0.6-3,0.6-3l0.3-0.5
					l0.2,0.6c0.3-1,1-1.8,1-1.9l0.4-0.4l0.1,0.8c0.7-1.7,2-2.4,2.1-2.4l0.2-0.1l0.1,0.1c1,1,0.8,3,0.6,4.3l0.7-1v0.7
					c0.1,1.7-0.7,3.2-1.2,4l1-0.3l-0.2,0.5c-1.1,2.6-3,2.9-3.6,2.9C962.8,73.5,962.7,73.6,962.4,73.6
					C962.5,73.6,962.4,73.6,962.4,73.6z M960.4,69.8c0.1,0.8,0.4,1.9,1.3,2.8c0.4,0.4,0.6,0.4,0.7,0.4s0.1-0.1,0.1-0.1l0.1-0.2h0.2
					c0.1,0,1.8,0.2,3-2l-1.7,0.5l0.7-0.7c0,0,1.4-1.5,1.6-3.5l-1.4,2l0.4-1.4c0,0,1-3.4-0.1-4.8c-0.5,0.3-1.8,1.2-2,3.3l-0.2,2
					l-0.4-3c-0.4,0.6-0.9,1.6-0.7,2.4l-0.5,0.1l-0.2-0.7c-0.3,0.7-0.6,2,0,3l1.2,2L960.4,69.8z"/>
			</g>
		</g>
		<g>
			<g>
				<path class="st3" d="M869.7,57.8c-3.4,0.5-5.6,4.1-5.6,4.1c2,2.7,7.9,1.2,7.9,1.2c-2.5,1.7-2.5,7-2.5,7c5.2,0.2,6.3-3.9,6.3-3.9
					c-0.9,2.7,1.6,6.8,1.6,6.8c-0.5-2.9,10.8-15.2,10.8-15.2S877,45.5,877.4,42.6c0,0-2.5,4.1-1.6,6.8c0,0-1.1-4.1-6.3-3.9
					c0,0,0,5.3,2.5,7c0,0-5.8-1.5-7.9,1.2C864.1,53.7,866.4,57.2,869.7,57.8"/>
			</g>
			<g>
				<path class="st3" d="M986.6,57.8c3.4,0.5,5.6,4.1,5.6,4.1c-2,2.7-7.9,1.2-7.9,1.2c2.5,1.7,2.5,7,2.5,7c-5.2,0.2-6.3-3.9-6.3-3.9
					c0.9,2.7-1.6,6.8-1.6,6.8c0.5-2.9-10.8-15.2-10.8-15.2s11.2-12.3,10.8-15.2c0,0,2.5,4.1,1.6,6.8c0,0,1.1-4.1,6.3-3.9
					c0,0,0,5.3-2.5,7c0,0,5.8-1.5,7.9,1.2C992.2,53.7,990,57.2,986.6,57.8"/>
			</g>
		</g>
		<g>
			<g>
				<path class="st6" d="M912.3,54.8c0-0.8,0-1.3-1-1.3c-1,0-0.9,0.5-0.9,1.3v5.7c0,0.8-0.2,1.3,0.9,1.3c1,0,1-0.5,1-1.3V54.8z"/>
				<path class="st3" d="M911.3,62c-0.4,0-0.7-0.1-0.9-0.3c-0.2-0.2-0.2-0.6-0.2-1c0-0.1,0-0.2,0-0.3v-5.7c0-0.1,0-0.2,0-0.3
					c0-0.4,0-0.8,0.2-1c0.2-0.2,0.5-0.3,0.9-0.3c1.3,0,1.3,0.8,1.3,1.6v5.7C912.6,61.3,912.6,62,911.3,62z M911.3,53.8
					c-0.4,0-0.5,0.1-0.5,0.1c-0.1,0.1-0.1,0.3-0.1,0.6c0,0.1,0,0.2,0,0.3v5.7c0,0.1,0,0.2,0,0.3c0,0.3,0,0.5,0.1,0.6
					c0,0.1,0.2,0.1,0.5,0.1c0.8,0,0.8-0.2,0.8-1.1v-5.7C912.1,54,912.1,53.8,911.3,53.8z"/>
			</g>
			<g>
				<path class="st6" d="M931,48.2c0.8,0,1.2,0,1.2-1.1s-0.4-0.9-1.2-0.9h-5.3c-0.8,0-1.2-0.2-1.2,0.9c0,1.1,0.4,1.1,1.2,1.1H931z"
					/>
				<path class="st3" d="M931,48.5h-5.3c-0.8,0-1.5,0-1.5-1.4c0-0.5,0.1-0.8,0.3-1c0.2-0.2,0.6-0.2,0.9-0.2c0.1,0,0.2,0,0.3,0h5.3
					c0.1,0,0.2,0,0.3,0c0.4,0,0.7,0,0.9,0.2c0.2,0.2,0.3,0.5,0.3,1C932.4,48.5,931.7,48.5,931,48.5z M925.1,46.5
					c-0.2,0-0.3,0-0.3,0.1c-0.1,0.1-0.1,0.2-0.1,0.6c0,0.8,0.2,0.8,1,0.8h5.3c0.8,0,1,0,1-0.8c0-0.4-0.1-0.5-0.1-0.6
					c-0.1-0.1-0.3-0.1-0.6-0.1c-0.1,0-0.2,0-0.3,0h-5.3c-0.1,0-0.2,0-0.3,0S925.2,46.5,925.1,46.5z"/>
			</g>
			<g>
				<path class="st6" d="M943.9,54.8c0-0.8,0-1.3,1-1.3s0.9,0.5,0.9,1.3v5.7c0,0.8,0.2,1.3-0.9,1.3c-1,0-1-0.5-1-1.3V54.8z"/>
				<path class="st3" d="M944.9,62c-1.3,0-1.3-0.8-1.3-1.6v-5.7c0-0.8,0-1.6,1.3-1.6c0.4,0,0.7,0.1,0.9,0.3c0.2,0.2,0.2,0.6,0.2,1
					c0,0.1,0,0.2,0,0.3v5.7c0,0.1,0,0.2,0,0.3c0,0.4,0,0.8-0.2,1C945.6,62,945.3,62,944.9,62z M944.9,53.8c-0.8,0-0.8,0.2-0.8,1.1
					v5.7c0,0.9,0,1.1,0.8,1.1c0.4,0,0.5-0.1,0.5-0.1c0.1-0.1,0.1-0.3,0.1-0.6c0-0.1,0-0.2,0-0.3V55c0-0.1,0-0.2,0-0.3
					c0-0.3,0-0.5-0.1-0.6C945.4,53.8,945.2,53.8,944.9,53.8z"/>
			</g>
			<g>
				<path class="st6" d="M931,67.1c0.8,0,1.2,0,1.2,1.1s-0.4,0.9-1.2,0.9h-5.3c-0.8,0-1.2,0.2-1.2-0.9s0.4-1.1,1.2-1.1H931z"/>
				<path class="st3" d="M931.5,69.2c-0.1,0-0.2,0-0.2,0c-0.1,0-0.2,0-0.3,0h-5.3c-0.1,0-0.2,0-0.3,0c-0.4,0-0.7,0-0.9-0.2
					c-0.2-0.2-0.3-0.5-0.3-1c0-1.4,0.7-1.4,1.5-1.4h5.3c0.8,0,1.5,0,1.5,1.4c0,0.5-0.1,0.8-0.3,1C932,69.2,931.7,69.2,931.5,69.2z
					 M925.7,68.8h5.3c0.1,0,0.2,0,0.3,0c0.3,0,0.5,0,0.6-0.1c0.1-0.1,0.1-0.2,0.1-0.6c0-0.8-0.2-0.8-1-0.8h-5.3c-0.8,0-1,0-1,0.8
					c0,0.4,0.1,0.5,0.1,0.6c0.1,0.1,0.3,0.1,0.6,0.1C925.5,68.8,925.6,68.8,925.7,68.8z"/>
			</g>
		</g>
		<g>
			<g>
				<path class="st4" d="M910.4,56.5c-2.6-4.3-7.3-2.5-7.3-2.5c0.3,1.8,3.2,2.5,3.2,2.5c-3.6-1.1-5.8,1.1-5.8,1.1s2.2,2.3,5.8,1.1
					c0,0-3,0.8-3.2,2.5c0,0,4.7,1.8,7.3-2.5V56.5z"/>
				<path class="st3" d="M905.4,62c-1.3,0-2.3-0.4-2.4-0.4l-0.2-0.1v-0.2c0.1-0.8,0.8-1.5,1.5-1.9l0,0c-2.4,0-3.9-1.5-4-1.5
					l-0.2-0.2l0.2-0.2c0.1-0.1,1.5-1.5,4-1.5l0,0c-0.7-0.4-1.4-1.1-1.5-1.9v-0.2l0.2-0.1c0,0,4.9-1.8,7.6,2.7v0.1v2.4V59
					C909.2,61.5,907,62,905.4,62z M903.4,61.2c0.9,0.3,4.6,1.1,6.8-2.4v-2.1c-2.2-3.5-5.8-2.7-6.8-2.4c0.4,1.2,2.2,1.9,2.8,2.1
					c0.1,0,0.1,0,0.2,0.1l-0.1,0.5c0,0-0.1,0-0.2-0.1c-2.7-0.8-4.5,0.5-5.1,1c0.6,0.5,2.4,1.7,5.1,1c0.1,0,0.2-0.1,0.2-0.1l0.1,0.5
					c-0.1,0-0.1,0-0.2,0.1C905.6,59.3,903.8,60,903.4,61.2z"/>
			</g>
			<g>
				<path class="st4" d="M929.4,46.2c4-2.8,2.4-7.9,2.4-7.9c-1.6,0.3-2.4,3.5-2.4,3.5c1.1-3.8-1.1-6.2-1.1-6.2s-2.1,2.4-1.1,6.2
					c0,0-0.7-3.2-2.4-3.5c0,0-1.7,5.1,2.4,7.9H929.4z"/>
				<path class="st3" d="M929.4,46.5h-2.3H927c-4.2-2.9-2.5-8.1-2.5-8.2l0.1-0.2h0.2c0.8,0.1,1.4,0.8,1.8,1.6c0-2.6,1.4-4.2,1.4-4.3
					l0.2-0.2l0.2,0.2c0.1,0.1,1.4,1.6,1.4,4.3c0.4-0.8,1-1.5,1.8-1.6h0.2l0.1,0.2C932,38.3,933.7,43.7,929.4,46.5L929.4,46.5z
					 M927.3,46h2c3.3-2.4,2.5-6.3,2.3-7.3c-1,0.4-1.6,2.1-1.9,3c0,0.1,0,0.2-0.1,0.3l-0.5-0.1c0,0,0-0.1,0.1-0.2
					c0.7-2.8-0.4-4.8-0.9-5.5c-0.5,0.7-1.6,2.7-0.9,5.5c0,0.1,0.1,0.2,0.1,0.2L927,42c0-0.1,0-0.2-0.1-0.3c-0.3-0.9-0.9-2.6-1.9-3
					C924.8,39.8,924,43.7,927.3,46z"/>
			</g>
			<g>
				<path class="st4" d="M929.4,69.1c4,2.8,2.4,7.9,2.4,7.9c-1.6-0.3-2.4-3.5-2.4-3.5c1.1,3.8-1.1,6.2-1.1,6.2s-2.1-2.4-1.1-6.2
					c0,0-0.7,3.2-2.4,3.5c0,0-1.7-5.1,2.4-7.9H929.4z"/>
				<path class="st3" d="M928.3,80.1l-0.2-0.2c-0.1-0.1-1.4-1.6-1.4-4.3c-0.4,0.8-1,1.5-1.8,1.6h-0.2l-0.1-0.2
					c0-0.1-1.7-5.3,2.5-8.2h0.1h2.3h0.1c4.2,2.9,2.5,8.1,2.5,8.2l-0.1,0.2h-0.2c-0.8-0.1-1.4-0.8-1.8-1.6c0,2.6-1.4,4.2-1.4,4.3
					L928.3,80.1z M927.4,73.8c-0.7,2.9,0.4,4.8,0.9,5.5c0.5-0.7,1.6-2.7,0.9-5.5c0-0.1-0.1-0.2-0.1-0.2l0.5-0.1c0,0.1,0,0.2,0.1,0.3
					c0.3,0.9,0.9,2.6,1.9,3c0.3-1,1.1-4.9-2.3-7.3h-2c-3.3,2.3-2.5,6.3-2.3,7.3c1-0.4,1.6-2.1,1.9-3c0-0.1,0-0.2,0.1-0.3l0.5,0.1
					C927.5,73.4,927.5,73.6,927.4,73.8z"/>
			</g>
			<g>
				<path class="st4" d="M945.9,56.5c2.6-4.3,7.3-2.5,7.3-2.5c-0.3,1.8-3.2,2.5-3.2,2.5c3.6-1.1,5.8,1.1,5.8,1.1s-2.2,2.3-5.8,1.1
					c0,0,3,0.8,3.2,2.5c0,0-4.7,1.8-7.3-2.5V56.5z"/>
				<path class="st3" d="M950.9,62c-1.6,0-3.8-0.6-5.3-3v-0.1v-2.4v-0.1c2.7-4.5,7.6-2.7,7.6-2.7l0.2,0.1V54
					c-0.1,0.8-0.8,1.5-1.5,1.9l0,0c2.4,0,3.9,1.5,4,1.5l0.2,0.2l-0.2,0.2c-0.1,0.1-1.5,1.5-4,1.5l0,0c0.7,0.4,1.4,1.1,1.5,1.9v0.2
					l-0.2,0.1C953.3,61.5,952.3,62,950.9,62z M946.1,58.8c2.2,3.6,5.8,2.7,6.8,2.4c-0.4-1.2-2.2-1.9-2.8-2.1c-0.1,0-0.1,0-0.2-0.1
					l0.1-0.5c0,0,0.1,0,0.2,0.1c2.7,0.7,4.5-0.5,5.1-1c-0.6-0.5-2.4-1.7-5.1-1c-0.1,0-0.2,0.1-0.2,0.1l-0.1-0.5c0.1,0,0.1,0,0.2-0.1
					c0.6-0.2,2.4-0.9,2.8-2.1c-0.9-0.3-4.6-1.1-6.8,2.4V58.8z"/>
			</g>
		</g>
		<g>
			<g>
				<path class="st5" d="M883.1,57.8c0,0-1.9,6-4.6,5.6c0,0-4,2.4-4.3-1.7c0,0-4.5-0.2-2.5-3.9c-2-3.6,2.5-3.9,2.5-3.9
					c0.2-4.1,4.3-1.7,4.3-1.7C881.2,51.7,883.1,57.8,883.1,57.8z"/>
				<path class="st3" d="M876.2,64.2c-0.4,0-0.7-0.1-1.1-0.3c-0.6-0.4-1-1.1-1.1-2.2c-0.6-0.1-2.2-0.4-2.8-1.5
					c-0.4-0.7-0.3-1.6,0.3-2.6c-0.5-1-0.6-1.9-0.3-2.6c0.6-1.1,2.2-1.4,2.8-1.5c0.1-1.1,0.5-1.8,1.1-2.2c1.2-0.7,3,0.2,3.4,0.4
					c2.8-0.4,4.7,5.5,4.8,5.7v0.1v0.1c-0.1,0.3-2,6.1-4.8,5.7C878.2,63.7,877.2,64.2,876.2,64.2z M876.2,51.8
					c-0.3,0-0.6,0.1-0.8,0.2c-0.5,0.3-0.8,1-0.9,2v0.2h-0.2c0,0-2,0.1-2.6,1.2c-0.3,0.6-0.2,1.3,0.3,2.2l0.1,0.1l-0.1,0.1
					c-0.5,0.9-0.6,1.7-0.3,2.2c0.6,1.1,2.6,1.2,2.6,1.2h0.2v0.2c0.1,1,0.3,1.7,0.9,2c1.1,0.6,3-0.5,3-0.5h0.1h0.1
					c2.3,0.4,4.1-4.6,4.3-5.3c-0.2-0.7-2-5.7-4.3-5.3h-0.1h-0.1C878.4,52.3,877.2,51.8,876.2,51.8z"/>
			</g>
			<g>
				<path class="st5" d="M973.2,57.8c0,0,1.9,6,4.6,5.6c0,0,4,2.4,4.3-1.7c0,0,4.5-0.2,2.5-3.9c2-3.6-2.5-3.9-2.5-3.9
					c-0.2-4.1-4.3-1.7-4.3-1.7C975.1,51.7,973.2,57.8,973.2,57.8z"/>
				<path class="st3" d="M980.1,64.2c-1,0-2.1-0.5-2.3-0.7c-2.8,0.4-4.7-5.5-4.8-5.7v-0.1v-0.1c0.1-0.3,2-6.1,4.8-5.7
					c0.4-0.2,2.2-1.1,3.4-0.4c0.6,0.4,1,1.1,1.1,2.2c0.6,0.1,2.2,0.3,2.8,1.5c0.4,0.7,0.3,1.6-0.3,2.6c0.5,1,0.6,1.9,0.3,2.6
					c-0.6,1.1-2.2,1.4-2.8,1.5c-0.1,1.1-0.5,1.8-1.1,2.2C980.9,64.2,980.5,64.2,980.1,64.2z M977.9,63L977.9,63
					c0.1,0.1,2,1.2,3.1,0.5c0.5-0.3,0.8-1,0.9-2v-0.2h0.2c0,0,2-0.1,2.6-1.2c0.3-0.6,0.2-1.3-0.3-2.2l-0.1-0.1l0.1-0.1
					c0.5-0.9,0.6-1.7,0.3-2.2c-0.6-1.1-2.6-1.2-2.6-1.2h-0.2V54c-0.1-1-0.4-1.7-0.9-2c-1.1-0.6-3,0.5-3,0.5h-0.1h-0.1
					c-2.3-0.4-4.1,4.6-4.3,5.3C973.7,58.5,975.5,63.5,977.9,63L977.9,63z"/>
			</g>
		</g>
		<g>
			<g>
				<g>
					<path class="st5" d="M865.9,52.2c0,0-2-4.6,3.6-5.3l2.5,5.6L865.9,52.2z"/>
				</g>
				<g>
					<path class="st5" d="M875.8,49.2c0,0-0.2-3.9,0.7-5.3c0.9-1.5-5.2-2.1-5.2,1.2C871.3,46.5,875.8,49.2,875.8,49.2z"/>
				</g>
				<g>
					<path class="st5" d="M865.9,63.2c0,0-2,4.6,3.6,5.3L872,63L865.9,63.2z"/>
					<path class="st3" d="M869.7,68.8h-0.2c-1.9-0.2-3.2-0.9-3.8-2.1c-0.9-1.6-0.1-3.5,0-3.6l0.1-0.1l6.6-0.3L869.7,68.8z
						 M866.1,63.5c-0.2,0.4-0.6,1.8,0.1,3c0.5,0.9,1.6,1.6,3.2,1.8l2.2-5L866.1,63.5z"/>
				</g>
				<g>
					<path class="st5" d="M875.8,66.2c0,0-0.2,3.9,0.7,5.3c0.9,1.5-5.2,2.1-5.2-1.2C871.3,68.8,875.8,66.2,875.8,66.2z"/>
					<path class="st3" d="M874.5,72.9c-0.5,0-1.1-0.1-1.6-0.3c-1.2-0.4-1.8-1.3-1.8-2.4c0-1.6,4.2-4.1,4.6-4.3l0.4-0.2v0.5
						c0,0-0.2,3.8,0.6,5.2c0.2,0.3,0.2,0.6,0,0.9C876.3,72.7,875.4,72.9,874.5,72.9z M875.5,66.7c-1.7,1-4,2.8-4,3.6
						c0,1.1,0.8,1.7,1.5,1.9c1.3,0.5,2.9,0.2,3.2-0.3c0.1-0.1,0.1-0.1,0-0.3C875.5,70.4,875.5,67.8,875.5,66.7z"/>
				</g>
				<g>
					<path class="st5" d="M870.6,57.8l-4.4,3c-1.3-0.5-3.7-1.1-4.4-3c0.7-1.9,3.2-2.4,4.6-2.9L870.6,57.8z"/>
					<path class="st3" d="M866.3,61l-0.6-0.2c-1.4-0.5-3.5-1.2-4.1-3v-0.1v-0.1c0.6-1.7,2.6-2.3,4-2.8c0.3-0.1,0.5-0.2,0.7-0.2h0.1
						l4.6,3.1L866.3,61z M862.1,57.8c0.6,1.6,2.4,2.2,3.8,2.6c0.1,0,0.2,0.1,0.3,0.1l4-2.8l-3.8-2.6c-0.2,0.1-0.4,0.1-0.6,0.2
						C864.4,55.8,862.7,56.2,862.1,57.8z"/>
				</g>
			</g>
			<g>
				<g>
					<path class="st5" d="M990.4,52.2c0,0,2-4.6-3.6-5.3l-2.5,5.6L990.4,52.2z"/>
					<path class="st3" d="M984,52.7l2.7-6.1h0.2c1.9,0.2,3.2,0.9,3.8,2.1c0.9,1.6,0.1,3.5,0,3.6l-0.1,0.1L984,52.7z M987,47.2
						l-2.2,5l5.5-0.2c0.2-0.4,0.6-1.8-0.1-3C989.7,48,988.6,47.3,987,47.2z"/>
				</g>
				<g>
					<path class="st5" d="M980.5,49.2c0,0,0.2-3.9-0.7-5.3c-0.9-1.5,5.2-2.1,5.2,1.2C985,46.5,980.5,49.2,980.5,49.2z"/>
					<path class="st3" d="M980.3,49.8v-0.5c0,0,0.2-3.8-0.6-5.2c-0.2-0.3-0.2-0.6,0-0.9c0.5-0.7,2.4-0.9,3.8-0.4
						c1.2,0.4,1.8,1.3,1.8,2.4c0,1.6-4.2,4.1-4.6,4.3L980.3,49.8z M981.9,43c-0.8,0-1.6,0.2-1.8,0.5c-0.1,0.1-0.1,0.1,0,0.3
						c0.8,1.2,0.8,3.9,0.7,5c1.7-1,4-2.8,4-3.6c0-1.1-0.8-1.7-1.5-1.9C982.8,43,982.3,43,981.9,43z"/>
				</g>
				<g>
					<path class="st5" d="M990.4,63.2c0,0,2,4.6-3.6,5.3l-2.5-5.6L990.4,63.2z"/>
					<path class="st3" d="M986.7,68.8l-2.7-6.1l6.6,0.3l0.1,0.1c0,0.1,0.9,2,0,3.6c-0.6,1.1-1.9,1.8-3.8,2.1H986.7z M984.8,63.3
						l2.2,5c1.6-0.2,2.7-0.8,3.2-1.8c0.6-1.2,0.2-2.6,0.1-3L984.8,63.3z"/>
				</g>
				<g>
					<path class="st5" d="M980.5,66.2c0,0,0.2,3.9-0.7,5.3c-0.9,1.5,5.2,2.1,5.2-1.2C985,68.8,980.5,66.2,980.5,66.2z"/>
					<path class="st5" d="M981.8,72.9c-0.9,0-1.8-0.3-2.2-0.7c-0.2-0.3-0.2-0.6,0-0.9c0.8-1.4,0.6-5.1,0.6-5.2v-0.5l0.4,0.2
						c0.5,0.3,4.6,2.8,4.6,4.3c0,1.1-0.6,2-1.8,2.4C983,72.8,982.4,72.9,981.8,72.9z M980.8,66.7c0,1.1,0,3.8-0.7,5
						c-0.1,0.1-0.1,0.2,0,0.3c0.3,0.4,1.9,0.7,3.2,0.3c0.7-0.2,1.5-0.8,1.5-1.9C984.8,69.4,982.5,67.7,980.8,66.7z"/>
				</g>
				<g>
					<path class="st5" d="M985.7,57.8l4.4,3c1.3-0.5,3.7-1.1,4.4-3c-0.7-1.9-3.2-2.4-4.6-2.9L985.7,57.8z"/>
					<path class="st3" d="M990.1,61l-4.8-3.3l4.6-3.1h0.1c0.2,0.1,0.5,0.2,0.7,0.2c1.4,0.4,3.4,1,4,2.8v0.1v0.1
						c-0.6,1.9-2.7,2.6-4.1,3L990.1,61z M986.2,57.8l4,2.8c0.1,0,0.2-0.1,0.3-0.1c1.3-0.5,3.2-1.1,3.8-2.6c-0.6-1.4-2.3-2-3.6-2.4
						c-0.2-0.1-0.4-0.1-0.6-0.2L986.2,57.8z"/>
				</g>
			</g>
		</g>
	</g>
	<g>
		<g>
			<path class="st1" d="M1071.8,23.6c-0.7,0-5.7,1.8-6.1,8.8c0,0-9.5-1.1-9.5,9.1c0,2.3,2.9,2.9,4,5c1.5,2.8-2.3,5.7-4.4,3.4
				c-1.5-1.7-2.2-7.1-5.5-7.1c-3.3,0-6.9,2.9-6.4,9c0,0-5.5,1.3-7.8,6.5c2.3,5.2,7.8,6.5,7.8,6.5c-0.5,6.1,3.2,9,6.4,9
				c3.3,0,4-5.4,5.5-7.1c2.1-2.4,5.9,0.6,4.4,3.4c-1.1,2.1-4,2.7-4,5c0,10.2,9.5,9.1,9.5,9.1c1.1,6.9,6.1,6.8,6.1,6.8"/>
			<path class="st3" d="M1071.8,91.3c-0.3,0-5.3-0.1-6.5-6.8c-1.2,0.1-4.4,0-6.9-2.3c-1.8-1.7-2.7-4.1-2.7-7.4
				c0-1.6,1.1-2.5,2.2-3.3c0.7-0.6,1.4-1.1,1.9-1.9c0.6-1.2,0.1-2.3-0.8-3c-0.7-0.6-1.9-0.8-2.9,0.2c-0.4,0.5-0.8,1.4-1.2,2.4
				c-0.9,2.2-2.1,4.9-4.6,4.9c-1.8,0-3.6-0.8-4.9-2.2c-1.1-1.2-2.2-3.3-2.1-6.8c-1.4-0.4-5.7-2.1-7.7-6.7l-0.1-0.2l0.1-0.2
				c2-4.6,6.4-6.3,7.7-6.7c-0.2-3.5,1-5.7,2.1-6.9c1.3-1.4,3-2.2,4.9-2.2c2.5,0,3.7,2.7,4.6,4.9c0.4,1,0.8,1.9,1.2,2.4
				c0.9,1,2.1,0.8,2.9,0.2s1.4-1.8,0.8-3c-0.4-0.8-1.1-1.4-1.9-1.9c-1.1-0.9-2.2-1.7-2.2-3.3c0-3.2,0.9-5.7,2.7-7.4
				c2.4-2.2,5.6-2.3,6.8-2.3c0.6-7,5.8-8.8,6.6-8.8v1c-0.6,0-5.3,1.8-5.6,8.3v0.5l-0.5-0.1c0,0-4-0.4-6.6,2
				c-1.6,1.5-2.4,3.7-2.4,6.6c0,1.1,0.8,1.7,1.8,2.5c0.8,0.6,1.6,1.3,2.1,2.2c0.9,1.7,0.1,3.5-1.1,4.3c-1.2,0.9-2.9,1.1-4.2-0.3
				c-0.5-0.6-1-1.6-1.4-2.7c-0.8-2-1.8-4.3-3.7-4.3c-1.5,0-3.1,0.7-4.1,1.9c-1,1.1-2.1,3.1-1.8,6.5v0.4l-0.4,0.1
				c-0.1,0-5.2,1.3-7.4,6c2.2,4.8,7.3,6,7.4,6l0.4,0.1v0.4c-0.3,3.4,0.8,5.4,1.8,6.5c1.1,1.2,2.6,1.9,4.1,1.9c1.9,0,2.8-2.3,3.7-4.3
				c0.5-1.1,0.9-2.1,1.4-2.7c1.3-1.4,3-1.2,4.2-0.3c1.2,0.9,2,2.6,1.1,4.3c-0.5,1-1.3,1.6-2.1,2.2c-1,0.8-1.8,1.4-1.8,2.5
				c0,2.9,0.8,5.1,2.4,6.6c2.6,2.4,6.5,2,6.6,2l0.5-0.1l0.1,0.5c1,6.4,5.4,6.4,5.6,6.4L1071.8,91.3L1071.8,91.3z"/>
		</g>
		<g>
			<g>
				<path class="st3" d="M1054.2,56.5c20.8-5.7,11.5-23.9,11.5-23.9l0.4-2.3c0,0,12.2,21.6-11.9,27.9V56.5z"/>
			</g>
			<g>
				<path class="st3" d="M1054.2,59.8c20.8,5.7,11.6,23.9,11.6,23.9l0.6,2.5c0,0,12-21.7-12.1-28L1054.2,59.8L1054.2,59.8z"/>
			</g>
		</g>
		<g>
			<g>
				<path class="st3" d="M1054.5,54.5c0-1.1,0-1.7-1-1.7c-1,0-0.9,0.6-0.9,1.7v7.1c0,1.1-0.2,1.7,0.9,1.7c1.1,0,1-0.6,1-1.7V54.5z"
					/>
			</g>
		</g>
		<g>
			<g>
				<path class="st4" d="M1052.5,56.7c-2.5-5.4-7.1-3.2-7.1-3.2c0.2,2.2,3.1,3.2,3.1,3.2c-3.4-1.4-5.6,1.4-5.6,1.4s2.1,2.8,5.6,1.4
					c0,0-2.9,1-3.1,3.2c0,0,4.6,2.3,7.1-3.2V56.7z"/>
				<path class="st3" d="M1047.7,63.3c-1.3,0-2.3-0.5-2.3-0.5l-0.2-0.1v-0.2c0.1-1.1,0.9-1.9,1.6-2.5c-2.5,0.1-4-1.9-4-1.9l-0.1-0.2
					l0.1-0.2c0,0,1.5-2,4-1.9c-0.8-0.6-1.5-1.4-1.6-2.5v-0.2l0.2-0.1c0,0,4.8-2.3,7.4,3.3v0.1v3
					C1051.3,62.7,1049.3,63.3,1047.7,63.3z M1045.7,62.5c0.8,0.3,4.4,1.5,6.5-3.1v-2.7c-2.1-4.5-5.7-3.4-6.5-3.1
					c0.3,1.6,2.1,2.5,2.7,2.7c0.1,0,0.1,0,0.2,0.1l-0.2,0.5c0,0-0.1,0-0.2-0.1c-2.6-1-4.5,0.7-4.9,1.3c0.5,0.6,2.3,2.2,4.9,1.3
					c0.1-0.1,0.2-0.1,0.2-0.1l0.2,0.5c-0.1,0-0.1,0.1-0.2,0.1C1047.9,60,1046.1,61,1045.7,62.5z"/>
			</g>
			<g>
				<path class="st3" d="M1070.2,44.2c-5-2.7-4.3-7.6-4.3-7.6c2,0.3,3,3.4,3,3.4c-1.3-3.7,1.3-6,1.3-6V44.2z"/>
			</g>
			<g>
				<path class="st3" d="M1070.2,72.9c-5,2.7-4.4,7.6-4.4,7.6c2-0.3,3-3.4,3-3.4c-1.3,3.7,1.4,6.1,1.4,6.1V72.9z"/>
			</g>
		</g>
	</g>
	<g>
		<ellipse class="st6" cx="9" cy="90.7" rx="1.5" ry="1.6"/>
		<path class="st3" d="M9,92.8c-1.1,0-2-1-2-2.1c0-1.2,0.9-2.1,2-2.1s2,1,2,2.1C11,91.8,10.1,92.8,9,92.8z M9,89.6
			c-0.6,0-1,0.5-1,1.1s0.5,1.1,1,1.1c0.6,0,1-0.5,1-1.1S9.5,89.6,9,89.6z"/>
	</g>
	<g>
		<ellipse class="st6" cx="9.1" cy="24.1" rx="1.5" ry="1.6"/>
		<path class="st3" d="M9.1,26.2c-1.1,0-2-1-2-2.1S8,22,9.1,22s2,1,2,2.1S10.2,26.2,9.1,26.2z M9.1,23c-0.6,0-1,0.5-1,1.1
			s0.5,1.1,1,1.1c0.6,0,1-0.5,1-1.1S9.7,23,9.1,23z"/>
	</g>
	<g>
		<ellipse class="st6" cx="1070.4" cy="90.6" rx="1.5" ry="1.6"/>
		<path class="st3" d="M1070.4,92.7c-1.1,0-2-1-2-2.1s0.9-2.1,2-2.1c1.1,0,2,1,2,2.1S1071.5,92.7,1070.4,92.7z M1070.4,89.4
			c-0.6,0-1,0.5-1,1.1s0.5,1.1,1,1.1c0.6,0,1-0.5,1-1.1S1071,89.4,1070.4,89.4z"/>
	</g>
	<g>
		<ellipse class="st6" cx="1070.6" cy="24" rx="1.5" ry="1.6"/>
		<path class="st3" d="M1070.6,26.1c-1.1,0-2-1-2-2.1s0.9-2.1,2-2.1c1.1,0,2,1,2,2.1S1071.7,26.1,1070.6,26.1z M1070.6,22.9
			c-0.6,0-1,0.5-1,1.1s0.5,1.1,1,1.1c0.5,0,1-0.5,1-1.1S1071.1,22.9,1070.6,22.9z"/>
	</g>
</g>
</svg>
