<?xml version="1.0" encoding="utf-8"?>
<!-- Generator: Adobe Illustrator 27.1.1, SVG Export Plug-In . SVG Version: 6.00 Build 0)  -->
<svg version="1.1" id="Layer_2_00000086681379509670117170000000077525731592269708_"
	 xmlns="http://www.w3.org/2000/svg" xmlns:xlink="http://www.w3.org/1999/xlink" x="0px" y="0px" viewBox="0 0 1080 115"
	 style="enable-background:new 0 0 1080 115;" xml:space="preserve">
<style type="text/css">
	.st0{fill:none;}
	.st1{fill:#2E2F34;}
	.st2{fill:#494949;}
	.st3{fill:#606060;}
	.st4{fill:#212121;}
</style>
<g>
	<g>
		<path class="st0" d="M1.2,104.8V10.1c0-4.6,3.6-8.3,8-8.3h1061.1c4.4,0,8,3.7,8,8.3v94.7c0,4.6-3.6,8.3-8,8.3H9.2
			C4.8,113.2,1.2,109.4,1.2,104.8z"/>
	</g>
	<g>
		<path class="st1" d="M0.5,105.6V9.4c0-4.6,3.6-8.4,8-8.4h1063c4.4,0,8,3.7,8,8.4v96.1c0,4.6-3.6,8.4-8,8.4H8.5
			C4,113.9,0.5,110.2,0.5,105.6z M288.7,104.8h502.9c1.9,0,3.7-0.9,5.1-2.4l35.8-39.1c3-3.3,3-8.9,0-12.2l-35.7-38.6
			c-1.4-1.5-3.2-2.4-5.1-2.4H288.8c-1.9,0-3.7,0.8-5,2.3L247.5,51c-3,3.3-3.1,8.9,0,12.3l36.2,39.2
			C285,103.9,286.8,104.8,288.7,104.8z M884.9,105.4h79.6c2.2,0,4.3-0.9,5.8-2.6l35.5-39.2c2.9-3.2,2.9-8.2,0-11.5l-35.5-39.9
			c-1.5-1.7-3.6-2.7-5.8-2.7H885c-2.2,0-4.3,1-5.8,2.7l-35.5,39.9c-2.9,3.2-2.9,8.3,0,11.5l35.5,39.2
			C880.7,104.4,882.8,105.4,884.9,105.4z M1051.2,13.4L1017,48.8c-4.3,4.5-4.3,11.7,0,16.2l34.1,36.8c6.9,7.2,18.6,2.1,18.6-8.1
			V21.4C1069.7,11.2,1058,6.2,1051.2,13.4z M200.2,102.8l35.5-39.2c2.9-3.2,2.9-8.2,0-11.5l-35.5-39.9c-1.5-1.7-3.6-2.7-5.8-2.7H115
			c-2.2,0-4.3,1-5.8,2.7L73.6,52.2c-2.9,3.2-2.9,8.3,0,11.5l35.5,39.2c1.5,1.7,3.6,2.6,5.8,2.6h79.6
			C196.6,105.4,198.7,104.4,200.2,102.8z M9.6,21.4v72.2c0,10.2,11.8,15.3,18.6,8.1l34.1-36.8c4.3-4.5,4.3-11.7,0-16.2l-34-35.3
			C21.4,6.2,9.6,11.2,9.6,21.4z"/>
		<g>
			<path class="st2" d="M964.4,9.9c2.1,0,4.1,0.9,5.5,2.5l35.5,40.1c2.7,3.1,2.7,7.9,0,10.9l-35.5,39.4c-1.4,1.6-3.4,2.5-5.4,2.5
				H885c-2,0-4-0.9-5.4-2.5L844,63.3c-2.7-3-2.8-7.8,0-10.9l35.5-40.1c1.4-1.6,3.4-2.5,5.5-2.5L964.4,9.9 M194.4,9.9
				c2.1,0,4.1,0.9,5.5,2.5l35.5,40.1c2.7,3.1,2.7,7.9,0,10.9l-35.6,39.4c-1.4,1.6-3.4,2.5-5.4,2.5h-79.6c-2,0-4-0.9-5.4-2.5L74,63.3
				c-2.7-3-2.8-7.8,0-10.9l35.5-40.1c1.4-1.6,3.4-2.5,5.5-2.5L194.4,9.9 M20.6,10.1L20.6,10.1c2.7,0,5.3,1.2,7.3,3.2L62,48.9
				c4.1,4.3,4.1,11.3,0,15.6l-34.1,37c-2,2.1-4.6,3.2-7.3,3.2c-1.3,0-2.6-0.3-3.8-0.8c-4.1-1.7-6.7-5.6-6.7-10.3V21.2
				c0-4.7,2.6-8.6,6.7-10.3C18,10.4,19.3,10.1,20.6,10.1 M1058.8,10.1L1058.8,10.1c1.3,0,2.6,0.3,3.8,0.8c4.1,1.7,6.7,5.6,6.7,10.3
				v72.6c0,4.7-2.6,8.6-6.7,10.3c-1.2,0.5-2.5,0.8-3.8,0.8c-2.7,0-5.3-1.2-7.3-3.2l-34.1-37c-4.1-4.3-4.1-11.3,0-15.6l34.1-35.6
				C1053.4,11.4,1056,10.1,1058.8,10.1 M791.6,10.4c1.8,0,3.4,0.8,4.7,2.2l35.7,38.8c2.9,3.2,2.9,8.4,0,11.6l-35.8,39.3
				c-1.3,1.4-3,2.2-4.7,2.2H288.7c-1.8,0-3.4-0.8-4.7-2.2l-36.1-39.4c-2.9-3.2-2.8-8.5,0-11.7l36.2-38.8c1.3-1.4,2.9-2.2,4.7-2.2
				h502.9 M1071.4,0.2H8.5C3.8,0.2,0,4.2,0,9.1v96.6c0,4.9,3.8,8.9,8.5,8.9h1063c4.7,0,8.5-4,8.5-8.9V9.1
				C1080,4.2,1076.1,0.2,1071.4,0.2L1071.4,0.2z M8.5,113.8c-4.1,0-7.5-3.5-7.5-7.9V9.1c0-4.3,3.3-7.9,7.5-7.9h1063
				c4.1,0,7.5,3.5,7.5,7.9v96.6c0,4.4-3.4,7.9-7.5,7.9L8.5,113.8L8.5,113.8z M964.4,8.9H885c-2.4,0-4.6,1-6.2,2.8l-35.5,40.1
				c-3.1,3.4-3,8.8,0.1,12.2l35.5,39.4c1.6,1.8,3.8,2.8,6.2,2.8h79.4c2.3,0,4.6-1,6.2-2.8l35.5-39.4c3.1-3.4,3.1-8.8,0.1-12.2
				l-35.5-40.1C969,9.9,966.8,8.9,964.4,8.9L964.4,8.9z M194.4,8.9H115c-2.4,0-4.6,1-6.2,2.8L73.2,51.8c-3.1,3.4-3,8.8,0.1,12.2
				l35.5,39.4c1.6,1.8,3.8,2.8,6.2,2.8h79.6c2.3,0,4.6-1,6.2-2.8L236.3,64c3.1-3.4,3.1-8.8,0.1-12.2l-35.5-40.1
				C199,9.9,196.7,8.9,194.4,8.9L194.4,8.9z M20.6,9.1c-1.4,0-2.8,0.3-4.2,0.8c-4.5,1.8-7.3,6.1-7.3,11.2v72.6
				c0,5.1,2.8,9.4,7.3,11.2c1.4,0.6,2.8,0.8,4.2,0.8c3,0,5.8-1.2,8-3.6l34.1-37c4.4-4.7,4.4-12.3,0-17L28.5,12.8
				C26.4,10.4,23.6,9.1,20.6,9.1L20.6,9.1z M1058.8,9.1c-3,0-5.8,1.2-8,3.5l-34.1,35.6c-4.4,4.7-4.4,12.3,0,17l34.1,37
				c2.2,2.3,5.1,3.5,8,3.5c1.4,0,2.8-0.3,4.2-0.8c4.5-1.8,7.3-6.1,7.3-11.2V21.2c0-5.1-2.8-9.4-7.3-11.2
				C1061.6,9.4,1060.2,9.1,1058.8,9.1L1058.8,9.1z M791.6,9.4H288.8c-2,0-3.9,0.9-5.4,2.5l-36.2,38.8c-3.2,3.5-3.2,9.5,0,13
				l36.2,39.4c1.5,1.6,3.4,2.5,5.5,2.5h502.9c2.1,0,4-0.9,5.5-2.6l35.8-39.3c3.2-3.6,3.2-9.4,0-12.9l-35.7-38.9
				C795.6,10.2,793.7,9.4,791.6,9.4L791.6,9.4z"/>
		</g>
	</g>
	<g>
		<g>
			<g>
				<g>
					<path class="st3" d="M82.9,105.8c1.7-0.1,8.6-3.1,8.6-8.8c0-5.7-4.8-7.6-4.8-7.6s2.6,1.9,2.6,5.5c0,1.8-1.4,1.8-1.4,3.3
						s1.4,1.6,2.2,0.8c0,0-1,4.4-7.2,6.4C82.9,105.5,82.9,105.8,82.9,105.8z"/>
				</g>
			</g>
			<g>
				<path class="st3" d="M68.3,94.6c2.5,9.3,9.4,11.2,9.4,11.2l0.1-0.8c0,0-6.3-2.5-8.8-10.6L68.3,94.6"/>
			</g>
			<g>
				<g>
					<path class="st3" d="M72.1,100.3l-0.8-1c4.7-0.5,5.8-7.6,5.8-7.6S77.4,99.2,72.1,100.3z"/>
				</g>
			</g>
			<g>
				<g>
					<path class="st3" d="M91.3,105.8c0,0-2.8-5.7-7.1-5.4c0,0,0.2-6.3-2.8-6.3s-3.2,6.5-5.2,5.2c-1.7-1.1,0.4-3,0.6-5.9
						c0.2-3.7-1.7-6.4-4.6-6.1c0,0-0.5-3.9-1.8-4.6c-1.5-0.9-2-2.3-2-2.3s-0.6,1.5-2,2.3c-1.3,0.8-1.8,4.6-1.8,4.6
						c-2.9-0.3-4.8,2.5-4.6,6.2c0.2,2.9,2.3,4.8,0.6,5.9c-2,1.3-2.2-5.2-5.2-5.2s-2.8,6.3-2.8,6.3c-4.3-0.3-7.1,5.4-7.1,5.4
						l-0.5-0.5c0,0,2-5.3,6.4-6.1c0,0-0.5-8.6,7.3-7c0,0-0.5-5.9,4.9-6.1c0,0,0.5-3.5,2.5-4.6s2.1-3.1,2.1-3.1s0.1,2,2.1,3.1
						c2,1.1,2.5,4.6,2.5,4.6c5.7,0.1,5.2,6,5.2,6c7.8-1.6,7.3,7,7.3,7c4.4,0.7,6.4,6.1,6.4,6.1L91.3,105.8z"/>
				</g>
			</g>
			<g>
				<g>
					<path class="st3" d="M54.2,105.8c-1.7-0.1-8.6-3.1-8.6-8.8c0-5.7,4.8-7.6,4.8-7.6s-2.6,1.9-2.6,5.5c0,1.8,1.4,1.8,1.4,3.3
						s-1.4,1.6-2.2,0.8c0,0,1,4.4,7.2,6.4C54.2,105.5,54.2,105.8,54.2,105.8z"/>
				</g>
			</g>
			<g>
				<path class="st3" d="M68.8,94.6c-2.5,9.3-9.4,11.2-9.4,11.2l-0.1-0.8c0,0,6.3-2.5,8.8-10.6L68.8,94.6"/>
			</g>
			<g>
				<g>
					<path class="st3" d="M65.1,100.3l0.8-1c-4.7-0.5-5.8-7.6-5.8-7.6S59.7,99.2,65.1,100.3z"/>
				</g>
			</g>
			<g>
				<g>
					<path class="st3" d="M68.3,104.7c-2.5-1.3-3.3-2.8-3.3-2.8l0.6-0.8c0,0,0.8,1.6,2.7,2.4c1.8-0.8,3-2.6,3-2.6l0.8,0.9
						C72,101.7,70.8,103.3,68.3,104.7z"/>
				</g>
			</g>
		</g>
		<g>
			<g>
				<path class="st3" d="M91.9,105.8c2-4,6.3-5,6.3-5c0.2,2.2-2,3.1-2,3.1c2.5-0.6,5.2,1.9,5.2,1.9H91.9"/>
			</g>
			<g>
				<g>
					<path class="st3" d="M77.7,105.8c0.2-3.7,4.6-4.3,4.6-4.3c0,2-1.9,2.7-1.9,2.7c2.5-0.8,4.1,1.6,4.1,1.6S77.7,105.8,77.7,105.8z
						"/>
				</g>
			</g>
			<g>
				<g>
					<path class="st3" d="M68.4,93.7c3.2-0.3,3.7-5.2,3.7-5.2c-1.8,0-2.4,2.2-2.4,2.2c0.7-2.9-1.4-4.6-1.4-4.6s-1.5,1.8-0.8,4.6
						c0,0-0.6-2.2-2.4-2.2C65.1,88.4,65.2,93.4,68.4,93.7z"/>
				</g>
				<g>
					<path class="st3" d="M68.4,93.9L68.4,93.9c-3.5-0.3-3.6-5.3-3.6-5.5v-0.3h0.3c0.9,0,1.5,0.5,2,1c0-2.1,1-3.3,1.1-3.4l0.2-0.2
						l0.2,0.2c0.1,0.1,1.5,1.3,1.6,3.5c0.4-0.6,1.1-1.1,2-1.1h0.3v0.3C72.3,88.7,71.9,93.7,68.4,93.9L68.4,93.9z M65.4,88.8
						c0.1,1,0.5,4.4,3.1,4.7c2.5-0.2,3.2-3.6,3.4-4.7c-1.4,0.2-1.9,2-1.9,2l-0.5-0.1c0.5-2.2-0.6-3.7-1.1-4.2
						c-0.4,0.5-1.1,2-0.6,4.2l-0.5,0.1C67.2,90.7,66.7,88.9,65.4,88.8z"/>
				</g>
			</g>
			<g>
				<path class="st3" d="M45.2,105.8c-2-4-6.3-5-6.3-5c-0.2,2.2,2,3.1,2,3.1c-2.5-0.6-5.2,1.9-5.2,1.9H45.2"/>
			</g>
			<g>
				<g>
					<path class="st3" d="M59.4,105.8c-0.2-3.7-4.6-4.3-4.6-4.3c0,2,1.9,2.7,1.9,2.7c-2.5-0.8-4.1,1.6-4.1,1.6
						S59.4,105.8,59.4,105.8z"/>
				</g>
			</g>
		</g>
		<g>
			<g>
				<path class="st3" d="M70.2,94.7c1.5,0,1.6-1.8,0-1.8h-3.1c-1.6,0-1.5,1.8,0,1.8H70.2z"/>
			</g>
		</g>
		<g>
			<g>
				<path class="st3" d="M93.2,105.8v-2.4c0-2.1-1.9-2-1.9,0v2.4H93.2z"/>
			</g>
		</g>
		<g>
			<g>
				<path class="st3" d="M60.3,105.8v-2.1c0-1.7-1.6-1.8-1.6,0v2.1H60.3z"/>
			</g>
		</g>
		<g>
			<g>
				<path class="st3" d="M78.4,105.8v-2.1c0-1.7-1.6-1.8-1.6,0v2.1H78.4z"/>
			</g>
		</g>
		<g>
			<g>
				<path class="st3" d="M43.8,105.8v-2.4c0-2.1,1.9-2,1.9,0v2.4H43.8z"/>
			</g>
		</g>
	</g>
	<g>
		<g>
			<g>
				<g>
					<path class="st3" d="M82.9,8.9c1.7,0.1,8.6,3.1,8.6,8.8s-4.8,7.6-4.8,7.6s2.6-1.9,2.6-5.5c0-1.8-1.4-1.8-1.4-3.3
						s1.4-1.6,2.2-0.8c0,0-1-4.4-7.2-6.4C82.9,9.3,82.9,8.9,82.9,8.9z"/>
				</g>
			</g>
			<g>
				<path class="st3" d="M68.3,20c2.5-9.3,9.4-11.2,9.4-11.2l0.1,0.8c0,0-6.3,2.5-8.8,10.6L68.3,20"/>
			</g>
			<g>
				<g>
					<path class="st3" d="M72.1,14.4l-0.8,1c4.7,0.5,5.8,7.6,5.8,7.6S77.4,15.6,72.1,14.4z"/>
				</g>
			</g>
			<g>
				<g>
					<path class="st3" d="M91.3,8.9c0,0-2.8,5.7-7.1,5.4c0,0,0.2,6.3-2.8,6.3s-3.2-6.5-5.2-5.2c-1.7,1.1,0.4,3,0.6,5.9
						c0.2,3.7-1.7,6.4-4.6,6.1c0,0-0.5,3.9-1.8,4.6c-1.5,0.9-2,2.3-2,2.3s-0.6-1.5-2-2.3c-1.3-0.8-1.8-4.6-1.8-4.6
						c-2.9,0.3-4.8-2.5-4.6-6.2c0.2-2.9,2.3-4.8,0.6-5.9c-2-1.3-2.2,5.2-5.2,5.2s-2.8-6.3-2.8-6.3c-4.3,0.3-7.1-5.4-7.1-5.4
						l-0.5,0.5c0,0,2,5.3,6.4,6.1c0,0-0.5,8.6,7.3,7c0,0-0.5,5.9,4.9,6.1c0,0,0.5,3.5,2.5,4.6s2.1,3.1,2.1,3.1s0.1-2,2.1-3.1
						c2-1.1,2.5-4.6,2.5-4.6c5.4-0.3,4.9-6.1,4.9-6.1c7.8,1.6,7.3-7,7.3-7c4.4-0.7,6.4-6.1,6.4-6.1L91.3,8.9z"/>
				</g>
			</g>
			<g>
				<g>
					<path class="st3" d="M54.2,8.9c-1.7,0.1-8.6,3.1-8.6,8.8s4.8,7.6,4.8,7.6s-2.6-1.9-2.6-5.5c0-1.8,1.4-1.8,1.4-3.3
						s-1.4-1.6-2.2-0.8c0,0,1-4.4,7.2-6.4C54.2,9.3,54.2,8.9,54.2,8.9z"/>
				</g>
			</g>
			<g>
				<path class="st3" d="M68.8,20c-2.5-9.3-9.4-11.2-9.4-11.2l-0.1,0.8c0,0,6.3,2.5,8.8,10.6L68.8,20"/>
			</g>
			<g>
				<g>
					<path class="st3" d="M65.1,14.4l0.8,1c-4.7,0.5-5.8,7.6-5.8,7.6S59.7,15.6,65.1,14.4z"/>
				</g>
			</g>
			<g>
				<g>
					<path class="st3" d="M68.3,9.9c-2.5,1.3-3.2,2.8-3.2,2.8l0.6,0.8c0,0,0.8-1.6,2.7-2.4c1.8,0.8,3,2.6,3,2.6l0.8-0.9
						C72,12.9,70.8,11.2,68.3,9.9z"/>
				</g>
			</g>
		</g>
		<g>
			<g>
				<path class="st3" d="M91.9,8.9c2,4,6.3,5,6.3,5c0.2-2.2-2-3.1-2-3.1c2.5,0.6,5.2-1.9,5.2-1.9H91.9"/>
			</g>
			<g>
				<g>
					<path class="st3" d="M77.7,8.9c0.2,3.7,4.6,4.3,4.6,4.3c0-2-1.9-2.7-1.9-2.7c2.5,0.8,4.1-1.6,4.1-1.6H77.7z"/>
				</g>
			</g>
			<g>
				<g>
					<path class="st3" d="M68.4,21c3.2,0.3,3.7,5.2,3.7,5.2c-1.8,0-2.4-2.2-2.4-2.2c0.7,2.9-1.4,4.6-1.4,4.6s-1.5-1.8-0.8-4.6
						c0,0-0.6,2.2-2.4,2.2C65.1,26.1,65.2,21.2,68.4,21z"/>
				</g>
				<g>
					<path class="st3" d="M68.3,29l-0.2-0.2C68,28.8,67,27.6,67,25.5c-0.4,0.5-1,1-2,1h-0.3v-0.3c0-0.2,0.1-5.2,3.6-5.5l0,0l0,0
						c3.4,0.3,3.9,5.2,3.9,5.5v0.3h-0.1c-0.9,0-1.6-0.5-2-1.1c-0.1,2.1-1.5,3.4-1.6,3.5L68.3,29z M67.2,24l0.5,0.1
						c-0.5,2.2,0.2,3.7,0.6,4.2c0.5-0.5,1.6-2,1.1-4.2l0.5-0.1c0,0,0.5,1.7,1.9,2c-0.2-1-0.8-4.4-3.4-4.7c-2.5,0.2-3,3.7-3.1,4.7
						C66.7,25.8,67.2,24,67.2,24z"/>
				</g>
			</g>
			<g>
				<path class="st3" d="M45.2,8.9c-2,4-6.3,5-6.3,5c-0.2-2.2,2-3.1,2-3.1c-2.5,0.6-5.2-1.9-5.2-1.9H45.2"/>
			</g>
			<g>
				<g>
					<path class="st3" d="M59.4,8.9c-0.2,3.7-4.6,4.3-4.6,4.3c0-2,1.9-2.7,1.9-2.7c-2.5,0.8-4.1-1.6-4.1-1.6H59.4z"/>
				</g>
			</g>
		</g>
		<g>
			<g>
				<path class="st3" d="M70.2,20c1.5,0,1.6,1.8,0,1.8h-3.1c-1.6,0-1.5-1.8,0-1.8H70.2z"/>
			</g>
		</g>
		<g>
			<g>
				<path class="st3" d="M93.2,8.9v2.4c0,2.1-1.9,2-1.9,0V8.9H93.2z"/>
			</g>
		</g>
		<g>
			<g>
				<path class="st3" d="M60.3,8.9V11c0,1.7-1.6,1.8-1.6,0V8.9H60.3z"/>
			</g>
		</g>
		<g>
			<g>
				<path class="st3" d="M78.4,8.9V11c0,1.7-1.6,1.8-1.6,0V8.9H78.4z"/>
			</g>
		</g>
		<g>
			<g>
				<path class="st3" d="M43.8,8.9v2.4c0,2.1,1.9,2,1.9,0V8.9H43.8z"/>
			</g>
		</g>
	</g>
	<g>
		<g>
			<g>
				<g>
					<path class="st3" d="M255.6,105.8c1.7-0.1,8.6-3.1,8.6-8.8c0-5.7-4.8-7.6-4.8-7.6s2.6,1.9,2.6,5.5c0,1.8-1.4,1.8-1.4,3.3
						s1.4,1.6,2.2,0.8c0,0-1,4.4-7.2,6.4L255.6,105.8L255.6,105.8z"/>
				</g>
			</g>
			<g>
				<path class="st3" d="M241,94.6c2.5,9.3,9.4,11.2,9.4,11.2l0.1-0.8c0,0-6.3-2.5-8.8-10.6L241,94.6"/>
			</g>
			<g>
				<g>
					<path class="st3" d="M244.7,100.3l-0.8-1c4.7-0.5,5.8-7.6,5.8-7.6S250.1,99.2,244.7,100.3z"/>
				</g>
			</g>
			<g>
				<g>
					<path class="st3" d="M264,105.8c0,0-2.8-5.7-7.1-5.4c0,0,0.2-6.3-2.8-6.3c-3,0-3.2,6.5-5.2,5.2c-1.7-1.1,0.4-3,0.6-5.9
						c0.2-3.7-1.7-6.4-4.6-6.1c0,0-0.5-3.9-1.8-4.6c-1.5-0.9-2-2.3-2-2.3s-0.6,1.5-2,2.3c-1.3,0.8-1.8,4.6-1.8,4.6
						c-2.9-0.3-4.8,2.5-4.6,6.2c0.2,2.9,2.3,4.8,0.6,5.9c-2,1.3-2.2-5.2-5.2-5.2c-3,0-2.8,6.3-2.8,6.3c-4.3-0.3-7.1,5.4-7.1,5.4
						l-0.5-0.5c0,0,2-5.3,6.4-6.1c0,0-0.5-8.6,7.3-7c0,0-0.5-5.9,4.9-6.1c0,0,0.5-3.5,2.5-4.6s2.1-3.1,2.1-3.1s0.1,2,2.1,3.1
						c2,1.1,2.5,4.6,2.5,4.6c5.4,0.3,4.9,6.1,4.9,6.1c7.8-1.6,7.3,7,7.3,7c4.4,0.7,6.4,6.1,6.4,6.1L264,105.8z"/>
				</g>
			</g>
			<g>
				<g>
					<path class="st3" d="M226.9,105.8c-1.7-0.1-8.6-3.1-8.6-8.8c0-5.7,4.8-7.6,4.8-7.6s-2.6,1.9-2.6,5.5c0,1.8,1.4,1.8,1.4,3.3
						s-1.4,1.6-2.2,0.8c0,0,1,4.4,7.2,6.4L226.9,105.8L226.9,105.8z"/>
				</g>
			</g>
			<g>
				<path class="st3" d="M241.6,94.6c-2.5,9.3-9.4,11.2-9.4,11.2l-0.1-0.8c0,0,6.3-2.5,8.8-10.6L241.6,94.6"/>
			</g>
			<g>
				<g>
					<path class="st3" d="M237.8,100.3l0.8-1c-4.7-0.5-5.8-7.6-5.8-7.6S232.5,99.2,237.8,100.3z"/>
				</g>
			</g>
			<g>
				<g>
					<path class="st3" d="M241.1,104.7c-2.5-1.3-3.3-2.8-3.3-2.8l0.6-0.8c0,0,0.8,1.6,2.7,2.4c1.8-0.8,3-2.6,3-2.6l0.8,0.9
						C244.7,101.7,243.5,103.3,241.1,104.7z"/>
				</g>
			</g>
		</g>
		<g>
			<g>
				<path class="st3" d="M264.6,105.8c2-4,6.3-5,6.3-5c0.2,2.2-2,3.1-2,3.1c2.5-0.6,5.2,1.9,5.2,1.9H264.6"/>
			</g>
			<g>
				<g>
					<path class="st3" d="M250.3,105.8c0.2-3.7,4.6-4.3,4.6-4.3c0,2-1.9,2.7-1.9,2.7c2.5-0.8,4.1,1.6,4.1,1.6
						S250.3,105.8,250.3,105.8z"/>
				</g>
			</g>
			<g>
				<g>
					<path class="st3" d="M241.2,93.7c3.2-0.3,3.7-5.2,3.7-5.2c-1.8,0-2.4,2.2-2.4,2.2c0.7-2.9-1.4-4.6-1.4-4.6s-1.5,1.8-0.8,4.6
						c0,0-0.6-2.2-2.4-2.2C237.8,88.4,237.9,93.4,241.2,93.7z"/>
				</g>
				<g>
					<path class="st3" d="M241.2,93.9L241.2,93.9c-3.5-0.3-3.6-5.3-3.6-5.5v-0.3h0.3c0.9,0,1.5,0.5,2,1c0-2.1,1-3.3,1.1-3.4l0.2-0.2
						l0.2,0.2c0.1,0.1,1.5,1.3,1.6,3.5c0.4-0.6,1.1-1.1,2-1.1h0.3v0.3C245,88.7,244.5,93.7,241.2,93.9L241.2,93.9z M238.1,88.8
						c0.1,1,0.5,4.4,3.1,4.7c2.5-0.2,3.2-3.6,3.4-4.7c-1.4,0.2-1.9,2-1.9,2l-0.5-0.1c0.5-2.2-0.6-3.7-1.1-4.2
						c-0.4,0.5-1.1,2-0.6,4.2l-0.5,0.1C240,90.7,239.5,88.9,238.1,88.8z"/>
				</g>
			</g>
			<g>
				<path class="st3" d="M217.9,105.8c-2-4-6.3-5-6.3-5c-0.2,2.2,2,3.1,2,3.1c-2.5-0.6-5.2,1.9-5.2,1.9H217.9"/>
			</g>
			<g>
				<g>
					<path class="st3" d="M232.2,105.8c-0.2-3.7-4.6-4.3-4.6-4.3c0,2,1.9,2.7,1.9,2.7c-2.5-0.8-4.1,1.6-4.1,1.6
						S232.2,105.8,232.2,105.8z"/>
				</g>
			</g>
		</g>
		<g>
			<g>
				<path class="st3" d="M242.9,94.7c1.5,0,1.6-1.8,0-1.8h-3.1c-1.6,0-1.5,1.8,0,1.8H242.9z"/>
			</g>
		</g>
		<g>
			<g>
				<path class="st3" d="M266,105.8v-2.4c0-2.1-1.9-2-1.9,0v2.4H266z"/>
			</g>
		</g>
		<g>
			<g>
				<path class="st3" d="M233.1,105.8v-2.1c0-1.7-1.6-1.8-1.6,0v2.1H233.1z"/>
			</g>
		</g>
		<g>
			<g>
				<path class="st3" d="M251,105.8v-2.1c0-1.7-1.6-1.8-1.6,0v2.1H251z"/>
			</g>
		</g>
		<g>
			<g>
				<path class="st3" d="M216.6,105.8v-2.4c0-2.1,1.9-2,1.9,0v2.4H216.6z"/>
			</g>
		</g>
	</g>
	<g>
		<g>
			<g>
				<g>
					<path class="st3" d="M255.6,8.9c1.7,0.1,8.6,3.1,8.6,8.8s-4.8,7.6-4.8,7.6s2.6-1.9,2.6-5.5c0-1.8-1.4-1.8-1.4-3.3
						s1.4-1.6,2.2-0.8c0,0-1-4.4-7.2-6.4L255.6,8.9L255.6,8.9z"/>
				</g>
			</g>
			<g>
				<path class="st3" d="M241,20c2.5-9.3,9.4-11.2,9.4-11.2l0.1,0.8c0,0-6.3,2.5-8.8,10.6L241,20"/>
			</g>
			<g>
				<g>
					<path class="st3" d="M244.7,14.4l-0.8,1c4.7,0.5,5.8,7.6,5.8,7.6S250.1,15.6,244.7,14.4z"/>
				</g>
			</g>
			<g>
				<g>
					<path class="st3" d="M264,8.9c0,0-2.8,5.7-7.1,5.4c0,0,0.2,6.3-2.8,6.3c-3,0-3.2-6.5-5.2-5.2c-1.7,1.1,0.4,3,0.6,5.9
						c0.2,3.7-1.7,6.4-4.6,6.1c0,0-0.5,3.9-1.8,4.6c-1.5,0.9-2,2.3-2,2.3s-0.6-1.5-2-2.3c-1.3-0.8-1.8-4.6-1.8-4.6
						c-2.9,0.3-4.8-2.5-4.6-6.2c0.2-2.9,2.3-4.8,0.6-5.9c-2-1.3-2.2,5.2-5.2,5.2c-3,0-2.8-6.3-2.8-6.3c-4.3,0.3-7.1-5.4-7.1-5.4
						l-0.5,0.5c0,0,2,5.3,6.4,6.1c0,0-0.5,8.6,7.3,7c0,0-0.5,5.9,4.9,6.1c0,0,0.5,3.5,2.5,4.6s2.1,3.1,2.1,3.1s0.1-2,2.1-3.1
						c2-1.1,2.5-4.6,2.5-4.6c5.4-0.3,4.9-6.1,4.9-6.1c7.8,1.6,7.3-7,7.3-7c4.4-0.7,6.4-6.1,6.4-6.1L264,8.9z"/>
				</g>
			</g>
			<g>
				<g>
					<path class="st3" d="M226.9,8.9c-1.7,0.1-8.6,3.1-8.6,8.8s4.8,7.6,4.8,7.6s-2.6-1.9-2.6-5.5c0-1.8,1.4-1.8,1.4-3.3
						s-1.4-1.6-2.2-0.8c0,0,1-4.4,7.2-6.4L226.9,8.9L226.9,8.9z"/>
				</g>
			</g>
			<g>
				<path class="st3" d="M241.6,20c-2.5-9.3-9.4-11.2-9.4-11.2l-0.1,0.8c0,0,6.3,2.5,8.8,10.6L241.6,20"/>
			</g>
			<g>
				<g>
					<path class="st3" d="M237.8,14.4l0.8,1c-4.7,0.5-5.8,7.6-5.8,7.6S232.5,15.6,237.8,14.4z"/>
				</g>
			</g>
			<g>
				<g>
					<path class="st3" d="M241.1,9.9c-2.5,1.3-3.3,2.8-3.3,2.8l0.6,0.8c0,0,0.8-1.6,2.7-2.4c1.8,0.8,3,2.6,3,2.6l0.8-0.9
						C244.7,12.9,243.5,11.2,241.1,9.9z"/>
				</g>
			</g>
		</g>
		<g>
			<g>
				<path class="st3" d="M264.6,8.9c2,4,6.3,5,6.3,5c0.2-2.2-2-3.1-2-3.1c2.5,0.6,5.2-1.9,5.2-1.9H264.6"/>
			</g>
			<g>
				<g>
					<path class="st3" d="M250.3,8.9c0.2,3.7,4.6,4.3,4.6,4.3c0-2-1.9-2.7-1.9-2.7c2.5,0.8,4.1-1.6,4.1-1.6H250.3z"/>
				</g>
			</g>
			<g>
				<g>
					<path class="st3" d="M241.2,21c3.2,0.3,3.7,5.2,3.7,5.2c-1.8,0-2.4-2.2-2.4-2.2c0.7,2.9-1.4,4.6-1.4,4.6s-1.5-1.8-0.8-4.6
						c0,0-0.6,2.2-2.4,2.2C237.8,26.1,237.9,21.2,241.2,21z"/>
				</g>
				<g>
					<path class="st3" d="M241,29l-0.2-0.2c-0.1-0.1-1.1-1.3-1.1-3.4c-0.4,0.5-1,1-2,1h-0.3v-0.3c0-0.2,0.1-5.2,3.6-5.5l0,0l0,0
						c3.4,0.3,3.9,5.2,3.9,5.5v0.3h-0.1c-0.9,0-1.6-0.5-2-1.1c-0.1,2.1-1.5,3.4-1.6,3.5L241,29z M240,24l0.5,0.1
						c-0.5,2.2,0.2,3.7,0.6,4.2c0.5-0.5,1.6-2,1.1-4.2l0.5-0.1c0,0,0.5,1.7,1.9,2c-0.2-1-0.8-4.4-3.4-4.7c-2.5,0.2-3,3.7-3.1,4.7
						C239.5,25.8,240,24,240,24z"/>
				</g>
			</g>
			<g>
				<path class="st3" d="M217.9,8.9c-2,4-6.3,5-6.3,5c-0.2-2.2,2-3.1,2-3.1c-2.5,0.6-5.2-1.9-5.2-1.9H217.9"/>
			</g>
			<g>
				<g>
					<path class="st3" d="M232.2,8.9c-0.2,3.7-4.6,4.3-4.6,4.3c0-2,1.9-2.7,1.9-2.7c-2.5,0.8-4.1-1.6-4.1-1.6H232.2z"/>
				</g>
			</g>
		</g>
		<g>
			<g>
				<path class="st3" d="M242.9,20c1.5,0,1.6,1.8,0,1.8h-3.1c-1.6,0-1.5-1.8,0-1.8H242.9z"/>
			</g>
		</g>
		<g>
			<g>
				<path class="st3" d="M266,8.9v2.4c0,2.1-1.9,2-1.9,0V8.9H266z"/>
			</g>
		</g>
		<g>
			<g>
				<path class="st3" d="M233.1,8.9V11c0,1.7-1.6,1.8-1.6,0V8.9H233.1z"/>
			</g>
		</g>
		<g>
			<g>
				<path class="st3" d="M251,8.9V11c0,1.7-1.6,1.8-1.6,0V8.9H251z"/>
			</g>
		</g>
		<g>
			<g>
				<path class="st3" d="M216.6,8.9v2.4c0,2.1,1.9,2,1.9,0V8.9H216.6z"/>
			</g>
		</g>
	</g>
	<g>
		<g>
			<path class="st1" d="M7.5,23.6c2.1-0.1,6.2,1.7,6.6,8.7c0,0,9.7-1.1,9.7,9.1c0,2.3-3,2.9-4.1,5c-1.5,2.8,2.4,5.8,4.5,3.4
				c1.5-1.7,2.3-7.1,5.6-7.1s7,2.9,6.6,9c0,0,5.7,0.7,8,5.9c-2.3,5.2-8,7.1-8,7.1c0.5,6.1-3.2,9-6.6,9c-3.3,0-4.1-5.4-5.6-7.1
				c-2.2-2.4-6,0.6-4.5,3.4c1.1,2.1,4.1,2.7,4.1,5c0,10.2-9.7,9.1-9.7,9.1c-1,6.9-6.7,6.8-6.7,6.8"/>
			<g>
				<path class="st3" d="M7.4,91.3L7.4,91.3v-1c0.2,0,5.3,0,6.2-6.3l0.1-0.5l0.5,0.1c0,0,4,0.4,6.7-2c1.6-1.5,2.4-3.7,2.4-6.6
					c0-1.1-0.9-1.7-1.9-2.5c-0.8-0.6-1.7-1.3-2.2-2.2c-0.9-1.7-0.1-3.4,1.1-4.3s3-1.1,4.3,0.3c0.6,0.6,1,1.6,1.5,2.7
					c0.9,2,1.9,4.3,3.8,4.3c1.6,0,3.1-0.7,4.2-1.9c1-1.1,2.1-3.1,1.8-6.5v-0.4l0.4-0.1c0.1,0,5.4-1.9,7.6-6.6
					c-2.2-4.7-7.5-5.4-7.5-5.4l-0.5-0.1v-0.5c0.3-3.4-0.9-5.4-1.8-6.5c-1.1-1.2-2.6-1.9-4.2-1.9c-1.9,0-2.9,2.3-3.8,4.3
					c-0.5,1.1-0.9,2.1-1.5,2.7c-1.3,1.4-3.1,1.2-4.3,0.3c-1.2-0.9-2-2.6-1.1-4.3c0.5-1,1.4-1.6,2.2-2.2c1-0.8,1.9-1.4,1.9-2.5
					c0-2.9-0.8-5.1-2.4-6.6c-2.7-2.4-6.7-2-6.7-2l-0.5,0.1v-0.5c-0.2-3.9-1.6-5.9-2.7-6.9c-1.2-1.1-2.5-1.4-3.3-1.3l-0.1-1
					c1.4-0.1,2.9,0.5,4.1,1.6s2.7,3.2,3,7.1c1.3,0,4.5,0.1,7,2.3c1.8,1.7,2.8,4.1,2.8,7.4c0,1.6-1.1,2.5-2.3,3.3
					c-0.7,0.6-1.5,1.1-1.9,1.9c-0.6,1.2-0.1,2.3,0.8,3c0.8,0.6,2,0.8,2.9-0.2c0.4-0.5,0.8-1.4,1.3-2.4c0.9-2.2,2.1-4.9,4.7-4.9
					c1.9,0,3.7,0.8,5,2.2c1.1,1.2,2.3,3.3,2.1,6.8c1.5,0.3,5.9,1.5,8,6.1l0.1,0.2L45,58.1c-2.1,4.7-6.6,6.7-8,7.3
					c0.2,3.6-1,5.7-2.1,6.9c-1.3,1.4-3.1,2.2-5,2.2c-2.6,0-3.8-2.7-4.7-4.9c-0.4-1-0.8-1.9-1.3-2.4c-0.9-1-2.2-0.8-2.9-0.2
					c-0.9,0.6-1.4,1.8-0.8,3c0.4,0.8,1.2,1.4,1.9,1.9c1.1,0.9,2.3,1.8,2.3,3.3c0,3.2-0.9,5.7-2.8,7.4c-2.5,2.2-5.8,2.3-7,2.3
					C13.3,91.2,7.7,91.3,7.4,91.3z"/>
			</g>
		</g>
		<g>
			<g>
				<g>
					<path class="st3" d="M25.9,56.5c-21.3-5.7-12-23.9-12-23.9l-0.2-2.4c0,0-12.5,21.7,12.2,27.9V56.5z"/>
				</g>
			</g>
			<g>
				<g>
					<path class="st3" d="M25.9,59.8C4.6,65.6,14,83.8,14,83.8l-0.6,2.4c0,0-12.2-21.7,12.5-27.9V59.8z"/>
				</g>
			</g>
		</g>
		<g>
			<g>
				<g>
					<path class="st3" d="M25.6,54.5c0-1.1,0-1.7,1.1-1.7s0.9,0.6,0.9,1.7v7.1c0,1.1,0.2,1.7-0.9,1.7s-1.1-0.6-1.1-1.7V54.5z"/>
				</g>
			</g>
		</g>
		<g>
			<g>
				<g>
					<path class="st3" d="M27.5,56.8c2.6-5.4,7.2-3.2,7.2-3.2c-0.3,2.2-3.2,3.2-3.2,3.2c3.5-1.4,5.7,1.4,5.7,1.4S35,61,31.5,59.7
						c0,0,2.9,1,3.2,3.2c0,0-4.7,2.3-7.2-3.2C27.5,59.7,27.5,56.8,27.5,56.8z"/>
				</g>
				<g>
					<path class="st3" d="M32.5,63.7c-1.6,0-3.8-0.7-5.2-3.8v-0.1v-3c2.6-5.6,7.5-3.3,7.6-3.3l0.2,0.1v0.2c-0.1,1.1-0.9,1.9-1.7,2.5
						c2.6-0.1,4.1,1.9,4.1,1.9l0.1,0.2l-0.1,0.2c0,0-1.6,2-4.1,1.9c0.8,0.6,1.5,1.4,1.7,2.5v0.2l-0.2,0.1
						C34.8,63.2,33.8,63.7,32.5,63.7z M27.8,59.7c2.2,4.6,5.8,3.4,6.7,3.1c-0.3-1.6-2.2-2.5-2.8-2.7c-0.1,0-0.1,0-0.2-0.1l0.2-0.5
						c0,0,0.1,0,0.2,0.1c2.7,1,4.6-0.7,5.1-1.3c-0.5-0.6-2.3-2.2-5.1-1.3C31.8,57,31.7,57,31.7,57l-0.2-0.5c0.1,0,0.1-0.1,0.2-0.1
						c0.6-0.2,2.5-1.1,2.8-2.7c-0.9-0.3-4.5-1.5-6.7,3.1V59.7z"/>
				</g>
			</g>
			<g>
				<g>
					<path class="st3" d="M9.5,44.2c5.2-2.7,4.4-7.6,4.4-7.6c-2.1,0.3-3,3.4-3,3.4c1.3-3.7-1.4-6-1.4-6L9.5,44.2z"/>
				</g>
			</g>
			<g>
				<g>
					<path class="st3" d="M9.5,72.9c5.2,2.7,4.5,7.6,4.5,7.6c-2.1-0.3-3-3.4-3-3.4c1.3,3.7-1.4,6.1-1.4,6.1L9.5,72.9z"/>
				</g>
			</g>
		</g>
	</g>
	<g>
		<g>
			<g>
				<path class="st3" d="M158.3,33c2-1.8,5.2-3.5,10.4-3.9c0.8-0.1,1.8,0,2.5,0.4c0.7,0.4,1.1,0.9,1.3,1.8c0.1,0.5,0,1.1-0.3,1.5
					c-0.3,0.4-0.7,0.7-1.1,0.7s-1.1-0.3-1.1-1.1c0-0.4,0.3-0.6,0.5-0.7c0.3-0.1,0.3,0.1,0.4,0.2c0.1,0.3,0.5,0.5,0.8,0.3
					c0.3-0.1,0.4-0.5,0.3-0.8c-0.3-0.7-1-1.1-1.7-0.9c-0.7,0.2-1.5,0.9-1.5,2c0.1,1.5,1.2,2.4,2.3,2.3c0.7,0,2.5-0.7,2.5-2.7
					c0-0.9-0.2-1.8-0.9-2.8c3.3,0.4,6.5,1.8,9.4,3.7c1.9,1.4,5.5,4.7,7.1,10.3l1.3-0.4c-0.6-2-1.4-3.8-2.3-5.2
					c2.1,1.8,4.1,3.6,6.1,5.6c7.5,7.1,15.3,14.5,25,14.8v-1.5C210,56.1,202.4,49,195,42c-2.7-2.6-5.5-5.1-8.4-7.4l0,0
					c2.4,0.6,5.7,1,9.4,0.1l-0.3-1.4c-3.8,0.9-6.9,0.5-9.3-0.2c1.5-0.6,2.2-1.5,2.3-2.4c0.1-0.8-0.1-1.7-0.5-2.3
					c-0.7-0.9-2.1-1.2-3.3-0.3c-0.8,0.7-0.8,1.7-0.4,2.4c0.4,0.7,1.1,1,1.8,0.7c0.3-0.1,0.5-0.5,0.3-0.8c-0.1-0.3-0.5-0.5-0.8-0.4
					l0,0c-0.1,0-0.2,0.1-0.4-0.2c-0.1-0.2-0.1-0.6,0.1-0.9c0.6-0.6,1.3-0.2,1.6,0.1c0.2,0.3,0.3,0.8,0.3,1.3c0,0.6-1.2,3.1-5.4,1
					c-4-2-7.8-3.9-12.2-3.9s-9.3,0.9-12.9,4.3L158.3,33z"/>
			</g>
		</g>
		<g>
			<g>
				<path class="st3" d="M158.3,82.1c2,1.8,5.2,3.5,10.4,3.9c0.8,0.1,1.8,0,2.5-0.4c0.7-0.4,1.1-0.9,1.3-1.8c0.1-0.5,0-1.1-0.3-1.5
					c-0.3-0.4-0.7-0.7-1.1-0.7s-1.1,0.3-1.1,1.1c0,0.4,0.3,0.6,0.5,0.7c0.3,0.1,0.3-0.1,0.4-0.2c0.1-0.3,0.5-0.5,0.8-0.3
					c0.3,0.1,0.4,0.5,0.3,0.8c-0.3,0.7-1,1.1-1.7,0.9c-0.7-0.2-1.5-0.9-1.5-2c0.1-1.5,1.2-2.4,2.3-2.3c0.7,0.1,2.5,0.7,2.5,2.7
					c0,0.9-0.2,1.8-0.9,2.8c3.3-0.4,6.5-1.8,9.4-3.7c1.9-1.4,5.5-4.7,7.1-10.3l1.3,0.4c-0.6,2-1.4,3.8-2.3,5.2
					c2.1-1.8,4.1-3.6,6.1-5.6c7.5-7.1,15.3-14.5,25-14.8v1.5c-9.2,0.4-16.8,7.5-24.2,14.5c-2.7,2.6-5.5,5.1-8.4,7.4l0,0
					c2.4-0.6,5.7-1,9.4-0.1l-0.3,1.4c-3.8-0.9-6.9-0.5-9.3,0.2c1.5,0.6,2.2,1.5,2.3,2.4c0.1,0.8-0.1,1.7-0.5,2.3
					c-0.7,0.9-2.1,1.2-3.3,0.3c-0.8-0.7-0.8-1.7-0.4-2.4c0.4-0.7,1.1-1,1.8-0.7c0.3,0.1,0.5,0.5,0.3,0.8c-0.1,0.3-0.5,0.5-0.8,0.4
					l0,0c-0.1,0-0.2-0.1-0.4,0.2c-0.1,0.2-0.1,0.6,0.1,0.9c0.6,0.6,1.3,0.2,1.6-0.1c0.2-0.3,0.3-0.8,0.3-1.3c0-0.6-1.2-3.1-5.4-1
					c-4,2-7.8,3.9-12.2,3.9s-9.3-0.9-12.9-4.3L158.3,82.1z"/>
			</g>
		</g>
		<g>
			<g>
				<path class="st3" d="M151,33c-2-1.8-5.2-3.5-10.4-3.9c-0.8-0.1-1.8,0-2.5,0.4s-1.1,0.9-1.3,1.8c-0.1,0.5,0,1.1,0.3,1.5
					c0.3,0.4,0.7,0.7,1.1,0.7s1.1-0.3,1.1-1.1c0-0.4-0.3-0.6-0.5-0.7c-0.3-0.1-0.3,0.1-0.4,0.2c-0.1,0.3-0.5,0.5-0.8,0.3
					c-0.3-0.1-0.5-0.5-0.3-0.8c0.3-0.7,1-1.1,1.7-0.9s1.5,0.9,1.5,2c-0.1,1.5-1.2,2.4-2.3,2.3c-0.7,0-2.5-0.7-2.5-2.7
					c0-0.9,0.2-1.8,0.9-2.8c-3.3,0.4-6.5,1.8-9.4,3.7c-1.9,1.4-5.5,4.7-7.1,10.3l-1.3-0.4c0.6-2,1.4-3.8,2.3-5.2
					c-2.1,1.8-4.1,3.6-6.2,5.6c-7.5,7.1-15.3,14.5-25,14.8l-0.1-1.5c9.2-0.4,16.8-7.5,24.2-14.5c2.7-2.6,5.5-5.1,8.4-7.4l0,0
					c-2.4,0.6-5.7,1-9.4,0.1l0.3-1.4c3.8,0.9,6.9,0.5,9.3-0.2c-1.5-0.6-2.2-1.5-2.3-2.4c-0.1-0.8,0.1-1.7,0.5-2.3
					c0.7-0.9,2.1-1.2,3.3-0.3c0.8,0.7,0.8,1.7,0.4,2.4c-0.4,0.7-1.1,1-1.8,0.7c-0.3-0.1-0.5-0.5-0.3-0.8c0.1-0.3,0.5-0.5,0.8-0.4
					l0,0c0.1,0,0.2,0.1,0.4-0.2c0.1-0.2,0.1-0.6-0.1-0.9c-0.6-0.6-1.3-0.2-1.6,0.1c-0.2,0.3-0.3,0.8-0.3,1.3c0,0.6,1.2,3.1,5.4,1
					c4-2,7.8-3.9,12.2-3.9c4.4,0,9.3,0.9,12.9,4.3L151,33z"/>
			</g>
		</g>
		<g>
			<g>
				<path class="st3" d="M151,82.1c-2,1.8-5.2,3.5-10.4,3.9c-0.8,0.1-1.8,0-2.5-0.4s-1.1-0.9-1.3-1.8c-0.1-0.5,0-1.1,0.3-1.5
					c0.3-0.4,0.7-0.7,1.1-0.7s1.1,0.3,1.1,1.1c0,0.4-0.3,0.6-0.5,0.7c-0.3,0.1-0.3-0.1-0.4-0.2c-0.1-0.3-0.5-0.5-0.8-0.3
					c-0.3,0.1-0.5,0.5-0.3,0.8c0.3,0.7,1,1.1,1.7,0.9s1.5-0.9,1.5-2c-0.1-1.5-1.2-2.4-2.3-2.3c-0.7,0.1-2.5,0.7-2.5,2.7
					c0,0.9,0.2,1.8,0.9,2.8c-3.3-0.4-6.5-1.8-9.4-3.7c-1.9-1.4-5.5-4.7-7.1-10.3l-1.3,0.4c0.6,2,1.4,3.8,2.3,5.2
					c-2.1-1.8-4.1-3.6-6.2-5.6c-7.5-7.1-15.3-14.5-25-14.8l-0.1,1.5c9.2,0.4,16.8,7.5,24.2,14.5c2.7,2.6,5.5,5.1,8.4,7.4l0,0
					c-2.4-0.6-5.7-1-9.4-0.1l0.3,1.4c3.8-0.9,6.9-0.5,9.3,0.2c-1.5,0.6-2.2,1.5-2.3,2.4c-0.1,0.8,0.1,1.7,0.5,2.3
					c0.7,0.9,2.1,1.2,3.3,0.3c0.8-0.7,0.8-1.7,0.4-2.4c-0.4-0.7-1.1-1-1.8-0.7c-0.3,0.1-0.5,0.5-0.3,0.8c0.1,0.3,0.5,0.5,0.8,0.4
					l0,0c0.1,0,0.2-0.1,0.4,0.2c0.1,0.2,0.1,0.6-0.1,0.9c-0.6,0.6-1.3,0.2-1.6-0.1c-0.2-0.3-0.3-0.8-0.3-1.3c0-0.6,1.2-3.1,5.4-1
					c4,2,7.8,3.9,12.2,3.9c4.4,0,9.3-0.9,12.9-4.3L151,82.1z"/>
			</g>
		</g>
		<g>
			<path class="st4" d="M154.7,30.6c0,0-3.6,0.8-4.7,6.4c0,0-10-0.9-10,7.3c0,1.8,3.1,2.3,4.2,4c1.6,2.2-2.5,4.6-4.7,2.7
				c-1.6-1.4-2.3-5.7-5.8-5.7s-7.3,2.3-6.8,7.2c0,0-5.8,1-8.3,5.2C121.1,62,127,63,127,63c-0.5,4.9,3.3,7.2,6.8,7.2s4.2-4.3,5.8-5.7
				c2.2-1.9,6.3,0.5,4.7,2.7c-1.2,1.7-4.2,2.2-4.2,4c0,8.2,10,7.3,10,7.3c1.1,5.5,4.7,5.3,4.7,5.3s3.6,0.2,4.7-5.3
				c0,0,10,0.9,10-7.3c0-1.8-3.1-2.3-4.2-4c-1.6-2.2,2.5-4.6,4.7-2.7c1.6,1.4,2.3,5.7,5.8,5.7s7.3-2.3,6.8-7.2c0,0,5.8-1,8.3-5.2
				c-2.4-4.2-8.3-5.2-8.3-5.2c0.5-4.9-3.3-7.2-6.8-7.2s-4.2,4.3-5.8,5.7c-2.2,1.9-6.2-0.5-4.7-2.7c1.2-1.7,4.2-2.2,4.2-4
				c0-8.2-10-7.3-10-7.3C158.2,31.5,154.7,30.6,154.7,30.6z"/>
			<g>
				<path class="st3" d="M154.7,84.2C154.6,84.2,154.6,84.2,154.7,84.2c0,0-3.8,0.2-5.1-5.3c-1.4,0.1-5.4,0-8-2.4
					c-1.4-1.3-2.2-3.1-2.2-5.4c0-1.3,1.2-2.1,2.4-2.8c0.8-0.5,1.5-0.9,2-1.5c0.6-0.8,0.1-1.5-0.3-1.8c-0.9-0.8-2.6-1.1-3.7-0.2
					c-0.4,0.4-0.9,1.1-1.3,1.9c-1,1.7-2.2,3.9-4.8,3.9c-2.3,0-4.4-0.9-5.7-2.4c-1.1-1.3-1.7-3-1.6-4.9c-1.5-0.3-6-1.7-8.2-5.4
					l-0.2-0.3l0.2-0.3c2.1-3.7,6.7-5,8.2-5.4c-0.1-1.9,0.5-3.6,1.6-4.9c1.3-1.5,3.5-2.4,5.7-2.4c2.6,0,3.8,2.2,4.8,3.9
					c0.4,0.8,0.9,1.5,1.3,1.9c1.1,0.9,2.8,0.6,3.7-0.2c0.3-0.3,0.8-1,0.3-1.8c-0.4-0.6-1.2-1.1-2-1.5c-1.2-0.7-2.4-1.4-2.4-2.8
					c0-2.3,0.7-4.1,2.2-5.4c2.6-2.4,6.6-2.5,8-2.4c1.3-5.4,4.8-6.3,5-6.4h0.1h0.1c0.2,0,3.7,0.9,5,6.4c1.4-0.1,5.4,0,8,2.4
					c1.4,1.3,2.2,3.1,2.2,5.4c0,1.3-1.2,2.1-2.4,2.8c-0.8,0.4-1.5,0.9-2,1.5c-0.6,0.8-0.1,1.5,0.3,1.8c0.9,0.8,2.6,1.1,3.7,0.2
					c0.5-0.4,0.9-1.1,1.3-1.9c1-1.7,2.2-3.9,4.8-3.9c2.2,0,4.4,0.9,5.7,2.4c1.1,1.3,1.7,3,1.6,4.9c1.5,0.3,6,1.7,8.2,5.4l0.2,0.3
					l-0.2,0.3c-2.1,3.7-6.7,5-8.2,5.4c0.1,1.9-0.5,3.6-1.6,4.9c-1.3,1.5-3.5,2.4-5.7,2.4c-2.6,0-3.8-2.2-4.8-3.9
					c-0.4-0.8-0.9-1.5-1.3-1.9c-1.1-0.9-2.8-0.6-3.7,0.2c-0.3,0.3-0.8,1-0.3,1.8c0.4,0.6,1.2,1.1,2,1.5c1.2,0.7,2.4,1.4,2.4,2.8
					c0,2.3-0.7,4.1-2.2,5.4c-2.6,2.4-6.6,2.5-8,2.4C158.6,83.9,155.2,84.2,154.7,84.2z M154.6,83.2c0.2,0,3.2,0.1,4.2-4.9l0.1-0.5
					h0.5c0,0,4.9,0.4,7.7-2.1c1.2-1.1,1.8-2.7,1.8-4.6c0-0.8-0.9-1.3-1.9-1.9c-0.8-0.5-1.7-1-2.3-1.8c-0.7-1-0.6-2.2,0.4-3.1
					c1.2-1.1,3.5-1.6,5-0.2c0.6,0.5,1,1.3,1.5,2.2c0.9,1.7,1.9,3.4,3.9,3.4c2,0,3.8-0.8,5-2.1c1.1-1.2,1.5-2.7,1.3-4.5v-0.5l0.5-0.1
					c0.1,0,5.4-1,7.7-4.7c-2.4-3.7-7.7-4.7-7.7-4.7l-0.5-0.1v-0.5c0.2-1.8-0.3-3.4-1.3-4.5c-1.2-1.3-3-2.1-5-2.1c-2,0-3,1.7-3.9,3.4
					c-0.5,0.9-0.9,1.7-1.5,2.2c-1.5,1.3-3.8,0.9-5-0.2c-1-0.9-1.1-2.1-0.4-3.2c0.6-0.8,1.4-1.3,2.3-1.8c1-0.6,1.9-1.1,1.9-1.9
					c0-1.9-0.6-3.5-1.8-4.6c-2.7-2.5-7.6-2.1-7.7-2.1h-0.5l-0.1-0.5c-0.9-4.6-3.6-5.8-4.2-6c-0.6,0.2-3.3,1.3-4.2,6l-0.1,0.5h-0.5
					c0,0-4.9-0.4-7.7,2.1c-1.2,1.1-1.8,2.7-1.8,4.6c0,0.8,0.9,1.3,1.9,1.9c0.8,0.5,1.7,1,2.3,1.8c0.7,1,0.6,2.2-0.4,3.2
					c-1.2,1.1-3.5,1.6-5,0.2c-0.6-0.5-1-1.3-1.5-2.2c-0.9-1.7-1.9-3.4-3.9-3.4c-2,0-3.8,0.8-5,2.1c-1.1,1.2-1.5,2.7-1.3,4.5V53
					l-0.5,0.1c-0.1,0-5.4,1-7.7,4.7c2.4,3.7,7.7,4.7,7.7,4.7l0.5,0.1v0.5c-0.2,1.8,0.3,3.4,1.3,4.5c1.2,1.3,3,2.1,5,2.1
					c2,0,3-1.7,3.9-3.4c0.5-0.9,0.9-1.7,1.5-2.2c1.5-1.3,3.8-0.9,5,0.2c1,0.9,1.1,2.1,0.4,3.1c-0.6,0.8-1.4,1.3-2.3,1.8
					c-1,0.6-1.9,1.1-1.9,1.9c0,1.9,0.6,3.5,1.8,4.6c2.7,2.5,7.6,2.1,7.7,2.1h0.5l0.1,0.5C151.5,83.2,154.5,83.2,154.6,83.2z"/>
			</g>
		</g>
		<g>
			<g>
				<path class="st3" d="M194.7,58c0,0,1.1,5.3,4.5,6.7c0,0,0.9-3.2-0.3-5.4c0,0,3.1,1.8,5.8-1.6c-2.6-3.7-6.2-1.4-6.2-1.4
					c1.1-2.2,0.6-5.6,0.6-5.6C194.6,53.7,194.7,58,194.7,58z"/>
			</g>
		</g>
		<g>
			<g>
				<path class="st3" d="M193.3,54c0-1.1,0-1.6,1-1.6s0.8,0.6,0.8,1.6v7.1c0,1.1,0.2,1.6-0.8,1.6s-1-0.6-1-1.6V54z"/>
			</g>
		</g>
		<g>
			<g>
				<path class="st3" d="M114.6,58c0,0-1.1,5.3-4.5,6.7c0,0-0.9-3.2,0.3-5.4c0,0-3.1,1.8-5.8-1.6c2.6-3.7,6.2-1.4,6.2-1.4
					c-1.2-2.2-0.6-5.6-0.6-5.6C114.7,53.7,114.6,58,114.6,58z"/>
			</g>
		</g>
		<g>
			<g>
				<path class="st3" d="M116,54c0-1.1,0-1.6-1-1.6c-1,0-0.8,0.6-0.8,1.6v7.1c0,1.1-0.2,1.6,0.8,1.6c1,0,1-0.6,1-1.6V54z"/>
			</g>
		</g>
		<g>
			<g>
				<path class="st3" d="M147.5,49.5c-6.8-7-4-11.3-4-11.3s-4.1,1.8-3.6,6.1c0.3,2.3,22,21.8,22,21.8c6.8,7,4,11.1,4,11.1
					s3.6-1.8,3.6-6.1C169.4,70.2,147.5,49.5,147.5,49.5z"/>
			</g>
		</g>
		<g>
			<g>
				<path class="st3" d="M147.5,65.9c-6.8,7-4,11.3-4,11.3s-4.1-1.8-3.6-6.1c0.3-2.3,21.9-21.6,21.9-21.6c6.8-7,4-11.3,4-11.3
					s4.1,1.8,3.6,6.1C169.1,46.7,147.5,65.9,147.5,65.9z"/>
			</g>
		</g>
		<g>
			<g>
				<path class="st3" d="M171,56.3C147.2,51.4,159.3,37,159.3,37l-0.7-1.8c0,0-13.2,17.5,12.3,22.5L171,56.3L171,56.3z"/>
			</g>
		</g>
		<g>
			<g>
				<path class="st3" d="M138.3,56.3c25.2-4.9,9.9-21.6,11.7-19.3l0.7-1.8c0,0,13.2,17.5-12.3,22.5L138.3,56.3L138.3,56.3z"/>
			</g>
		</g>
		<g>
			<g>
				<path class="st3" d="M138.3,59C162,64,150,78.3,150,78.3l0.7,1.8c0,0,13.2-17.5-12.3-22.5L138.3,59L138.3,59z"/>
			</g>
		</g>
		<g>
			<g>
				<path class="st3" d="M171,59c-23.7,4.9-11.7,19.3-11.7,19.3l-0.7,1.8c0,0-13.2-17.5,12.3-22.5L171,59L171,59z"/>
			</g>
		</g>
		<g>
			<g>
				<path class="st3" d="M196.4,33.7c0,0,2.6,5.6,5.2,3.6c0,0,3.2,0.1,2.7-3.1c0,0,1.9-0.5,1.2-3c-0.4-2.5-3-2.5-3-2.5
					c-0.9-3.1-3.5-0.8-3.5-0.8C195.7,27.2,196.4,33.7,196.4,33.7"/>
				<g>
					<path class="st3" d="M200.4,38c-0.2,0-0.3,0-0.5-0.1c-2.1-0.5-3.7-4-3.7-4.1v-0.1c0-0.2-0.5-4.2,1-5.6c0.4-0.4,1-0.6,1.6-0.5
						c0.3-0.3,1.4-1.1,2.5-0.7c0.6,0.2,1.1,0.7,1.3,1.6c0.6,0.1,2.7,0.4,3.1,2.7c0.3,0.8,0.2,1.6-0.1,2.2c-0.3,0.6-0.8,0.8-1,1
						c0.1,0.9-0.1,1.7-0.5,2.2c-0.7,0.9-2,1-2.3,1C201.3,37.8,200.9,38,200.4,38z M196.6,33.5c0.2,0.4,1.6,3.4,3.4,3.8
						c0.5,0.1,1,0,1.4-0.3l0.1-0.1h0.1c0,0,1.3,0,2-0.8c0.4-0.5,0.5-1.1,0.4-2V34l0.2-0.1c0,0,0.6-0.2,1-0.8c0.3-0.5,0.3-1.1,0-1.8
						c-0.4-2.3-2.7-2.4-2.8-2.4h-0.2l-0.1-0.2c-0.2-0.8-0.6-1.3-1-1.4c-0.8-0.2-1.8,0.4-2.1,0.7l-0.1,0.1h-0.1c-0.5-0.1-1,0-1.3,0.4
						C196.3,29.6,196.6,33.2,196.6,33.5z"/>
				</g>
			</g>
			<g>
				<path class="st3" d="M196.4,81.4c0,0,2.6-5.6,5.2-3.6c0,0,3.2-0.1,2.7,3.1c0,0,1.9,0.5,1.2,3c-0.4,2.5-3,2.5-3,2.5
					c-0.9,3.1-3.5,0.8-3.5,0.8C195.7,87.8,196.4,81.4,196.4,81.4"/>
				<g>
					<path class="st3" d="M200.8,88.3c-0.9,0-1.7-0.6-2-0.8c-0.7,0.1-1.2-0.1-1.6-0.5c-1.5-1.5-1.1-5.4-1-5.6v-0.1
						c0.1-0.1,1.7-3.6,3.7-4.1c0.6-0.2,1.2,0,1.8,0.4c0.3,0,1.6,0.1,2.3,1c0.5,0.6,0.6,1.3,0.5,2.2c0.3,0.1,0.7,0.4,1,1
						s0.4,1.4,0.1,2.3c-0.3,2.3-2.4,2.6-3.1,2.7c-0.3,0.9-0.7,1.4-1.3,1.6C201.1,88.2,201,88.3,200.8,88.3z M199,86.9L199,86.9
						c0.1,0.1,1.2,1.1,2.2,0.8c0.5-0.1,0.8-0.6,1-1.4l0.1-0.2h0.2c0.1,0,2.4,0,2.8-2.3c0.2-0.8,0.2-1.4,0-1.9
						c-0.3-0.6-0.9-0.8-1-0.8l-0.2-0.1v-0.2c0.2-0.9,0-1.5-0.4-2c-0.7-0.8-2-0.8-2-0.8h-0.1l-0.1-0.1c-0.5-0.4-0.9-0.5-1.4-0.3
						c-1.7,0.4-3.2,3.4-3.4,3.8c0,0.4-0.4,3.9,0.9,5.1C197.9,86.8,198.4,87,199,86.9L199,86.9z"/>
				</g>
			</g>
			<g>
				<path class="st3" d="M112.9,33.7c0,0-2.6,5.6-5.2,3.6c0,0-3.2,0.1-2.7-3.1c0,0-1.9-0.5-1.2-3c0.4-2.5,3-2.5,3-2.5
					c0.9-3.1,3.5-0.8,3.5-0.8C113.7,27.2,112.9,33.7,112.9,33.7"/>
				<g>
					<path class="st3" d="M108.9,38c-0.4,0-0.9-0.1-1.3-0.4c-0.3,0-1.6-0.1-2.3-1c-0.5-0.6-0.6-1.3-0.5-2.2c-0.3-0.1-0.8-0.4-1.1-1
						c-0.3-0.6-0.4-1.4-0.1-2.3c0.3-2.3,2.4-2.6,3.1-2.7c0.3-0.9,0.7-1.4,1.3-1.6c1-0.3,2.1,0.5,2.5,0.7c0.7-0.1,1.2,0.1,1.6,0.5
						c1.5,1.5,1.1,5.4,1,5.6v0.1c-0.1,0.1-1.7,3.6-3.7,4.1C109.2,37.8,109.1,38,108.9,38z M107.8,37L107.8,37c0.5,0.4,1,0.5,1.5,0.4
						c1.7-0.4,3.2-3.4,3.4-3.8c0-0.4,0.4-3.9-0.9-5.1c-0.3-0.3-0.8-0.5-1.3-0.4h-0.1l-0.1-0.1c0,0-1.2-1-2.1-0.7
						c-0.5,0.1-0.8,0.6-1,1.4l-0.1,0.2h-0.2c-0.1,0-2.4,0-2.8,2.3c-0.2,0.8-0.2,1.4,0,1.9c0.3,0.6,1,0.8,1,0.8l0.2,0.1v0.2
						c-0.2,0.9,0,1.5,0.4,2C106.3,37,107.7,37,107.8,37L107.8,37z"/>
				</g>
			</g>
			<g>
				<path class="st3" d="M112.9,81.4c0,0-2.6-5.6-5.2-3.6c0,0-3.2-0.1-2.7,3.1c0,0-1.9,0.5-1.2,3c0.4,2.5,3,2.5,3,2.5
					c0.9,3.1,3.5,0.8,3.5,0.8C113.7,87.8,112.9,81.4,112.9,81.4"/>
				<g>
					<path class="st3" d="M108.5,88.3c-0.2,0-0.3,0-0.5-0.1c-0.6-0.2-1.1-0.7-1.3-1.6c-0.6-0.1-2.7-0.4-3.1-2.7
						c-0.3-0.8-0.2-1.6,0.1-2.2c0.3-0.6,0.8-0.8,1.1-1c-0.1-0.9,0-1.7,0.5-2.2c0.7-0.9,2-1,2.3-1c0.6-0.4,1.2-0.5,1.8-0.4
						c2.1,0.5,3.7,4,3.7,4.1v0.1c0,0.2,0.5,4.1-1,5.6c-0.4,0.4-1,0.6-1.6,0.5C110.2,87.8,109.4,88.3,108.5,88.3z M107.7,78.1
						c-0.2,0-1.4,0-2,0.8c-0.4,0.5-0.5,1.1-0.4,2v0.2l-0.2,0.1c0,0-0.6,0.2-1,0.8c-0.3,0.5-0.3,1.1,0,1.8c0.4,2.3,2.7,2.4,2.8,2.4
						h0.2l0.1,0.2c0.2,0.8,0.6,1.3,1,1.4c0.9,0.3,2.1-0.7,2.1-0.7l0.1-0.1h0.1c0.5,0.1,1,0,1.3-0.4c1.2-1.2,0.9-4.7,0.9-5.1
						c-0.2-0.4-1.6-3.4-3.4-3.8C108.8,77.6,108.3,77.7,107.7,78.1L107.7,78.1L107.7,78.1L107.7,78.1z"/>
				</g>
			</g>
		</g>
		<g>
			<g>
				<path class="st4" d="M192.4,34.7c3.2,4.6,7.9,3.8,7.9,3.8s-0.7-2.3-3.1-3.6c0,0,1.6,0.5,4.6-2.6c-4.3-1.6-5.4-0.2-5.4-0.2
					c1.9-2.6,1.3-4.5,1.3-4.5S193.3,29,192.4,34.7z"/>
			</g>
			<g>
				<path class="st4" d="M192.4,80.3c3.2-4.6,7.9-3.8,7.9-3.8s-0.7,2.3-3.1,3.6c0,0,1.6-0.5,4.6,2.6c-4.3,1.6-5.4,0.2-5.4,0.2
					c1.9,2.6,1.3,4.5,1.3,4.5S193.3,85.9,192.4,80.3z"/>
			</g>
			<g>
				<path class="st4" d="M116.9,34.7c-3.2,4.6-7.9,3.8-7.9,3.8s0.7-2.3,3.1-3.6c0,0-1.6,0.5-4.6-2.6c4.3-1.6,5.4-0.2,5.4-0.2
					c-1.9-2.6-1.3-4.5-1.3-4.5S116,29,116.9,34.7z"/>
			</g>
			<g>
				<path class="st4" d="M116.9,80.3c-3.2-4.6-7.9-3.8-7.9-3.8s0.7,2.3,3.1,3.6c0,0-1.6-0.5-4.6,2.6c4.3,1.6,5.4,0.2,5.4,0.2
					c-1.9,2.6-1.3,4.5-1.3,4.5S116,85.9,116.9,80.3z"/>
			</g>
		</g>
		<g>
			<g>
				<path class="st4" d="M190,42c0,0,2.3-0.3,3.5,2.7l-1.3-0.4c0,0,1.9,1.9,1.8,4.5l-1.2-1.5c0,0,1.2,3.8-0.3,5.2c0,0-2-0.9-2.3-3.6
					l-0.2,1.6c0,0-1.5-1.8-1.1-3.1l-0.4,1.3c0,0-1.3-2.3-0.3-3.9l-1.1,1.1c0,0,0-2.2,1.5-3.7C189.7,41.2,190,42,190,42z"/>
				<g>
					<path class="st3" d="M192.6,52.8l-0.2-0.1c-0.1,0-1.5-0.7-2.2-2.4l-0.1,0.8l-0.4-0.4c0-0.1-0.7-0.9-1.1-1.9l-0.2,0.6l-0.3-0.5
						c0-0.1-0.9-1.5-0.7-3l-0.7,0.7V46c0-0.1,0-2.4,1.6-3.9c0.4-0.4,0.8-0.6,1.2-0.5c0.2,0,0.3,0.1,0.4,0.2c0.6,0,2.6,0.2,3.6,2.9
						l0.2,0.5l-1-0.3c0.6,0.8,1.4,2.2,1.3,4v0.7l-0.7-1C193.5,49.9,193.7,51.9,192.6,52.8L192.6,52.8z M190.3,47l0.2,2
						c0.2,2.1,1.5,3,2,3.3c1.1-1.4,0.1-4.8,0.1-4.8l-0.4-1.4l1.5,2c-0.2-2-1.6-3.4-1.6-3.5l-0.7-0.7l1.8,0.5c-1.1-2.2-3-2-3-2H190
						l-0.1-0.2c0,0,0-0.1-0.1-0.1s-0.3,0-0.7,0.4c-0.9,0.9-1.2,2.1-1.3,2.8l2.1-2.2l-1.2,2c-0.6,1-0.3,2.3,0,3.1l0.2-0.7l0.5,0.1
						c-0.2,0.7,0.3,1.7,0.7,2.4L190.3,47z"/>
				</g>
			</g>
			<g>
				<path class="st4" d="M190,73.1c0,0,2.3,0.3,3.5-2.7l-1.3,0.4c0,0,1.9-1.9,1.8-4.5l-1.1,1.4c0,0,1.2-3.8-0.3-5.2
					c0,0-2,0.9-2.3,3.5l-0.2-1.6c0,0-1.5,1.8-1.1,3.1l-0.4-1.3c0,0-1.3,2.3-0.3,3.9l-1.1-1.1c0,0,0,2.3,1.5,3.7
					C189.7,73.8,190,73.1,190,73.1z"/>
				<g>
					<path class="st3" d="M189.6,73.6c-0.3,0-0.6-0.2-1-0.6c-1.6-1.5-1.6-3.8-1.6-3.9v-0.6l0.7,0.7c-0.2-1.5,0.6-3,0.7-3l0.3-0.5
						l0.2,0.6c0.3-1,1-1.8,1.1-1.9l0.4-0.4l0.1,0.8c0.7-1.7,2.1-2.4,2.2-2.4l0.2-0.1h-0.1c1,1,0.8,3,0.6,4.3l0.7-1v0.7
						c0.1,1.7-0.7,3.2-1.3,4l1-0.3l-0.2,0.5c-1.1,2.6-3.1,2.9-3.6,2.9C189.9,73.4,189.8,73.5,189.6,73.6
						C189.7,73.6,189.6,73.6,189.6,73.6z M187.7,69.8c0.1,0.8,0.4,2,1.3,2.8c0.4,0.4,0.6,0.4,0.7,0.4c0.1,0,0.1-0.1,0.1-0.1l0.1-0.2
						h0.2c0.1,0,1.9,0.2,3-2l-1.8,0.5l0.7-0.7c0,0,1.4-1.5,1.6-3.5l-1.5,2l0.4-1.4c0,0,1-3.4-0.1-4.8c-0.5,0.3-1.8,1.2-2,3.3l-0.2,2
						l-0.4-3c-0.4,0.6-0.9,1.6-0.7,2.4l-0.5,0.1l-0.2-0.7c-0.3,0.7-0.6,2,0,3l1.2,2L187.7,69.8z"/>
				</g>
			</g>
			<g>
				<path class="st4" d="M119.4,42c0,0-2.3-0.3-3.5,2.7l1.3-0.4c0,0-1.9,1.9-1.8,4.5l1.1-1.4c0,0-1.2,3.8,0.3,5.2c0,0,2-0.9,2.3-3.6
					l0.2,1.6c0,0,1.5-1.8,1.1-3.1l0.4,1.3c0,0,1.3-2.3,0.3-3.9l1.1,1.1c0,0,0-2.2-1.5-3.7C119.6,41.2,119.4,42,119.4,42z"/>
				<g>
					<path class="st3" d="M116.7,52.8L116.7,52.8c-1.1-1.1-0.9-3.1-0.7-4.4l-0.7,1v-0.7c-0.1-1.7,0.7-3.2,1.3-4l-1.1,0.3l0.2-0.5
						c1.1-2.6,3.1-2.9,3.6-2.9c0.1-0.1,0.2-0.2,0.4-0.2c0.3-0.1,0.7,0.1,1.2,0.5c1.6,1.5,1.6,3.8,1.6,3.9v0.6l-0.7-0.7
						c0.2,1.5-0.6,3-0.7,3l-0.3,0.5l-0.2-0.6c-0.3,1-1,1.8-1.1,1.9l-0.4,0.4l-0.1-0.8c-0.7,1.7-2.1,2.4-2.2,2.4L116.7,52.8z
						 M117.1,46l-0.4,1.4c0,0-1,3.4,0.1,4.8c0.5-0.3,1.8-1.2,2-3.3l0.2-2l0.4,3c0.4-0.6,0.9-1.6,0.7-2.4l0.5-0.1l0.2,0.7
						c0.3-0.7,0.6-2,0-3l-1.2-2l2.1,2.2c-0.1-0.8-0.4-1.9-1.3-2.8c-0.4-0.4-0.6-0.4-0.7-0.4c-0.1,0-0.1,0.1-0.1,0.1l-0.1,0.2h-0.2
						c-0.1,0-1.9-0.2-3,2l1.8-0.5l-0.7,0.7c0,0-1.4,1.5-1.7,3.5L117.1,46z"/>
				</g>
			</g>
			<g>
				<path class="st4" d="M119.4,73.1c0,0-2.3,0.3-3.5-2.7l1.3,0.4c0,0-1.9-1.9-1.8-4.5l1.1,1.4c0,0-1.2-3.8,0.3-5.2
					c0,0,2,0.9,2.3,3.5l0.2-1.6c0,0,1.5,1.8,1.1,3.1l0.4-1.3c0,0,1.3,2.3,0.3,3.9l1.1-1.1c0,0,0,2.3-1.5,3.7
					C119.6,73.8,119.4,73.1,119.4,73.1z"/>
				<g>
					<path class="st3" d="M119.7,73.6L119.7,73.6c-0.3,0-0.4-0.1-0.5-0.2c-0.6,0-2.6-0.2-3.6-2.9l-0.2-0.5l1.1,0.3
						c-0.6-0.8-1.4-2.2-1.3-4v-0.7l0.7,1c-0.2-1.3-0.4-3.3,0.6-4.3l0.1-0.1l0.2,0.1c0.1,0,1.5,0.7,2.2,2.4l0.1-0.8l0.4,0.4
						c0,0.1,0.7,0.9,1.1,1.9l0.2-0.6l0.3,0.5c0,0.1,0.9,1.5,0.7,3l0.7-0.7V69c0,0.1,0,2.4-1.6,3.9C120.4,73.3,120,73.6,119.7,73.6z
						 M119.6,72.9C119.6,72.9,119.6,73,119.6,72.9c0.2,0.1,0.4,0.1,0.8-0.3c0.9-0.9,1.2-2.1,1.3-2.8l-2.2,2.2l1.2-2
						c0.6-1,0.3-2.3,0-3l-0.2,0.7l-0.5-0.1c0.2-0.8-0.3-1.8-0.7-2.4l-0.4,3l-0.2-2c-0.2-2-1.5-3-2-3.3c-1.1,1.4-0.1,4.8-0.1,4.8
						l0.4,1.4l-1.5-2c0.2,2,1.6,3.4,1.7,3.5l0.7,0.7l-1.8-0.5c1.2,2.2,3,2,3,2h0.2L119.6,72.9z"/>
				</g>
			</g>
		</g>
		<g>
			<g>
				<path class="st4" d="M214.5,57.8c3.5,0.5,5.8,4.1,5.8,4.1c-2.1,2.7-8.1,1.2-8.1,1.2c2.5,1.7,2.5,7,2.5,7
					c-5.3,0.2-6.4-3.9-6.4-3.9c0.9,2.7-1.6,6.8-1.6,6.8c0.5-2.9-11-15.2-11-15.2s11.5-12.3,11-15.2c0,0,2.5,4.1,1.6,6.8
					c0,0,1.2-4.1,6.4-3.9c0,0,0,5.3-2.5,7c0,0,6-1.5,8.1,1.2C220.2,53.7,217.9,57.2,214.5,57.8"/>
			</g>
			<g>
				<path class="st4" d="M94.9,57.8c-3.5,0.5-5.8,4.1-5.8,4.1c2.1,2.7,8.1,1.2,8.1,1.2c-2.5,1.7-2.5,7-2.5,7
					c5.3,0.2,6.4-3.9,6.4-3.9c-0.9,2.7,1.6,6.8,1.6,6.8c-0.5-2.9,11-15.2,11-15.2s-11.5-12.3-11-15.2c0,0-2.5,4.1-1.6,6.8
					c0,0-1.2-4.1-6.4-3.9c0,0,0,5.3,2.5,7c0,0-6-1.5-8.1,1.2C89.1,53.7,91.4,57.2,94.9,57.8"/>
			</g>
		</g>
		<g>
			<g>
				<g>
					<path class="st3" d="M170.9,54.8c0-0.8,0-1.3,1-1.3c1,0,0.9,0.5,0.9,1.3v5.7c0,0.8,0.2,1.3-0.9,1.3c-1,0-1-0.5-1-1.3V54.8z"/>
				</g>
				<g>
					<path class="st3" d="M171.9,62c-1.3,0-1.3-0.8-1.3-1.6v-5.7c0-0.8,0-1.6,1.3-1.6c0.5,0,0.7,0.1,0.9,0.3c0.2,0.2,0.2,0.6,0.2,1
						c0,0.1,0,0.2,0,0.3v5.7c0,0.1,0,0.2,0,0.3c0,0.4,0,0.8-0.2,1C172.7,62,172.4,62,171.9,62z M171.9,53.8c-0.8,0-0.8,0.2-0.8,1.1
						v5.7c0,0.9,0,1.1,0.8,1.1c0.4,0,0.5-0.1,0.5-0.1c0.1-0.1,0.1-0.3,0.1-0.6c0-0.1,0-0.2,0-0.3V55c0-0.1,0-0.2,0-0.3
						c0-0.3,0-0.5-0.1-0.6C172.4,53.8,172.3,53.8,171.9,53.8z"/>
				</g>
			</g>
			<g>
				<g>
					<path class="st3" d="M151.8,48.2c-0.8,0-1.3,0-1.3-1.1s0.5-0.9,1.3-0.9h5.4c0.8,0,1.3-0.2,1.3,0.9c0,1.1-0.5,1.1-1.3,1.1H151.8
						z"/>
				</g>
				<g>
					<path class="st3" d="M157.2,48.5h-5.4c-0.8,0-1.5,0-1.5-1.4c0-0.5,0.1-0.8,0.3-1s0.6-0.2,0.9-0.2c0.1,0,0.2,0,0.3,0h5.4
						c0.1,0,0.2,0,0.3,0c0.4,0,0.7,0,0.9,0.2s0.3,0.5,0.3,1C158.7,48.5,158,48.5,157.2,48.5z M151.3,46.5c-0.2,0-0.3,0-0.3,0.1
						c-0.1,0.1-0.1,0.2-0.1,0.6c0,0.8,0.2,0.8,1,0.8h5.4c0.8,0,1,0,1-0.8c0-0.4-0.1-0.5-0.1-0.6c-0.1-0.1-0.3-0.1-0.6-0.1
						c-0.1,0-0.2,0-0.3,0h-5.4c-0.1,0-0.2,0-0.3,0C151.4,46.5,151.3,46.5,151.3,46.5z"/>
				</g>
			</g>
			<g>
				<g>
					<path class="st3" d="M138.6,54.8c0-0.8,0-1.3-1-1.3s-0.9,0.5-0.9,1.3v5.7c0,0.8-0.2,1.3,0.9,1.3c1,0,1-0.5,1-1.3V54.8z"/>
				</g>
				<g>
					<path class="st3" d="M137.5,62c-0.5,0-0.7-0.1-0.9-0.3s-0.2-0.6-0.2-1c0-0.1,0-0.2,0-0.3v-5.7c0-0.1,0-0.2,0-0.3
						c0-0.4,0-0.8,0.2-1s0.5-0.3,0.9-0.3c1.3,0,1.3,0.8,1.3,1.6v5.7C138.8,61.3,138.8,62,137.5,62z M137.5,53.8
						c-0.4,0-0.5,0.1-0.6,0.1c-0.1,0.1-0.1,0.3-0.1,0.6c0,0.1,0,0.2,0,0.3v5.7c0,0.1,0,0.2,0,0.3c0,0.3,0,0.5,0.1,0.6
						c0.1,0.1,0.2,0.1,0.6,0.1c0.8,0,0.8-0.2,0.8-1.1v-5.7C138.3,54,138.3,53.8,137.5,53.8z"/>
				</g>
			</g>
			<g>
				<g>
					<path class="st3" d="M151.8,67.1c-0.8,0-1.3,0-1.3,1.1s0.5,0.9,1.3,0.9h5.4c0.8,0,1.3,0.2,1.3-0.9s-0.5-1.1-1.3-1.1H151.8z"/>
				</g>
				<g>
					<path class="st3" d="M151.3,69.2c-0.3,0-0.5,0-0.7-0.2s-0.3-0.5-0.3-1c0-1.4,0.7-1.4,1.5-1.4h5.4c0.8,0,1.5,0,1.5,1.4
						c0,0.5-0.1,0.8-0.3,1s-0.6,0.2-0.9,0.2c-0.1,0-0.2,0-0.3,0h-5.4c-0.1,0-0.2,0-0.3,0C151.4,69.2,151.4,69.2,151.3,69.2z
						 M151.8,67.2c-0.8,0-1,0-1,0.8c0,0.4,0.1,0.5,0.1,0.6c0.1,0.1,0.3,0.1,0.6,0.1c0.1,0,0.2,0,0.3,0h5.4c0.1,0,0.2,0,0.3,0
						c0.3,0,0.5,0,0.6-0.1s0.1-0.2,0.1-0.6c0-0.8-0.2-0.8-1-0.8H151.8z"/>
				</g>
			</g>
		</g>
		<g>
			<g>
				<g>
					<path class="st3" d="M172.8,56.5c2.6-4.3,7.5-2.5,7.5-2.5c-0.3,1.8-3.3,2.5-3.3,2.5c3.7-1.1,5.9,1.1,5.9,1.1s-2.3,2.3-5.9,1.1
						c0,0,3,0.8,3.3,2.5c0,0-4.8,1.8-7.5-2.5V56.5z"/>
				</g>
				<g>
					<path class="st3" d="M178,62c-1.7,0-3.9-0.6-5.4-3v-0.1v-2.4v-0.1c2.7-4.5,7.7-2.7,7.8-2.7l0.2,0.1V54
						c-0.1,0.8-0.8,1.5-1.5,1.9l0,0c2.5,0,4,1.5,4.1,1.5l0.2,0.2l-0.2,0.2c-0.1,0.1-1.6,1.5-4.1,1.5l0,0c0.7,0.4,1.4,1.1,1.5,1.9
						v0.2l-0.2,0.1C180.3,61.5,179.3,62,178,62z M173.1,58.8c2.2,3.6,6,2.7,6.9,2.4c-0.4-1.2-2.3-1.9-2.9-2.1c-0.1,0-0.1,0-0.2-0.1
						l0.1-0.5c0,0,0.1,0,0.2,0.1c2.8,0.8,4.6-0.5,5.2-1c-0.6-0.5-2.5-1.7-5.2-1c-0.1,0-0.2,0.1-0.2,0.1l-0.1-0.4
						c0.1,0,0.1,0,0.2-0.1c0.6-0.2,2.5-0.9,2.9-2.1c-0.9-0.3-4.7-1.1-6.9,2.4V58.8z"/>
				</g>
			</g>
			<g>
				<g>
					<path class="st3" d="M153.4,46.2c-4.1-2.8-2.4-7.9-2.4-7.9c1.7,0.3,2.4,3.5,2.4,3.5c-1.1-3.8,1.1-6.2,1.1-6.2s2.2,2.4,1.1,6.2
						c0,0,0.8-3.2,2.4-3.5c0,0,1.7,5.1-2.4,7.9H153.4z"/>
				</g>
				<g>
					<path class="st3" d="M155.7,46.5h-2.3h-0.1c-4.2-2.9-2.5-8.1-2.5-8.2l0.1-0.2h0.2c0.8,0.1,1.4,0.8,1.8,1.6
						c0-2.6,1.4-4.2,1.5-4.3l0.2-0.2l0.2,0.2c0.1,0.1,1.5,1.6,1.5,4.3c0.4-0.8,1-1.5,1.8-1.6h0.2l0.1,0.2
						C158.3,38.3,160,43.7,155.7,46.5L155.7,46.5z M153.5,46h2c3.4-2.4,2.6-6.3,2.3-7.3c-1,0.4-1.7,2-1.9,3c0,0.1,0,0.2-0.1,0.3
						l-0.5-0.1c0,0,0-0.1,0.1-0.2c0.7-2.8-0.4-4.8-0.9-5.5c-0.5,0.7-1.6,2.7-0.9,5.5c0,0.1,0.1,0.2,0.1,0.2l-0.5,0.1
						c0-0.1-0.1-0.2-0.1-0.3c-0.3-0.9-0.9-2.6-1.9-3C150.9,39.8,150.1,43.7,153.5,46z"/>
				</g>
			</g>
			<g>
				<g>
					<path class="st3" d="M153.4,69.1c-4.1,2.8-2.4,7.9-2.4,7.9c1.7-0.3,2.4-3.5,2.4-3.5c-1.1,3.8,1.1,6.2,1.1,6.2s2.2-2.4,1.1-6.2
						c0,0,0.8,3.2,2.4,3.5c0,0,1.7-5.1-2.4-7.9H153.4z"/>
				</g>
				<g>
					<path class="st3" d="M154.5,80.1l-0.2-0.2c-0.1-0.1-1.5-1.6-1.5-4.3c-0.4,0.8-1,1.5-1.8,1.6h-0.2l-0.1-0.2
						c0-0.1-1.7-5.3,2.5-8.2h0.1h2.3h0.1c4.3,2.9,2.5,8.1,2.5,8.2l-0.1,0.2h-0.2c-0.8-0.1-1.4-0.8-1.8-1.6c0,2.6-1.4,4.2-1.5,4.3
						L154.5,80.1z M153.6,73.8c-0.7,2.9,0.4,4.8,0.9,5.5c0.5-0.7,1.6-2.7,0.9-5.5c0-0.1-0.1-0.2-0.1-0.2l0.5-0.1
						c0,0.1,0.1,0.2,0.1,0.3c0.3,0.9,0.9,2.6,1.9,3c0.3-1,1.1-4.9-2.3-7.3h-2c-3.4,2.4-2.6,6.3-2.3,7.3c1-0.4,1.7-2.1,1.9-3
						c0-0.1,0-0.2,0.1-0.3l0.5,0.1C153.7,73.4,153.6,73.6,153.6,73.8z"/>
				</g>
			</g>
			<g>
				<g>
					<path class="st3" d="M136.5,56.5c-2.7-4.3-7.5-2.5-7.5-2.5c0.3,1.8,3.3,2.5,3.3,2.5c-3.7-1.1-5.9,1.1-5.9,1.1s2.3,2.3,5.9,1.1
						c0,0-3,0.8-3.3,2.5c0,0,4.8,1.8,7.5-2.5V56.5z"/>
				</g>
				<g>
					<path class="st3" d="M131.5,62c-1.4,0-2.4-0.4-2.4-0.4l-0.2-0.1v-0.2c0.1-0.8,0.8-1.5,1.5-1.9l0,0c-2.5,0-4-1.5-4.1-1.5
						l-0.2-0.2l0.2-0.2c0.1-0.1,1.6-1.5,4.1-1.5l0,0c-0.7-0.4-1.4-1.1-1.5-1.9v-0.2l0.2-0.1c0,0,5.1-1.8,7.8,2.7v0.1v2.4V59
						C135.2,61.5,133.1,62,131.5,62z M129.4,61.2c0.9,0.3,4.7,1.1,6.9-2.4v-2.1c-2.2-3.6-6-2.7-6.9-2.4c0.4,1.2,2.3,1.9,2.9,2.1
						c0.1,0,0.1,0,0.2,0.1l-0.1,0.5c0,0-0.1,0-0.2-0.1c-2.7-0.7-4.6,0.5-5.2,1c0.6,0.5,2.5,1.7,5.2,1c0.1,0,0.2-0.1,0.2-0.1l0.1,0.5
						c-0.1,0-0.1,0-0.2,0.1C131.7,59.3,129.8,60,129.4,61.2z"/>
				</g>
			</g>
		</g>
		<g>
			<g>
				<g>
					<path class="st3" d="M200.5,58c0,0,2,6,4.7,5.6c0,0,4.1,2.4,4.4-1.7c0,0,4.6-0.2,2.5-3.9c2.1-3.6-2.5-3.9-2.5-3.9
						c-0.2-4.1-4.4-1.7-4.4-1.7C202.5,52,200.5,58,200.5,58z"/>
				</g>
				<g>
					<path class="st3" d="M207.8,64.4c-1,0-2.1-0.5-2.5-0.7c-3,0.3-4.9-5.3-5.1-5.9l-0.1-0.2l0.1-0.2c0.2-0.6,2.1-6.2,5.1-5.9
						c0.5-0.3,2.4-1.1,3.7-0.4c0.7,0.4,1.1,1.1,1.3,2.2c0.8,0.1,2.2,0.5,2.8,1.6c0.4,0.8,0.3,1.7-0.2,2.7c0.5,1.1,0.6,2,0.2,2.7
						c-0.6,1.1-2.1,1.5-2.8,1.6c-0.1,1.1-0.6,1.8-1.3,2.2C208.7,64.4,208.3,64.4,207.8,64.4z M205.6,62.8l0.2,0.1
						c0.5,0.3,2,0.9,2.8,0.5c0.5-0.3,0.7-0.8,0.8-1.8V61h0.5c0.5,0,2-0.3,2.4-1.1c0.3-0.5,0.1-1.1-0.3-2l-0.1-0.3l0.1-0.3
						c0.5-0.8,0.6-1.5,0.3-2c-0.4-0.8-1.9-1.1-2.4-1.1h-0.5v-0.5c0-0.9-0.3-1.5-0.8-1.8c-0.8-0.5-2.3,0.2-2.8,0.5l-0.2,0.1h-0.2
						c-1.9-0.3-3.5,3.4-4.1,5c0.6,1.7,2.3,5.4,4.1,5L205.6,62.8z"/>
				</g>
			</g>
			<g>
				<g>
					<path class="st3" d="M108.3,58c0,0-2,6-4.7,5.6c0,0-4.1,2.4-4.4-1.7c0,0-4.6-0.2-2.5-3.9c-2.1-3.6,2.5-3.9,2.5-3.9
						c0.2-4.1,4.4-1.7,4.4-1.7C106.4,52,108.3,58,108.3,58z"/>
				</g>
				<g>
					<path class="st3" d="M101.5,64.4c-0.4,0-0.8-0.1-1.2-0.3c-0.7-0.4-1.1-1.1-1.3-2.2c-0.8-0.1-2.2-0.5-2.8-1.6
						c-0.4-0.8-0.3-1.7,0.2-2.7c-0.5-1.1-0.6-2-0.2-2.7c0.6-1.1,2.1-1.5,2.8-1.6c0.1-1.1,0.6-1.8,1.3-2.2c1.3-0.7,3.1,0.1,3.7,0.4
						c3-0.3,4.9,5.3,5.1,5.9l0.1,0.2l-0.1,0.2c-0.2,0.6-2.1,6.3-5.1,5.9C103.5,64.1,102.5,64.4,101.5,64.4z M101.5,52
						c-0.3,0-0.5,0-0.7,0.2c-0.5,0.3-0.7,0.8-0.8,1.8v0.5h-0.5c-0.5,0-2,0.3-2.4,1.1c-0.3,0.5-0.1,1.1,0.3,2l0.1,0.3l-0.1,0.3
						c-0.5,0.8-0.6,1.5-0.3,2c0.4,0.8,1.9,1.1,2.4,1.1h0.5v0.5c0.1,0.9,0.3,1.5,0.8,1.8c0.9,0.5,2.3-0.2,2.8-0.5l0.2-0.1h0.2
						c1.8,0.3,3.6-3.5,4.1-5c-0.6-1.7-2.2-5.4-4.1-5h-0.2l-0.2-0.1C103.2,52.3,102.3,52,101.5,52z"/>
				</g>
			</g>
		</g>
		<g>
			<g>
				<g>
					<g>
						<path class="st3" d="M218.4,52.2c0,0,2.1-4.6-3.7-5.3l-2.5,5.6L218.4,52.2z"/>
					</g>
					<g>
						<path class="st3" d="M211.7,52.7l2.8-6.1h0.2c1.9,0.2,3.2,0.9,3.9,2.1c0.9,1.6,0.1,3.5,0,3.6l-0.1,0.1L211.7,52.7z
							 M214.8,47.2l-2.3,5l5.6-0.2c0.2-0.4,0.6-1.8-0.1-3C217.6,48,216.5,47.3,214.8,47.2z"/>
					</g>
				</g>
				<g>
					<g>
						<path class="st3" d="M208.2,49.2c0,0,0.2-3.9-0.7-5.3c-0.9-1.5,5.3-2.1,5.3,1.2C212.8,46.5,208.2,49.2,208.2,49.2z"/>
					</g>
					<g>
						<path class="st3" d="M208,49.8v-0.5c0,0,0.2-3.8-0.6-5.2c-0.2-0.3-0.2-0.6,0-0.9c0.6-0.7,2.5-0.9,3.9-0.4
							c1.2,0.4,1.9,1.3,1.9,2.4c0,1.6-4.3,4.1-4.7,4.3L208,49.8z M209.6,43c-0.9,0-1.6,0.2-1.8,0.5c-0.1,0.1-0.1,0.1,0,0.3
							c0.8,1.2,0.8,3.9,0.7,5c1.7-1,4.1-2.8,4.1-3.7c0-1.1-0.8-1.7-1.5-1.9C210.6,43,210.1,43,209.6,43z"/>
					</g>
				</g>
				<g>
					<g>
						<path class="st3" d="M218.4,63.2c0,0,2.1,4.6-3.7,5.3l-2.5-5.6L218.4,63.2z"/>
					</g>
					<g>
						<path class="st3" d="M214.5,68.8l-2.8-6.1l6.8,0.3l0.1,0.1c0,0.1,0.9,2,0,3.6c-0.6,1.1-1.9,1.8-3.9,2.1H214.5z M212.6,63.3
							l2.3,5c1.7-0.2,2.8-0.8,3.3-1.8c0.6-1.2,0.2-2.6,0.1-3L212.6,63.3z"/>
					</g>
				</g>
				<g>
					<g>
						<path class="st3" d="M208.2,66.2c0,0,0.2,3.9-0.7,5.3c-0.9,1.5,5.3,2.1,5.3-1.2C212.8,68.8,208.2,66.2,208.2,66.2z"/>
					</g>
					<g>
						<path class="st3" d="M209.6,72.9c-1,0-1.9-0.3-2.2-0.7c-0.2-0.3-0.2-0.6,0-0.9c0.9-1.4,0.6-5.1,0.6-5.2v-0.5l0.4,0.2
							c0.5,0.3,4.7,2.8,4.7,4.3c0,1.1-0.7,2-1.9,2.4C210.7,72.8,210.1,72.9,209.6,72.9z M208.5,66.7c0,1.1,0,3.8-0.7,5
							c-0.1,0.1-0.1,0.2,0,0.3c0.3,0.4,2,0.7,3.3,0.3c0.7-0.2,1.5-0.8,1.5-1.9C212.6,69.4,210.2,67.7,208.5,66.7z"/>
					</g>
				</g>
				<g>
					<g>
						<path class="st3" d="M213.5,57.8l4.5,3c1.4-0.5,3.8-1.1,4.5-3c-0.7-1.9-3.3-2.4-4.7-2.9L213.5,57.8z"/>
					</g>
					<g>
						<path class="st3" d="M218,61l-4.9-3.3l4.7-3.1h0.1c0.2,0.1,0.5,0.2,0.8,0.2c1.5,0.4,3.4,1,4.1,2.8v0.1v0.1
							c-0.7,1.9-2.8,2.6-4.2,3L218,61z M214,57.8l4.1,2.8c0.1,0,0.2-0.1,0.3-0.1c1.4-0.5,3.2-1.1,3.8-2.6c-0.6-1.4-2.4-2-3.7-2.4
							c-0.2-0.1-0.5-0.1-0.7-0.2L214,57.8z"/>
					</g>
				</g>
			</g>
			<g>
				<g>
					<g>
						<path class="st3" d="M90.9,52.2c0,0-2.1-4.6,3.7-5.3l2.5,5.6L90.9,52.2z"/>
					</g>
					<g>
						<path class="st3" d="M97.6,52.7l-6.8-0.3l-0.1-0.1c0-0.1-0.9-2,0-3.6c0.6-1.1,1.9-1.8,3.9-2.1h0.2L97.6,52.7z M91.1,52
							l5.6,0.2l-2.3-5c-1.7,0.2-2.8,0.8-3.3,1.8C90.5,50,91,51.5,91.1,52z"/>
					</g>
				</g>
				<g>
					<g>
						<path class="st3" d="M101.1,49.2c0,0-0.2-3.9,0.7-5.3c0.9-1.5-5.3-2.1-5.3,1.2C96.5,46.5,101.1,49.2,101.1,49.2z"/>
					</g>
					<g>
						<path class="st3" d="M101.4,49.8l-0.4-0.2c-0.5-0.3-4.7-2.8-4.7-4.3c0-1.1,0.7-2,1.9-2.4c1.4-0.5,3.3-0.3,3.9,0.4
							c0.2,0.3,0.2,0.6,0,0.9c-0.9,1.4-0.7,5.1-0.6,5.2L101.4,49.8z M99.7,43c-0.5,0-1,0.1-1.5,0.2c-0.7,0.2-1.5,0.8-1.5,1.9
							c0,0.9,2.4,2.6,4.1,3.7c0-1.1,0-3.8,0.7-5c0.1-0.1,0.1-0.2,0-0.3C101.3,43.2,100.6,43,99.7,43z"/>
					</g>
				</g>
				<g>
					<g>
						<path class="st3" d="M90.9,63.2c0,0-2.1,4.6,3.7,5.3l2.5-5.6L90.9,63.2z"/>
					</g>
					<g>
						<path class="st3" d="M94.8,68.8h-0.2c-1.9-0.2-3.2-0.9-3.9-2.1c-0.9-1.6-0.1-3.5,0-3.6l0.1-0.1l6.8-0.3L94.8,68.8z M91.1,63.5
							c-0.2,0.4-0.6,1.8,0.1,3c0.5,0.9,1.6,1.6,3.3,1.8l2.3-5L91.1,63.5z"/>
					</g>
				</g>
				<g>
					<g>
						<path class="st3" d="M101.1,66.2c0,0-0.2,3.9,0.7,5.3c0.9,1.5-5.3,2.1-5.3-1.2C96.5,68.8,101.1,66.2,101.1,66.2z"/>
					</g>
					<g>
						<path class="st3" d="M99.7,72.9c-0.6,0-1.2-0.1-1.7-0.3c-1.2-0.4-1.9-1.3-1.9-2.4c0-1.6,4.2-4.1,4.7-4.3l0.4-0.2v0.5
							c0,0-0.2,3.8,0.6,5.2c0.2,0.3,0.2,0.6,0,0.9C101.6,72.7,100.7,72.9,99.7,72.9z M100.8,66.7c-1.7,1-4.1,2.8-4.1,3.7
							c0,1.1,0.8,1.7,1.5,1.9c1.3,0.5,3,0.2,3.3-0.3c0.1-0.1,0.1-0.1,0-0.3C100.8,70.4,100.8,67.8,100.8,66.7z"/>
					</g>
				</g>
				<g>
					<g>
						<path class="st3" d="M95.8,57.8l-4.5,3c-1.4-0.5-3.8-1.1-4.5-3c0.7-1.9,3.3-2.4,4.7-2.9L95.8,57.8z"/>
					</g>
					<g>
						<path class="st3" d="M91.3,61l-0.6-0.2c-1.4-0.5-3.5-1.2-4.2-3.1v-0.1v-0.1c0.6-1.7,2.6-2.3,4.1-2.8c0.3-0.1,0.5-0.2,0.8-0.2
							h0.1l4.7,3.1L91.3,61z M87.1,57.8c0.6,1.6,2.5,2.2,3.8,2.6c0.1,0,0.2,0.1,0.3,0.1l4.1-2.8L91.4,55c-0.2,0.2-0.4,0.2-0.6,0.3
							C89.5,55.8,87.7,56.2,87.1,57.8z"/>
					</g>
				</g>
			</g>
		</g>
	</g>
	<g>
		<g>
			<g>
				<g>
					<path class="st3" d="M996.5,105.8c-1.7-0.1-8.6-3.1-8.6-8.8c0-5.7,4.8-7.6,4.8-7.6s-2.6,1.9-2.6,5.5c0,1.8,1.4,1.8,1.4,3.3
						s-1.4,1.6-2.2,0.8c0,0,1,4.4,7.2,6.4L996.5,105.8L996.5,105.8z"/>
				</g>
			</g>
			<g>
				<path class="st3" d="M1011.1,94.6c-2.5,9.3-9.4,11.2-9.4,11.2l-0.1-0.8c0,0,6.3-2.5,8.8-10.6L1011.1,94.6"/>
			</g>
			<g>
				<g>
					<path class="st3" d="M1007.3,100.3l0.8-1c-4.7-0.5-5.8-7.6-5.8-7.6S1001.9,99.2,1007.3,100.3z"/>
				</g>
			</g>
			<g>
				<g>
					<path class="st3" d="M988.1,105.8c0,0,2.8-5.7,7.1-5.4c0,0-0.2-6.3,2.8-6.3c3,0,3.2,6.5,5.2,5.2c1.7-1.1-0.4-3-0.6-5.9
						c-0.2-3.7,1.7-6.4,4.6-6.1c0,0,0.5-3.9,1.8-4.6c1.5-0.9,2-2.3,2-2.3s0.6,1.5,2,2.3c1.3,0.8,1.8,4.6,1.8,4.6
						c2.9-0.3,4.8,2.5,4.6,6.2c-0.2,2.9-2.3,4.8-0.6,5.9c2,1.3,2.2-5.2,5.2-5.2c3,0,2.8,6.3,2.8,6.3c4.3-0.3,7.1,5.4,7.1,5.4
						l0.5-0.5c0,0-2-5.3-6.4-6.1c0,0,0.5-8.6-7.3-7c0,0,0.5-5.9-4.9-6.1c0,0-0.5-3.5-2.5-4.6c-2-1.1-2.1-3.1-2.1-3.1s-0.1,2-2.1,3.1
						c-2,1.1-2.5,4.6-2.5,4.6c-5.4,0.3-4.9,6.1-4.9,6.1c-7.8-1.6-7.3,7-7.3,7c-4.4,0.7-6.4,6.1-6.4,6.1L988.1,105.8z"/>
				</g>
			</g>
			<g>
				<g>
					<path class="st3" d="M1025.2,105.8c1.7-0.1,8.6-3.1,8.6-8.8c0-5.7-4.8-7.6-4.8-7.6s2.6,1.9,2.6,5.5c0,1.8-1.4,1.8-1.4,3.3
						s1.4,1.6,2.2,0.8c0,0-1,4.4-7.2,6.4L1025.2,105.8L1025.2,105.8z"/>
				</g>
			</g>
			<g>
				<path class="st3" d="M1010.5,94.6c2.5,9.3,9.4,11.2,9.4,11.2l0.1-0.8c0,0-6.3-2.5-8.8-10.6L1010.5,94.6"/>
			</g>
			<g>
				<g>
					<path class="st3" d="M1014.3,100.3l-0.8-1c4.7-0.5,5.8-7.6,5.8-7.6S1019.6,99.2,1014.3,100.3z"/>
				</g>
			</g>
			<g>
				<g>
					<path class="st3" d="M1011,104.7c2.5-1.3,3.3-2.8,3.3-2.8l-0.6-0.8c0,0-0.8,1.6-2.7,2.4c-1.8-0.8-3-2.6-3-2.6l-0.8,0.9
						C1007.3,101.7,1008.5,103.3,1011,104.7z"/>
				</g>
			</g>
		</g>
		<g>
			<g>
				<path class="st3" d="M987.5,105.8c-2-4-6.3-5-6.3-5c-0.2,2.2,2,3.1,2,3.1c-2.5-0.6-5.2,1.9-5.2,1.9H987.5"/>
			</g>
			<g>
				<g>
					<path class="st3" d="M1001.7,105.8c-0.2-3.7-4.6-4.3-4.6-4.3c0,2,1.9,2.7,1.9,2.7c-2.5-0.8-4.1,1.6-4.1,1.6
						S1001.7,105.8,1001.7,105.8z"/>
				</g>
			</g>
			<g>
				<g>
					<path class="st3" d="M1010.9,93.7c-3.2-0.3-3.7-5.2-3.7-5.2c1.8,0,2.4,2.2,2.4,2.2c-0.7-2.9,1.4-4.6,1.4-4.6s1.5,1.8,0.8,4.6
						c0,0,0.6-2.2,2.4-2.2C1014.3,88.4,1014.2,93.4,1010.9,93.7z"/>
				</g>
				<g>
					<path class="st3" d="M1010.9,93.9L1010.9,93.9c-3.4-0.3-3.9-5.2-3.9-5.5v-0.3h0.3c0.9,0,1.6,0.5,2,1.1c0.1-2.1,1.5-3.4,1.6-3.5
						l0.2-0.2l0.2,0.2c0.1,0.1,1.1,1.3,1.1,3.4c0.4-0.5,1-1,2-1h0.3v0.3C1014.5,88.7,1014.4,93.7,1010.9,93.9L1010.9,93.9z
						 M1007.6,88.8c0.2,1,0.8,4.4,3.4,4.7c2.5-0.2,3-3.7,3.1-4.7c-1.4,0.2-1.9,2-1.9,2l-0.5-0.1c0.5-2.2-0.2-3.7-0.6-4.2
						c-0.5,0.5-1.6,2-1.1,4.2l-0.5,0.1C1009.4,90.7,1008.9,88.9,1007.6,88.8z"/>
				</g>
			</g>
			<g>
				<path class="st3" d="M1034.2,105.8c2-4,6.3-5,6.3-5c0.2,2.2-2,3.1-2,3.1c2.5-0.6,5.2,1.9,5.2,1.9H1034.2"/>
			</g>
			<g>
				<g>
					<path class="st3" d="M1019.9,105.8c0.2-3.7,4.6-4.3,4.6-4.3c0,2-1.9,2.7-1.9,2.7c2.5-0.8,4.1,1.6,4.1,1.6
						S1019.9,105.8,1019.9,105.8z"/>
				</g>
			</g>
		</g>
		<g>
			<g>
				<path class="st3" d="M1009.2,94.7c-1.5,0-1.6-1.8,0-1.8h3.1c1.6,0,1.5,1.8,0,1.8H1009.2z"/>
			</g>
		</g>
		<g>
			<g>
				<path class="st3" d="M986.2,105.8v-2.4c0-2.1,1.9-2,1.9,0v2.4H986.2z"/>
			</g>
		</g>
		<g>
			<g>
				<path class="st3" d="M1019,105.8v-2.1c0-1.7,1.6-1.8,1.6,0v2.1H1019z"/>
			</g>
		</g>
		<g>
			<g>
				<path class="st3" d="M1001,105.8v-2.1c0-1.7,1.6-1.8,1.6,0v2.1H1001z"/>
			</g>
		</g>
		<g>
			<g>
				<path class="st3" d="M1035.5,105.8v-2.4c0-2.1-1.9-2-1.9,0v2.4H1035.5z"/>
			</g>
		</g>
	</g>
	<g>
		<g>
			<g>
				<g>
					<path class="st3" d="M996.5,8.9c-1.7,0.1-8.6,3.1-8.6,8.8s4.8,7.6,4.8,7.6s-2.6-1.9-2.6-5.5c0-1.8,1.4-1.8,1.4-3.3
						s-1.4-1.6-2.2-0.8c0,0,1-4.4,7.2-6.4L996.5,8.9L996.5,8.9z"/>
				</g>
			</g>
			<g>
				<path class="st3" d="M1011.1,20c-2.5-9.3-9.4-11.2-9.4-11.2l-0.1,0.8c0,0,6.3,2.5,8.8,10.6L1011.1,20"/>
			</g>
			<g>
				<g>
					<path class="st3" d="M1007.3,14.4l0.8,1c-4.7,0.5-5.8,7.6-5.8,7.6S1001.9,15.6,1007.3,14.4z"/>
				</g>
			</g>
			<g>
				<g>
					<path class="st3" d="M988.1,8.9c0,0,2.8,5.7,7.1,5.4c0,0-0.2,6.3,2.8,6.3c3,0,3.2-6.5,5.2-5.2c1.7,1.1-0.4,3-0.6,5.9
						c-0.2,3.7,1.7,6.4,4.6,6.1c0,0,0.5,3.9,1.8,4.6c1.5,0.9,2,2.3,2,2.3s0.6-1.5,2-2.3c1.3-0.8,1.8-4.6,1.8-4.6
						c2.9,0.3,4.8-2.5,4.6-6.2c-0.2-2.9-2.3-4.8-0.6-5.9c2-1.3,2.2,5.2,5.2,5.2c3,0,2.8-6.3,2.8-6.3c4.3,0.3,7.1-5.4,7.1-5.4
						l0.5,0.5c0,0-2,5.3-6.4,6.1c0,0,0.5,8.6-7.3,7c0,0,0.5,5.9-4.9,6.1c0,0-0.5,3.5-2.5,4.6c-2,1.1-2.1,3.1-2.1,3.1s-0.1-2-2.1-3.1
						c-2-1.1-2.5-4.6-2.5-4.6c-5.4-0.3-4.9-6.1-4.9-6.1c-7.8,1.6-7.3-7-7.3-7c-4.4-0.7-6.4-6.1-6.4-6.1L988.1,8.9z"/>
				</g>
			</g>
			<g>
				<g>
					<path class="st3" d="M1025.2,8.9c1.7,0.1,8.6,3.1,8.6,8.8s-4.8,7.6-4.8,7.6s2.6-1.9,2.6-5.5c0-1.8-1.4-1.8-1.4-3.3
						s1.4-1.6,2.2-0.8c0,0-1-4.4-7.2-6.4L1025.2,8.9L1025.2,8.9z"/>
				</g>
			</g>
			<g>
				<path class="st3" d="M1010.5,20c2.5-9.3,9.4-11.2,9.4-11.2l0.1,0.8c0,0-6.3,2.5-8.8,10.6L1010.5,20"/>
			</g>
			<g>
				<g>
					<path class="st3" d="M1014.3,14.4l-0.8,1c4.7,0.5,5.8,7.6,5.8,7.6S1019.6,15.6,1014.3,14.4z"/>
				</g>
			</g>
			<g>
				<g>
					<path class="st3" d="M1011,9.9c2.5,1.3,3.3,2.8,3.3,2.8l-0.6,0.8c0,0-0.8-1.6-2.7-2.4c-1.8,0.8-3,2.6-3,2.6l-0.8-0.9
						C1007.3,12.9,1008.5,11.2,1011,9.9z"/>
				</g>
			</g>
		</g>
		<g>
			<g>
				<path class="st3" d="M987.5,8.9c-2,4-6.3,5-6.3,5c-0.2-2.2,2-3.1,2-3.1c-2.5,0.6-5.2-1.9-5.2-1.9H987.5"/>
			</g>
			<g>
				<g>
					<path class="st3" d="M1001.7,8.9c-0.2,3.7-4.6,4.3-4.6,4.3c0-2,1.9-2.7,1.9-2.7c-2.5,0.8-4.1-1.6-4.1-1.6H1001.7z"/>
				</g>
			</g>
			<g>
				<g>
					<path class="st3" d="M1010.9,21c-3.2,0.3-3.7,5.2-3.7,5.2c1.8,0,2.4-2.2,2.4-2.2c-0.7,2.9,1.4,4.6,1.4,4.6s1.5-1.8,0.8-4.6
						c0,0,0.6,2.2,2.4,2.2C1014.3,26.1,1014.2,21.2,1010.9,21z"/>
				</g>
				<g>
					<path class="st3" d="M1011.1,29l-0.2-0.2c-0.1-0.1-1.5-1.3-1.6-3.5c-0.4,0.6-1.1,1.1-2,1.1h-0.3v-0.3c0-0.2,0.5-5.2,3.9-5.5
						l0,0l0,0c3.4,0.3,3.6,5.3,3.6,5.5v0.3h-0.3c-0.9,0-1.5-0.5-2-1c0,2.1-1,3.3-1.1,3.4L1011.1,29z M1009.4,24l0.5,0.1
						c-0.5,2.2,0.6,3.7,1.1,4.2c0.4-0.5,1.1-2,0.6-4.2l0.5-0.1c0,0,0.5,1.8,1.9,2c-0.1-1-0.5-4.4-3.1-4.7c-2.5,0.2-3.2,3.6-3.4,4.7
						C1008.9,25.6,1009.4,24,1009.4,24z"/>
				</g>
			</g>
			<g>
				<path class="st3" d="M1034.2,8.9c2,4,6.3,5,6.3,5c0.2-2.2-2-3.1-2-3.1c2.5,0.6,5.2-1.9,5.2-1.9H1034.2"/>
			</g>
			<g>
				<g>
					<path class="st3" d="M1019.9,8.9c0.2,3.7,4.6,4.3,4.6,4.3c0-2-1.9-2.7-1.9-2.7c2.5,0.8,4.1-1.6,4.1-1.6H1019.9z"/>
				</g>
			</g>
		</g>
		<g>
			<g>
				<path class="st3" d="M1009.2,20c-1.5,0-1.6,1.8,0,1.8h3.1c1.6,0,1.5-1.8,0-1.8H1009.2z"/>
			</g>
		</g>
		<g>
			<g>
				<path class="st3" d="M986.2,8.9v2.4c0,2.1,1.9,2,1.9,0V8.9H986.2z"/>
			</g>
		</g>
		<g>
			<g>
				<path class="st3" d="M1019,8.9V11c0,1.7,1.6,1.8,1.6,0V8.9H1019z"/>
			</g>
		</g>
		<g>
			<g>
				<path class="st3" d="M1001,8.9V11c0,1.7,1.6,1.8,1.6,0V8.9H1001z"/>
			</g>
		</g>
		<g>
			<g>
				<path class="st3" d="M1035.5,8.9v2.4c0,2.1-1.9,2-1.9,0V8.9H1035.5z"/>
			</g>
		</g>
	</g>
	<g>
		<g>
			<g>
				<g>
					<path class="st3" d="M823.7,105.8c-1.7-0.1-8.6-3.1-8.6-8.8c0-5.7,4.8-7.6,4.8-7.6s-2.6,1.9-2.6,5.5c0,1.8,1.4,1.8,1.4,3.3
						s-1.4,1.6-2.2,0.8c0,0,1,4.4,7.2,6.4L823.7,105.8L823.7,105.8z"/>
				</g>
			</g>
			<g>
				<path class="st3" d="M838.3,94.6c-2.5,9.3-9.4,11.2-9.4,11.2l-0.1-0.8c0,0,6.3-2.5,8.8-10.6L838.3,94.6"/>
			</g>
			<g>
				<g>
					<path class="st3" d="M834.6,100.3l0.8-1c-4.7-0.5-5.8-7.6-5.8-7.6S829.3,99.2,834.6,100.3z"/>
				</g>
			</g>
			<g>
				<g>
					<path class="st3" d="M815.3,105.8c0,0,2.8-5.7,7.1-5.4c0,0-0.2-6.3,2.8-6.3s3.2,6.5,5.2,5.2c1.7-1.1-0.4-3-0.6-5.9
						c-0.2-3.7,1.7-6.4,4.6-6.1c0,0,0.5-3.9,1.8-4.6c1.5-0.9,2-2.3,2-2.3s0.6,1.5,2,2.3c1.3,0.8,1.8,4.6,1.8,4.6
						c2.9-0.3,4.8,2.5,4.6,6.2c-0.2,2.9-2.3,4.8-0.6,5.9c2,1.3,2.2-5.2,5.2-5.2c3,0,2.8,6.3,2.8,6.3c4.3-0.3,7.1,5.4,7.1,5.4
						l0.5-0.5c0,0-2-5.3-6.4-6.1c0,0,0.5-8.6-7.3-7c0,0,0.5-5.9-4.9-6.1c0,0-0.5-3.5-2.5-4.6c-2-1.1-2.1-3.1-2.1-3.1s-0.1,2-2.1,3.1
						c-2,1.1-2.5,4.6-2.5,4.6c-5.4,0.3-4.9,6.1-4.9,6.1c-7.8-1.6-7.3,7-7.3,7c-4.4,0.7-6.4,6.1-6.4,6.1L815.3,105.8z"/>
				</g>
			</g>
			<g>
				<g>
					<path class="st3" d="M852.4,105.8c1.7-0.1,8.6-3.1,8.6-8.8c0-5.7-4.8-7.6-4.8-7.6s2.6,1.9,2.6,5.5c0,1.8-1.4,1.8-1.4,3.3
						s1.4,1.6,2.2,0.8c0,0-1,4.4-7.2,6.4L852.4,105.8L852.4,105.8z"/>
				</g>
			</g>
			<g>
				<path class="st3" d="M837.8,94.6c2.5,9.3,9.4,11.2,9.4,11.2l0.1-0.8c0,0-6.3-2.5-8.8-10.6L837.8,94.6"/>
			</g>
			<g>
				<g>
					<path class="st3" d="M841.5,100.3l-0.8-1c4.7-0.5,5.8-7.6,5.8-7.6S846.9,99.2,841.5,100.3z"/>
				</g>
			</g>
			<g>
				<g>
					<path class="st3" d="M838.3,104.7c2.5-1.3,3.3-2.8,3.3-2.8L841,101c0,0-0.8,1.6-2.7,2.4c-1.8-0.8-3-2.6-3-2.6l-0.8,0.9
						C834.7,101.7,835.9,103.3,838.3,104.7z"/>
				</g>
			</g>
		</g>
		<g>
			<g>
				<path class="st3" d="M814.7,105.8c-2-4-6.3-5-6.3-5c-0.2,2.2,2,3.1,2,3.1c-2.5-0.6-5.2,1.9-5.2,1.9H814.7"/>
			</g>
			<g>
				<g>
					<path class="st3" d="M829,105.8c-0.2-3.7-4.6-4.3-4.6-4.3c0,2,1.9,2.7,1.9,2.7c-2.5-0.8-4.1,1.6-4.1,1.6S829,105.8,829,105.8z"
						/>
				</g>
			</g>
			<g>
				<g>
					<path class="st3" d="M838.2,93.7c-3.2-0.3-3.7-5.2-3.7-5.2c1.8,0,2.4,2.2,2.4,2.2c-0.7-2.9,1.4-4.6,1.4-4.6s1.5,1.8,0.8,4.6
						c0,0,0.6-2.2,2.4-2.2C841.5,88.4,841.4,93.4,838.2,93.7z"/>
				</g>
				<g>
					<path class="st3" d="M838.2,93.9L838.2,93.9c-3.4-0.3-3.9-5.2-3.9-5.5v-0.3h0.3c0.9,0,1.6,0.5,2,1.1c0.1-2.1,1.5-3.4,1.6-3.5
						l0.2-0.2l0.2,0.2c0.1,0.1,1.1,1.3,1.1,3.4c0.4-0.5,1-1,2-1h0.3v0.3C841.8,88.7,841.6,93.7,838.2,93.9L838.2,93.9z M834.9,88.8
						c0.2,1,0.8,4.4,3.4,4.7c2.5-0.2,3-3.7,3.1-4.7c-1.4,0.2-1.9,2-1.9,2l-0.5-0.1c0.5-2.2-0.2-3.7-0.6-4.2c-0.5,0.5-1.6,2-1.1,4.2
						l-0.5,0.1C836.8,90.7,836.3,88.9,834.9,88.8z"/>
				</g>
			</g>
			<g>
				<path class="st3" d="M861.4,105.8c2-4,6.3-5,6.3-5c0.2,2.2-2,3.1-2,3.1c2.5-0.6,5.2,1.9,5.2,1.9H861.4"/>
			</g>
			<g>
				<g>
					<path class="st3" d="M847.2,105.8c0.2-3.7,4.6-4.3,4.6-4.3c0,2-1.9,2.7-1.9,2.7c2.5-0.8,4.1,1.6,4.1,1.6
						S847.2,105.8,847.2,105.8z"/>
				</g>
			</g>
		</g>
		<g>
			<g>
				<path class="st3" d="M836.5,94.7c-1.5,0-1.6-1.8,0-1.8h3.1c1.6,0,1.5,1.8,0,1.8H836.5z"/>
			</g>
		</g>
		<g>
			<g>
				<path class="st3" d="M813.4,105.8v-2.4c0-2.1,1.9-2,1.9,0v2.4H813.4z"/>
			</g>
		</g>
		<g>
			<g>
				<path class="st3" d="M846.3,105.8v-2.1c0-1.7,1.6-1.8,1.6,0v2.1H846.3z"/>
			</g>
		</g>
		<g>
			<g>
				<path class="st3" d="M828.3,105.8v-2.1c0-1.7,1.6-1.8,1.6,0v2.1H828.3z"/>
			</g>
		</g>
		<g>
			<g>
				<path class="st3" d="M862.8,105.8v-2.4c0-2.1-1.9-2-1.9,0v2.4H862.8z"/>
			</g>
		</g>
	</g>
	<g>
		<g>
			<g>
				<g>
					<path class="st3" d="M823.7,8.9c-1.7,0.1-8.6,3.1-8.6,8.8s4.8,7.6,4.8,7.6s-2.6-1.9-2.6-5.5c0-1.8,1.4-1.8,1.4-3.3
						s-1.4-1.6-2.2-0.8c0,0,1-4.4,7.2-6.4L823.7,8.9L823.7,8.9z"/>
				</g>
			</g>
			<g>
				<path class="st3" d="M838.3,20c-2.5-9.3-9.4-11.2-9.4-11.2l-0.1,0.8c0,0,6.3,2.5,8.8,10.6L838.3,20"/>
			</g>
			<g>
				<g>
					<path class="st3" d="M834.6,14.4l0.8,1c-4.7,0.5-5.8,7.6-5.8,7.6S829.3,15.6,834.6,14.4z"/>
				</g>
			</g>
			<g>
				<g>
					<path class="st3" d="M815.3,8.9c0,0,2.8,5.7,7.1,5.4c0,0-0.2,6.3,2.8,6.3s3.2-6.5,5.2-5.2c1.7,1.1-0.4,3-0.6,5.9
						c-0.2,3.7,1.7,6.4,4.6,6.1c0,0,0.5,3.9,1.8,4.6c1.5,0.9,2,2.3,2,2.3s0.6-1.5,2-2.3c1.3-0.8,1.8-4.6,1.8-4.6
						c2.9,0.3,4.8-2.5,4.6-6.2c-0.2-2.9-2.3-4.8-0.6-5.9c2-1.3,2.2,5.2,5.2,5.2c3,0,2.8-6.3,2.8-6.3c4.3,0.3,7.1-5.4,7.1-5.4
						l0.5,0.5c0,0-2,5.3-6.4,6.1c0,0,0.5,8.6-7.3,7c0,0,0.5,5.9-4.9,6.1c0,0-0.5,3.5-2.5,4.6c-2,1.1-2.1,3.1-2.1,3.1s-0.1-2-2.1-3.1
						c-2-1.1-2.5-4.6-2.5-4.6c-5.4-0.3-4.9-6.1-4.9-6.1c-7.8,1.6-7.3-7-7.3-7c-4.4-0.7-6.4-6.1-6.4-6.1L815.3,8.9z"/>
				</g>
			</g>
			<g>
				<g>
					<path class="st3" d="M852.4,8.9c1.7,0.1,8.6,3.1,8.6,8.8s-4.8,7.6-4.8,7.6s2.6-1.9,2.6-5.5c0-1.8-1.4-1.8-1.4-3.3
						s1.4-1.6,2.2-0.8c0,0-1-4.4-7.2-6.4L852.4,8.9L852.4,8.9z"/>
				</g>
			</g>
			<g>
				<path class="st3" d="M837.8,20c2.5-9.3,9.4-11.2,9.4-11.2l0.1,0.8c0,0-6.3,2.5-8.8,10.6L837.8,20"/>
			</g>
			<g>
				<g>
					<path class="st3" d="M841.5,14.4l-0.8,1c4.7,0.5,5.8,7.6,5.8,7.6S846.9,15.6,841.5,14.4z"/>
				</g>
			</g>
			<g>
				<g>
					<path class="st3" d="M838.3,9.9c2.5,1.3,3.3,2.8,3.3,2.8l-0.6,0.8c0,0-0.8-1.6-2.7-2.4c-1.8,0.8-3,2.6-3,2.6l-0.8-0.9
						C834.7,12.9,835.9,11.2,838.3,9.9z"/>
				</g>
			</g>
		</g>
		<g>
			<g>
				<path class="st3" d="M814.7,8.9c-2,4-6.3,5-6.3,5c-0.2-2.2,2-3.1,2-3.1c-2.5,0.6-5.2-1.9-5.2-1.9H814.7"/>
			</g>
			<g>
				<g>
					<path class="st3" d="M829,8.9c-0.2,3.7-4.6,4.3-4.6,4.3c0-2,1.9-2.7,1.9-2.7c-2.5,0.8-4.1-1.6-4.1-1.6H829z"/>
				</g>
			</g>
			<g>
				<g>
					<path class="st3" d="M838.2,21c-3.2,0.3-3.7,5.2-3.7,5.2c1.8,0,2.4-2.2,2.4-2.2c-0.7,2.9,1.4,4.6,1.4,4.6s1.5-1.8,0.8-4.6
						c0,0,0.6,2.2,2.4,2.2C841.5,26.1,841.4,21.2,838.2,21z"/>
				</g>
				<g>
					<path class="st3" d="M838.3,29l-0.2-0.2c-0.1-0.1-1.5-1.3-1.6-3.5c-0.4,0.6-1.1,1.1-2,1.1h-0.3v-0.3c0-0.2,0.5-5.2,3.9-5.5l0,0
						l0,0c3.4,0.3,3.6,5.3,3.6,5.5v0.3h-0.3c-0.9,0-1.5-0.5-2-1c0,2.1-1,3.3-1.1,3.4L838.3,29z M836.8,24l0.5,0.1
						c-0.5,2.2,0.6,3.7,1.1,4.2c0.4-0.5,1.1-2,0.6-4.2l0.5-0.1c0,0,0.5,1.8,1.9,2c-0.1-1-0.5-4.4-3.1-4.7c-2.5,0.2-3.2,3.6-3.4,4.7
						C836.3,25.6,836.8,24,836.8,24z"/>
				</g>
			</g>
			<g>
				<path class="st3" d="M861.4,8.9c2,4,6.3,5,6.3,5c0.2-2.2-2-3.1-2-3.1c2.5,0.6,5.2-1.9,5.2-1.9H861.4"/>
			</g>
			<g>
				<g>
					<path class="st3" d="M847.2,8.9c0.2,3.7,4.6,4.3,4.6,4.3c0-2-1.9-2.7-1.9-2.7c2.5,0.8,4.1-1.6,4.1-1.6H847.2z"/>
				</g>
			</g>
		</g>
		<g>
			<g>
				<path class="st3" d="M836.5,20c-1.5,0-1.6,1.8,0,1.8h3.1c1.6,0,1.5-1.8,0-1.8H836.5z"/>
			</g>
		</g>
		<g>
			<g>
				<path class="st3" d="M813.4,8.9v2.4c0,2.1,1.9,2,1.9,0V8.9H813.4z"/>
			</g>
		</g>
		<g>
			<g>
				<path class="st3" d="M846.3,8.9V11c0,1.7,1.6,1.8,1.6,0V8.9H846.3z"/>
			</g>
		</g>
		<g>
			<g>
				<path class="st3" d="M828.3,8.9V11c0,1.7,1.6,1.8,1.6,0V8.9H828.3z"/>
			</g>
		</g>
		<g>
			<g>
				<path class="st3" d="M862.8,8.9v2.4c0,2.1-1.9,2-1.9,0V8.9H862.8z"/>
			</g>
		</g>
	</g>
	<g>
		<g>
			<g>
				<path class="st3" d="M921.1,33c-2-1.8-5.2-3.5-10.4-3.9c-0.8-0.1-1.8,0-2.5,0.4s-1.1,0.9-1.3,1.8c-0.1,0.5,0,1.1,0.3,1.5
					s0.7,0.7,1.1,0.7c0.4,0,1.1-0.3,1.1-1.1c0-0.4-0.3-0.6-0.5-0.7c-0.3-0.1-0.3,0.1-0.4,0.2c-0.1,0.3-0.5,0.5-0.8,0.3
					c-0.3-0.1-0.4-0.5-0.3-0.8c0.3-0.7,1-1.1,1.7-0.9s1.5,0.9,1.5,2c-0.1,1.5-1.2,2.4-2.3,2.3c-0.7,0-2.5-0.7-2.5-2.7
					c0-0.9,0.2-1.8,0.9-2.8c-3.3,0.4-6.5,1.8-9.4,3.7c-1.9,1.4-5.5,4.7-7.1,10.3l-1.3-0.4c0.6-2,1.4-3.8,2.3-5.2
					c-2.1,1.8-4.1,3.6-6.1,5.6c-7.5,7.1-15.3,14.5-25,14.8v-1.5c9.2-0.4,16.8-7.5,24.2-14.5c2.7-2.6,5.5-5.1,8.4-7.4l0,0
					c-2.4,0.6-5.7,1-9.4,0.1l0.3-1.4c3.8,0.9,6.9,0.5,9.3-0.2c-1.5-0.6-2.2-1.5-2.3-2.4c-0.1-0.8,0.1-1.7,0.5-2.3
					c0.7-0.9,2.1-1.2,3.3-0.3c0.8,0.7,0.8,1.7,0.4,2.4c-0.4,0.7-1.1,1-1.8,0.7c-0.3-0.1-0.5-0.5-0.3-0.8c0.1-0.3,0.5-0.5,0.8-0.4
					l0,0c0.1,0,0.2,0.1,0.4-0.2c0.1-0.2,0.1-0.6-0.1-0.9c-0.6-0.6-1.3-0.2-1.6,0.1c-0.2,0.3-0.3,0.8-0.3,1.3c0,0.6,1.2,3.1,5.4,1
					c4-2,7.8-3.9,12.2-3.9c4.4,0,9.3,0.9,12.9,4.3L921.1,33z"/>
			</g>
		</g>
		<g>
			<g>
				<path class="st3" d="M921.1,82.1c-2,1.8-5.2,3.5-10.4,3.9c-0.8,0.1-1.8,0-2.5-0.4s-1.1-0.9-1.3-1.8c-0.1-0.5,0-1.1,0.3-1.5
					s0.7-0.7,1.1-0.7c0.4,0,1.1,0.3,1.1,1.1c0,0.4-0.3,0.6-0.5,0.7c-0.3,0.1-0.3-0.1-0.4-0.2c-0.1-0.3-0.5-0.5-0.8-0.3
					c-0.3,0.1-0.4,0.5-0.3,0.8c0.3,0.7,1,1.1,1.7,0.9s1.5-0.9,1.5-2c-0.1-1.5-1.2-2.4-2.3-2.3c-0.7,0.1-2.5,0.7-2.5,2.7
					c0,0.9,0.2,1.8,0.9,2.8c-3.3-0.4-6.5-1.8-9.4-3.7c-1.9-1.4-5.5-4.7-7.1-10.3l-1.3,0.4c0.6,2,1.4,3.8,2.3,5.2
					c-2.1-1.8-4.1-3.6-6.1-5.6c-7.5-7.1-15.3-14.5-25-14.8v1.5c9.2,0.4,16.8,7.5,24.2,14.5c2.7,2.6,5.5,5.1,8.4,7.4l0,0
					c-2.4-0.6-5.7-1-9.4-0.1l0.3,1.4c3.8-0.9,6.9-0.5,9.3,0.2c-1.5,0.6-2.2,1.5-2.3,2.4c-0.1,0.8,0.1,1.7,0.5,2.3
					c0.7,0.9,2.1,1.2,3.3,0.3c0.8-0.7,0.8-1.7,0.4-2.4c-0.4-0.7-1.1-1-1.8-0.7c-0.3,0.1-0.5,0.5-0.3,0.8c0.1,0.3,0.5,0.5,0.8,0.4
					l0,0c0.1,0,0.2-0.1,0.4,0.2c0.1,0.2,0.1,0.6-0.1,0.9c-0.6,0.6-1.3,0.2-1.6-0.1c-0.2-0.3-0.3-0.8-0.3-1.3c0-0.6,1.2-3.1,5.4-1
					c4,2,7.8,3.9,12.2,3.9c4.4,0,9.3-0.9,12.9-4.3L921.1,82.1z"/>
			</g>
		</g>
		<g>
			<g>
				<path class="st3" d="M928.3,33c2-1.8,5.2-3.5,10.4-3.9c0.8-0.1,1.8,0,2.5,0.4c0.7,0.4,1.1,0.9,1.3,1.8c0.1,0.5,0,1.1-0.3,1.5
					s-0.7,0.7-1.1,0.7c-0.4,0-1.1-0.3-1.1-1.1c0-0.4,0.3-0.6,0.5-0.7c0.3-0.1,0.3,0.1,0.4,0.2c0.1,0.3,0.5,0.5,0.8,0.3
					c0.3-0.1,0.5-0.5,0.3-0.8c-0.3-0.7-1-1.1-1.7-0.9s-1.5,0.9-1.5,2c0.1,1.5,1.2,2.4,2.3,2.3c0.7,0,2.5-0.7,2.5-2.7
					c0-0.9-0.2-1.8-0.9-2.8c3.3,0.4,6.5,1.8,9.4,3.7c1.9,1.4,5.5,4.7,7.1,10.3l1.3-0.4c-0.6-2-1.4-3.8-2.3-5.2
					c2.1,1.8,4.1,3.6,6.2,5.6c7.5,7.1,15.3,14.5,25,14.8l0.1-1.5c-9.2-0.4-16.8-7.5-24.2-14.5c-2.7-2.6-5.5-5.1-8.4-7.4l0,0
					c2.4,0.6,5.7,1,9.4,0.1l-0.3-1.4c-3.8,0.9-6.9,0.5-9.3-0.2c1.5-0.6,2.2-1.5,2.3-2.4c0.1-0.8-0.1-1.7-0.5-2.3
					c-0.7-0.9-2.1-1.2-3.3-0.3c-0.8,0.7-0.8,1.7-0.4,2.4c0.4,0.7,1.1,1,1.8,0.7c0.3-0.1,0.5-0.5,0.3-0.8c-0.1-0.3-0.5-0.5-0.8-0.4
					l0,0c-0.1,0-0.2,0.1-0.4-0.2c-0.1-0.2-0.1-0.6,0.1-0.9c0.6-0.6,1.3-0.2,1.6,0.1c0.2,0.3,0.3,0.8,0.3,1.3c0,0.6-1.2,3.1-5.4,1
					c-4-2-7.8-3.9-12.2-3.9s-9.3,0.9-12.9,4.3L928.3,33z"/>
			</g>
		</g>
		<g>
			<g>
				<path class="st3" d="M928.3,82.1c2,1.8,5.2,3.5,10.4,3.9c0.8,0.1,1.8,0,2.5-0.4c0.7-0.4,1.1-0.9,1.3-1.8c0.1-0.5,0-1.1-0.3-1.5
					s-0.7-0.7-1.1-0.7c-0.4,0-1.1,0.3-1.1,1.1c0,0.4,0.3,0.6,0.5,0.7c0.3,0.1,0.3-0.1,0.4-0.2c0.1-0.3,0.5-0.5,0.8-0.3
					c0.3,0.1,0.5,0.5,0.3,0.8c-0.3,0.7-1,1.1-1.7,0.9s-1.5-0.9-1.5-2c0.1-1.5,1.2-2.4,2.3-2.3c0.7,0.1,2.5,0.7,2.5,2.7
					c0,0.9-0.2,1.8-0.9,2.8c3.3-0.4,6.5-1.8,9.4-3.7c1.9-1.4,5.5-4.7,7.1-10.3l1.3,0.4c-0.6,2-1.4,3.8-2.3,5.2
					c2.1-1.8,4.1-3.6,6.2-5.6c7.5-7.1,15.3-14.5,25-14.8l0.1,1.5c-9.2,0.4-16.8,7.5-24.2,14.5c-2.7,2.6-5.5,5.1-8.4,7.4l0,0
					c2.4-0.6,5.7-1,9.4-0.1l-0.3,1.4c-3.8-0.9-6.9-0.5-9.3,0.2c1.5,0.6,2.2,1.5,2.3,2.4c0.1,0.8-0.1,1.7-0.5,2.3
					c-0.7,0.9-2.1,1.2-3.3,0.3c-0.8-0.7-0.8-1.7-0.4-2.4c0.4-0.7,1.1-1,1.8-0.7c0.3,0.1,0.5,0.5,0.3,0.8c-0.1,0.3-0.5,0.5-0.8,0.4
					l0,0c-0.1,0-0.2-0.1-0.4,0.2c-0.1,0.2-0.1,0.6,0.1,0.9c0.6,0.6,1.3,0.2,1.6-0.1c0.2-0.3,0.3-0.8,0.3-1.3c0-0.6-1.2-3.1-5.4-1
					c-4,2-7.8,3.9-12.2,3.9s-9.3-0.9-12.9-4.3L928.3,82.1z"/>
			</g>
		</g>
		<g>
			<path class="st4" d="M924.7,30.6c0,0,3.6,0.8,4.7,6.4c0,0,10-0.9,10,7.3c0,1.8-3.1,2.3-4.2,4c-1.6,2.2,2.5,4.6,4.7,2.7
				c1.6-1.4,2.3-5.7,5.8-5.7s7.3,2.3,6.8,7.2c0,0,5.8,1,8.3,5.2c-2.4,4.2-8.3,5.2-8.3,5.2c0.5,4.9-3.3,7.2-6.8,7.2s-4.2-4.3-5.8-5.7
				c-2.2-1.9-6.3,0.5-4.7,2.7c1.2,1.7,4.2,2.2,4.2,4c0,8.2-10,7.3-10,7.3c-1.1,5.5-4.7,5.3-4.7,5.3s-3.6,0.2-4.7-5.3
				c0,0-10,0.9-10-7.3c0-1.8,3.1-2.3,4.2-4c1.6-2.2-2.5-4.6-4.7-2.7c-1.6,1.4-2.3,5.7-5.8,5.7s-7.3-2.3-6.8-7.2c0,0-5.8-1-8.3-5.2
				c2.4-4.2,8.3-5.2,8.3-5.2c-0.5-4.9,3.3-7.2,6.8-7.2s4.2,4.3,5.8,5.7c2.2,1.9,6.2-0.5,4.7-2.7c-1.2-1.7-4.2-2.2-4.2-4
				c0-8.2,10-7.3,10-7.3C921.1,31.5,924.7,30.6,924.7,30.6z"/>
			<g>
				<path class="st3" d="M924.7,84.2L924.7,84.2c0,0-3.8,0.2-5.1-5.3c-1.4,0.1-5.4,0-8-2.4c-1.4-1.3-2.2-3.1-2.2-5.4
					c0-1.3,1.2-2.1,2.4-2.8c0.8-0.5,1.5-0.9,2-1.5c0.6-0.8,0.1-1.5-0.3-1.8c-0.9-0.8-2.6-1.1-3.7-0.2c-0.4,0.4-0.9,1.1-1.3,1.9
					c-1,1.7-2.2,3.9-4.8,3.9c-2.2,0-4.4-0.9-5.7-2.4c-1.1-1.3-1.7-3-1.6-4.9c-1.5-0.3-6-1.7-8.2-5.4l-0.2-0.3l0.2-0.3
					c2.1-3.7,6.7-5,8.2-5.4c-0.1-1.9,0.5-3.6,1.6-4.9c1.3-1.5,3.5-2.4,5.7-2.4c2.6,0,3.8,2.2,4.8,3.9c0.4,0.8,0.9,1.5,1.3,1.9
					c1.1,0.9,2.8,0.6,3.7-0.2c0.3-0.3,0.8-1,0.3-1.8c-0.4-0.6-1.2-1.1-2-1.5c-1.2-0.7-2.4-1.4-2.4-2.8c0-2.3,0.7-4.1,2.2-5.4
					c2.6-2.4,6.6-2.5,8-2.4c1.3-5.4,4.8-6.3,5-6.4h0.1h0.1c0.2,0,3.7,0.9,5,6.4c1.4-0.1,5.4,0,8,2.4c1.4,1.3,2.2,3.1,2.2,5.4
					c0,1.3-1.2,2.1-2.4,2.8c-0.8,0.4-1.5,0.9-2,1.5c-0.6,0.8-0.1,1.5,0.3,1.8c0.9,0.8,2.6,1.1,3.7,0.2c0.4-0.4,0.9-1.1,1.3-1.9
					c1-1.7,2.2-3.9,4.8-3.9c2.3,0,4.4,0.9,5.7,2.4c1.1,1.3,1.7,3,1.6,4.9c1.5,0.3,6,1.7,8.2,5.4l0.2,0.3l-0.2,0.3
					c-2.1,3.7-6.7,5-8.2,5.4c0.1,1.9-0.5,3.6-1.6,4.9c-1.3,1.5-3.5,2.4-5.7,2.4c-2.6,0-3.8-2.2-4.8-3.9c-0.4-0.8-0.9-1.5-1.3-1.9
					c-1.1-0.9-2.8-0.6-3.7,0.2c-0.3,0.3-0.8,1-0.3,1.8c0.4,0.6,1.2,1.1,2,1.5c1.2,0.7,2.4,1.4,2.4,2.8c0,2.3-0.7,4.1-2.2,5.4
					c-2.6,2.4-6.6,2.5-8,2.4C928.6,83.9,925.2,84.2,924.7,84.2z M924.7,83.2c0.2,0,3.2,0.1,4.2-4.9l0.1-0.5h0.5c0,0,4.9,0.4,7.7-2.1
					c1.2-1.1,1.8-2.7,1.8-4.6c0-0.8-0.9-1.3-1.9-1.9c-0.8-0.5-1.7-1-2.3-1.8c-0.7-1-0.6-2.2,0.4-3.1c1.2-1.1,3.5-1.6,5-0.2
					c0.6,0.5,1,1.3,1.5,2.2c0.9,1.7,1.9,3.4,3.9,3.4c2,0,3.8-0.8,5-2.1c1.1-1.2,1.5-2.7,1.3-4.5v-0.5l0.5-0.1c0.1,0,5.4-1,7.7-4.7
					c-2.4-3.7-7.7-4.7-7.7-4.7l-0.5-0.1v-0.5c0.2-1.8-0.3-3.4-1.3-4.5c-1.2-1.3-3-2.1-5-2.1c-2,0-3,1.7-3.9,3.4
					c-0.5,0.9-0.9,1.7-1.5,2.2c-1.5,1.3-3.8,0.9-5-0.2c-1-0.9-1.1-2.1-0.4-3.2c0.6-0.8,1.4-1.3,2.3-1.8c1-0.6,1.9-1.1,1.9-1.9
					c0-1.9-0.6-3.5-1.8-4.6c-2.7-2.5-7.6-2.1-7.7-2.1H929l-0.1-0.5c-0.9-4.6-3.6-5.8-4.2-6c-0.6,0.2-3.3,1.3-4.2,6l-0.1,0.5h-0.5
					c0,0-4.9-0.4-7.7,2.1c-1.2,1.1-1.8,2.7-1.8,4.6c0,0.8,0.9,1.3,1.9,1.9c0.8,0.5,1.7,1,2.3,1.8c0.7,1,0.6,2.2-0.4,3.2
					c-1.2,1.1-3.5,1.6-5,0.2c-0.6-0.5-1-1.3-1.5-2.2c-0.9-1.7-1.9-3.4-3.9-3.4c-2,0-3.8,0.8-5,2.1c-1.1,1.2-1.5,2.7-1.3,4.5V53
					l-0.5,0.1c-0.1,0-5.4,1-7.7,4.7c2.4,3.7,7.7,4.7,7.7,4.7l0.5,0.1v0.5c-0.2,1.8,0.3,3.4,1.3,4.5c1.2,1.3,3,2.1,5,2.1
					c2,0,3-1.7,3.9-3.4c0.5-0.9,0.9-1.7,1.5-2.2c1.5-1.3,3.8-0.9,5,0.2c1,0.9,1.1,2.1,0.4,3.1c-0.6,0.8-1.4,1.3-2.3,1.8
					c-1,0.6-1.9,1.1-1.9,1.9c0,1.9,0.6,3.5,1.8,4.6c2.7,2.5,7.6,2.1,7.7,2.1h0.5l0.1,0.5C921.5,83.2,924.5,83.2,924.7,83.2z"/>
			</g>
		</g>
		<g>
			<g>
				<path class="st3" d="M884.6,58c0,0-1.1,5.3-4.5,6.7c0,0-0.9-3.2,0.3-5.4c0,0-3.1,1.8-5.8-1.6c2.6-3.7,6.2-1.4,6.2-1.4
					c-1.1-2.2-0.6-5.6-0.6-5.6C884.7,53.7,884.6,58,884.6,58z"/>
			</g>
		</g>
		<g>
			<g>
				<path class="st3" d="M886,54c0-1.1,0-1.6-1-1.6c-1,0-0.8,0.6-0.8,1.6v7.1c0,1.1-0.2,1.6,0.8,1.6c1,0,1-0.6,1-1.6V54z"/>
			</g>
		</g>
		<g>
			<g>
				<path class="st3" d="M964.8,58c0,0,1.1,5.3,4.5,6.7c0,0,0.9-3.2-0.3-5.4c0,0,3.1,1.8,5.8-1.6c-2.6-3.7-6.2-1.4-6.2-1.4
					c1.2-2.2,0.6-5.6,0.6-5.6C964.6,53.7,964.8,58,964.8,58z"/>
			</g>
		</g>
		<g>
			<g>
				<path class="st3" d="M963.4,54c0-1.1,0-1.6,1-1.6s0.8,0.6,0.8,1.6v7.1c0,1.1,0.2,1.6-0.8,1.6s-1-0.6-1-1.6V54z"/>
			</g>
		</g>
		<g>
			<g>
				<path class="st3" d="M931.9,49.5c6.8-7,4-11.3,4-11.3s4.1,1.8,3.6,6.1c-0.3,2.3-22,21.8-22,21.8c-6.8,7-4,11.1-4,11.1
					s-3.6-1.8-3.6-6.1C909.9,70.2,931.9,49.5,931.9,49.5z"/>
			</g>
		</g>
		<g>
			<g>
				<path class="st3" d="M931.9,65.9c6.8,7,4,11.3,4,11.3s4.1-1.8,3.6-6.1c-0.3-2.3-21.9-21.6-21.9-21.6c-6.8-7-4-11.3-4-11.3
					s-4.1,1.8-3.6,6.1C910.3,46.7,931.9,65.9,931.9,65.9z"/>
			</g>
		</g>
		<g>
			<g>
				<path class="st3" d="M908.3,56.3C932.1,51.4,920,37,920,37l0.7-1.8c0,0,13.2,17.5-12.3,22.5L908.3,56.3L908.3,56.3z"/>
			</g>
		</g>
		<g>
			<g>
				<path class="st3" d="M941.1,56.3c-25.2-4.9-9.9-21.6-11.7-19.3l-0.7-1.8c0,0-13.2,17.5,12.3,22.5L941.1,56.3L941.1,56.3z"/>
			</g>
		</g>
		<g>
			<g>
				<path class="st3" d="M941.1,59c-23.7,4.9-11.7,19.3-11.7,19.3l-0.7,1.8c0,0-13.2-17.5,12.3-22.5L941.1,59L941.1,59z"/>
			</g>
		</g>
		<g>
			<g>
				<path class="st3" d="M908.3,59C932,64,920,78.3,920,78.3l0.7,1.8c0,0,13.2-17.5-12.3-22.5L908.3,59L908.3,59z"/>
			</g>
		</g>
		<g>
			<g>
				<path class="st3" d="M883,33.7c0,0-2.6,5.6-5.2,3.6c0,0-3.2,0.1-2.7-3.1c0,0-1.9-0.5-1.2-3c0.4-2.5,3-2.5,3-2.5
					c0.9-3.1,3.5-0.8,3.5-0.8C883.7,27.2,883,33.7,883,33.7"/>
				<g>
					<path class="st3" d="M878.9,38c-0.4,0-0.9-0.1-1.3-0.4c-0.4,0-1.6-0.1-2.3-1c-0.5-0.6-0.6-1.3-0.5-2.2c-0.3-0.1-0.7-0.4-1-1
						s-0.4-1.4-0.1-2.3c0.3-2.3,2.4-2.6,3.1-2.7c0.3-0.9,0.7-1.4,1.3-1.6c1-0.3,2.1,0.5,2.5,0.7c0.7-0.1,1.2,0.1,1.6,0.5
						c1.5,1.5,1.1,5.4,1,5.6v0.1c-0.1,0.1-1.7,3.6-3.7,4.1C879.3,37.8,879.1,38,878.9,38z M877.8,37L877.8,37c0.5,0.4,1,0.5,1.5,0.4
						c1.7-0.4,3.2-3.4,3.4-3.8c0-0.4,0.4-3.9-0.9-5.1c-0.3-0.3-0.8-0.4-1.3-0.4h-0.1l-0.1-0.1c0,0-1.2-1-2.1-0.7
						c-0.5,0.1-0.8,0.6-1,1.4l-0.1,0.2h-0.2c-0.1,0-2.4,0-2.8,2.3c-0.2,0.8-0.2,1.4,0,1.9c0.3,0.6,1,0.8,1,0.8l0.2,0.1v0.2
						c-0.2,0.9,0,1.5,0.4,2C876.4,37,877.7,37,877.8,37L877.8,37z"/>
				</g>
			</g>
			<g>
				<path class="st3" d="M883,81.4c0,0-2.6-5.6-5.2-3.6c0,0-3.2-0.1-2.7,3.1c0,0-1.9,0.5-1.2,3c0.4,2.5,3,2.5,3,2.5
					c0.9,3.1,3.5,0.8,3.5,0.8C883.7,87.8,883,81.4,883,81.4"/>
				<g>
					<path class="st3" d="M878.5,88.3c-0.2,0-0.3,0-0.5-0.1c-0.6-0.2-1.1-0.7-1.3-1.6c-0.6-0.1-2.7-0.4-3.1-2.7
						c-0.3-0.8-0.2-1.6,0.1-2.2s0.8-0.8,1-1c-0.1-0.9,0-1.7,0.5-2.2c0.7-0.9,2-1,2.3-1c0.6-0.4,1.2-0.5,1.8-0.4
						c2.1,0.5,3.7,4,3.7,4.1v0.1c0,0.2,0.5,4.1-1,5.6c-0.4,0.4-1,0.6-1.6,0.5C880.2,87.8,879.4,88.3,878.5,88.3z M877.7,78.1
						c-0.2,0-1.4,0-2,0.8c-0.4,0.5-0.5,1.1-0.4,2v0.2l-0.2,0.1c0,0-0.6,0.2-1,0.8c-0.3,0.5-0.3,1.1,0,1.8c0.4,2.3,2.7,2.4,2.8,2.4
						h0.2l0.1,0.2c0.2,0.8,0.6,1.3,1,1.4c0.9,0.3,2.1-0.7,2.1-0.7l0.1-0.1h0.1c0.5,0.1,1,0,1.3-0.4c1.2-1.2,0.9-4.7,0.9-5.1
						c-0.2-0.4-1.6-3.4-3.4-3.8c-0.5-0.1-1,0-1.4,0.3L877.7,78.1L877.7,78.1L877.7,78.1z"/>
				</g>
			</g>
			<g>
				<path class="st3" d="M966.4,33.7c0,0,2.6,5.6,5.2,3.6c0,0,3.2,0.1,2.7-3.1c0,0,1.9-0.5,1.2-3c-0.4-2.5-3-2.5-3-2.5
					c-0.9-3.1-3.5-0.8-3.5-0.8C965.7,27.2,966.4,33.7,966.4,33.7"/>
				<g>
					<path class="st3" d="M970.5,38c-0.2,0-0.3,0-0.5-0.1c-2.1-0.5-3.7-4-3.7-4.1v-0.1c0-0.2-0.5-4.2,1-5.6c0.4-0.4,1-0.6,1.6-0.5
						c0.3-0.3,1.4-1.1,2.5-0.7c0.6,0.2,1.1,0.7,1.3,1.6c0.6,0.1,2.7,0.4,3.1,2.7c0.3,0.8,0.2,1.6-0.1,2.2c-0.3,0.6-0.8,0.8-1,1
						c0.1,0.9,0,1.7-0.5,2.2c-0.7,0.9-2,1-2.3,1C971.3,37.8,970.9,38,970.5,38z M966.7,33.5c0.2,0.4,1.6,3.4,3.4,3.8
						c0.5,0.1,1,0,1.5-0.3l0.1-0.1h0.1c0,0,1.3,0,2-0.8c0.4-0.5,0.5-1.1,0.4-2V34l0.2-0.1c0,0,0.6-0.2,1-0.8c0.3-0.5,0.3-1.1,0-1.8
						c-0.4-2.3-2.7-2.4-2.8-2.4h-0.2l-0.1-0.2c-0.2-0.8-0.6-1.3-1-1.4c-0.9-0.3-2.1,0.7-2.1,0.7l-0.1,0.1H969c-0.6-0.1-1,0-1.3,0.4
						C966.3,29.6,966.6,33.2,966.7,33.5z"/>
				</g>
			</g>
			<g>
				<path class="st3" d="M966.4,81.4c0,0,2.6-5.6,5.2-3.6c0,0,3.2-0.1,2.7,3.1c0,0,1.9,0.5,1.2,3c-0.4,2.5-3,2.5-3,2.5
					c-0.9,3.1-3.5,0.8-3.5,0.8C965.7,87.8,966.4,81.4,966.4,81.4"/>
				<g>
					<path class="st3" d="M970.8,88.3c-0.9,0-1.7-0.6-2-0.8c-0.7,0.1-1.2-0.1-1.6-0.5c-1.5-1.5-1.1-5.4-1-5.6v-0.1
						c0.1-0.1,1.7-3.6,3.7-4.1c0.6-0.2,1.2,0,1.8,0.4c0.3,0,1.6,0.1,2.3,1c0.5,0.6,0.6,1.3,0.5,2.2c0.3,0.1,0.8,0.4,1.1,1
						s0.4,1.4,0.1,2.3c-0.3,2.3-2.4,2.6-3.1,2.7c-0.3,0.9-0.7,1.4-1.3,1.6C971.2,88.2,971,88.3,970.8,88.3z M969,86.9L969,86.9
						c0.1,0.1,1.2,1.1,2.2,0.8c0.5-0.1,0.8-0.6,1-1.4l0.1-0.2h0.2c0.1,0,2.4,0,2.8-2.3c0.2-0.8,0.2-1.4,0-1.9
						c-0.3-0.6-0.9-0.8-1-0.8l-0.2-0.1v-0.2c0.2-0.9,0-1.5-0.4-2c-0.7-0.8-2-0.8-2-0.8h-0.1l-0.1-0.1c-0.5-0.4-0.9-0.5-1.5-0.3
						c-1.7,0.4-3.2,3.4-3.4,3.8c0,0.4-0.4,3.9,0.9,5.1c0.3,0.3,0.8,0.5,1.3,0.4H969z"/>
				</g>
			</g>
		</g>
		<g>
			<g>
				<g>
					<path class="st4" d="M887,34.7c-3.2,4.6-7.9,3.8-7.9,3.8s0.7-2.3,3.1-3.6c0,0-1.6,0.5-4.6-2.6c4.3-1.6,5.4-0.2,5.4-0.2
						c-1.9-2.6-1.3-4.5-1.3-4.5S886.1,29,887,34.7z"/>
				</g>
				<g>
					<path class="st4" d="M887,80.3c-3.2-4.6-7.9-3.8-7.9-3.8s0.7,2.3,3.1,3.6c0,0-1.6-0.5-4.6,2.6c4.3,1.6,5.4,0.2,5.4,0.2
						c-1.9,2.6-1.3,4.5-1.3,4.5S886.1,85.9,887,80.3z"/>
				</g>
				<g>
					<path class="st4" d="M962.4,34.7c3.2,4.6,7.9,3.8,7.9,3.8s-0.7-2.3-3.1-3.6c0,0,1.6,0.5,4.6-2.6c-4.3-1.6-5.4-0.2-5.4-0.2
						c1.9-2.6,1.3-4.5,1.3-4.5S963.3,29,962.4,34.7z"/>
				</g>
				<g>
					<path class="st4" d="M962.4,80.3c3.2-4.6,7.9-3.8,7.9-3.8s-0.7,2.3-3.1,3.6c0,0,1.6-0.5,4.6,2.6c-4.3,1.6-5.4,0.2-5.4,0.2
						c1.9,2.6,1.3,4.5,1.3,4.5S963.3,85.9,962.4,80.3z"/>
				</g>
			</g>
		</g>
		<g>
			<g>
				<g>
					<path class="st3" d="M889.4,42c0,0-2.3-0.3-3.5,2.7l1.3-0.4c0,0-1.9,1.9-1.8,4.5l1.1-1.4c0,0-1.2,3.8,0.3,5.2
						c0,0,2-0.9,2.3-3.6l0.2,1.6c0,0,1.5-1.8,1.1-3.1l0.4,1.3c0,0,1.3-2.3,0.3-3.9l1.1,1.1c0,0,0-2.2-1.5-3.7
						C889.7,41.2,889.4,42,889.4,42z"/>
				</g>
				<g>
					<path class="st3" d="M886.7,52.8L886.7,52.8c-1.1-1.1-0.9-3.1-0.7-4.4l-0.7,1v-0.7c-0.1-1.7,0.7-3.2,1.3-4l-1,0.3l0.2-0.5
						c1.1-2.6,3.1-2.9,3.6-2.9c0.1-0.1,0.2-0.2,0.4-0.2c0.3-0.1,0.7,0.1,1.2,0.5c1.6,1.5,1.6,3.8,1.6,3.9v0.6l-0.7-0.7
						c0.2,1.5-0.6,3-0.7,3l-0.3,0.5l-0.2-0.6c-0.3,1-1,1.8-1.1,1.9l-0.4,0.4l-0.1-0.8c-0.7,1.7-2.1,2.4-2.2,2.4L886.7,52.8z
						 M887.2,46l-0.4,1.4c0,0-1,3.4,0.1,4.8c0.5-0.3,1.8-1.2,2-3.3l0.2-2l0.4,3c0.4-0.6,0.9-1.6,0.7-2.4l0.5-0.1l0.2,0.7
						c0.3-0.7,0.6-2,0-3l-1.2-2l2.1,2.2c-0.1-0.8-0.4-1.9-1.3-2.8c-0.4-0.4-0.6-0.4-0.7-0.4c-0.1,0-0.1,0.1-0.1,0.1l-0.1,0.2h-0.2
						c-0.1,0-1.9-0.2-3,2l1.8-0.5l-0.7,0.7c0,0-1.4,1.5-1.7,3.5L887.2,46z"/>
				</g>
			</g>
			<g>
				<g>
					<path class="st3" d="M889.4,73.1c0,0-2.3,0.3-3.5-2.7l1.3,0.4c0,0-1.9-1.9-1.8-4.5l1.1,1.4c0,0-1.2-3.8,0.3-5.2
						c0,0,2,0.9,2.3,3.5l0.2-1.6c0,0,1.5,1.8,1.1,3.1l0.4-1.3c0,0,1.3,2.3,0.3,3.9l1.1-1.1c0,0,0,2.3-1.5,3.7
						C889.7,73.8,889.4,73.1,889.4,73.1z"/>
				</g>
				<g>
					<path class="st3" d="M889.8,73.6L889.8,73.6c-0.3,0-0.4-0.1-0.5-0.2c-0.6,0-2.6-0.2-3.6-2.9l-0.2-0.5l1,0.3
						c-0.6-0.8-1.4-2.2-1.3-4v-0.7l0.7,1c-0.2-1.3-0.3-3.3,0.7-4.3l0.1-0.1l0.2,0.1c0.1,0,1.5,0.7,2.2,2.4l0.1-0.8l0.4,0.4
						c0,0.1,0.7,0.9,1.1,1.9l0.2-0.6l0.3,0.5c0,0.1,0.9,1.5,0.7,3l0.7-0.7V69c0,0.1,0,2.4-1.6,3.9C890.4,73.3,890.1,73.6,889.8,73.6
						z M889.6,72.9C889.6,72.9,889.6,73,889.6,72.9c0.2,0.1,0.4,0.1,0.8-0.3c0.9-0.9,1.2-2.1,1.3-2.8l-2.2,2.2l1.2-2
						c0.6-1,0.3-2.3,0-3l-0.2,0.7l-0.5-0.1c0.2-0.7-0.3-1.7-0.7-2.4l-0.4,3l-0.2-2c-0.2-2.1-1.5-3-2-3.3c-1.1,1.4-0.1,4.8-0.1,4.8
						l0.4,1.4l-1.5-2c0.2,2,1.6,3.4,1.7,3.5l0.7,0.7l-1.8-0.5c1.1,2.2,2.9,2,3,2h0.2L889.6,72.9z"/>
				</g>
			</g>
			<g>
				<g>
					<path class="st3" d="M960,42c0,0,2.3-0.3,3.5,2.7l-1.3-0.4c0,0,1.9,1.9,1.8,4.5l-1.1-1.4c0,0,1.2,3.8-0.3,5.2
						c0,0-2-0.9-2.3-3.6l-0.2,1.6c0,0-1.5-1.8-1.1-3.1l-0.4,1.3c0,0-1.3-2.3-0.3-3.9l-1.1,1.1c0,0,0-2.2,1.5-3.7
						C959.7,41.2,960,42,960,42z"/>
				</g>
				<g>
					<path class="st3" d="M962.7,52.8l-0.2-0.1c-0.1,0-1.5-0.7-2.2-2.4l-0.1,0.8l-0.4-0.4c0-0.1-0.7-0.9-1.1-1.9l-0.2,0.6l-0.3-0.5
						c0-0.1-0.9-1.5-0.7-3l-0.7,0.7V46c0-0.1,0-2.4,1.6-3.9c0.4-0.4,0.8-0.6,1.2-0.5c0.2,0,0.3,0.1,0.4,0.2c0.6,0,2.6,0.2,3.6,2.9
						l0.2,0.5l-1.1-0.3c0.6,0.8,1.4,2.2,1.3,4v0.7l-0.7-1C963.5,49.9,963.7,51.9,962.7,52.8L962.7,52.8z M960.4,47l0.2,2
						c0.2,2.1,1.5,3,2,3.3c1.1-1.4,0.1-4.8,0.1-4.8l-0.4-1.4l1.5,2c-0.2-2-1.6-3.4-1.7-3.5l-0.7-0.7l1.8,0.5c-1.2-2.2-3-2-3-2H960
						l-0.1-0.2c0,0,0-0.1-0.1-0.1s-0.3,0-0.7,0.4c-0.9,0.9-1.2,2.1-1.4,2.8l2.1-2.2l-1.2,2c-0.6,1-0.3,2.3,0,3.1l0.2-0.7l0.5,0.1
						c-0.2,0.7,0.3,1.7,0.7,2.4L960.4,47z"/>
				</g>
			</g>
			<g>
				<g>
					<path class="st3" d="M960,73.1c0,0,2.3,0.3,3.5-2.7l-1.3,0.4c0,0,1.9-1.9,1.8-4.5l-1.1,1.4c0,0,1.2-3.8-0.3-5.2
						c0,0-2,0.9-2.3,3.5l-0.2-1.6c0,0-1.5,1.8-1.1,3.1l-0.4-1.3c0,0-1.3,2.3-0.3,3.9l-1.1-1.1c0,0,0,2.3,1.5,3.7
						C959.7,73.8,960,73.1,960,73.1z"/>
				</g>
				<g>
					<path class="st3" d="M959.6,73.6c-0.3,0-0.6-0.2-1-0.6c-1.6-1.5-1.6-3.8-1.6-3.9v-0.6l0.7,0.7c-0.2-1.5,0.6-3,0.7-3l0.3-0.5
						l0.2,0.6c0.3-1,1-1.8,1.1-1.9l0.4-0.4l0.1,0.8c0.7-1.7,2.1-2.4,2.2-2.4l0.2-0.1l0.1,0.1c1,1,0.8,3,0.6,4.3l0.7-1v0.7
						c0.1,1.7-0.7,3.2-1.3,4l1.1-0.3l-0.2,0.5c-1.1,2.6-3.1,2.9-3.6,2.9c-0.1,0.1-0.2,0.2-0.4,0.2C959.7,73.6,959.7,73.6,959.6,73.6
						z M957.6,69.8c0.1,0.8,0.4,2,1.3,2.8c0.4,0.4,0.6,0.4,0.7,0.4c0.1,0,0.1-0.1,0.1-0.1l0.1-0.2h0.2c0.1,0,1.9,0.2,3-2l-1.8,0.5
						l0.7-0.7c0,0,1.4-1.5,1.7-3.5l-1.5,2l0.4-1.4c0,0,1-3.4-0.1-4.8c-0.5,0.3-1.8,1.2-2,3.3l-0.2,2l-0.4-3
						c-0.4,0.6-0.9,1.6-0.7,2.4l-0.5,0.1l-0.2-0.7c-0.3,0.7-0.6,2,0,3l1.2,2L957.6,69.8z"/>
				</g>
			</g>
		</g>
		<g>
			<g>
				<g>
					<path class="st4" d="M864.9,57.8c-3.5,0.5-5.8,4.1-5.8,4.1c2.1,2.7,8.1,1.2,8.1,1.2c-2.5,1.7-2.5,7-2.5,7
						c5.3,0.2,6.4-3.9,6.4-3.9c-0.9,2.7,1.6,6.8,1.6,6.8c-0.5-2.9,11-15.2,11-15.2s-11.5-12.3-11-15.2c0,0-2.5,4.1-1.6,6.8
						c0,0-1.2-4.1-6.4-3.9c0,0,0,5.3,2.5,7c0,0-6-1.5-8.1,1.2C859.1,53.7,861.4,57.2,864.9,57.8"/>
				</g>
				<g>
					<path class="st4" d="M984.5,57.8c3.5,0.5,5.8,4.1,5.8,4.1c-2.1,2.7-8.1,1.2-8.1,1.2c2.5,1.7,2.5,7,2.5,7
						c-5.3,0.2-6.4-3.9-6.4-3.9c0.9,2.7-1.6,6.8-1.6,6.8c0.5-2.9-11-15.2-11-15.2s11.5-12.3,11-15.2c0,0,2.5,4.1,1.6,6.8
						c0,0,1.2-4.1,6.4-3.9c0,0,0,5.3-2.5,7c0,0,6-1.5,8.1,1.2C990.2,53.7,987.9,57.2,984.5,57.8"/>
				</g>
			</g>
		</g>
		<g>
			<g>
				<g>
					<path class="st3" d="M908.5,54.8c0-0.8,0-1.3-1-1.3c-1,0-0.9,0.5-0.9,1.3v5.7c0,0.8-0.2,1.3,0.9,1.3c1,0,1-0.5,1-1.3V54.8z"/>
				</g>
				<g>
					<path class="st3" d="M907.4,62c-0.5,0-0.7-0.1-0.9-0.3s-0.2-0.6-0.2-1c0-0.1,0-0.2,0-0.3v-5.7c0-0.1,0-0.2,0-0.3
						c0-0.4,0-0.8,0.2-1s0.5-0.3,0.9-0.3c1.3,0,1.3,0.8,1.3,1.6v5.7C908.7,61.3,908.7,62,907.4,62z M907.4,53.8
						c-0.4,0-0.5,0.1-0.5,0.1c-0.1,0.1-0.1,0.3-0.1,0.6c0,0.1,0,0.2,0,0.3v5.7c0,0.1,0,0.2,0,0.3c0,0.3,0,0.5,0.1,0.6
						c0.1,0.1,0.2,0.1,0.5,0.1c0.8,0,0.8-0.2,0.8-1.1v-5.7C908.2,54,908.2,53.8,907.4,53.8z"/>
				</g>
			</g>
			<g>
				<g>
					<path class="st3" d="M927.5,48.2c0.8,0,1.3,0,1.3-1.1s-0.5-0.9-1.3-0.9h-5.4c-0.8,0-1.3-0.2-1.3,0.9c0,1.1,0.5,1.1,1.3,1.1
						H927.5z"/>
				</g>
				<g>
					<path class="st3" d="M927.5,48.5h-5.4c-0.8,0-1.5,0-1.5-1.4c0-0.5,0.1-0.8,0.3-1c0.2-0.2,0.6-0.2,0.9-0.2c0.1,0,0.2,0,0.3,0
						h5.4c0.1,0,0.2,0,0.3,0c0.4,0,0.7,0,0.9,0.2s0.3,0.5,0.3,1C929.1,48.5,928.3,48.5,927.5,48.5z M921.6,46.5
						c-0.2,0-0.3,0-0.3,0.1c-0.1,0.1-0.1,0.2-0.1,0.6c0,0.8,0.2,0.8,1,0.8h5.4c0.8,0,1,0,1-0.8c0-0.4-0.1-0.5-0.1-0.6
						c-0.1-0.1-0.3-0.1-0.6-0.1c-0.1,0-0.2,0-0.3,0h-5.4c-0.1,0-0.2,0-0.3,0C921.7,46.5,921.7,46.5,921.6,46.5z"/>
				</g>
			</g>
			<g>
				<g>
					<path class="st3" d="M940.8,54.8c0-0.8,0-1.3,1-1.3c1,0,0.9,0.5,0.9,1.3v5.7c0,0.8,0.2,1.3-0.9,1.3c-1,0-1-0.5-1-1.3V54.8z"/>
				</g>
				<g>
					<path class="st3" d="M941.8,62c-1.3,0-1.3-0.8-1.3-1.6v-5.7c0-0.8,0-1.6,1.3-1.6c0.5,0,0.7,0.1,0.9,0.3s0.2,0.6,0.2,1
						c0,0.1,0,0.2,0,0.3v5.7c0,0.1,0,0.2,0,0.3c0,0.4,0,0.8-0.2,1S942.3,62,941.8,62z M941.8,53.8c-0.8,0-0.8,0.2-0.8,1.1v5.7
						c0,0.9,0,1.1,0.8,1.1c0.4,0,0.5-0.1,0.5-0.1c0.1-0.1,0.1-0.3,0.1-0.6c0-0.1,0-0.2,0-0.3V55c0-0.1,0-0.2,0-0.3
						c0-0.3,0-0.5-0.1-0.6C942.3,53.8,942.2,53.8,941.8,53.8z"/>
				</g>
			</g>
			<g>
				<g>
					<path class="st3" d="M927.5,67.1c0.8,0,1.3,0,1.3,1.1s-0.5,0.9-1.3,0.9h-5.4c-0.8,0-1.3,0.2-1.3-0.9s0.5-1.1,1.3-1.1H927.5z"/>
				</g>
				<g>
					<path class="st3" d="M928.1,69.2c-0.1,0-0.2,0-0.2,0c-0.1,0-0.2,0-0.3,0h-5.4c-0.1,0-0.2,0-0.3,0c-0.4,0-0.7,0-0.9-0.2
						c-0.2-0.2-0.3-0.5-0.3-1c0-1.4,0.7-1.4,1.5-1.4h5.4c0.8,0,1.5,0,1.5,1.4c0,0.5-0.1,0.8-0.3,1S928.4,69.2,928.1,69.2z
						 M922.1,68.8h5.4c0.1,0,0.2,0,0.3,0c0.3,0,0.5,0,0.6-0.1s0.1-0.2,0.1-0.6c0-0.8-0.2-0.8-1-0.8h-5.4c-0.8,0-1,0-1,0.8
						c0,0.4,0.1,0.5,0.1,0.6c0.1,0.1,0.3,0.1,0.6,0.1C921.9,68.8,922,68.8,922.1,68.8z"/>
				</g>
			</g>
		</g>
		<g>
			<g>
				<g>
					<path class="st3" d="M906.6,56.5c-2.6-4.3-7.5-2.5-7.5-2.5c0.3,1.8,3.3,2.5,3.3,2.5c-3.7-1.1-5.9,1.1-5.9,1.1s2.3,2.3,5.9,1.1
						c0,0-3,0.8-3.3,2.5c0,0,4.8,1.8,7.5-2.5V56.5z"/>
				</g>
				<g>
					<path class="st3" d="M901.4,62c-1.4,0-2.4-0.4-2.4-0.4l-0.2-0.1v-0.2c0.1-0.8,0.8-1.5,1.5-1.9l0,0c-2.5,0-4-1.5-4.1-1.5
						l-0.2-0.2l0.2-0.2c0.1-0.1,1.6-1.5,4.1-1.5l0,0c-0.7-0.4-1.4-1.1-1.5-1.9v-0.2l0.2-0.1c0,0,5.1-1.8,7.8,2.7v0.1v2.4V59
						C905.3,61.5,903.1,62,901.4,62z M899.4,61.2c0.9,0.3,4.7,1.1,6.9-2.4v-2.1c-2.2-3.5-6-2.7-6.9-2.4c0.4,1.2,2.3,1.9,2.9,2.1
						c0.1,0,0.1,0,0.2,0.1l-0.1,0.5c0,0-0.1,0-0.2-0.1c-2.8-0.8-4.6,0.5-5.2,1c0.6,0.5,2.5,1.7,5.2,1c0.1,0,0.2-0.1,0.2-0.1l0.1,0.5
						c-0.1,0-0.1,0-0.2,0.1C901.6,59.3,899.8,60,899.4,61.2z"/>
				</g>
			</g>
			<g>
				<g>
					<path class="st3" d="M925.9,46.2c4.1-2.8,2.4-7.9,2.4-7.9c-1.7,0.3-2.4,3.5-2.4,3.5c1.1-3.8-1.1-6.2-1.1-6.2s-2.2,2.4-1.1,6.2
						c0,0-0.8-3.2-2.4-3.5c0,0-1.7,5.1,2.4,7.9H925.9z"/>
				</g>
				<g>
					<path class="st3" d="M926,46.5h-2.3h-0.1c-4.3-2.9-2.5-8.1-2.5-8.2l0.1-0.2h0.2c0.8,0.1,1.4,0.8,1.8,1.6c0-2.6,1.4-4.2,1.5-4.3
						l0.2-0.2l0.2,0.2c0.1,0.1,1.5,1.6,1.5,4.3c0.4-0.8,1-1.5,1.8-1.6h0.2l0.1,0.2C928.6,38.3,930.3,43.7,926,46.5L926,46.5z
						 M923.8,46h2c3.4-2.4,2.6-6.3,2.3-7.3c-1,0.4-1.7,2.1-1.9,3c0,0.1,0,0.2-0.1,0.3l-0.5-0.1c0,0,0-0.1,0.1-0.2
						c0.7-2.8-0.4-4.8-0.9-5.5c-0.5,0.7-1.6,2.7-0.9,5.5c0,0.1,0.1,0.2,0.1,0.2l-0.5,0.1c0-0.1,0-0.2-0.1-0.3
						c-0.3-0.9-0.9-2.6-1.9-3C921.2,39.8,920.4,43.7,923.8,46z"/>
				</g>
			</g>
			<g>
				<g>
					<path class="st3" d="M925.9,69.1c4.1,2.8,2.4,7.9,2.4,7.9c-1.7-0.3-2.4-3.5-2.4-3.5c1.1,3.8-1.1,6.2-1.1,6.2s-2.2-2.4-1.1-6.2
						c0,0-0.8,3.2-2.4,3.5c0,0-1.7-5.1,2.4-7.9H925.9z"/>
				</g>
				<g>
					<path class="st3" d="M924.8,80.1l-0.2-0.2c-0.1-0.1-1.5-1.6-1.5-4.3c-0.4,0.8-1,1.5-1.8,1.6h-0.2L921,77c0-0.1-1.7-5.3,2.5-8.2
						h0.1h2.3h0.1c4.2,2.9,2.5,8.1,2.5,8.2l-0.1,0.2h-0.2c-0.8-0.1-1.4-0.8-1.8-1.6c0,2.6-1.4,4.2-1.5,4.3L924.8,80.1z M923.9,73.8
						c-0.7,2.9,0.4,4.8,0.9,5.5c0.5-0.7,1.6-2.7,0.9-5.5c0-0.1-0.1-0.2-0.1-0.2l0.5-0.1c0,0.1,0,0.2,0.1,0.3c0.3,0.9,0.9,2.6,1.9,3
						c0.3-1,1.1-4.9-2.3-7.3h-2c-3.4,2.3-2.6,6.3-2.3,7.3c1-0.4,1.7-2.1,1.9-3c0-0.1,0-0.2,0.1-0.3l0.5,0.1
						C924,73.4,924,73.6,923.9,73.8z"/>
				</g>
			</g>
			<g>
				<g>
					<path class="st3" d="M942.8,56.5c2.7-4.3,7.5-2.5,7.5-2.5c-0.3,1.8-3.3,2.5-3.3,2.5c3.7-1.1,5.9,1.1,5.9,1.1s-2.3,2.3-5.9,1.1
						c0,0,3,0.8,3.3,2.5c0,0-4.8,1.8-7.5-2.5V56.5z"/>
				</g>
				<g>
					<path class="st3" d="M947.9,62c-1.7,0-3.9-0.6-5.4-3v-0.1v-2.4v-0.1c2.7-4.5,7.7-2.7,7.8-2.7l0.2,0.1V54
						c-0.1,0.8-0.8,1.5-1.5,1.9l0,0c2.5,0,4,1.5,4.1,1.5l0.2,0.2l-0.2,0.2c-0.1,0.1-1.6,1.5-4.1,1.5l0,0c0.7,0.4,1.4,1.1,1.5,1.9
						v0.2l-0.2,0.1C950.3,61.5,949.3,62,947.9,62z M943.1,58.8c2.2,3.6,6,2.7,6.9,2.4c-0.4-1.2-2.3-1.9-2.9-2.1
						c-0.1,0-0.1,0-0.2-0.1l0.1-0.5c0,0,0.1,0,0.2,0.1c2.7,0.7,4.6-0.5,5.2-1c-0.6-0.5-2.5-1.7-5.2-1c-0.1,0-0.2,0.1-0.2,0.1
						l-0.1-0.5c0.1,0,0.1,0,0.2-0.1c0.6-0.2,2.5-0.9,2.9-2.1c-0.9-0.3-4.7-1.1-6.9,2.4V58.8z"/>
				</g>
			</g>
		</g>
		<g>
			<g>
				<g>
					<path class="st3" d="M878.6,57.8c0,0-2,6-4.7,5.6c0,0-4.1,2.4-4.4-1.7c0,0-4.6-0.2-2.5-3.9c-2.1-3.6,2.5-3.9,2.5-3.9
						c0.2-4.1,4.4-1.7,4.4-1.7C876.6,51.7,878.6,57.8,878.6,57.8z"/>
				</g>
				<g>
					<path class="st3" d="M871.5,64.2c-0.4,0-0.8-0.1-1.1-0.3c-0.7-0.4-1.1-1.1-1.2-2.2c-0.6-0.1-2.2-0.4-2.9-1.5
						c-0.4-0.7-0.3-1.6,0.3-2.6c-0.6-1-0.6-1.9-0.3-2.6c0.6-1.1,2.2-1.4,2.9-1.5c0.1-1.1,0.5-1.8,1.2-2.2c1.3-0.7,3.1,0.2,3.5,0.4
						c2.9-0.4,4.8,5.5,4.9,5.7v0.1v0.1c-0.1,0.3-2,6.1-4.9,5.7C873.6,63.8,872.6,64.2,871.5,64.2z M871.5,51.8
						c-0.3,0-0.6,0.1-0.9,0.2c-0.5,0.3-0.8,1-0.9,2v0.2h-0.2c0,0-2.1,0.1-2.7,1.2c-0.3,0.6-0.2,1.3,0.3,2.2l0.1,0.1l-0.1,0.1
						c-0.5,0.9-0.6,1.7-0.3,2.2c0.6,1.1,2.6,1.2,2.7,1.2h0.2v0.2c0.1,1,0.4,1.7,0.9,2c1.2,0.6,3.1-0.5,3.1-0.5h0.1h0.1
						c2.3,0.4,4.2-4.6,4.4-5.3c-0.2-0.7-2.1-5.7-4.4-5.3h-0.1h-0.1C873.7,52.3,872.6,51.8,871.5,51.8z"/>
				</g>
			</g>
			<g>
				<g>
					<path class="st3" d="M970.8,57.8c0,0,2,6,4.7,5.6c0,0,4.1,2.4,4.4-1.7c0,0,4.6-0.2,2.5-3.9c2.1-3.6-2.5-3.9-2.5-3.9
						c-0.2-4.1-4.4-1.7-4.4-1.7C972.8,51.7,970.8,57.8,970.8,57.8z"/>
				</g>
				<g>
					<path class="st3" d="M977.9,64.2c-1,0-2.1-0.5-2.4-0.7c-2.9,0.4-4.8-5.5-4.9-5.7v-0.1v-0.1c0.1-0.3,2-6.1,4.9-5.7
						c0.4-0.2,2.2-1.1,3.5-0.4c0.7,0.4,1.1,1.1,1.2,2.2c0.6,0.1,2.2,0.3,2.9,1.5c0.4,0.7,0.3,1.6-0.3,2.6c0.6,1,0.6,1.9,0.3,2.6
						c-0.6,1.1-2.2,1.4-2.9,1.5c-0.1,1.1-0.5,1.8-1.2,2.2C978.6,64.2,978.3,64.2,977.9,64.2z M975.6,63L975.6,63
						c0.1,0.1,2,1.2,3.2,0.5c0.5-0.3,0.8-1,0.9-2v-0.2h0.2c0,0,2.1-0.1,2.7-1.2c0.3-0.6,0.2-1.3-0.3-2.2l-0.1-0.1l0.1-0.1
						c0.5-0.9,0.6-1.7,0.3-2.2c-0.6-1.1-2.6-1.2-2.7-1.2h-0.2V54c-0.1-1-0.4-1.7-0.9-2c-1.1-0.6-3.1,0.5-3.1,0.5h-0.1h-0.1
						c-2.3-0.4-4.2,4.6-4.4,5.3C971.3,58.5,973.1,63.5,975.6,63L975.6,63z"/>
				</g>
			</g>
		</g>
		<g>
			<g>
				<g>
					<g>
						<path class="st3" d="M861,52.2c0,0-2.1-4.6,3.7-5.3l2.5,5.6L861,52.2z"/>
					</g>
				</g>
				<g>
					<g>
						<path class="st3" d="M871.1,49.2c0,0-0.2-3.9,0.7-5.3c0.9-1.5-5.3-2.1-5.3,1.2C866.5,46.5,871.1,49.2,871.1,49.2z"/>
					</g>
				</g>
				<g>
					<g>
						<path class="st3" d="M861,63.2c0,0-2.1,4.6,3.7,5.3l2.5-5.6L861,63.2z"/>
					</g>
					<g>
						<path class="st3" d="M864.8,68.8h-0.2c-1.9-0.2-3.2-0.9-3.9-2.1c-0.9-1.6-0.1-3.5,0-3.6l0.1-0.1l6.8-0.3L864.8,68.8z
							 M861.2,63.5c-0.2,0.4-0.6,1.8,0.1,3c0.5,0.9,1.6,1.6,3.3,1.8l2.3-5L861.2,63.5z"/>
					</g>
				</g>
				<g>
					<g>
						<path class="st3" d="M871.1,66.2c0,0-0.2,3.9,0.7,5.3c0.9,1.5-5.3,2.1-5.3-1.2C866.5,68.8,871.1,66.2,871.1,66.2z"/>
					</g>
					<g>
						<path class="st3" d="M869.8,72.9c-0.6,0-1.1-0.1-1.7-0.3c-1.2-0.4-1.9-1.3-1.9-2.4c0-1.6,4.2-4.1,4.7-4.3l0.4-0.2v0.5
							c0,0-0.2,3.8,0.6,5.2c0.2,0.3,0.2,0.6,0,0.9C871.6,72.7,870.7,72.9,869.8,72.9z M870.8,66.7c-1.7,1-4.1,2.8-4.1,3.7
							c0,1.1,0.8,1.7,1.5,1.9c1.3,0.5,3,0.2,3.3-0.3c0.1-0.1,0.1-0.1,0-0.3C870.8,70.4,870.8,67.8,870.8,66.7z"/>
					</g>
				</g>
				<g>
					<g>
						<path class="st3" d="M865.8,57.8l-4.5,3c-1.4-0.5-3.8-1.1-4.5-3c0.7-1.9,3.3-2.4,4.7-2.9L865.8,57.8z"/>
					</g>
					<g>
						<path class="st3" d="M861.4,61l-0.6-0.2c-1.4-0.5-3.5-1.2-4.2-3v-0.1v-0.1c0.6-1.7,2.6-2.3,4.1-2.8c0.3-0.1,0.5-0.2,0.8-0.2
							h0.1l4.7,3.1L861.4,61z M857.1,57.8c0.6,1.6,2.5,2.2,3.8,2.6c0.1,0,0.2,0.1,0.3,0.1l4.1-2.8l-3.9-2.6
							c-0.2,0.1-0.4,0.1-0.7,0.2C859.5,55.8,857.7,56.2,857.1,57.8z"/>
					</g>
				</g>
			</g>
			<g>
				<g>
					<g>
						<path class="st3" d="M988.4,52.2c0,0,2.1-4.6-3.7-5.3l-2.5,5.6L988.4,52.2z"/>
					</g>
					<g>
						<path class="st3" d="M981.8,52.7l2.8-6.1h0.2c1.9,0.2,3.2,0.9,3.9,2.1c0.9,1.6,0.1,3.5,0,3.6l-0.1,0.1L981.8,52.7z
							 M984.9,47.2l-2.3,5l5.6-0.2c0.2-0.4,0.6-1.8-0.1-3C987.6,48,986.5,47.3,984.9,47.2z"/>
					</g>
				</g>
				<g>
					<g>
						<path class="st3" d="M978.3,49.2c0,0,0.2-3.9-0.7-5.3c-0.9-1.5,5.3-2.1,5.3,1.2C982.9,46.5,978.3,49.2,978.3,49.2z"/>
					</g>
					<g>
						<path class="st3" d="M978,49.8v-0.5c0,0,0.2-3.8-0.6-5.2c-0.2-0.3-0.2-0.6,0-0.9c0.6-0.7,2.5-0.9,3.9-0.4
							c1.2,0.4,1.9,1.3,1.9,2.4c0,1.6-4.2,4.1-4.7,4.3L978,49.8z M979.6,43c-0.9,0-1.6,0.2-1.8,0.5c-0.1,0.1-0.1,0.1,0,0.3
							c0.8,1.2,0.8,3.9,0.7,5c1.7-1,4.1-2.8,4.1-3.7c0-1.1-0.8-1.7-1.5-1.9C980.6,43,980.1,43,979.6,43z"/>
					</g>
				</g>
				<g>
					<g>
						<path class="st3" d="M988.4,63.2c0,0,2.1,4.6-3.7,5.3l-2.5-5.6L988.4,63.2z"/>
					</g>
					<g>
						<path class="st3" d="M984.6,68.8l-2.8-6.1l6.8,0.3l0.1,0.1c0,0.1,0.9,2,0,3.6c-0.6,1.1-1.9,1.8-3.9,2.1H984.6z M982.6,63.3
							l2.3,5c1.7-0.2,2.8-0.8,3.3-1.8c0.6-1.2,0.2-2.6,0.1-3L982.6,63.3z"/>
					</g>
				</g>
				<g>
					<g>
						<path class="st3" d="M978.3,66.2c0,0,0.2,3.9-0.7,5.3c-0.9,1.5,5.3,2.1,5.3-1.2C982.9,68.8,978.3,66.2,978.3,66.2z"/>
					</g>
					<path class="st4" d="M979.6,72.9c-1,0-1.9-0.3-2.2-0.7c-0.2-0.3-0.2-0.6,0-0.9c0.9-1.4,0.7-5.1,0.6-5.2v-0.5l0.4,0.2
						c0.5,0.3,4.7,2.8,4.7,4.3c0,1.1-0.7,2-1.9,2.4C980.8,72.8,980.2,72.9,979.6,72.9z M978.6,66.7c0,1.1,0,3.8-0.7,5
						c-0.1,0.1-0.1,0.2,0,0.3c0.3,0.4,2,0.7,3.3,0.3c0.7-0.2,1.5-0.8,1.5-1.9C982.6,69.4,980.3,67.7,978.6,66.7z"/>
				</g>
				<g>
					<g>
						<path class="st3" d="M983.6,57.8l4.5,3c1.4-0.5,3.8-1.1,4.5-3c-0.7-1.9-3.3-2.4-4.7-2.9L983.6,57.8z"/>
					</g>
					<g>
						<path class="st3" d="M988,61l-4.9-3.3l4.7-3.1h0.1c0.2,0.1,0.5,0.2,0.8,0.2c1.5,0.4,3.4,1,4.1,2.8v0.1v0.1
							c-0.7,1.9-2.8,2.6-4.2,3L988,61z M984,57.8l4.1,2.8c0.1,0,0.2-0.1,0.3-0.1c1.4-0.5,3.2-1.1,3.8-2.6c-0.6-1.4-2.4-2-3.7-2.4
							c-0.2-0.1-0.5-0.1-0.7-0.2L984,57.8z"/>
					</g>
				</g>
			</g>
		</g>
	</g>
	<g>
		<g>
			<path class="st1" d="M1071.5,23.5c-0.7,0-5.9,1.8-6.3,8.8c0,0-9.7-1.1-9.7,9.1c0,2.3,3,2.9,4.1,5c1.5,2.8-2.4,5.8-4.5,3.4
				c-1.5-1.7-2.3-7.1-5.6-7.1c-3.3,0-7,2.9-6.6,9c0,0-5.6,1.3-8,6.5c2.3,5.2,8,6.5,8,6.5c-0.5,6.1,3.2,9,6.6,9
				c3.3,0,4.1-5.4,5.6-7.1c2.2-2.4,6,0.6,4.5,3.4c-1.1,2.1-4.1,2.7-4.1,5c0,10.2,9.7,9.1,9.7,9.1c1.1,6.9,6.3,6.8,6.3,6.8"/>
			<g>
				<path class="st3" d="M1071.5,91.3c-0.3,0-5.4-0.1-6.7-6.8c-1.2,0.1-4.6,0-7-2.3c-1.8-1.7-2.8-4.1-2.8-7.4c0-1.6,1.1-2.5,2.3-3.3
					c0.7-0.6,1.5-1.1,1.9-1.9c0.6-1.2,0.1-2.3-0.8-3c-0.8-0.6-2-0.8-2.9,0.2c-0.4,0.5-0.8,1.4-1.3,2.4c-0.9,2.2-2.1,4.9-4.7,4.9
					c-1.9,0-3.7-0.8-5-2.2c-1.1-1.2-2.3-3.3-2.1-6.9c-1.4-0.4-5.8-2.1-7.9-6.7l-0.1-0.2l0.1-0.2c2.1-4.6,6.5-6.3,7.9-6.7
					c-0.2-3.5,1.1-5.7,2.1-6.9c1.3-1.4,3.1-2.2,5-2.2c2.6,0,3.8,2.7,4.7,4.9c0.4,1,0.8,1.9,1.3,2.4c0.9,1,2.2,0.8,2.9,0.2
					c0.9-0.6,1.4-1.8,0.8-3c-0.4-0.8-1.2-1.4-1.9-1.9c-1.1-0.9-2.3-1.7-2.3-3.3c0-3.2,0.9-5.7,2.8-7.4c2.4-2.2,5.7-2.3,7-2.3
					c0.6-7,6-8.8,6.7-8.8v1c-0.7,0-5.4,1.8-5.7,8.3v0.5l-0.5-0.1c0,0-4-0.4-6.7,2c-1.6,1.5-2.4,3.7-2.4,6.6c0,1.1,0.9,1.7,1.9,2.5
					c0.8,0.6,1.6,1.3,2.2,2.2c0.9,1.7,0.1,3.5-1.1,4.3c-1.2,0.9-3,1.1-4.3-0.3c-0.6-0.6-1-1.6-1.5-2.7c-0.9-2-1.9-4.3-3.8-4.3
					c-1.6,0-3.1,0.7-4.2,1.9c-1,1.1-2.1,3.1-1.8,6.5v0.4l-0.4,0.1c-0.1,0-5.3,1.3-7.5,6c2.3,4.8,7.5,6,7.5,6l0.4,0.1v0.4
					c-0.3,3.4,0.9,5.4,1.8,6.5c1.1,1.2,2.6,1.9,4.2,1.9c1.9,0,2.9-2.3,3.8-4.3c0.5-1.1,0.9-2.1,1.5-2.7c1.3-1.4,3.1-1.2,4.3-0.3
					c1.2,0.9,2,2.6,1.1,4.3c-0.5,1-1.4,1.6-2.2,2.2c-1,0.8-1.9,1.4-1.9,2.5c0,2.9,0.8,5.1,2.4,6.6c2.7,2.4,6.7,2,6.7,2l0.5-0.1
					l0.1,0.5c1,6.4,5.5,6.4,5.7,6.4L1071.5,91.3L1071.5,91.3z"/>
			</g>
		</g>
		<g>
			<g>
				<g>
					<path class="st3" d="M1053.6,56.5c21.3-5.7,11.7-23.9,11.7-23.9l0.4-2.3c0,0,12.5,21.7-12.2,27.9L1053.6,56.5L1053.6,56.5z"/>
				</g>
			</g>
			<g>
				<g>
					<path class="st3" d="M1053.6,59.8c21.3,5.7,11.8,23.9,11.8,23.9l0.6,2.5c0,0,12.3-21.7-12.4-28V59.8z"/>
				</g>
			</g>
		</g>
		<g>
			<g>
				<g>
					<path class="st3" d="M1053.9,54.5c0-1.1,0-1.7-1.1-1.7s-0.9,0.6-0.9,1.7v7.1c0,1.1-0.2,1.7,0.9,1.7s1.1-0.6,1.1-1.7V54.5z"/>
				</g>
			</g>
		</g>
		<g>
			<g>
				<g>
					<path class="st3" d="M1051.9,56.7c-2.6-5.4-7.2-3.2-7.2-3.2c0.3,2.2,3.2,3.2,3.2,3.2c-3.5-1.4-5.7,1.4-5.7,1.4s2.2,2.8,5.7,1.4
						c0,0-2.9,1-3.2,3.2c0,0,4.7,2.3,7.2-3.2V56.7z"/>
				</g>
				<g>
					<path class="st3" d="M1047,63.3c-1.3,0-2.3-0.5-2.4-0.5l-0.2-0.1v-0.2c0.1-1.1,0.9-1.9,1.7-2.5c-2.6,0.1-4.1-1.9-4.1-1.9
						l-0.1-0.2l0.1-0.2c0,0,1.6-2,4.1-1.9c-0.8-0.6-1.5-1.4-1.7-2.5v-0.2l0.2-0.1c0,0,4.9-2.3,7.6,3.3v0.1v3
						C1050.7,62.7,1048.6,63.3,1047,63.3z M1045,62.5c0.9,0.3,4.5,1.5,6.7-3.1v-2.7c-2.2-4.5-5.8-3.4-6.7-3.1
						c0.3,1.6,2.2,2.5,2.8,2.7c0.1,0,0.1,0,0.2,0.1l-0.2,0.5c0,0-0.1,0-0.2-0.1c-2.7-1-4.6,0.7-5.1,1.3c0.5,0.6,2.3,2.2,5.1,1.3
						c0.1-0.1,0.2-0.1,0.2-0.1l0.2,0.5c-0.1,0-0.1,0.1-0.2,0.1C1047.2,60,1045.3,61,1045,62.5z"/>
				</g>
			</g>
			<g>
				<g>
					<path class="st3" d="M1069.9,44.2c-5.2-2.7-4.4-7.6-4.4-7.6c2.1,0.3,3,3.4,3,3.4c-1.3-3.7,1.4-6,1.4-6V44.2z"/>
				</g>
			</g>
			<g>
				<g>
					<path class="st3" d="M1069.9,72.9c-5.2,2.7-4.5,7.6-4.5,7.6c2.1-0.3,3-3.4,3-3.4c-1.3,3.7,1.4,6.1,1.4,6.1L1069.9,72.9z"/>
				</g>
			</g>
		</g>
	</g>
	<g>
		<g>
			<ellipse class="st3" cx="9.1" cy="90.7" rx="1.5" ry="1.6"/>
		</g>
		<g>
			<path class="st3" d="M9.1,92.8c-1.1,0-2.1-1-2.1-2.1c0-1.2,0.9-2.1,2.1-2.1s2.1,1,2.1,2.1S10.3,92.8,9.1,92.8z M9.1,89.6
				c-0.6,0-1,0.5-1,1.1s0.5,1.1,1,1.1c0.6,0,1-0.5,1-1.1C10.2,90.1,9.7,89.6,9.1,89.6z"/>
		</g>
	</g>
	<g>
		<g>
			<ellipse class="st3" cx="9.3" cy="24" rx="1.5" ry="1.6"/>
		</g>
		<g>
			<path class="st3" d="M9.3,26.1c-1.1,0-2.1-1-2.1-2.1s0.9-2.1,2.1-2.1s2.1,1,2.1,2.1S10.4,26.1,9.3,26.1z M9.3,23
				c-0.6,0-1,0.5-1,1.1s0.5,1.1,1,1.1c0.6,0,1-0.5,1-1.1S9.9,23,9.3,23z"/>
		</g>
	</g>
	<g>
		<g>
			<ellipse class="st3" cx="1070.1" cy="90.6" rx="1.5" ry="1.6"/>
		</g>
		<g>
			<path class="st3" d="M1070.1,92.7c-1.1,0-2.1-1-2.1-2.1c0-1.2,0.9-2.1,2.1-2.1s2.1,1,2.1,2.1
				C1072.2,91.8,1071.3,92.7,1070.1,92.7z M1070.1,89.4c-0.6,0-1,0.5-1,1.1s0.5,1.1,1,1.1c0.6,0,1-0.5,1-1.1
				C1071.2,89.9,1070.7,89.4,1070.1,89.4z"/>
		</g>
	</g>
	<g>
		<g>
			<ellipse class="st3" cx="1070.3" cy="24" rx="1.5" ry="1.6"/>
		</g>
		<g>
			<path class="st3" d="M1070.3,26c-1.1,0-2.1-1-2.1-2.1s0.9-2.1,2.1-2.1s2.1,1,2.1,2.1S1071.4,26,1070.3,26z M1070.3,22.8
				c-0.6,0-1,0.5-1,1.1s0.5,1.1,1,1.1c0.5,0,1-0.5,1-1.1S1070.9,22.8,1070.3,22.8z"/>
		</g>
	</g>
</g>
</svg>
